<svg width="81" height="79" viewBox="0 0 81 79" fill="none" xmlns="http://www.w3.org/2000/svg">
<path d="M4.61505 28.072C3.22105 31.672 3.00806 34.987 2.58206 38.262C2.47606 39.081 2.38307 39.905 2.23807 40.717C1.90607 42.571 1.77907 44.408 2.45907 46.225C2.63007 46.683 2.67306 47.109 2.16806 47.504C1.90406 47.71 1.78907 48.207 1.75607 48.586C1.68507 49.41 1.69505 50.242 1.69705 51.071C1.70205 53.559 1.74105 56.047 1.71805 58.534C1.71105 59.341 1.87705 60.008 2.46405 60.595C2.94205 61.073 3.32905 61.64 3.87005 62.306C3.37505 62.447 3.03506 62.543 2.64206 62.655C2.97406 64.476 4.08606 65.775 5.44906 66.855C6.41606 67.621 7.54205 68.184 8.53805 68.918C9.84905 69.884 11.3211 70.307 12.8871 70.693C14.5001 71.092 16.0221 71.09 17.5731 70.68C18.2281 70.507 18.8281 70.13 19.4781 69.925C19.7301 69.846 20.0521 69.986 20.6971 70.075C19.6711 70.892 18.9031 71.417 17.9531 71.616C14.7931 72.274 11.7771 71.941 8.96905 70.263C7.96205 69.663 6.96507 69.045 5.95907 68.444C2.58307 66.422 0.992068 63.323 0.885068 59.512C0.776068 55.648 0.778061 51.768 0.996061 47.91C1.16306 44.959 1.11306 41.984 1.71606 39.051C2.06106 37.37 2.02106 35.615 2.25906 33.906C2.44806 32.546 2.73706 31.192 3.08706 29.863C3.96906 26.523 5.10706 23.264 6.44806 20.083C7.36206 17.914 8.45406 15.849 10.0001 14.035C11.4281 12.36 12.741 10.588 14.166 8.90997C14.742 8.23097 15.4881 7.69896 16.1421 7.08496C18.3521 5.01096 20.631 3.02096 23.003 1.13196C24.25 0.138959 25.5891 -0.184041 27.0721 0.213959C29.4691 0.858959 31.9081 1.46297 33.5041 3.63397C33.5841 3.74397 33.684 3.84997 33.796 3.92597C36.148 5.52897 36.9521 8.01296 37.5661 10.593C37.9821 12.345 38.1041 14.115 38.0521 15.93C37.9761 18.612 38.1141 21.3 38.1381 23.986C38.1431 24.535 38.0321 25.085 38.0131 25.635C37.9901 26.31 38.007 26.987 38.007 27.628C38.212 27.677 38.2991 27.728 38.3441 27.703C40.2101 26.69 42.148 25.81 43.701 24.28C44.623 23.373 45.5101 22.39 46.7551 21.849C47.0961 21.701 47.3441 21.302 47.5941 20.985C49.0431 19.142 50.3411 17.157 51.9561 15.474C54.1961 13.14 56.452 10.787 59.162 8.95798C59.219 8.91898 59.281 8.88897 59.343 8.85797C60.188 8.41697 60.659 7.53797 61.688 7.23297C64.216 6.48397 66.7291 5.78096 69.3981 5.92096C71.0461 6.00896 72.4621 6.68198 73.7161 7.71298C74.4081 8.28098 75.059 8.89998 75.744 9.47498C77.203 10.701 78.3611 12.103 78.7301 14.053C78.8421 14.647 79.1451 15.209 79.3891 15.774C80.0221 17.236 80.5891 18.712 80.5691 20.342C80.5661 20.617 80.562 20.896 80.597 21.168C80.979 24.12 80.4751 26.968 79.4031 29.695C78.2891 32.532 77.4551 35.451 76.6961 38.388C76.2141 40.252 75.9151 42.172 75.6521 44.083C75.3441 46.316 74.4561 48.324 73.4281 50.278C72.7751 51.519 72.344 52.781 72.188 54.187C72.021 55.69 71.7361 57.193 71.3411 58.652C70.9261 60.188 70.204 61.567 68.968 62.688C65.332 65.984 61.682 69.248 57.516 71.887C55.99 72.855 54.407 73.693 52.718 74.311C49.937 75.33 47.147 76.334 44.326 77.239C42.353 77.871 40.317 78.289 38.218 78.151C36.407 78.032 34.6301 78.261 32.8791 78.676C31.0971 79.1 29.3021 79.036 27.5161 78.859C25.6381 78.672 24.1761 77.622 22.9631 76.24C22.7181 75.961 22.6011 75.497 22.5781 75.109C22.5101 73.909 22.1751 72.786 21.6291 71.741C20.9151 70.373 20.7741 68.85 20.3581 67.339C19.7681 67.283 19.1871 67.23 18.5751 67.173C18.6601 66.952 18.6761 66.76 18.7561 66.728C19.2581 66.525 19.7751 66.357 20.2641 66.184C20.1341 63.465 20.0061 60.792 19.8791 58.133C19.1381 57.518 17.9861 57.9 17.4321 56.848C18.2711 56.403 18.978 57.225 19.895 56.994C20.373 56.294 20.2661 55.468 19.9131 54.568C19.0561 54.358 18.2491 54.465 17.4481 54.693C15.0851 55.369 12.9571 55 11.0551 53.367C10.4861 52.879 9.82107 52.432 9.12207 52.179C7.44807 51.569 6.39505 50.339 5.55105 48.879C5.10205 48.104 4.75504 47.28 4.04104 46.676C3.52504 46.238 3.52604 45.585 3.48504 44.955C3.30204 42.112 3.53705 39.3 4.01605 36.498C4.15505 35.689 4.19206 34.861 4.25906 34.041C4.38306 32.532 4.49907 31.022 4.60907 29.512C4.63607 29.181 4.61505 28.843 4.61505 28.072ZM34.921 31.221C35.787 31.137 36.0891 30.513 36.1011 29.794C36.1391 27.272 36.1161 24.748 36.1161 22.225C35.6321 23.756 34.2671 24.71 33.4931 26.191C34.7751 26.716 35.5931 27.567 35.7251 28.831C35.4541 29.697 35.2081 30.478 34.9631 31.261C34.2941 31.597 33.6241 31.934 32.8661 32.315C33.0731 32.739 33.2431 33.094 33.4261 33.445C33.4391 33.469 33.5381 33.448 33.7071 33.448C34.0461 32.71 34.974 32.257 34.921 31.221ZM7.19607 35.405C6.87307 34.989 6.55005 34.574 6.22705 34.158C6.11505 34.558 6.14905 34.929 6.35205 35.106C6.56205 35.288 6.93705 35.28 7.24005 35.355C8.29005 36.456 8.62606 36.472 10.4661 35.474C10.5111 34.903 10.5331 34.286 10.6161 33.678C10.7131 32.963 10.3761 32.504 9.83807 32.114C9.30307 31.727 8.71307 31.621 8.07507 31.686C7.41007 31.753 6.90506 32.05 6.63006 32.65C6.93806 33.364 7.26705 34.043 7.50705 34.754C7.56105 34.918 7.30807 35.185 7.19607 35.405ZM30.8311 5.54297C30.6951 6.19897 30.5411 6.85298 30.4331 7.51398C30.3801 7.83498 30.3671 8.19898 30.9621 8.22098C31.2771 7.60598 31.6081 6.96398 31.9071 6.38098C31.6621 5.80898 31.368 5.47996 30.791 5.58096C29.258 4.10796 27.2601 3.96797 25.2631 3.55597C25.1301 3.95997 25.0111 4.27496 24.9281 4.59796C24.8281 4.98096 24.7591 5.37196 24.6561 5.86496C26.1871 6.43296 27.2121 7.85497 29.0881 7.80997C29.3331 7.29897 29.6061 6.75696 29.8571 6.20596C30.0501 5.77996 30.4061 5.61797 30.8311 5.54297ZM31.6801 38.706C30.7251 39.012 30.4841 39.793 30.4881 40.651C30.4931 41.579 30.4251 42.583 31.6271 43.273C32.1531 42.192 32.6361 41.136 33.7621 40.589C34.8461 40.064 35.8541 39.383 36.9991 38.71C36.7771 38.382 36.652 38.04 36.408 37.864C35.77 37.406 34.9861 37.185 34.2581 37.436C33.3371 37.753 32.134 37.589 31.628 38.752L31.6801 38.706ZM28.3441 54.115C26.2881 53.064 24.7181 51.443 23.2421 49.612C21.9971 50.909 21.556 52.423 21.36 53.996C21.147 55.704 21.092 57.432 20.942 59.148C20.723 61.649 21.1961 64.108 21.4401 66.572C21.6231 68.412 22.0011 70.242 22.8231 71.964C23.1961 72.745 23.1971 73.7 23.3851 74.573C23.4701 74.968 23.4801 75.473 23.7291 75.725C24.8521 76.856 26.0391 77.979 27.7621 78.027C29.2631 78.068 30.7971 78.393 32.2521 77.665C32.5421 77.519 32.9231 77.53 33.2651 77.517C34.9891 77.445 36.7121 77.387 38.4361 77.326C39.0561 77.305 39.6831 77.341 40.2951 77.259C42.5561 76.957 44.7691 76.443 46.8841 75.573C47.7091 75.233 48.5021 74.813 49.3101 74.43C49.4281 73.487 50.286 73.206 50.847 72.649C51.081 72.416 51.0551 71.92 51.1341 71.599C52.5621 70.916 53.982 70.23 55.412 69.568C55.536 69.51 55.7331 69.613 56.1171 69.678C55.5991 70.023 55.2731 70.267 54.9231 70.469C54.1471 70.918 53.3581 71.348 52.5731 71.785C51.9241 72.146 51.6031 72.665 51.6731 73.574C53.2651 73.347 54.5931 72.719 55.7781 71.984C58.5911 70.242 61.2441 68.256 63.7281 66.059C65.0701 64.873 66.4041 63.676 67.7511 62.496C69.2431 61.188 70.402 59.688 70.679 57.646C70.818 56.622 71.0341 55.606 71.1271 54.579C71.2781 52.905 71.7911 51.38 72.5611 49.879C73.6931 47.672 74.6961 45.399 74.9351 42.866C75.0321 41.844 75.3211 40.842 75.4841 39.824C75.5671 39.313 75.5631 38.788 75.6271 37.865C74.3741 39.154 73.5211 40.291 72.3551 41.111C72.2531 40.928 72.1841 40.839 72.1991 40.823C73.2321 39.634 74.2721 38.449 75.3121 37.265C76.1801 37.265 76.2071 36.52 76.3841 35.977C76.9411 34.276 77.4331 32.554 77.9691 30.846C78.3411 29.661 78.7741 28.494 79.1201 27.303C79.3051 26.673 79.6241 26.014 79.1811 25.289C78.9971 25.413 78.7821 25.486 78.6831 25.637C77.8061 26.971 76.7661 28.149 75.5811 29.226C74.9301 29.818 74.407 30.576 73.925 31.324C72.904 32.906 71.6951 34.311 70.2341 35.492C68.5511 36.85 67.1911 38.509 65.9501 40.246C64.7331 41.95 63.3421 43.472 61.7281 44.778C59.2611 46.776 56.757 48.728 54.011 50.346C51.256 51.969 48.211 52.904 45.257 54.046C44.11 54.49 42.8701 54.698 41.6721 55.013C41.1401 55.153 40.6091 55.3 40.0731 55.43C37.5931 56.034 35.1291 55.597 32.6731 55.252C32.3341 55.204 32.0481 54.782 31.7371 54.533C32.6381 54.956 33.6 54.978 34.563 54.925C34.78 54.913 34.9861 54.729 35.4791 54.484C33.6021 53.705 32.3151 52.63 31.2941 51.262C30.4791 51.347 29.742 51.423 28.951 51.506C28.736 52.198 28.5201 52.844 28.3411 53.5C28.2901 53.691 28.3411 53.909 28.3441 54.115ZM66.6551 37.49C67.2301 36.963 67.585 36.649 67.925 36.322C68.473 35.797 68.959 35.192 69.563 34.745C71.617 33.225 73.0681 31.261 74.0821 28.937C74.7431 27.419 75.5011 25.941 76.1071 24.403C76.5331 23.324 76.867 22.199 76.438 20.991C76.233 20.415 76.1481 19.774 76.1311 19.16C76.0941 17.782 75.5421 16.63 74.7491 15.552C74.5041 15.219 74.2701 14.87 74.0871 14.501C73.3061 12.94 72.0311 11.937 70.4821 11.225C69.9851 10.996 69.3941 10.826 69.0481 10.445C68.4261 9.76198 67.6411 9.62697 66.8331 9.46097C65.9561 9.27997 65.0781 9.10097 64.1991 8.92597C62.7911 8.64497 61.4561 8.75396 60.2541 9.64096C59.6441 10.091 58.9781 10.472 58.3921 10.95C54.6351 14.016 51.2161 17.383 48.5181 21.465C47.2071 23.446 46.1541 25.51 45.4401 27.756C45.3271 28.11 45.386 28.52 45.369 28.858C46.332 28.921 47.1771 28.837 47.9241 29.067C48.6881 29.303 49.356 29.85 50.231 30.357C50.909 29.236 51.9741 28.643 53.0511 28.015C54.2541 27.315 55.4191 27.635 56.6081 27.887C57.0751 27.245 57.5011 26.703 57.8791 26.13C58.4421 25.276 59.2721 24.805 60.1901 24.461C60.7841 24.238 61.3421 24.547 61.4131 25.169C61.4891 25.853 61.4691 26.547 61.5081 27.236C61.6531 29.731 60.8191 30.521 58.5781 30.291C58.4811 30.281 58.368 30.423 58.188 30.542C58.188 30.765 58.1721 31.036 58.1931 31.305C58.2141 31.575 58.2711 31.841 58.3071 32.079C61.4681 33.357 61.1561 33.428 62.4531 35.951C63.7481 36.458 65.4991 35.889 66.6551 37.49ZM26.4441 34.955C26.9591 33.199 27.6871 31.89 28.9311 30.92C29.4051 30.55 29.5081 30.025 29.6041 29.464C29.7071 28.865 29.7521 28.116 30.1271 27.734C31.2811 26.559 31.6321 25.169 31.6731 23.613C31.6821 23.273 31.8031 22.937 31.8621 22.597C32.1701 20.832 32.5191 19.073 32.7661 17.299C32.9771 15.786 33.0481 14.242 32.2391 12.857C31.6501 11.849 30.9631 10.898 30.2891 9.94296C30.1401 9.73196 29.8791 9.57296 29.6381 9.45996C28.2741 8.81996 26.698 8.67297 25.481 7.68097C25.384 7.60297 25.2191 7.58896 25.0851 7.58096C22.9601 7.46196 21.0501 7.97097 19.8741 9.87097C18.9361 11.387 17.9531 12.891 17.4141 14.638C17.1551 15.48 16.7091 16.292 16.2061 17.021C15.6051 17.892 15.1951 18.816 14.9231 19.822C14.7971 20.289 14.7921 20.886 14.4931 21.187C13.7611 21.924 13.8381 22.792 13.7841 23.682C13.7531 24.211 13.5691 24.732 13.4401 25.323C15.1891 26.621 15.9161 28.39 15.6941 30.432C17.5801 31.864 17.8051 32.22 18.6221 35.029C19.1711 35.278 19.7881 35.557 20.3081 35.793C20.5751 35.724 20.7301 35.722 20.8361 35.649C22.0411 34.823 23.2921 34.493 24.7461 35.011C25.2111 35.175 25.8011 34.986 26.4441 34.955ZM45.5611 44.927C44.4271 44.418 43.4341 43.841 42.7171 42.887C42.4061 42.471 41.9201 42.357 41.4201 42.412C39.8481 42.587 38.7651 43.168 38.2001 44.843C37.5551 46.756 38.245 48.36 40.042 49.363C41.568 48.931 42.9971 48.528 44.3591 48.142C44.7551 47.086 45.1131 46.126 45.5611 44.927ZM27.2201 1.98398C27.6791 2.69798 28.4101 3.16496 29.2551 3.49796C29.8961 3.75196 30.4981 4.10196 31.1271 4.38696C32.2361 4.88996 33.116 5.73198 33.688 6.72498C35.132 9.23098 36.606 11.76 36.636 14.798C36.639 14.991 36.7311 15.185 36.8031 15.461C37.1741 13.778 36.8811 10.912 36.1901 9.16797C35.4681 7.34697 34.325 5.85896 32.947 4.44696C31.049 2.50196 28.7221 1.65496 26.1901 1.12396C25.6331 1.00696 25.1301 1.09896 24.6251 1.44296C22.6301 2.80396 20.6451 4.16997 19.0301 5.99997C18.7131 6.35897 18.3511 6.72697 17.9331 6.93997C16.7971 7.51997 16.0381 8.51996 15.1271 9.34396C14.4141 9.98896 14.4161 10.152 14.3231 11.398C15.0391 10.929 15.7491 10.608 16.2721 10.095C17.7991 8.60297 19.2301 7.01198 20.7411 5.50098C22.5201 3.72498 24.4271 2.14398 27.2201 1.98398ZM56.033 48.065C57.392 46.719 59.2181 45.853 60.7061 44.284C59.9801 43.665 59.2941 43.125 58.6611 42.529C57.1801 41.134 55.0401 41.036 53.5081 42.389C53.1781 42.681 52.9191 43.167 52.8381 43.604C52.6591 44.56 52.7171 45.554 53.2771 46.38C53.8531 47.228 54.547 48.007 56.033 48.065ZM32.5771 24.73C33.6361 24.196 33.765 24.165 33.938 23.76C34.341 22.815 34.7501 21.864 35.0401 20.88C35.2921 20.026 35.345 19.116 35.554 18.247C36.053 16.169 35.8821 14.136 35.1241 12.165C34.5811 10.754 33.9391 9.38098 33.3101 8.00498C33.1911 7.74598 32.9221 7.55597 32.7031 7.31397C32.5321 7.53997 32.4441 7.64597 32.3681 7.75897C31.4791 9.05497 31.4351 10.24 32.6071 11.463C33.5471 12.444 33.8231 13.737 33.8111 15.099C33.7931 17.38 33.5031 19.626 33.0511 21.857C32.8641 22.784 32.6501 23.709 32.5771 24.73ZM51.9951 48.139C51.9621 46.381 51.8011 46.004 50.9091 45.176C49.9091 44.248 48.362 44.161 47.348 45.1C46.808 45.599 46.3521 46.246 46.0301 46.911C45.2701 48.478 45.9841 50.129 47.6141 50.793C49.3641 51.506 51.212 50.889 51.8 49.334C51.989 48.836 51.9771 48.262 51.9951 48.139ZM53.0391 36.012C52.5421 35.886 52.1521 35.775 51.7561 35.691C49.5261 35.217 49.4621 35.275 47.9671 37.088C47.1941 38.024 47.2491 38.993 47.7241 39.953C48.2241 40.967 49.055 41.889 50.201 41.866C51.328 41.844 52.494 41.392 53.283 40.451C53.777 39.861 54.015 39.174 53.692 38.353C53.419 37.658 53.2821 36.909 53.0391 36.012ZM42.1951 41.018C42.6561 39.462 43.6131 38.343 44.8761 37.542C44.0561 35.441 43.054 34.88 40.929 34.89C38.749 34.901 37.354 37.792 38.417 39.431C39.401 40.949 39.9451 41.301 42.1951 41.018ZM50.6561 34.138C50.4731 33.453 50.4141 33.037 50.2541 32.666C49.4191 30.74 47.7071 29.186 45.1641 30.505C44.7991 30.694 44.4221 30.862 44.0701 31.074C43.4951 31.422 43.2501 31.948 43.2371 32.624C43.2221 33.362 43.4521 33.973 44.0271 34.435C44.9381 35.167 45.6221 36.061 45.9691 37.343C47.3721 35.955 48.3711 34.262 50.6561 34.138ZM10.74 36.981C9.58805 36.981 8.68306 37.104 7.83206 36.947C6.98406 36.79 6.18906 36.349 5.26706 35.994C5.09706 36.59 4.93405 37.037 4.84805 37.499C4.76005 37.969 4.71405 38.452 4.70605 38.93C4.67105 41.188 6.45405 42.981 8.72305 42.932C9.08505 42.924 9.44205 42.668 9.96405 42.463C9.24305 40.488 10.237 38.81 10.74 36.981ZM57.4261 39.695C57.6551 39.637 58.0681 39.578 58.4461 39.429C59.7911 38.904 60.3631 37.797 60.7691 36.481C61.0851 35.459 60.8091 34.756 60.0621 34.117C59.3971 33.549 58.636 33.324 57.77 33.397C55.909 33.555 55.002 34.883 54.589 36.457C54.193 37.971 55.7201 39.719 57.4261 39.695ZM38.9841 41.972C38.8391 41.721 38.8171 41.649 38.7691 41.604C38.6201 41.463 38.459 41.334 38.304 41.199C37.012 40.072 36.4471 40.028 35.0491 40.951C34.8201 41.102 34.6021 41.27 34.3801 41.431C32.8971 42.504 32.48 44.143 33.24 45.761C33.622 46.572 34.3321 46.978 35.0781 47.33C35.6701 47.61 36.2721 47.594 36.9111 47.045C36.8561 45.148 37.2141 43.299 38.9841 41.972ZM29.4201 39.649C29.2991 39.642 29.1781 39.636 29.0571 39.629C27.5191 42.213 25.9741 44.793 24.4461 47.383C24.0301 48.088 24.0341 48.81 24.4701 49.528C24.7541 49.995 25.027 50.473 25.248 50.971C25.658 51.894 26.398 52.218 27.27 52.326C28.006 51.431 28.107 50.644 27.343 49.851C27.25 49.754 27.1981 49.618 27.1341 49.496C26.5491 48.396 26.5831 47.247 26.9111 46.092C27.2231 44.994 28.0141 44.404 29.0771 44.101C29.3241 44.03 29.5411 43.849 29.7671 43.722C29.6771 42.984 29.577 42.316 29.52 41.643C29.463 40.981 29.4511 40.315 29.4201 39.649ZM32.4431 50.386C32.8381 51.78 33.791 52.442 34.856 52.95C36.179 53.58 37.4041 53.271 38.4841 52.361C39.3411 51.639 39.3821 50.503 38.6521 49.636C37.8761 48.717 37.0371 48.027 35.6871 48.219C35.1211 48.3 34.5081 48.064 33.9571 47.977C33.4301 48.817 32.9611 49.563 32.4431 50.386ZM58.9001 40.375C58.9571 41.529 59.798 41.923 60.339 42.501C60.682 42.867 61.242 43.03 61.628 43.243C63.597 41.99 65.1681 40.079 66.0041 37.968C64.9351 37.029 63.6241 37.068 62.3271 37.163C62.0411 37.185 61.6741 37.462 61.5231 37.725C60.8931 38.827 59.9711 39.63 58.9001 40.375ZM8.21405 47.321C8.31205 48.193 8.69005 48.767 9.16305 49.243C9.43405 49.514 9.85307 49.737 10.2301 49.785C11.4621 49.939 13.2891 48.76 13.6801 47.58C13.9901 46.643 13.8261 45.797 12.8501 45.325C12.0001 44.915 11.2481 44.303 10.3931 43.74C9.30506 43.866 8.25907 44.098 8.20907 45.674C9.10007 46.574 10.0301 47.515 11.0661 48.563C9.73107 48.879 9.15405 47.783 8.21405 47.321ZM53.7731 35.021C54.5281 33.554 55.736 32.804 57.011 32.291C57.187 30.693 56.9681 29.97 56.0351 29.252C55.4461 28.799 54.814 28.284 53.955 28.97C54.223 29.263 54.476 29.538 54.735 29.82C53.995 30.291 53.306 30.73 52.503 31.242C52.415 30.685 52.3521 30.283 52.2761 29.799C51.2801 30.686 51.0511 31.597 51.3851 32.708C51.7281 33.845 52.3721 34.628 53.7731 35.021ZM41.201 54.485C42.159 54.195 43.091 53.947 43.998 53.63C44.975 53.288 45.9361 52.901 46.8841 52.488C47.1411 52.377 47.3241 52.1 47.4931 51.944C46.5941 51.18 45.816 50.516 45.033 49.857C44.572 49.468 44.07 49.344 43.442 49.679C43.384 50.146 43.8221 50.709 43.2561 51.161C42.8541 51.483 42.5371 51.914 42.1861 52.293C41.5821 51.843 41.937 51.398 42.063 50.96C42.181 50.546 42.8851 50.334 42.4661 49.666C41.6881 49.681 41.205 50.18 40.856 50.762C40.506 51.343 40.1051 51.988 40.0581 52.629C40.0101 53.285 40.389 53.957 41.201 54.485ZM12.0681 37.455C10.4951 39.995 10.496 41.425 11.925 43.32C12.353 43.885 12.8651 44.324 13.5611 44.509C14.1701 44.672 14.7791 44.754 15.3661 44.277C15.6051 43.473 15.8541 42.631 16.1211 41.733C15.8561 41.549 15.6601 41.334 15.4191 41.258C14.0921 40.846 13.5701 39.942 13.6781 38.595C13.6931 38.413 13.5541 38.22 13.4761 38.003C13.0321 37.831 12.5941 37.66 12.0681 37.455ZM20.3681 40.815C19.5631 41.127 18.9231 41.37 18.2851 41.622C17.0581 42.104 16.4641 43.328 16.8291 44.606C17.1871 45.856 18.4391 46.591 19.7241 46.294C20.7891 46.047 21.5841 45.397 22.1251 44.485C22.8451 43.274 22.5101 42.087 21.3221 41.357C21.0331 41.18 20.7311 41.022 20.3681 40.815ZM31.6171 45.065C30.6821 44.788 29.8581 44.884 29.1001 45.244C28.6911 45.437 28.2391 45.76 28.0441 46.144C27.4801 47.264 27.5121 48.426 28.2851 49.462C29.1081 50.565 30.3501 51.391 31.6441 49.713C31.8531 49.441 32.164 49.227 32.309 48.929C32.704 48.115 33.0331 47.281 32.4021 46.406C32.1251 46.019 31.9171 45.581 31.6171 45.065ZM17.3271 34.605C17.2941 33.705 16.8771 33.065 16.4191 32.479C15.7831 31.666 14.3501 31.249 13.6651 31.632C12.9351 32.042 12.3311 32.601 11.9581 33.365C11.5661 34.167 11.5621 34.965 12.1441 35.681C12.6081 36.253 13.0191 36.92 13.7131 37.01C14.9591 36.182 16.0861 35.432 17.3271 34.605ZM14.895 45.793C14.802 46.573 14.8031 47.133 14.6551 47.649C14.5071 48.164 14.198 48.63 13.977 49.126C13.715 49.715 13.8401 50.178 14.3411 50.569C15.3631 51.369 16.6001 51.333 17.9691 50.49C19.0771 49.807 19.3191 48.861 19.0001 47.904C17.8721 47.112 16.9501 46.425 15.9781 45.813C15.7531 45.672 15.362 45.793 14.895 45.793ZM22.1031 36.154C21.5511 36.81 21.173 37.195 20.873 37.633C20.391 38.336 20.458 39.04 20.968 39.727C21.49 40.431 22.1131 40.949 23.0441 40.744C23.5711 40.628 24.12 40.452 24.567 40.162C25.358 39.647 25.8561 38.834 25.7041 37.898C25.5661 37.051 25.2391 36.159 24.2341 36.052C23.7771 36.523 23.3811 36.885 23.0421 37.293C22.6851 37.721 22.3801 38.192 22.0581 38.638C21.2501 37.835 22.0291 37.169 22.1031 36.154ZM14.623 29.875C14.895 28.345 14.1481 27.386 13.1031 26.64C11.9001 25.782 10.1961 26.392 9.73706 27.784C9.51406 28.459 9.47505 29.135 9.84405 29.781C10.3091 30.595 10.9421 31.172 11.8611 31.265C12.7831 30.801 13.639 30.37 14.623 29.875ZM19.4011 36.899C17.2931 35.006 14.848 36.829 14.684 38.729C14.624 39.424 14.8301 39.961 15.4361 40.277C16.8271 41.005 18.1681 41.048 19.4011 39.917C19.4011 38.974 19.4011 38.039 19.4011 36.899ZM77.5691 14.231C77.1661 11.843 75.7471 10.542 73.9321 9.56497C72.8661 8.99197 72.6941 9.04097 71.4871 10.237C71.6771 10.416 71.8341 10.669 72.0561 10.756C73.2141 11.211 73.92 12.063 74.442 13.162C74.73 13.77 75.1831 14.305 75.5961 14.845C75.7041 14.987 75.9451 15.027 76.1981 15.148C76.6281 14.86 77.0671 14.566 77.5691 14.231ZM30.0081 37.026C30.3301 36.639 30.742 35.99 31.3 35.51C32.037 34.877 32.0461 34.067 32.0211 33.261C31.9951 32.407 31.0291 31.659 30.1531 31.693C28.7321 31.748 27.1191 34.644 27.8531 35.852C28.2571 36.517 28.7981 37.022 30.0081 37.026ZM46.054 38.949C45.233 38.678 44.6561 38.965 44.2681 39.44C43.8921 39.899 43.5801 40.48 43.4481 41.055C43.2311 42 44.3011 43.397 45.3551 43.682C46.0351 43.867 46.7121 43.825 47.3681 43.545C47.8991 43.318 48.3301 43.01 48.3511 42.24C47.2571 41.407 46.392 40.295 46.054 38.949ZM37.6341 35.176C38.3331 34.94 38.78 34.626 38.58 33.944C38.392 33.298 38.433 32.713 38.835 32.186C38.934 32.057 39.2131 31.962 39.3621 32.007C39.5061 32.05 39.7 32.311 39.679 32.446C39.6 32.964 39.2021 33.489 39.8751 33.979C40.4951 33.872 41.1581 33.759 41.8591 33.639C41.9921 32.545 42.1121 31.552 42.2291 30.584C40.3221 29.981 39.058 30.388 37.973 31.83C37.453 32.52 37.2231 33.31 37.1851 34.134C37.1721 34.474 37.4751 34.827 37.6341 35.176ZM45.2641 24.559C43.6301 25.648 42.1411 26.613 40.6851 27.625C39.9671 28.124 39.3121 28.713 38.3891 29.453C39.3101 29.332 39.9041 29.204 40.4991 29.188C41.0391 29.174 41.5951 29.226 42.1181 29.353C42.6911 29.492 43.2011 29.981 43.7951 29.639C44.2781 27.966 44.7451 26.351 45.2641 24.559ZM9.56305 51.049C10.635 51.92 10.6321 51.914 11.5041 51.429C11.5881 51.382 11.7411 51.462 11.9241 51.493C11.9241 51.931 11.9241 52.385 11.9241 52.791C14.1791 54.368 14.4771 54.433 16.6481 53.767C16.5641 53.278 16.4761 52.77 16.3811 52.209C14.8171 52.114 13.6561 51.426 12.6961 50.346C11.7221 50.565 10.803 50.771 9.56305 51.049ZM20.123 53.614C20.887 51.813 21.5761 50.188 22.2751 48.537C21.5041 48.109 20.8681 47.756 20.1681 47.367C19.7321 48.454 20.3101 49.186 20.6811 49.979C19.8421 51.088 18.273 51.058 17.36 52.216C17.474 52.605 17.603 53.049 17.74 53.52C18.059 53.591 18.3231 53.695 18.5881 53.698C19.0651 53.704 19.544 53.649 20.123 53.614ZM6.12304 27.706C5.41204 29.923 5.41105 29.939 5.75305 31.409C6.68405 31.01 7.61107 30.612 8.37707 30.284C8.45407 29.158 8.44707 28.132 8.61807 27.136C8.74307 26.411 8.43805 25.935 8.02405 25.478C7.71705 25.14 7.29607 25.128 6.88107 25.32C6.42607 25.531 6.33407 25.958 6.41107 26.363C6.47207 26.679 6.73406 26.953 6.87906 27.258C7.15006 27.829 7.16106 28.39 6.72806 29.24C6.45306 28.546 6.28804 28.126 6.12304 27.706ZM76.6441 26.279C78.3721 24.715 79.1351 22.68 79.4201 20.474C79.5681 19.323 79.4071 18.159 78.5581 17.172C77.8601 17.323 77.307 17.594 77.373 18.369C77.441 19.174 77.1271 20.007 77.6481 20.789C78.0031 21.321 77.9861 21.953 77.7811 22.583C77.3821 23.809 77.0201 25.047 76.6441 26.279ZM7.08905 43.853C6.14105 43.477 5.48405 42.628 4.32705 42.407C4.29505 43.493 4.08307 44.449 4.60507 45.354C5.15707 46.309 5.67205 47.289 6.27405 48.211C6.74705 48.937 7.32704 49.593 7.86004 50.279C8.03704 49.761 7.85305 49.408 7.64905 49.087C6.87205 47.861 6.50807 46.6 7.07107 45.167C7.18807 44.869 7.08905 44.485 7.08905 43.853ZM9.58606 21.228C9.98606 22.04 10.2831 22.844 9.72107 23.664C9.47707 23.727 9.23506 23.791 8.92206 23.873C9.23506 24.509 9.61005 24.953 10.296 25.046C10.986 25.14 11.6811 25.154 12.2651 24.719C12.5241 24.527 12.7651 24.234 12.8761 23.935C13.1361 23.237 12.674 21.733 12.102 21.308C11.321 20.727 10.5071 20.614 9.58606 21.228ZM32.6601 26.365C32.0671 27.084 31.6231 27.529 31.2981 28.05C31.0521 28.444 30.8681 28.922 30.8141 29.381C30.6761 30.549 31.6461 31.313 32.7811 31.069C34.0431 30.798 34.594 29.686 34.563 28.83C34.541 28.255 34.254 27.631 33.917 27.144C33.682 26.805 33.1631 26.661 32.6601 26.365ZM9.58206 19.538C10.5761 19.622 11.569 19.706 12.554 19.789C13.832 17.751 13.8321 17.751 13.6821 16.16C12.5681 15.725 11.566 15.793 10.787 16.85C10.731 16.926 10.7801 17.078 10.7801 17.166C11.0791 17.268 11.3561 17.36 11.6471 17.458C11.2721 18.581 10.2711 18.699 9.58206 19.538ZM23.2511 41.605C23.4761 43.834 22.8221 45.376 21.6141 46.798C21.9961 47.051 22.245 47.314 22.537 47.378C22.746 47.423 23.0871 47.266 23.2411 47.089C24.1381 46.056 24.9641 44.97 25.4401 43.595C24.8251 43.036 24.2301 42.495 23.2511 41.605ZM26.0101 42.606C26.9091 41.172 27.6661 39.974 28.4111 38.77C28.5441 38.556 28.631 38.313 28.727 38.107C27.937 37.439 27.226 36.837 26.11 35.894C27.286 38.386 26.6011 40.065 24.6611 41.371C25.1051 41.778 25.4361 42.081 26.0101 42.606ZM31.8741 36.367C31.9171 36.505 31.96 36.643 32.003 36.781C32.789 36.606 33.571 36.31 34.361 36.288C35.2 36.264 36.0471 36.498 37.0811 36.647C36.6471 35.835 36.1811 35.271 36.0511 34.638C35.9111 33.961 36.088 33.219 36.145 32.176C34.715 33.877 33.8221 35.662 31.8741 36.367ZM70.0871 7.33096C68.5781 6.50896 67.0351 7.15697 65.5231 7.21497C65.0891 7.23097 64.521 7.15096 64.378 7.91696C65.305 8.11796 66.2431 8.26696 67.1481 8.53296C68.4381 8.91296 69.4231 8.64896 70.0871 7.33096ZM60.085 25.587C59.101 26.09 58.5581 26.941 58.1941 27.932C58.0341 28.368 58.141 28.759 58.567 28.994C59.103 29.288 59.8141 29.207 60.1011 28.848C60.6771 28.124 60.679 26.743 60.085 25.587ZM18.895 9.27298C18.308 9.52998 18.044 9.55797 17.981 9.68497C16.973 11.728 15.8331 13.718 15.1811 16.027C16.0131 15.909 16.1751 15.349 16.3201 14.859C16.7301 13.469 17.3931 12.208 18.1301 10.971C18.3681 10.57 18.52 10.116 18.895 9.27298ZM14.2541 15.088C15.0181 14.05 15.3491 13.065 15.7111 11.779C14.1761 12.409 13.5681 13.573 12.7651 14.525C12.7441 14.548 12.807 14.643 12.873 14.814C13.258 14.891 13.7041 14.979 14.2541 15.088ZM20.8741 7.06796C21.9141 6.85496 22.681 6.69898 23.395 6.55298C23.693 5.81998 23.9041 5.23096 23.5141 4.46896C22.5331 5.24496 21.4901 5.71496 20.8741 7.06796ZM36.4221 54.416C36.3351 55.013 36.7051 55.15 37.0211 55.121C37.8141 55.05 38.598 54.886 39.576 54.728C39.297 54.201 39.1001 53.832 38.9061 53.466C37.9731 53.823 37.1711 54.13 36.4221 54.416ZM51.4751 42.902C50.7891 42.947 50.343 42.976 49.727 43.016C50.281 43.541 50.683 43.943 51.429 43.898C51.442 43.603 51.4541 43.354 51.4751 42.902ZM54.5311 48.902C53.9291 48.628 53.6371 48.494 53.3871 48.381C52.8621 48.751 52.6711 49.123 53.0641 49.715C53.4631 49.494 53.8551 49.276 54.5311 48.902ZM11.895 13.255C12.852 12.797 12.842 12.788 13.184 11.758C12.638 12.393 12.267 12.824 11.895 13.255Z" fill="white"/>
<path d="M13.05 57.584C14.25 57.755 15.1641 58.194 16.1021 58.409C16.1561 58.886 15.8941 58.993 15.6141 58.967C14.4651 58.858 14.054 58.639 13.05 57.584Z" fill="white"/>
<path d="M6.03003 52.512C4.87803 52.158 4.26603 51.357 3.80103 49.832C4.97503 50.758 5.63603 51.516 6.03003 52.512Z" fill="white"/>
<path d="M17.0481 69.7329C15.7711 69.8129 14.8141 69.6999 13.7241 68.7209C15.0501 68.8389 16.0431 68.8189 17.0481 69.7329Z" fill="white"/>
<path d="M7.28305 66.33C6.11905 65.922 5.35207 65.117 4.95007 63.963C5.95107 64.518 6.67505 65.361 7.28305 66.33Z" fill="white"/>
<path d="M9.06403 62.8239C8.18203 62.8379 8.18204 62.838 6.98804 61.45C8.11504 61.712 8.11503 61.7119 9.06403 62.8239Z" fill="white"/>
<path d="M13.9971 60.708C12.6311 60.935 12.623 60.932 11.524 59.835C11.959 59.363 12.2141 59.935 12.5291 60.027C12.9151 60.14 13.2701 60.362 13.9971 60.708Z" fill="white"/>
<path d="M15.4661 61.798C16.2251 61.913 16.7921 62 17.4231 62.097C16.6701 62.914 16.5381 62.897 15.4661 61.798Z" fill="white"/>
<path d="M13.0271 65.5229C13.7671 65.6729 14.5611 65.5409 15.2171 66.0899C14.2331 66.4569 14.2331 66.4569 13.0271 65.5229Z" fill="white"/>
<path d="M10.3791 56.0399C9.68606 56.1719 9.31306 55.9509 9.21106 55.2749C9.91106 55.3999 9.91106 55.3999 10.3791 56.0399Z" fill="white"/>
<path d="M10.052 67.3359C10.888 67.1729 11.277 67.44 11.628 67.946C10.945 68.245 10.554 67.9569 10.052 67.3359Z" fill="white"/>
<path d="M3.58911 57.4089C3.91711 57.7699 4.24413 58.1329 4.56113 58.4809C4.20713 58.9219 4.20711 58.9219 3.58911 57.4089Z" fill="white"/>
<path d="M4.40312 54.69C4.23912 54.433 4.05409 54.185 3.92509 53.912C3.89209 53.843 4.0071 53.633 4.0991 53.595C4.1871 53.558 4.4111 53.631 4.4391 53.707C4.5451 53.987 4.59509 54.29 4.66609 54.584C4.57809 54.619 4.49012 54.654 4.40312 54.69Z" fill="white"/>
<path d="M52.212 66.8519C51.027 67.6509 49.941 68.6729 48.217 68.8389C49.109 67.8899 50.521 67.1479 52.212 66.8519Z" fill="white"/>
<path d="M68.758 50.3C67.826 51.522 66.517 52.262 65.384 53.145C64.941 52.888 64.997 52.585 65.215 52.428C66.317 51.636 67.445 50.882 68.57 50.123C68.583 50.115 68.665 50.211 68.758 50.3Z" fill="white"/>
<path d="M66.072 61.822C66.249 61.326 66.256 61.161 66.34 61.092C67.33 60.292 68.332 59.507 69.46 58.615C69.483 58.979 69.575 59.236 69.493 59.316C68.557 60.244 67.678 61.265 66.072 61.822Z" fill="white"/>
<path d="M61.363 60.022C62.385 59.238 63.408 58.454 64.582 57.554C64.158 58.947 63.1 59.815 61.363 60.022Z" fill="white"/>
<path d="M73.8921 34.721C73.2151 35.442 72.5481 36.173 71.8541 36.878C71.6751 37.06 71.4131 37.16 71.2161 37.28C70.8091 37.018 70.9811 36.753 71.1571 36.585C71.9361 35.847 72.742 35.138 73.538 34.418C73.656 34.519 73.7741 34.619 73.8921 34.721Z" fill="white"/>
<path d="M36.614 63.016C37.702 62.221 39.299 62.12 41.55 62.627C39.728 62.933 38.185 63.049 36.614 63.016Z" fill="white"/>
<path d="M62.1051 55.252C61.3411 56.231 60.2941 57.1169 59.4591 57.4529C59.3911 57.4799 59.254 57.3419 59.149 57.2789C60.101 56.0299 60.5331 55.734 62.1051 55.252Z" fill="white"/>
<path d="M32.4051 62.4519C30.9251 63.0299 29.4771 63.1329 27.6831 62.3969C28.8081 61.8669 29.4991 62.3719 30.2091 62.3679C30.9411 62.3639 31.6741 62.4219 32.4051 62.4519Z" fill="white"/>
<path d="M62.853 65.3999C61.456 67.0449 61.342 67.1109 60.259 66.9619C60.907 66.0159 61.775 65.5799 62.853 65.3999Z" fill="white"/>
<path d="M35.136 59.0179C36.137 58.5929 37.094 58.1299 38.255 58.2199C37.383 59.1259 36.537 59.3709 35.136 59.0179Z" fill="white"/>
<path d="M65.3521 44.166C65.9081 42.898 66.3361 42.541 67.8481 41.911C67.1291 43.02 67.1141 43.034 65.3521 44.166Z" fill="white"/>
<path d="M28.405 58.283C28.975 58.475 29.536 58.708 30.118 58.847C30.675 58.98 31.256 59.015 32.064 59.125C30.075 59.744 29.565 59.639 28.405 58.283Z" fill="white"/>
<path d="M26.1021 74.4179C27.3681 74.3419 27.9541 74.4319 29.1391 74.8829C27.7911 75.2259 27.5551 75.1899 26.1021 74.4179Z" fill="white"/>
<path d="M27.0711 68.4009C25.9751 68.4809 24.9441 68.298 23.9081 67.838C24.0661 67.627 24.1411 67.4489 24.2051 67.4529C25.2301 67.5239 26.2101 67.7629 27.0711 68.4009Z" fill="white"/>
<path d="M55.6481 55.9829C54.6231 56.8249 53.5511 57.3649 52.2241 57.0759C52.7951 56.8939 53.3671 56.7139 53.9381 56.5309C54.5091 56.3499 55.0781 56.1659 55.6481 55.9829Z" fill="white"/>
<path d="M58.994 64.374C58.218 65.202 57.34 65.849 55.843 66.06C56.886 65.037 57.855 64.555 58.994 64.374Z" fill="white"/>
<path d="M62.108 47.1929C62.506 46.2379 63.278 45.6949 64.309 45.0459C63.589 46.5969 63.574 46.6109 62.108 47.1929Z" fill="white"/>
<path d="M42.3921 73.257C43.4151 72.847 44.4391 72.437 45.4621 72.027C44.7081 73.128 43.6691 73.499 42.3921 73.257Z" fill="white"/>
<path d="M45.961 58.301C45.176 58.995 44.323 59.43 42.999 59.324C43.963 58.33 44.983 58.341 45.961 58.301Z" fill="white"/>
<path d="M61.3341 50.677C60.8071 51.107 60.2971 51.561 59.7431 51.954C59.4881 52.136 59.1051 52.426 58.8341 52.058C58.5481 51.671 58.9441 51.45 59.2321 51.301C59.8361 50.989 60.4601 50.719 61.0771 50.432C61.1631 50.514 61.2491 50.595 61.3341 50.677Z" fill="white"/>
<path d="M52.7461 62.204C53.4491 61.578 53.4491 61.578 55.1041 61.099C54.4541 62.146 54.3001 62.218 52.7461 62.204Z" fill="white"/>
<path d="M48.7071 65.06C48.0711 65.896 47.2641 66.388 46.2161 66.388C46.9331 65.73 47.5871 64.97 48.7071 65.06Z" fill="white"/>
<path d="M51.766 53.2579C51.124 54.0439 50.322 54.6409 49.467 55.1609C49.089 54.8139 49.349 54.5969 49.536 54.4409C50.165 53.9239 50.821 53.4389 51.467 52.9409C51.566 53.0469 51.666 53.1519 51.766 53.2579Z" fill="white"/>
<path d="M33.7071 66.3539C32.6521 66.5709 31.5641 66.7009 30.2861 66.3819C31.4861 65.8009 31.4861 65.8009 33.7071 66.3539Z" fill="white"/>
<path d="M48.8631 61.183C48.2461 62.219 47.3291 62.29 46.6401 62.665C46.2861 62.477 46.1541 62.249 46.4761 62.049C47.1411 61.637 47.8351 61.268 48.8631 61.183Z" fill="white"/>
<path d="M72.6181 46.7329C71.7891 48.4859 71.5531 48.6959 70.2371 48.8899C70.8761 47.9919 71.6801 47.5049 72.6181 46.7329Z" fill="white"/>
<path d="M42.959 66.266C41.484 67.251 40.327 66.868 39.181 66.705C39.362 66.638 39.539 66.528 39.725 66.512C40.654 66.426 41.585 66.366 42.959 66.266Z" fill="white"/>
<path d="M39.644 70.5109C40.852 70.2269 41.628 70.0429 42.729 69.7839C40.906 71.0999 40.817 71.1269 39.644 70.5109Z" fill="white"/>
<path d="M69.5951 53.2629C69.2001 54.1379 68.5561 54.7629 67.6941 55.3419C67.9131 54.3489 67.9131 54.3489 69.5951 53.2629Z" fill="white"/>
<path d="M26.444 54.6139C24.683 54.9169 24.683 54.9169 23.958 54.2119C24.717 54.0279 25.395 54.0429 26.444 54.6139Z" fill="white"/>
<path d="M36.894 70.063C35.598 70.424 34.487 70.462 33.104 70.32C34.217 69.75 34.891 69.718 36.894 70.063Z" fill="white"/>
<path d="M67.1221 47.01C66.5401 48.594 66.5401 48.594 65.4751 48.801C65.4811 48.683 65.4401 48.514 65.5021 48.455C66.0321 47.962 66.5801 47.488 67.1221 47.01Z" fill="white"/>
<path d="M22.1831 58.829C23.2381 58.599 23.7971 58.947 24.4651 59.279C23.4931 59.624 23.4891 59.64 22.1831 58.829Z" fill="white"/>
<path d="M22.7561 63.2349C24.0781 62.8299 24.6581 63.468 25.5211 63.855C24.5291 64.06 23.8521 63.7659 22.7561 63.2349Z" fill="white"/>
<path d="M27.992 72.125C27.134 72.287 26.465 72.103 25.692 71.783C26.697 71.449 26.697 71.449 27.992 72.125Z" fill="white"/>
<path d="M56.395 50.647C56.741 49.959 57.316 49.689 57.882 49.332C57.825 50.397 57.8 50.42 56.395 50.647Z" fill="white"/>
<path d="M71.849 44.4039C71.391 44.8829 71.01 45.2799 70.285 46.0389C70.429 45.3579 70.41 45.1049 70.527 44.9669C70.74 44.7149 71.023 44.5159 71.299 44.3289C71.372 44.2799 71.53 44.3549 71.849 44.4039Z" fill="white"/>
<path d="M69.7361 40.0309C70.1251 39.6849 70.3941 39.4459 70.8091 39.0769C70.5851 39.9779 70.5851 39.9779 69.7361 40.0309Z" fill="white"/>
<path d="M76.5391 30.533C76.6301 30.307 76.711 30.078 76.813 29.858C76.941 29.582 77.152 29.408 77.416 29.658C77.501 29.739 77.4811 30.041 77.3981 30.166C77.2561 30.374 77.0241 30.522 76.8311 30.694C76.7321 30.641 76.6361 30.587 76.5391 30.533Z" fill="white"/>
<path d="M44.567 74.663C44.863 74.531 45.124 74.399 45.398 74.308C45.435 74.295 45.539 74.479 45.611 74.572C45.365 74.734 45.122 74.902 44.866 75.046C44.851 75.054 44.728 74.871 44.567 74.663Z" fill="white"/>
<path d="M28.2941 54.0669C28.8151 54.1059 29.3481 54.0889 29.8511 54.2039C30.2041 54.2849 30.5141 54.5459 30.8421 54.7249C30.3341 54.6519 29.8181 54.6119 29.3201 54.4929C28.9641 54.4069 28.6351 54.2129 28.2941 54.0669Z" fill="white"/>
<path d="M62.2091 24.226C62.6741 23.883 62.8771 23.612 63.1091 23.583C64.2141 23.449 65.2371 23.117 66.2541 22.656C67.0071 22.313 67.7281 22.6829 68.3201 23.2399C68.8971 23.7829 68.9931 24.4139 68.6861 25.1229C68.5211 25.5019 68.3801 25.8969 68.1701 26.2489C67.5971 27.2139 66.6111 27.606 65.5211 27.368C64.7451 27.199 64.1081 26.7899 63.6161 26.1979C63.1421 25.6259 62.7461 24.987 62.2091 24.226ZM63.9071 24.459C64.1281 25.193 64.6191 25.675 65.1781 26.07C65.9931 26.647 66.9641 26.353 67.3921 25.423C67.5341 25.114 67.6421 24.7779 67.6941 24.4439C67.7881 23.8439 67.2331 23.3709 66.6441 23.5509C65.7431 23.8279 64.8531 24.144 63.9071 24.459Z" fill="white"/>
<path d="M57.4381 23.8819C56.9061 23.7639 56.4211 23.7129 55.9821 23.5459C54.8621 23.1179 53.9911 21.6999 54.1261 20.6129C54.2481 19.6249 55.6251 18.5079 56.8541 18.5029C57.2161 18.5019 57.7521 18.6849 57.9121 18.9569C58.5311 20.0109 59.0821 21.1139 59.5521 22.2439C59.7451 22.7099 59.4451 23.2149 58.9621 23.4249C58.4691 23.6399 57.9271 23.7399 57.4381 23.8819ZM58.4441 22.2349C58.4301 21.4619 58.0481 20.809 57.6091 20.209C57.4311 19.965 57.0741 19.7549 56.7751 19.7159C56.1161 19.6319 55.4311 20.1959 55.2621 20.8429C55.0701 21.5829 55.3371 22.2469 56.0161 22.5519C56.8631 22.9319 57.7161 23.1309 58.4441 22.2349Z" fill="white"/>
<path d="M65.1841 16.409C65.3411 16.438 65.6161 16.465 65.8751 16.542C66.4721 16.718 66.7131 17.149 66.6571 17.783C66.5681 18.79 66.1101 19.62 65.4021 20.294C64.8631 20.808 64.2751 21.292 63.6391 21.674C63.0151 22.049 62.3221 21.604 62.3681 20.909C62.4611 19.52 62.9161 18.24 63.6651 17.073C64.0011 16.551 64.4191 16.389 65.1841 16.409ZM63.4811 20.886C64.4471 20.012 65.2281 19.365 65.5381 18.363C65.5931 18.186 65.4071 17.875 65.2441 17.716C65.1591 17.634 64.8251 17.682 64.7001 17.786C63.8291 18.513 63.4141 19.451 63.4811 20.886Z" fill="white"/>
<path d="M23.6391 26.2769C23.4441 26.2119 22.9051 26.0959 22.4261 25.8579C20.9981 25.1469 20.8181 24.5059 21.5541 23.0539C21.9981 22.1779 22.5691 21.4289 23.5111 21.0349C24.2381 20.7319 24.9071 20.9249 25.2531 21.6189C25.5581 22.2269 25.8221 22.8639 26.0291 23.5119C26.5051 25.0019 25.5291 26.3009 23.6391 26.2769ZM22.2491 24.1499C22.5911 24.4739 22.7601 24.6959 22.9811 24.8339C23.4431 25.1209 23.9321 25.4239 24.4941 25.0679C25.1081 24.6769 25.1121 24.0539 25.0451 23.4319C25.0161 23.1679 24.9261 22.9029 24.8171 22.6589C24.4671 21.8719 23.7121 21.7529 23.2341 22.4329C22.8851 22.9269 22.6271 23.4809 22.2491 24.1499Z" fill="white"/>
<path d="M25.438 17.5749C24.971 17.6679 24.504 17.7609 24.074 17.8459C22.849 17.0979 22.227 15.9489 21.624 14.7759C21.301 14.1459 21.406 13.5769 21.753 13.0159C22.421 11.9359 23.392 11.3589 24.664 11.3459C25.378 11.3379 25.87 11.7659 25.862 12.4889C25.851 13.4509 25.736 14.4139 25.646 15.3749C25.576 16.1299 25.476 16.8819 25.389 17.6349L25.438 17.5749ZM24.319 16.8359C25.103 15.2819 25.17 13.9079 24.952 12.4429C24.037 12.3309 23.392 12.6729 22.878 13.2399C22.671 13.4699 22.518 13.8439 22.521 14.1509C22.532 15.3249 23.083 16.1829 24.319 16.8359Z" fill="white"/>
<path d="M19.7891 21.048C17.4791 20.945 16.5141 19.302 17.5111 17.21C18.3681 15.413 19.2031 15.24 20.6461 16.585C21.0991 17.007 21.5341 17.455 21.9381 17.924C22.9001 19.041 22.7541 19.867 21.5241 20.609C20.9751 20.94 20.4191 21.178 19.7891 21.048ZM21.8671 18.979C21.4661 18.653 21.1421 18.402 20.8311 18.135C20.5181 17.866 20.2381 17.556 19.9051 17.317C19.6571 17.137 19.3481 17.043 19.0811 16.916C18.2561 18.258 18.1521 19.555 18.7691 20.019C19.5281 20.59 20.3611 20.438 21.5531 19.491C21.6531 19.41 21.6981 19.261 21.8671 18.979Z" fill="white"/>
<path d="M25.389 17.634C26.123 16.726 26.998 16.012 28.1 15.577C28.646 15.361 29.186 15.329 29.68 15.608C29.946 15.758 30.263 16.07 30.296 16.341C30.53 18.214 29.87 19.251 28.373 19.705C28.047 19.804 27.711 19.874 27.379 19.954C26.398 20.19 25.623 19.96 25.186 18.97C25.269 18.51 25.354 18.042 25.438 17.574L25.389 17.634ZM26.495 19.076C27.871 18.976 28.567 18.798 29 18.282C29.247 17.987 29.393 17.577 29.49 17.195C29.601 16.762 29.149 16.345 28.752 16.483C27.52 16.908 26.686 17.678 26.495 19.076Z" fill="white"/>
<path d="M39.9131 46.532C39.2601 46.354 39.1481 45.897 39.1831 45.402C39.2261 44.761 39.4651 44.181 40.0941 43.92C40.2771 43.844 40.5681 44.031 40.9991 44.15C40.6581 44.646 40.3561 44.983 40.1771 45.378C40.0191 45.725 39.9981 46.136 39.9131 46.532Z" fill="white"/>
<path d="M56.4181 42.409C56.2241 43.349 55.3041 43.46 54.4461 44.033C54.4461 43.588 54.3571 43.266 54.4621 43.182C54.9701 42.768 55.5281 42.416 56.0701 42.043C56.1851 42.165 56.3021 42.287 56.4181 42.409Z" fill="white"/>
<path d="M47.802 47.8149C47.211 47.1439 47.409 46.6729 47.819 46.2469C48.12 45.9349 48.466 45.7069 48.915 46.2139C48.585 46.6889 48.244 47.1789 47.802 47.8149Z" fill="white"/>
<path d="M51.2431 36.16C50.5261 36.816 49.9931 37.304 49.4631 37.789C48.8451 37.304 49.1681 36.881 49.4651 36.523C49.8601 36.048 50.3141 35.608 51.2431 36.16Z" fill="white"/>
<path d="M40.1951 36.697C40.0651 37.626 39.9501 38.441 39.8201 39.367C38.8721 38.142 38.9611 37.455 40.1951 36.697Z" fill="white"/>
<path d="M46.854 31.059C45.842 31.689 45.209 32.4231 44.974 33.4461C44.951 33.5511 44.621 33.68 44.48 33.638C44.35 33.599 44.197 33.341 44.205 33.188C44.252 32.253 44.587 31.46 45.468 31.003C45.643 30.912 45.856 30.855 46.051 30.853C46.239 30.852 46.429 30.943 46.854 31.059Z" fill="white"/>
<path d="M6.93002 40.368C5.65502 39.692 5.65602 39.687 6.09802 38.371C6.73902 38.919 6.76102 39.593 6.93002 40.368Z" fill="white"/>
<path d="M56.054 37.288C55.906 36.972 55.7571 36.806 55.7651 36.647C55.7991 35.907 56.2711 35.41 56.7981 34.96C57.1731 34.642 57.5641 34.386 58.0981 35.006C57.6771 35.369 57.2501 35.676 56.9031 36.055C56.6001 36.385 56.386 36.796 56.054 37.288Z" fill="white"/>
<path d="M35.913 42.4919C35.269 43.0229 34.871 43.3519 34.46 43.6909C34.341 43.4919 34.191 43.3409 34.222 43.2809C34.733 42.2619 34.738 42.2639 35.913 42.4919Z" fill="white"/>
<path d="M34.551 50.5959C34.131 49.3999 34.1291 49.3979 35.1871 49.2529C34.9441 49.7649 34.747 50.1809 34.551 50.5959Z" fill="white"/>
<path d="M63.0501 38.197C62.5211 38.816 62.1031 39.304 61.7201 39.754C60.9391 39.433 61.3251 39.029 61.5101 38.747C61.8321 38.255 62.2061 37.738 63.0501 38.197Z" fill="white"/>
<path d="M12.504 41.97C12.137 41.617 11.848 41.47 11.812 41.277C11.74 40.89 11.791 40.475 11.832 40.077C11.839 40.01 12.055 39.916 12.17 39.921C12.284 39.926 12.486 40.036 12.49 40.109C12.517 40.637 12.504 41.168 12.504 41.97Z" fill="white"/>
<path d="M20.487 42.893C20.007 43.052 19.552 43.135 19.173 43.351C18.85 43.535 18.612 43.871 18.26 44.216C18.088 42.982 18.349 42.424 19.206 42.18C19.498 42.097 19.872 42.203 20.177 42.313C20.309 42.36 20.357 42.636 20.487 42.893Z" fill="white"/>
<path d="M28.9651 48.0979C28.4771 46.5009 28.7441 46.1459 30.1021 46.3999C29.7541 46.9179 29.4211 47.4159 28.9651 48.0979Z" fill="white"/>
<path d="M13.8331 33.2739C13.5351 33.8059 13.2371 34.3369 12.8521 35.0249C12.5411 33.6889 12.5411 33.6889 13.8331 33.2739Z" fill="white"/>
<path d="M15.2131 48.147C15.9531 48.842 16.5071 49.363 17.2491 50.06C16.8171 50.144 16.5391 50.29 16.4091 50.207C15.7701 49.795 15.0871 49.373 15.2131 48.147Z" fill="white"/>
<path d="M31.6271 38.7539C32.0671 38.7399 32.515 38.8069 32.439 39.3709C32.361 39.9639 32.1741 40.5519 31.4591 40.9959C31.3791 40.7079 31.2381 40.4769 31.2731 40.2789C31.3691 39.7479 31.539 39.2289 31.679 38.7059L31.6271 38.7539Z" fill="white"/>
<path d="M11.4571 29.23C10.2931 28.122 10.3331 27.739 11.5321 26.821C11.8401 27.566 11.5381 28.254 11.4571 29.23Z" fill="white"/>
<path d="M16.975 37.251C16.791 37.841 16.636 38.215 16.567 38.603C16.513 38.906 16.78 39.272 16.37 39.501C15.227 38.456 15.343 37.779 16.975 37.251Z" fill="white"/>
<path d="M28.8111 34.909C28.4031 34.016 28.4871 33.897 30.0731 33.125C30.2261 33.897 30.2261 33.897 28.8111 34.909Z" fill="white"/>
<path d="M44.7991 41.7489C44.2291 40.5279 44.3861 39.8979 45.1091 39.6729C45.2021 39.6449 45.5171 39.9319 45.4971 39.9969C45.3361 40.4949 45.1181 40.9749 44.7991 41.7489Z" fill="white"/>
<path d="M31.532 30.115C31.479 29.76 31.303 29.365 31.401 29.057C31.554 28.574 31.772 28.005 32.485 28.089C32.548 28.223 32.677 28.367 32.645 28.447C32.418 29.007 32.159 29.552 31.909 30.102C31.784 30.107 31.658 30.111 31.532 30.115Z" fill="white"/>
</svg>
