<svg width="98" height="65" viewBox="0 0 98 65" fill="none" xmlns="http://www.w3.org/2000/svg">
<path d="M69.8039 11.239C71.2219 11.858 72.611 12.466 74.156 13.141C74.511 12.97 75.072 12.701 75.571 12.459C76.454 12.675 76.7429 13.354 77.0419 13.972C77.3769 14.663 77.6879 15.387 77.8599 16.132C78.0479 16.937 78.523 17.289 79.256 17.511C81.942 18.324 84.6269 19.135 87.2909 20.011C90.8269 21.173 94.254 22.602 97.467 24.273C98.095 25.398 97.927 26.402 97.569 27.421C97.227 28.394 96.6099 29.124 95.7269 29.637C95.2429 29.917 94.776 30.318 94.252 30.426C92.929 30.7 92.004 31.563 91.077 32.405C88.849 34.434 86.643 36.488 84.47 38.574C82.191 40.76 79.98 43.016 77.699 45.2C76.345 46.497 74.897 47.698 73.518 48.972C72.286 50.11 71.09 51.287 69.88 52.449C69.427 52.884 69.012 53.365 68.522 53.752C67.131 54.852 66.0329 56.204 65.1149 57.695C64.7969 58.213 64.583 58.856 64.526 59.461C64.337 61.476 63.188 62.793 61.582 63.823C61.465 63.898 61.315 63.928 61.208 64.013C59.88 65.061 58.576 65.192 57.278 63.954C57.134 63.817 56.9069 63.769 56.6489 63.648C56.3619 63.757 56.04 63.882 55.716 64.002C53.881 64.687 52.0239 64.799 50.1489 64.185C47.8179 63.42 45.489 62.648 43.164 61.862C41.967 61.458 40.789 60.998 39.591 60.596C37.068 59.749 34.535 58.937 32.014 58.089C29.756 57.329 27.5219 56.5 25.2529 55.776C22.6459 54.942 20.069 54.051 17.608 52.837C16.799 52.438 15.9199 52.179 15.0799 51.836C13.4289 51.163 12.0689 50.064 10.7919 48.852C9.77794 47.89 8.78095 46.911 7.61995 45.788C6.84495 45.627 5.83395 45.361 4.80595 45.219C3.84595 45.085 2.89894 44.837 1.88694 45.076C1.11894 45.258 0.745937 44.898 0.510937 44.121C-0.123063 42.028 1.04494 39.874 3.19194 39.393C4.12694 39.183 5.12494 39.256 6.36494 39.186C6.56594 38.985 6.93795 38.579 7.34495 38.21C10.522 35.341 13.693 32.463 16.897 29.622C17.893 28.739 18.981 27.96 20.035 27.144C20.556 26.74 20.8449 26.249 20.9849 25.578C21.5709 22.768 22.2 19.965 22.871 17.174C23.073 16.33 23.0599 15.532 22.9609 14.682C22.5109 10.819 23.6929 7.48402 26.4339 4.74002C27.0409 4.13302 27.56 3.52501 27.933 2.74701C28.622 1.30901 29.71 0.428009 31.411 0.478009C31.887 0.492009 32.367 0.365015 32.962 0.287015C33.095 0.713015 33.313 1.08801 33.311 1.46101C33.305 2.52401 33.438 3.54501 33.846 4.64901C34.271 4.42001 34.6689 4.27501 34.9859 4.02601C36.2759 3.00901 37.7339 2.37201 39.2919 1.88301C40.5599 1.48501 41.7599 0.876012 43.0239 0.472012C45.2489 -0.238988 47.462 -0.103993 49.571 0.913007C50.513 1.36801 51.414 1.92902 52.282 2.51602C53.141 3.09702 53.87 3.77102 55.057 3.79202C55.61 3.80402 56.148 4.55601 56.855 5.09701C59.224 4.62201 61.7209 5.13201 64.2179 5.42801C66.1359 5.65401 67.7639 6.67801 69.2699 7.84501C69.8589 8.30201 70.103 8.95801 69.996 9.72201C69.925 10.198 69.8729 10.679 69.8039 11.239ZM1.72895 43.837C2.40395 43.929 2.95495 44.004 3.50395 44.079C4.82095 44.257 6.16895 44.311 7.44795 44.637C10.0959 45.309 12.723 46.077 15.332 46.895C18.276 47.818 21.1709 48.903 24.1229 49.799C28.0169 50.981 31.904 52.17 35.72 53.59C37.824 54.373 39.9149 55.209 42.0629 55.855C47.2029 57.399 52.035 59.586 56.591 62.411C57.477 62.961 58.4389 63.386 59.3049 63.837C61.8629 62.874 63.4229 61.286 63.6359 58.554C63.6769 58.032 64.0059 57.511 64.2789 57.034C65.1639 55.484 66.517 54.355 67.807 53.167C70.544 50.646 73.291 48.134 75.987 45.567C79.084 42.617 82.1249 39.608 85.1969 36.633C86.5079 35.363 87.831 34.106 89.165 32.861C90.797 31.336 92.2869 29.614 94.5549 28.961C94.8199 28.885 95.0649 28.726 95.3049 28.581C95.9329 28.205 96.376 27.692 96.519 26.945C96.634 26.34 96.78 25.739 96.937 25.018C94.253 23.576 91.4599 22.64 88.7219 21.612C83.4989 19.648 80.373 18.859 78.327 18.777C78.337 19.953 78.211 21.123 78.6 22.435C79.959 22.996 81.3879 23.561 82.7919 24.181C83.3589 24.431 83.928 24.738 84.397 25.135C85.118 25.745 85.209 26.18 84.786 26.987C84.433 27.66 84.018 28.333 83.501 28.883C82.106 30.365 80.6269 31.766 79.2099 33.227C76.6709 35.847 74.1689 38.502 71.6239 41.117C69.8119 42.978 67.957 44.797 66.118 46.631C65.77 46.978 65.389 47.291 65.058 47.652C63.105 49.777 60.941 51.673 58.777 53.576C57.61 54.601 56.4179 54.819 54.9169 54.685C52.9529 54.509 51.141 53.507 49.121 53.726C48.939 53.746 48.714 53.613 48.549 53.495C46.918 52.33 44.991 51.891 43.138 51.277C41.943 50.881 40.7149 50.577 39.5299 50.155C38.3439 49.733 37.203 49.184 36.022 48.747C34.124 48.044 32.157 47.504 30.312 46.683C27.034 45.227 23.585 44.268 20.233 43.037C19.05 42.603 17.8809 42.132 16.7189 41.645C16.1299 41.398 15.5999 41.048 15.3469 40.297C15.6519 39.355 16.1489 38.438 16.8779 37.659C17.4529 37.046 18.0639 36.465 18.6629 35.873C19.2759 35.268 19.3489 34.152 20.4729 33.997C20.6329 33.975 20.7719 33.548 20.8569 33.287C21.0309 32.757 21.1499 32.209 21.3099 31.675C21.6949 30.399 21.504 29.234 20.691 28.01C20.02 28.48 19.4259 28.843 18.8909 29.277C15.1789 32.286 11.5539 35.398 8.22795 38.832C7.18295 39.911 6.18794 40.561 4.57194 40.385C2.47194 40.153 1.46495 41.428 1.72895 43.837ZM35.647 34.002C35.565 34.385 35.5679 34.681 35.4429 34.907C34.9559 35.79 35.2319 36.525 35.8129 37.224C36.0369 37.494 36.232 37.793 36.484 38.033C37.652 39.147 38.794 40.293 40.026 41.333C41.218 42.341 42.275 43.432 43.079 44.781C43.433 45.375 43.9129 45.899 44.3699 46.426C44.5699 46.656 45.1659 46.53 45.2909 46.253C45.4039 46.002 45.503 45.736 45.545 45.466C46.016 42.4 45.7639 39.456 44.0429 36.765C43.2639 35.545 42.94 34.208 42.988 32.76C43.018 31.849 42.9409 30.935 42.9679 30.023C43.0479 27.287 42.169 24.782 41.152 22.306C40.154 19.88 38.478 17.866 37.009 15.747C35.227 13.178 33.802 10.513 33.148 7.44201C32.811 5.86501 32.349 4.32301 32.341 2.68101C32.337 1.74301 31.586 1.31301 30.738 1.65301C29.927 1.97701 29.3429 2.53402 28.9389 3.33502C28.5959 4.01602 28.2559 4.82901 27.6719 5.23001C26.3859 6.11201 25.6449 7.35001 24.9509 8.64801C23.5819 11.211 23.5669 13.893 24.3909 16.615C24.5089 17.006 24.78 17.354 25.002 17.708C25.785 18.953 26.688 20.138 27.338 21.448C27.955 22.692 28.747 23.695 29.927 24.395C30.841 24.936 31.378 25.715 31.431 26.778C31.471 27.59 31.6959 28.296 32.3519 28.812C33.0019 29.323 33.3429 30.049 33.4249 30.807C33.5879 32.291 34.146 33.449 35.647 34.002ZM51.0289 39.987C51.3429 39.843 51.6549 39.797 51.8099 39.614C53.1739 38.011 54.479 36.378 55.397 34.446C56.726 31.647 56.78 28.717 56.299 25.784C56.034 24.162 55.956 22.568 56.144 20.973C56.336 19.333 56.131 17.768 55.772 16.183C55.226 13.772 55.0179 11.329 55.3169 8.86001C55.3679 8.44201 55.444 8.02402 55.453 7.60402C55.468 6.86902 55.3169 6.53202 54.6619 5.61702C54.1799 6.33202 54.365 7.13201 54.302 7.87401C54.12 9.99401 53.425 11.83 51.673 13.173C50.949 13.727 50.2729 14.345 49.5969 14.958C48.4139 16.03 47.2299 17.056 46.2359 18.371C44.8379 20.224 44.138 22.313 43.371 24.409C43.173 24.948 43.281 25.52 43.966 25.886C46.455 24.657 48.875 22.884 51.898 23.84C52.427 24.672 52.237 25.466 52.127 26.205C51.804 28.367 51.6859 30.516 51.9429 32.701C52.0309 33.439 51.803 34.227 51.644 34.977C51.499 35.661 51.2319 36.318 51.0499 36.995C50.7929 37.947 50.6809 38.908 51.0289 39.987ZM54.9639 63.122C54.9949 62.968 55.0269 62.813 55.0589 62.659C53.0269 61.58 51.066 60.325 48.946 59.461C45.508 58.06 41.9629 56.926 38.4719 55.653C36.8269 55.053 35.239 54.27 33.561 53.791C30.871 53.022 28.2829 51.961 25.5469 51.29C22.3549 50.507 19.277 49.26 16.134 48.266C14.219 47.66 12.2729 47.149 10.2569 46.572C10.3199 46.856 10.305 47.012 10.376 47.086C12.515 49.269 15.003 50.96 17.807 52.153C21.035 53.528 24.3059 54.793 27.7529 55.541C28.4329 55.688 29.0799 55.99 29.7349 56.241C32.8049 57.421 35.8449 58.676 39.0589 59.451C40.4869 59.796 41.8999 60.265 43.2569 60.828C45.5339 61.771 47.906 62.396 50.251 63.117C51.835 63.604 53.4039 63.592 54.9639 63.122ZM70.26 26.824C70.799 26.27 71.2799 25.779 71.7569 25.284C72.0959 24.931 72.531 24.627 72.75 24.211C73.977 21.886 74.323 19.443 73.558 16.888C73.319 16.09 73.047 15.297 72.875 14.484C72.764 13.954 72.5189 13.576 72.0669 13.326C71.7619 13.157 71.438 13.02 71.112 12.894C68.164 11.756 65.159 12.617 62.191 12.745C61.056 12.794 59.9269 13.454 58.8389 13.933C58.0379 14.285 57.217 14.696 56.742 15.859C57.353 15.762 57.7549 15.76 58.1099 15.63C59.3629 15.175 60.46 15.487 61.471 16.249C61.861 16.542 62.2739 16.838 62.5679 17.216C63.2879 18.142 64.0959 18.768 65.3479 18.872C66.5109 18.97 67.265 19.793 67.471 20.92C67.645 21.871 67.63 22.861 67.639 23.835C67.642 24.241 67.491 24.648 67.407 25.066C68.224 25.949 69.227 26.393 70.26 26.824ZM23.7929 18.395C23.5459 19.176 23.3209 19.749 23.1849 20.343C22.8239 21.904 22.45 23.467 22.181 25.047C22.007 26.071 21.8179 27.154 21.9719 28.16C22.3119 30.375 23.0129 32.495 24.1359 34.471C25.1359 36.231 26.6209 36.492 28.2399 36.179C29.6889 35.899 31.03 35.252 32.226 34.38C32.524 34.163 32.8179 33.712 32.8229 33.364C32.8439 31.948 32.6819 30.503 31.5599 29.505C30.8059 28.833 30.4989 28.058 30.4049 27.136C30.3289 26.401 30.1199 25.707 29.4479 25.364C27.6389 24.443 26.768 22.804 25.92 21.094C25.458 20.168 24.9519 19.23 23.7929 18.395ZM38.0039 48.005C38.5049 48.794 39.154 48.933 39.72 49.119C42.514 50.042 45.3519 50.833 48.0979 51.904C48.7399 52.154 49.435 52.264 50.165 52.455C50.618 51.932 51.056 51.48 51.431 50.982C52.001 50.224 52.74 50.044 53.653 50.08C54.704 50.121 55.5109 50.643 56.3569 51.144C58.3709 52.336 58.91 52.276 60.587 50.668C62.515 48.822 64.433 46.967 66.34 45.1C66.511 44.932 66.5739 44.653 66.7309 44.339C65.7089 43.818 64.8 43.356 63.739 42.815C63.37 44.507 62.9279 45.99 61.7189 46.928C61.7189 47.506 61.7189 47.956 61.7189 48.69C61.0789 48.062 60.653 47.608 60.19 47.196C59.341 46.441 58.404 45.851 57.277 45.566C55.4 45.09 53.4949 44.992 51.6849 45.639C50.4019 46.098 48.8229 45.91 47.8649 47.194C47.8129 47.264 47.6149 47.238 47.4849 47.234C45.9619 47.191 44.6699 47.888 43.2969 48.535C41.6789 47.993 40.0169 47.387 38.0039 48.005ZM46.717 45.595C48.564 45.767 49.319 44.869 49.522 43.458C49.68 42.358 49.7439 41.232 49.7099 40.121C49.6639 38.64 49.7119 37.21 50.3049 35.808C50.6249 35.049 50.8589 34.2 50.8909 33.381C50.9889 30.866 50.978 28.347 50.992 25.828C50.996 25.036 50.557 24.636 49.795 24.778C48.13 25.089 46.581 25.726 45.14 26.612C44.424 27.052 44.121 27.699 44.152 28.558C44.198 29.886 44.2069 31.218 44.1669 32.547C44.1229 33.991 44.4869 35.292 45.2179 36.54C46.2249 38.259 46.7489 40.131 46.7229 42.143C46.7049 43.254 46.717 44.364 46.717 45.595ZM73.478 37.173C72.466 35.697 73.1289 34.607 74.2009 33.622C74.2519 33.575 74.2999 33.522 74.3469 33.472C75.2739 32.469 75.2719 31.279 74.8439 30.12C74.3989 28.915 73.439 28.127 72.129 28.125C70.647 28.122 69.425 27.612 68.217 26.82C66.087 25.422 63.828 25.624 61.583 26.544C60.738 26.89 60.0169 27.43 59.5509 28.295C60.2929 29.188 61 30.036 61.617 30.779C63.235 30.67 64.693 30.565 66.153 30.472C67.242 30.403 68.177 30.798 69.138 31.298C70.247 31.874 70.988 32.56 70.765 33.884C70.649 34.572 71.113 34.87 71.445 35.172C71.084 35.766 70.7039 36.311 70.4079 36.897C70.0299 37.648 69.719 38.432 69.381 39.203C69.015 40.038 68.587 40.827 67.816 41.366C67.241 41.394 66.6799 41.411 66.1229 41.453C65.5359 41.498 64.951 41.567 64.247 41.639C65.094 43.314 66.581 43.251 67.894 43.605C69.982 41.734 71.624 39.56 73.478 37.173ZM34.028 34.784C31.554 35.94 29.653 37.439 27.191 37.262C24.893 37.097 22.5959 36.895 20.4339 35.641C19.8579 37.155 19.9009 38.569 20.2489 39.887C20.6429 41.38 21.3589 42.648 23.1709 43.093C25.0639 43.557 26.8629 44.406 28.7049 45.083C29.2259 45.274 29.7509 45.455 30.2269 45.625C31.5999 44.505 32.3479 43.122 32.6759 41.494C33.1019 39.382 33.528 37.27 34.028 34.784ZM59.3099 31.698C59.3099 32.536 59.2929 33.362 59.3179 34.187C59.3279 34.531 59.3429 34.916 59.4989 35.208C60.1469 36.42 60.8499 37.603 61.5209 38.777C61.2069 39.097 60.726 39.378 60.596 39.774C60.462 40.181 60.5169 40.809 60.7569 41.151C61.6359 42.395 61.1439 43.558 60.7099 44.742C60.6239 44.975 60.49 45.278 60.039 45.022C60.124 44.587 60.1929 44.122 60.3089 43.668C60.4539 43.094 60.482 42.524 60.04 42.089C59.214 41.273 59.235 40.342 59.618 39.371C59.935 38.566 59.7629 37.81 59.3399 37.163C58.5849 36.012 58.166 34.791 58.125 33.421C58.119 33.236 57.9859 32.994 57.8349 32.888C57.6999 32.794 57.418 32.781 57.276 32.863C57.118 32.953 56.9929 33.178 56.9429 33.368C56.4479 35.248 55.3409 36.773 54.1549 38.259C53.7259 38.795 53.3629 39.384 53.0549 39.825C53.3589 41.208 54.1319 41.912 55.2359 42.271C55.0199 42.843 54.459 43.251 54.97 43.913C55.91 44.154 56.958 44.319 57.923 44.697C58.95 45.099 59.8999 45.703 60.8919 46.223C61.7099 45.865 62.18 45.262 62.363 44.489C62.586 43.541 62.801 42.572 62.842 41.604C62.932 39.497 62.7029 37.395 62.2059 35.35C61.7769 33.584 61.2449 31.828 59.9779 30.425C59.4199 29.809 58.862 29.194 57.967 29.079C57.374 31.08 57.3909 31.11 59.3099 31.698ZM44.755 14.523C42.542 14.818 40.808 15.711 39.902 17.913C40.961 19.422 41.5699 21.131 42.7109 22.678C43.2419 21.585 43.648 20.615 44.169 19.71C45.177 17.962 46.19 16.23 47.889 14.987C49.184 14.041 50.3699 12.935 51.5379 11.83C52.9529 10.489 53.4239 8.82901 53.0289 6.92201C51.2789 6.91601 48.0169 7.80302 46.7349 8.60602C46.6169 8.68002 46.5049 8.76401 46.3829 8.83601C45.7369 9.22001 45.354 9.81701 45.242 10.525C45.039 11.816 44.921 13.122 44.755 14.523ZM52.944 5.46402C52.873 5.07502 52.9089 4.68301 52.7359 4.44101C52.1839 3.66601 51.415 3.18001 50.437 3.14601C47.971 3.06201 45.647 3.61301 43.756 5.22001C40.969 7.58901 38.7529 10.465 36.8349 13.546C37.3499 14.731 38.0629 15.634 38.9859 16.525C40.0579 15.347 41.2069 14.442 42.5889 13.866C43.4409 13.512 43.916 12.866 43.992 11.935C44.02 11.585 44.1009 11.237 44.0939 10.889C44.0539 9.27102 44.9219 8.26301 46.2959 7.61801C46.9249 7.32201 47.586 7.08201 48.251 6.87401C49.78 6.39401 51.318 5.94902 52.944 5.46402ZM56.7009 6.44801C56.0489 9.75001 56.04 11.691 56.686 13.839C57.319 13.526 57.9119 13.16 58.5539 12.932C60.1849 12.353 61.7229 11.502 63.5369 11.469C65.1309 11.44 66.7229 11.242 68.3139 11.099C68.7869 11.056 69.041 10.741 69.135 10.284C69.257 9.69701 69.185 9.15001 68.707 8.75401C68.226 8.35501 67.734 7.94501 67.187 7.65301C65.89 6.96301 64.544 6.52002 63.032 6.36502C61.291 6.18602 59.569 5.93801 57.821 6.12901C57.427 6.17101 57.0439 6.34701 56.7009 6.44801ZM74.668 20.274C74.618 22.502 73.8489 24.328 72.3819 25.877C72.1309 26.143 72.0619 26.581 71.8989 26.963C73.7889 27.378 74.5 27.683 75.116 28.557C76.333 30.286 76.657 32.277 75.159 34.201C74.901 34.532 74.523 34.798 74.355 35.164C74.21 35.48 74.283 35.898 74.239 36.589C76.067 35.098 77.335 33.533 78.609 32.16C78.657 30.478 78.757 28.941 78.72 27.408C78.699 26.583 78.605 25.683 78.256 24.956C77.408 23.189 77.23 21.337 77.129 19.433C77.066 18.246 76.872 17.064 76.674 15.891C76.545 15.124 76.2129 14.444 75.4949 14.07C74.7839 14.334 74.1439 14.735 74.2449 15.405C74.4379 16.698 74.8409 17.961 75.1919 19.225C75.2339 19.377 75.497 19.468 75.738 19.649C75.379 19.857 75.093 20.025 74.668 20.274ZM48.9679 2.02501C46.7729 0.916006 44.925 0.756019 42.967 1.59802C41.49 2.23302 39.943 2.70002 38.436 3.26402C36.697 3.91402 35.1709 4.86301 34.0639 6.52701C34.2609 7.38201 34.419 8.27702 34.681 9.14102C34.925 9.94402 35.2519 10.725 35.6029 11.488C35.7319 11.769 36.033 11.97 36.324 12.281C37.977 9.92902 39.5859 7.74702 41.5249 5.79402C43.5419 3.76002 45.8539 2.52801 48.9679 2.02501ZM34.5769 37.781C34.3339 38.98 34.189 39.945 33.932 40.879C33.692 41.753 33.395 42.623 33.009 43.442C32.607 44.295 32.0689 45.084 31.5079 46.043C32.7439 46.509 33.84 46.948 34.957 47.323C35.266 47.427 35.695 47.455 35.971 47.319C37.895 46.37 39.901 46.473 41.933 46.748C42.257 46.791 42.64 46.899 42.88 46.27C42.181 45.282 41.559 44.07 40.635 43.165C38.797 41.361 36.7919 39.729 34.5769 37.781ZM63.786 40.109C64.477 40.806 65.197 40.692 65.892 40.666C67.211 40.614 68.147 40.003 68.651 38.762C68.888 38.178 69.186 37.615 69.385 37.018C69.832 35.675 70.094 34.31 69.66 32.869C68.479 32.113 67.3779 31.265 65.8429 31.336C64.6519 31.391 63.489 31.429 62.424 32.194C63.188 34.803 63.835 37.373 63.786 40.109ZM64.1709 24.413C63.9279 24.11 63.7639 23.97 63.6789 23.792C62.6739 21.679 60.911 20.521 58.752 19.854C58.301 19.714 57.8269 19.387 57.4129 19.895C57.1219 20.252 57.4 20.793 58.061 21.216C58.238 21.329 58.41 21.459 58.601 21.538C60.38 22.278 61.805 23.486 62.884 24.841C64.106 24.841 65.138 24.841 66.066 24.841C66.869 23.859 66.734 22.87 66.596 21.906C66.4 20.53 66.044 20.131 64.635 19.893C63.529 19.705 62.7129 19.202 62.0329 18.31C61.6209 17.771 61.051 17.309 60.467 16.954C59.527 16.382 58.413 16.565 57.545 17.299C57.22 17.574 57.253 18.176 57.656 18.359C58.224 18.618 58.818 18.834 59.419 19.004C61.488 19.591 62.959 20.916 64.071 22.7C64.374 23.185 64.6359 23.68 64.1709 24.413ZM79.5409 24.218C79.5719 26.292 79.5929 28.093 79.6319 29.895C79.6389 30.207 79.529 30.612 80.159 30.74C81.361 29.188 83.4159 28.212 83.7619 25.821C82.4879 24.864 81.0859 24.424 79.5409 24.218ZM61.6669 25.258C60.6899 23.517 59.14 22.808 57.463 22.226C57.062 23.977 57.2769 26.039 57.9809 27.613C59.1439 26.869 60.3129 26.122 61.6669 25.258ZM54.0299 44.168C53.5549 42.689 52.95 41.638 51.82 40.742C51.513 41.03 51.066 41.251 50.984 41.566C50.727 42.562 50.607 43.594 50.414 44.734C51.661 44.85 52.6949 44.45 54.0299 44.168ZM57.574 53.299C56.618 52.616 55.895 52.097 55.169 51.581C54.554 51.144 53.8589 51.076 53.1579 51.261C52.3909 51.462 52.1609 52.106 51.8619 52.941C53.7339 53.454 55.454 53.835 57.574 53.299ZM18.674 37.522C17.582 38.073 16.993 38.92 16.782 40.042C17.988 41.137 17.9879 41.137 19.4509 41.472C19.1989 40.19 18.947 38.91 18.674 37.522ZM22.14 32.603C21.854 33.609 21.4119 34.19 21.8179 34.842C22.1499 35.376 22.679 35.683 23.489 35.311C23.082 34.495 22.705 33.738 22.14 32.603Z" fill="white"/>
</svg>
