<svg width="124" height="91" viewBox="0 0 124 91" fill="none" xmlns="http://www.w3.org/2000/svg">
<path d="M9.06598 6.66004C11.25 5.91704 13.045 4.38002 15.282 3.71402C18.213 2.84202 21.117 2.01505 24.208 2.82105C25.014 3.03105 25.776 2.81504 26.531 2.47904C30.576 0.677039 34.814 0.275045 39.174 0.760045C41.159 0.981045 43.169 1.04304 45.13 1.38804C47.714 1.84404 50.308 2.21404 52.895 2.63804C54.048 2.82704 55.099 3.56403 56.242 3.89603C60.133 5.02603 63.558 7.07102 66.9 9.26102C68.363 10.221 69.749 11.322 71.068 12.473C73.414 14.52 75.716 16.619 77.974 18.762C80.497 21.159 82.191 24.18 83.89 27.158C86.267 31.32 88.451 35.592 90.804 39.766C91.902 41.711 93.217 43.532 94.402 45.428C94.728 45.948 95.198 46.162 95.724 46.382C97.783 47.239 99.975 47.896 101.848 49.061C104.747 50.864 107.761 52.56 110.205 55.017C110.654 55.468 111.013 56.007 111.432 56.49C112.791 58.055 114.127 59.643 115.53 61.17C118.868 64.806 121.393 68.932 123.077 73.567C123.571 74.929 123.46 75.1881 122.15 76.8081C120.887 76.5711 119.866 75.877 118.999 74.901C118.311 74.126 117.64 73.329 116.892 72.613C116.215 71.965 115.544 71.268 114.529 71.115C112.602 70.824 111.418 69.609 110.624 67.921C110.489 67.634 110.322 67.363 110.144 67.04C109.611 66.906 109.062 66.807 108.539 66.632C106.816 66.059 105.373 65.181 104.618 63.38C104.359 62.762 103.826 62.137 103.252 61.798C101.951 61.029 101.119 59.874 100.339 58.671C99.602 57.533 98.977 56.323 98.308 55.143C98.004 54.607 97.604 54.285 96.994 54.437C96.796 55.62 96.552 56.775 96.432 57.942C96.387 58.38 96.532 58.906 96.761 59.29C97.586 60.672 97.506 62.05 96.813 63.409C96.346 64.326 96.184 65.215 96.65 66.155C97.405 67.68 97.008 69.107 96.299 70.508C96.049 71.001 95.76 71.475 95.436 72.051C97.29 74.533 97 76.9651 95.135 79.2001C95.248 79.5541 95.264 79.823 95.401 79.996C97.155 82.222 97.593 84.913 98.106 87.577C98.167 87.888 98.213 88.212 98.192 88.525C98.055 90.599 96.889 91.701 94.84 90.437C93.836 89.817 92.923 88.99 92.115 88.12C89.651 85.469 87.743 82.413 86.049 79.234C84.512 76.347 82.986 73.446 81.642 70.467C80.825 68.657 80.29 66.71 79.754 64.789C79.002 62.089 78.541 59.34 78.584 56.513C78.611 54.807 78.963 53.177 79.492 51.589C79.975 50.141 80.742 48.83 81.897 47.776C82.413 47.304 82.867 46.765 83.487 46.113C83.021 45.788 82.736 45.545 82.412 45.372C81.111 44.671 80.172 43.583 79.287 42.447C78.697 41.692 78.205 40.862 77.601 40.12C77.453 39.937 77.043 39.967 76.754 39.898C76.702 40.178 76.653 40.461 76.595 40.74C76.579 40.812 76.527 40.878 76.452 41.021C75.054 41.41 74.48 39.58 73.094 39.71C71.954 39.815 71.037 38.332 69.658 39.108C69.658 39.382 69.658 39.689 69.658 40.129C69.133 40.363 68.482 40.517 68.022 40.899C67.572 41.273 67.316 41.879 66.962 42.403C66.204 41.71 66.886 41.011 66.783 40.233C65.886 40.111 64.955 39.924 64.016 39.87C61.936 39.749 60.104 39.112 58.762 37.508C56.643 37.671 54.619 37.826 52.338 38.002C53.192 39.332 53.807 40.538 54.667 41.533C55.133 42.073 56.016 42.254 56.725 42.604C56.797 43.179 56.351 43.194 55.977 43.217C54.659 43.3 53.932 42.428 53.346 41.448C52.735 40.428 52.229 39.343 51.018 38.559C50.526 38.847 49.958 39.179 49.358 39.531C49.151 38.562 50.094 38.223 50.551 37.448C48.644 37.077 46.819 36.868 45.088 36.343C43.422 35.836 41.856 35.002 40.164 34.278C36.87 34.879 33.494 34.825 29.969 33.824C30.662 34.723 31.737 35.411 30.51 36.594C30.028 35.024 29.129 33.949 27.383 33.526C25.446 36.557 22.76 38.754 19.365 40.312C19.755 40.857 20.048 41.266 20.361 41.705C18.433 41.651 18.433 41.651 16.916 42.969C17.074 42.226 17.197 41.656 17.365 40.868C15.758 41.212 14.332 41.116 12.982 40.603C11.476 40.032 10.085 39.256 9.07099 37.934C8.44399 37.116 7.77499 36.329 7.12499 35.528L7.17399 35.592C6.96299 34.337 6.76399 33.08 6.53899 31.828C6.18599 29.866 5.81199 27.909 5.45699 25.948C5.11899 24.083 4.191 22.573 2.792 21.307C1.67 22.121 2.77299 22.5 3.12299 23.19C2.75099 23.299 2.43399 23.392 1.99999 23.519C1.55499 24.784 1.90399 26.096 1.92399 27.367C4.94899 28.311 5.09799 28.443 4.86799 30.16C4.30999 29.607 3.90999 29.029 3.35799 28.713C2.75399 28.366 2.011 28.263 1.21 28.017C0.586997 26.796 0.978995 25.436 1.13199 24.133C1.29599 22.732 1.74699 21.366 1.96699 19.969C2.04799 19.455 1.91899 18.857 1.72399 18.361C1.18399 16.993 1.24899 15.733 2.04999 14.478C2.47399 13.812 2.52698 13.038 2.65198 12.245C2.98798 10.115 4.25399 8.42903 6.14199 7.37003C7.02199 6.87803 8.03299 6.48804 9.12099 6.62604C8.94299 7.14304 8.70899 7.64903 8.60099 8.18003C8.45199 8.92303 8.12599 9.48905 7.28199 9.89005C7.36499 9.28605 7.43099 8.79502 7.50599 8.25702C5.96399 8.55902 5.96399 8.55904 5.50799 11.38C6.59099 11.554 7.65298 11.809 8.96898 11.299C8.82198 9.75905 9.38198 8.24104 9.06598 6.66004ZM77.613 26.415C78.248 27.134 78.857 27.879 79.531 28.56C79.793 28.826 80.193 29.091 80.541 29.107C81.524 29.15 82.514 29.063 83.781 29.017C83.082 27.913 82.541 27.0571 81.952 26.1271C80.414 26.2481 78.988 26.36 77.562 26.474C78.472 25.519 79.712 25.207 80.958 24.866C80.909 24.115 80.64 23.701 79.94 23.813C79.157 23.939 78.393 24.181 77.609 24.298C77.383 24.332 77.12 24.109 76.833 23.986C77.565 22.959 78.97 23.49 79.54 22.434C79.349 22.213 79.189 21.884 79.048 21.891C77.557 21.963 76.074 22.109 74.744 23.216C75.736 24.321 76.675 25.368 77.613 26.415ZM3.79499 19.72L3.73899 19.672C3.97599 20.749 4.46499 21.664 5.46099 22.525C5.86399 20.67 6.202 19.045 6.572 17.428C6.937 15.836 7.64699 14.367 8.50999 12.746C7.00399 12.746 5.75699 12.744 4.50999 12.753C4.46199 12.754 4.41399 12.8581 4.26999 13.0281C4.35399 13.4541 4.45698 13.971 4.56598 14.524C3.99498 15.698 3.07899 16.742 2.79099 18.256C3.08999 18.693 3.44299 19.206 3.79499 19.72ZM19.631 8.68305C19.282 9.13905 18.934 9.59403 18.301 10.421C18.244 7.86603 19.131 6.02705 19.833 4.01505C19.315 4.01505 18.951 4.01505 18.547 4.01505C18.193 5.10905 17.922 6.18703 17.492 7.19703C17.09 8.14403 17.217 9.38805 15.955 10.204C15.914 9.66505 15.814 9.35604 15.883 9.09104C16.194 7.86104 16.565 6.64603 16.885 5.41803C16.951 5.16403 16.895 4.87803 16.895 4.59903C16.01 4.62603 15.656 5.11502 15.353 5.71402C15.082 6.25002 15.033 6.97703 14.265 7.14103L14.303 7.17304C14.22 6.67204 14.137 6.17202 14.049 5.64902C12.943 5.93602 12.338 6.40904 12.281 7.48404C12.25 8.07404 11.979 8.65203 11.785 9.34903C11.176 8.68103 11.789 7.74902 10.701 7.22202C10.282 8.67002 9.77999 9.94805 10.354 11.446C10.8 11.513 11.182 11.608 11.568 11.625C13.797 11.723 16.028 11.911 18.252 11.848C19.729 11.806 21.274 11.781 22.584 11.076C22.7 10.838 22.811 10.702 22.834 10.553C23.114 8.65504 23.494 6.79203 24.641 5.18503C24.73 5.06103 24.78 4.89003 24.791 4.73703C24.803 4.58903 24.742 4.43505 24.691 4.17005C24.384 4.09305 24.03 4.00503 23.526 3.87903C22.796 5.40103 22.117 6.82703 21.427 8.24903C21.255 8.60403 21.078 8.96202 20.862 9.29102C20.59 9.70402 20.166 9.62705 19.742 9.08805C19.648 8.96905 19.631 8.79203 19.578 8.64203C20.674 7.45303 21.676 5.41005 21.995 3.65305C21.756 3.74005 21.442 3.76003 21.384 3.89103C20.695 5.44503 19.292 6.75005 19.631 8.68305ZM68.451 11.916L68.515 11.963C68.255 11.403 67.777 11.065 67.202 11.07C66.753 11.075 66.222 11.228 65.877 11.505C65.135 12.1 64.501 12.827 63.8 13.477C63.573 13.689 63.458 14.208 62.849 13.876C63.302 13.163 63.723 12.49 64.156 11.825C64.571 11.187 65.426 10.85 65.529 9.90104C65.25 9.82304 65.003 9.66302 64.833 9.72202C64.157 9.95802 63.52 10.308 62.842 10.533C61.115 11.109 60.056 12.287 59.46 14.021C62.959 16.031 66.386 18 69.622 19.858C70.973 18.885 72.136 18.062 73.279 17.212C73.506 17.044 73.656 16.775 73.91 16.471C73.4 16.038 72.992 15.692 72.586 15.347C71.702 15.653 71.277 16.6781 70.039 16.5281C70.711 15.8241 71.268 15.24 71.832 14.648C70.98 13.973 70.971 13.958 70.59 14.218C69.669 14.849 68.779 15.529 67.829 16.113C67.583 16.264 67.165 16.135 66.277 16.135C67.289 15.433 67.868 15.049 68.426 14.637C68.988 14.223 69.529 13.779 70.031 13.386C69.789 12.424 69.191 12.087 68.451 11.916ZM57.041 10.586C56.627 10.769 56.213 10.951 55.52 11.257C56.129 8.92002 58.112 7.86104 59.221 5.91004C58.729 5.96704 58.353 5.89502 58.192 6.05002C57.624 6.59202 57.102 7.19004 56.614 7.80704C55.876 8.74404 55.186 9.71904 54.456 10.664C54.396 10.741 54.188 10.704 54.048 10.72C53.927 9.73504 53.941 9.74803 55.267 8.17103C56.452 6.76103 56.538 6.51405 56.749 5.21305C54.399 6.31405 53.911 8.94603 52.077 10.555C51.757 9.73903 52.11 9.27604 52.395 8.83304C53.17 7.62604 53.997 6.45104 54.762 5.23804C54.895 5.02904 54.834 4.69805 54.873 4.31605C53.568 4.97105 53.553 4.96203 53.131 5.65503C52.551 6.60803 52.02 7.59305 51.42 8.53205C51.24 8.81105 51.033 9.25405 50.369 8.94605C50.817 7.22405 52.481 5.99803 52.664 3.76703C50.98 4.98403 50.717 6.95304 49.011 8.12104C49.106 6.24504 50.652 5.27602 50.756 3.77402C49.654 3.39102 49.363 3.35505 48.986 3.65305C47.588 4.75205 46.449 6.08104 45.708 7.69904C45.501 8.15304 45.583 8.73903 45.53 9.27903C47.721 9.96303 49.788 10.537 51.803 11.257C53.877 11.998 55.903 12.881 57.864 13.667C58.06 13.541 58.142 13.512 58.19 13.453C58.342 13.271 58.52 13.097 58.619 12.887C59.531 10.958 60.963 9.70704 63.106 9.31604C63.341 9.27304 63.528 8.96904 63.739 8.78504C63.198 8.00804 62.551 7.76605 61.815 7.69605C61.4 7.18805 60.917 6.80603 60.221 6.81803C59.569 7.41803 58.904 7.98804 58.287 8.60804C57.73 9.16804 57.123 9.71803 57.041 10.586ZM40.721 6.73703C40.196 7.17303 39.67 7.60902 38.92 8.23102C38.801 6.79102 37.623 7.64003 36.979 7.19303C37.136 6.84703 37.217 6.62705 37.333 6.42405C38.081 5.10805 38.856 3.80603 39.564 2.46903C39.653 2.30203 39.454 1.91205 39.286 1.71305C39.222 1.63705 38.85 1.77304 38.652 1.87604C38.53 1.93904 38.461 2.11805 38.388 2.25605C37.644 3.66105 36.928 5.08404 36.149 6.47004C35.872 6.96604 35.452 7.12505 35.132 6.45405C35.717 4.84505 37.233 3.65603 37.287 1.75303C36.66 1.75303 36.195 1.75303 35.659 1.75303C35.481 3.82903 34.559 5.58403 33.555 7.30103C33.396 7.57303 33.091 7.76404 32.718 7.26804C33.092 6.48304 33.532 5.65404 33.885 4.78904C34.239 3.92304 34.681 3.04102 34.16 1.88202C33.746 1.88202 33.293 1.87303 32.84 1.88303C31.59 1.91103 30.725 2.46403 30.32 3.69303C29.948 4.82803 29.539 5.95005 29.138 7.07505C28.964 7.56405 28.958 8.17903 27.913 8.44803C28.183 6.48403 29.222 4.83204 29.218 2.83304C27.467 4.39604 26.386 7.22504 26.435 9.89704C28.419 10.426 30.338 9.52905 32.302 9.52305C34.211 9.51705 36.117 9.18502 38.027 9.14902C40.009 9.11102 41.996 9.25605 44.088 9.32505C44.777 6.98305 45.738 4.83303 47.656 3.27503C46.852 2.35103 45.989 2.43703 45.263 3.02103C44.597 3.55703 44.028 4.25902 43.56 4.98102C42.994 5.85202 42.505 6.75302 41.435 7.23102C41.185 7.05402 40.929 6.87504 40.674 6.69404C42.26 5.82004 43.097 4.32504 43.88 2.79404C43.909 2.73704 43.726 2.57204 43.544 2.32804C42.098 3.49504 41.197 4.97203 40.721 6.73703ZM8.973 14.801C9.541 14.98 10.012 15.266 9.99599 15.947C9.98299 16.505 9.93498 17.064 9.87198 17.619C9.43998 21.428 9.07799 25.235 9.49399 29.073C9.86599 32.509 10.764 35.795 12.209 38.932C12.23 38.978 12.355 38.976 12.77 39.086C12.179 36.508 11.406 34.124 10.961 31.674C10.488 29.07 10.312 26.453 10.34 23.806C10.367 21.259 10.52 18.73 10.777 16.148C11.37 15.985 11.986 15.969 12.381 15.666C12.805 15.342 13.02 14.745 13.483 14.025C14.071 15.653 13.944 16.952 13.626 18.27C13.48 18.874 13.347 19.497 13.329 20.116C13.293 21.394 13.36 22.675 13.346 23.954C13.309 27.099 13.902 30.153 14.665 33.179C15.176 35.2 15.925 37.138 16.983 38.945C17.182 39.286 17.402 39.729 17.866 39.473C18.305 39.23 18.091 38.776 17.96 38.402C17.829 38.025 17.683 37.653 17.552 37.275C16.953 35.54 16.384 33.794 15.755 32.069C14.735 29.266 14.53 26.296 13.923 23.408C13.647 22.093 13.786 20.671 14.189 19.312C14.464 20.738 14.718 22.056 15.023 23.629C15.168 23.181 15.294 22.982 15.281 22.791C15.236 22.155 15.149 21.5221 15.062 20.8901C14.815 19.0731 14.545 17.258 14.318 15.439C14.269 15.049 14.344 14.633 14.996 14.478C15.484 15.213 15.516 16.419 16.743 16.642C16.928 16.676 17.039 17.3301 17.117 17.7091C17.518 19.6651 17.847 21.636 18.295 23.58C19.256 27.751 21.253 31.497 23.21 35.253C23.307 35.441 23.56 35.547 23.729 35.682C24.885 34.976 24.881 34.971 25.373 33.827C23.622 33.026 22.53 31.592 21.584 29.985C18.804 25.264 18.323 20.043 18.211 14.738C18.204 14.433 18.269 14.093 18.712 14.106C18.829 14.212 19.026 14.303 19.04 14.418C19.212 15.762 19.472 17.108 19.478 18.455C19.488 20.398 19.745 22.282 20.404 24.097C21.085 25.971 21.741 27.868 22.621 29.652C23.351 31.132 24.371 32.483 26.047 32.96C26.697 32.56 26.724 32.138 26.354 31.689C25.443 30.584 24.547 29.4611 23.584 28.4031C22.465 27.1721 21.932 25.689 21.56 24.119C21.395 23.422 21.199 22.727 21.085 22.021C20.641 19.26 20.178 16.498 20.973 13.715C21.05 13.442 20.953 13.118 20.932 12.697C19.01 12.697 17.176 12.535 15.385 12.742C13.566 12.953 11.735 12.221 9.87699 12.86C9.58699 13.537 9.30698 14.19 9.02498 14.844C7.70898 16.363 7.34698 18.233 7.10898 20.137C6.96098 21.325 7.01299 22.553 6.72799 23.701C6.35499 25.215 6.472 26.69 6.71 28.168C6.962 29.74 7.26699 31.313 7.69599 32.844C8.01399 33.98 8.53799 35.064 9.03599 36.141C9.15999 36.411 9.397 36.863 10.018 36.53C9.869 35.93 9.72199 35.328 9.56699 34.728C8.48399 30.532 7.88299 26.2971 8.37899 21.9461C8.64599 19.5721 8.777 17.184 8.973 14.801ZM45.483 33.094L45.528 33.161C45.482 31.653 45.484 30.141 45.382 28.638C45.088 24.306 46.386 20.324 48.008 16.41C48.082 16.23 48.358 16.135 48.541 15.999C48.855 16.46 49.142 16.878 49.431 17.301C49.999 16.936 50.428 16.659 50.842 16.394C51.658 17.341 50.815 18.274 51.104 19.166C51.45 18.348 51.608 17.5061 51.834 16.6831C51.948 16.2661 52.183 15.882 52.379 15.448C53.172 15.997 54.251 15.776 54.55 16.815L54.606 16.759C54.454 17.026 54.236 17.275 54.159 17.562C53.579 19.721 53.242 21.911 52.983 24.143C52.508 28.248 52.903 32.245 53.668 36.296C54.706 36.688 55.745 36.552 56.767 36.45C57.796 36.347 58.175 35.807 58 34.824C57.764 33.491 57.396 32.169 57.292 30.825C57.052 27.722 56.915 24.623 57.683 21.539C58.177 19.554 58.429 17.509 58.798 15.438C57.193 14.63 55.751 13.754 54.2 13.158C51.821 12.242 49.368 11.512 46.942 10.717C46.72 10.645 46.462 10.692 46.23 10.637C44.805 10.305 43.704 10.899 42.879 11.96C40.639 14.849 38.873 17.934 39.184 21.799C39.288 23.073 39.239 24.361 39.371 25.63C39.549 27.337 39.733 29.056 40.54 30.637C40.644 30.078 40.716 29.509 40.579 28.996C39.898 26.432 40.186 23.912 40.905 21.427C41.548 19.2 42.272 16.991 43.581 15.042C43.77 14.76 44.132 14.593 44.634 14.2C44.757 15.228 45.056 15.835 44.657 16.714C43.364 19.568 42.587 22.586 42.445 25.737C42.322 28.476 42.641 31.155 43.675 33.715C43.816 34.063 44.038 34.49 44.343 34.64C45.822 35.37 47.4 35.733 49.198 35.614C48.088 35.437 47.973 34.65 47.805 33.864C47.301 31.516 46.883 29.162 46.98 26.746C46.996 26.347 47.006 25.945 46.975 25.548C46.951 25.245 46.856 24.947 46.735 24.376C46.6 24.843 46.522 24.991 46.518 25.142C46.457 27.774 46.219 30.412 46.87 33.017C46.991 33.5 47.209 34.126 46.387 34.452C46.08 33.99 45.781 33.542 45.483 33.094ZM23.566 26.476C23.591 24.392 22.843 22.458 22.855 20.383C22.873 16.653 22.984 15.541 24.085 14.173C24.175 14.559 24.321 14.846 24.289 15.111C24.187 15.983 24.101 16.8701 23.859 17.7091C23.256 19.8101 23.629 21.8181 24.274 23.8211C24.569 24.7331 24.872 25.643 25.128 26.566C25.253 27.016 25.44 27.544 25.314 27.95C24.969 29.064 25.634 29.516 26.61 30.299C26.536 29.588 26.52 29.226 26.457 28.873C26.092 26.829 25.772 24.774 25.324 22.748C24.81 20.42 25.316 18.137 25.486 15.839C25.517 15.405 25.627 14.872 26.425 14.784C26.486 15.036 26.624 15.305 26.598 15.558C26.425 17.218 26.02 18.881 26.069 20.532C26.127 22.436 26.477 24.348 26.879 26.22C27.23 27.85 27.816 29.43 28.323 31.024C28.511 31.614 28.969 31.901 29.767 31.938C29.652 31.368 29.57 30.842 29.435 30.331C28.966 28.557 28.348 26.81 28.027 25.011C27.373 21.355 27.562 17.685 28.267 14.044C28.338 13.675 28.435 13.241 29.004 13.421C29.064 13.571 29.179 13.721 29.167 13.858C28.96 16.082 28.76 18.305 28.511 20.525C28.259 22.787 28.872 25.9681 30.286 28.614C30.098 27.364 29.962 26.594 29.872 25.819C29.688 24.234 29.337 22.638 29.408 21.062C29.513 18.756 29.915 16.464 30.23 14.171C30.26 13.952 30.573 13.772 30.93 13.383C31.018 13.972 31.124 14.279 31.096 14.573C30.998 15.607 30.871 16.638 30.726 17.668C30.137 21.847 30.495 25.936 31.871 29.931C32.026 30.381 32.187 30.84 32.427 31.248C32.591 31.527 32.77 31.99 33.285 31.699C31.537 24.476 31.684 16.377 33.586 14.586C33.674 14.711 33.839 14.8361 33.837 14.9591C33.829 15.3531 33.807 15.757 33.707 16.136C32.656 20.166 32.816 24.225 33.519 28.269C33.748 29.589 34.302 30.858 34.751 32.135C35.01 32.87 35.643 33.24 36.346 33.476C36.784 33.623 37.086 33.531 37.971 33.049C35.554 31.925 35.174 31.454 34.487 28.727C34.448 28.572 34.426 28.413 34.391 28.256C33.644 24.932 33.893 21.569 34.135 18.229C34.219 17.072 34.782 15.938 35.209 14.825C35.371 14.404 35.789 14.323 36.219 14.807C36.044 15.282 35.817 15.79 35.682 16.322C35.626 16.543 35.769 16.814 35.84 17.152C36.835 16.383 36.784 15.35 37.148 14.501C37.313 14.113 37.436 13.541 38.225 13.805C37.768 15.792 37.179 17.763 36.891 19.777C36.584 21.921 36.989 24.073 37.258 26.217C37.576 28.743 38.137 30.474 39.293 31.787C39.275 31.506 39.309 31.261 39.24 31.048C38.418 28.505 38.236 25.882 38.227 23.234C38.225 22.596 38.136 21.96 38.121 21.322C38.076 19.551 38.262 17.802 39.089 16.217C39.974 14.522 40.76 12.761 42.025 11.284C42.239 11.036 42.296 10.654 42.5 10.149C35.764 9.84502 29.369 10.385 23.213 12.141C22.176 13.336 21.777 14.619 21.666 15.998C21.404 19.242 22.233 22.332 23.049 25.42C23.146 25.792 23.391 26.125 23.566 26.476ZM96.712 89.671C97.117 88.445 97.263 87.313 97.052 86.091C96.598 83.467 95.326 81.263 93.477 79.452C91.457 77.477 89.916 75.154 88.235 72.928C86.969 71.251 86.149 69.331 85.407 67.399C83.594 62.68 82.701 57.731 81.969 52.751C81.867 52.058 81.866 51.34 81.112 50.696C80.737 51.557 80.324 52.323 80.065 53.138C79.447 55.088 79.713 57.055 79.876 59.063C80.21 63.194 81.612 66.994 83.022 70.811C84.078 73.669 85.721 76.235 87.116 78.923C87.811 80.265 88.606 81.561 89.43 82.829C90.169 83.965 90.959 85.075 91.821 86.121C92.579 87.043 93.446 87.879 94.301 88.716C94.883 89.283 95.583 89.658 96.712 89.671ZM65.785 20.372C66.345 20.846 66.627 20.968 66.643 21.117C66.716 21.819 66.739 22.528 66.74 23.235C66.741 25.469 66.653 27.706 66.738 29.937C66.801 31.606 67.092 33.266 67.256 34.932C67.34 35.789 67.369 36.653 67.838 37.715C68.408 36.437 68.07 35.441 67.936 34.457C67.838 33.748 67.598 33.05 67.577 32.342C67.481 29.231 67.421 26.117 67.657 23.009C67.679 22.71 67.705 22.356 68.274 22.415C68.754 23.427 68.606 24.529 68.566 25.626C68.442 28.979 68.36 32.332 69.126 35.634C69.177 35.85 69.412 36.023 69.749 36.458C69.46 31.025 69.19 25.951 68.924 20.925C66.241 18.766 62.05 16.476 60.101 16.122C59.326 17.954 59.023 19.922 58.632 21.867C57.914 25.44 58.181 29.028 58.61 32.592C58.775 33.962 59.179 35.359 60.15 36.693C60.653 35.726 60.529 34.935 60.394 34.179C59.771 30.709 59.387 27.236 59.856 23.707C59.982 22.76 59.935 21.791 60.023 20.837C60.057 20.464 60.188 20.034 60.91 20.305C60.914 21.758 60.828 23.254 60.747 24.754C60.67 26.184 60.578 27.631 60.715 29.048C60.959 31.586 61.358 34.111 61.723 36.636C61.791 37.106 62.008 37.554 62.157 38.012C62.332 36.669 62.297 35.391 62.065 34.15C61.251 29.777 61.467 25.402 61.93 21.022C61.957 20.769 62.211 20.54 62.565 19.963C62.986 21.425 62.846 22.5301 62.675 23.5841C62.022 27.6051 62.635 31.55 63.28 35.496C63.37 36.043 63.621 36.563 63.719 37.11C63.813 37.632 63.803 38.174 63.848 38.851C64.307 38.726 64.653 38.63 65.005 38.534C64.666 36.012 64.17 33.647 64.072 31.264C63.941 28.081 64.112 24.886 64.174 21.697C64.182 21.309 64.299 20.919 64.412 20.544C64.439 20.45 64.648 20.411 64.799 20.333C65.455 20.792 65.162 21.467 65.151 22.055C65.079 25.72 64.545 29.386 65.247 33.048C65.581 34.793 65.515 36.626 66.444 38.249C66.385 36.104 66.354 33.951 66.008 31.851C65.402 28.184 65.875 24.532 65.785 20.372ZM83.709 47.778C82.533 48.187 82.424 49.099 82.576 50.098C82.842 51.834 83.156 53.563 83.437 55.296C84.079 59.242 84.893 63.1451 86.32 66.8941C86.603 67.6371 86.916 68.372 87.258 69.09C88.503 71.705 90.357 73.926 91.983 76.292C92.517 77.07 93.102 77.852 94.016 78.138C94.905 77.877 95.229 77.252 95.421 76.537C95.654 75.668 95.753 74.743 95.283 73.964C94.605 72.837 94.194 71.5881 92.974 70.7261C91.841 69.9241 90.984 68.665 90.171 67.493C87.722 63.952 86.517 59.874 85.426 55.781C84.731 53.171 84.283 50.495 83.709 47.778ZM76.036 27.716C76.753 31.261 75.912 34.633 76.889 38.142C77.416 34.953 77.89 32.089 78.371 29.173C76.579 26.239 73.062 23.193 70.445 22.359C70.36 22.564 70.196 22.774 70.201 22.98C70.227 24.014 70.281 25.048 70.356 26.081C70.584 29.183 70.335 32.313 70.945 35.392C71.08 36.068 71.164 36.753 71.822 37.523C71.896 35.575 71.93 33.916 71.707 32.245C71.548 31.062 71.523 29.861 71.471 28.667C71.457 28.365 71.53 28.0251 72.01 28.0711C72.535 28.6621 72.319 29.41 72.393 30.092C72.463 30.727 72.468 31.3671 72.534 32.0021C72.608 32.7161 72.739 33.424 72.805 34.139C72.863 34.775 72.866 35.414 72.887 36.053C72.919 37.066 72.917 37.066 73.406 37.948C73.482 37.677 73.604 37.455 73.599 37.237C73.516 34.052 73.411 30.867 73.328 27.681C73.319 27.359 73.44 27.058 74.042 27.114C74.638 30.628 73.831 34.324 75.038 37.812C75.228 37.291 75.327 36.772 75.327 36.253C75.329 34.338 75.296 32.423 75.282 30.507C75.278 29.87 75.246 29.228 75.323 28.6C75.351 28.366 75.656 28.168 76.036 27.716ZM94.599 70.628C96.447 68.247 96.365 66.7451 94.403 64.8941C93.997 64.5111 93.567 64.154 93.153 63.78C91.467 62.259 90.241 60.437 89.348 58.341C88.153 55.532 87.419 52.61 86.883 49.622C86.799 49.152 86.75 48.671 86.612 48.218C86.432 47.626 86.074 47.541 85.136 47.78C84.914 50.053 85.7 52.163 86.14 54.335C86.954 58.354 88.372 62.138 90.307 65.735C91.33 67.634 92.498 69.425 94.599 70.628ZM82.49 44.298C83.031 44.418 83.417 44.607 83.751 44.541C83.962 44.498 84.215 44.086 84.244 43.817C84.353 42.789 84.367 41.751 84.449 40.718C84.47 40.451 84.391 40.053 84.898 40.034C85.571 40.473 85.267 41.145 85.291 41.741C85.314 42.332 85.361 42.922 85.428 43.989C86.059 42.886 86.445 42.213 86.801 41.591C86.717 41.264 86.705 41.006 86.591 40.808C85.244 38.466 83.936 36.1 82.503 33.811C81.766 32.632 80.932 31.465 79.574 30.657C78.199 32.77 78.73 35.099 78.285 37.228C78.707 38.268 78.371 39.594 79.563 40.614C79.749 39.994 79.955 39.564 79.994 39.119C80.087 38.088 80.087 37.049 80.15 36.014C80.169 35.722 80.181 35.356 80.703 35.392C80.786 35.578 80.951 35.78 80.959 35.986C81.023 37.816 81.183 39.66 80.558 41.435C80.297 42.178 80.508 42.654 81.281 42.959C81.827 42.425 81.936 41.737 81.987 41.034C82.044 40.239 82.044 39.439 82.139 38.65C82.166 38.425 82.44 38.23 82.786 37.782C83.108 40.096 82.893 42.052 82.49 44.298ZM95.357 47.533C96.121 49.249 96.689 50.546 97.277 51.835C97.443 52.196 97.593 52.603 97.869 52.867C98.872 53.825 99.396 55.087 100.119 56.224C100.803 57.298 101.547 58.334 102.293 59.368C102.859 60.154 103.566 60.74 104.684 60.827C104.769 60.425 104.937 60.104 104.879 59.831C104.275 56.943 103.515 54.096 102.203 51.442C101.866 50.759 101.277 50.108 100.642 49.686C99.192 48.725 97.621 47.968 95.357 47.533ZM94.832 63.772C95.703 63.292 95.865 62.579 96.031 61.887C96.336 60.629 95.978 59.914 94.815 59.126C94.298 58.776 93.818 58.353 93.39 57.899C91.732 56.145 91.128 53.916 90.719 51.631C90.657 51.286 91.058 50.859 91.282 50.393C90.289 49.911 89.43 49.255 88.317 49.088C87.92 54.112 90.762 60.478 94.832 63.772ZM104.088 51.94C104.01 52.174 103.893 52.335 103.926 52.454C104.276 53.679 104.669 54.89 105.012 56.116C105.481 57.797 106.181 59.474 105.761 61.254C105.333 63.065 106.207 64.1451 107.584 65.0151C108.182 65.3921 108.835 65.891 109.556 65.443C110.239 65.019 110.26 64.237 110.227 63.507C110.211 63.192 110.168 62.865 110.065 62.569C109.006 59.566 107.957 56.558 106.44 53.746C105.936 52.809 105.141 52.199 104.088 51.94ZM115.002 69.888C115.109 69.303 115.281 68.847 115.26 68.401C115.173 66.631 114.684 64.958 113.92 63.36C113.646 62.787 113.201 62.196 113.201 61.612C113.201 60.464 112.728 59.674 111.931 58.937C111.531 58.568 111.283 58.038 110.957 57.587C110.462 56.899 109.849 56.359 108.735 55.716C109.143 56.838 109.367 57.577 109.674 58.281C110.636 60.485 111.442 62.689 111.117 65.191C110.961 66.402 111.621 67.511 112.294 68.499C112.854 69.317 113.699 69.772 115.002 69.888ZM122.063 75.376C122.423 74.265 122.209 73.427 121.822 72.629C120.214 69.322 118.38 66.155 115.904 63.405C115.794 63.282 115.538 63.288 115.137 63.173C115.842 65.492 116.44 67.63 116.495 69.874C116.504 70.221 116.777 70.607 117.025 70.893C117.857 71.85 118.723 72.779 119.593 73.702C120.236 74.382 120.82 75.163 122.063 75.376ZM11.976 18.881C11.836 18.887 11.697 18.894 11.557 18.901C11.485 19.612 11.351 20.325 11.354 21.036C11.362 23.434 11.33 25.837 11.478 28.227C11.667 31.27 12.321 34.245 13.366 37.109C13.684 37.983 14.27 38.775 14.821 39.543C15.051 39.866 15.509 39.918 15.872 39.579C15.857 39.421 15.886 39.252 15.825 39.125C13.473 34.208 12.395 29.011 12.38 23.576C12.376 22.617 12.359 21.655 12.287 20.699C12.24 20.088 12.083 19.486 11.976 18.881ZM16.445 20.286C16.112 24.565 19.334 34.855 21.828 37.596C22.135 37.268 22.435 36.949 22.699 36.666C21.419 33.935 20.218 31.331 18.98 28.744C17.699 26.061 17.248 23.143 16.445 20.286ZM95.094 51.711C94.885 50.959 94.869 50.639 94.72 50.404C93.987 49.25 93.092 48.244 91.977 47.427C90.438 46.301 88.85 45.222 87.805 43.555C87.748 43.464 87.529 43.475 87.309 43.419C86.577 44.121 86.524 45.059 86.42 46.007C87.639 47.191 89.158 47.752 90.502 48.588C91.916 49.468 93.262 50.458 95.094 51.711ZM76.066 18.694C75.882 18.417 75.816 18.263 75.704 18.161C75.592 18.059 75.42 17.929 75.295 17.947C73.416 18.226 71.882 19.006 70.998 20.904C71.906 21.576 72.725 22.182 73.557 22.798C74.336 22.368 75.024 21.967 75.731 21.607C76.403 21.264 77.096 20.9641 78.089 20.5021C77.01 19.9681 76.275 20.035 75.535 20.306C74.792 20.578 74.232 21.318 72.943 21.349C74.152 20.319 75.051 19.557 76.066 18.694ZM92.24 51.449C91.927 53.904 92.859 56.041 94.814 57.493C96.143 56.878 95.798 55.657 95.851 54.584C95.891 53.748 95.374 53.281 94.722 52.903C93.907 52.431 93.096 51.951 92.24 51.449ZM15.877 26.402C15.575 28.754 16.278 30.475 16.783 32.179C17.451 34.434 18.074 36.744 19.494 38.808C19.864 38.58 20.115 38.426 20.293 38.316C18.848 34.418 17.445 30.632 15.877 26.402ZM89.248 42.603C89.041 43.508 89.51 44.036 89.973 44.397C91.18 45.335 92.17 46.608 94.234 47.312C93.192 45.272 92.137 43.854 91.035 42.392C90.395 42.468 89.797 42.539 89.248 42.603ZM49.096 33.585C49.024 31.667 48.946 29.86 48.888 28.053C48.83 26.242 49.143 24.41 48.702 22.274C47.602 25.917 47.814 31.13 49.096 33.585ZM52.09 33.426C52.09 32.882 52.185 32.318 52.072 31.798C51.647 29.818 51.869 27.858 52.012 25.871C52.134 24.179 52.41 22.46 52.001 20.758C51.021 24.979 51.019 29.201 52.09 33.426ZM50.457 22.551C50.273 22.565 50.089 22.578 49.904 22.591C49.904 25.296 49.855 28.003 49.924 30.706C49.96 32.135 50.159 33.564 50.367 34.981C50.516 35.999 51.284 36.185 52.695 35.43C52.081 35.294 51.681 35.205 51.145 35.087C50.891 33.75 50.544 32.367 50.385 30.963C50.226 29.542 50.199 28.1 50.213 26.668C50.229 25.296 50.371 23.924 50.457 22.551ZM85.352 32.833C85.276 31.577 84.745 30.897 84.293 30.2C83.354 30.304 82.49 30.398 81.444 30.513C82.068 31.432 82.552 32.145 83.099 32.949C83.779 32.914 84.471 32.878 85.352 32.833ZM23.988 10.794C24.502 10.546 24.945 10.477 25.017 10.274C25.597 8.66202 26.019 7.00404 26.148 5.27204C24.951 6.79404 23.813 8.32504 23.988 10.794ZM90.049 40.972C89.838 40.122 89.592 39.303 88.768 38.824C88.149 38.466 87.51 38.126 86.668 38.704C86.94 39.224 87.189 39.772 87.502 40.282C88.242 41.492 88.255 41.485 90.049 40.972ZM38.96 5.96402C40.519 5.10102 41.293 3.70003 41.525 1.94703C40.209 2.95703 39.68 4.51602 38.96 5.96402ZM84.076 34.355C84.288 34.682 84.42 35.13 84.702 35.267C85.268 35.54 85.921 35.588 86.498 35.209C86.603 35.141 86.701 34.908 86.662 34.804C86.585 34.596 86.446 34.315 86.269 34.257C85.588 34.034 84.883 33.928 84.076 34.355ZM85.666 36.62C86.131 38.018 86.677 38.263 87.705 37.639C87.862 37.544 88.012 37.244 87.978 37.076C87.941 36.887 87.702 36.612 87.534 36.599C86.933 36.555 86.324 36.604 85.666 36.62Z" fill="white"/>
<path d="M7.12505 35.524C6.90005 35.936 6.67704 36.3471 6.43904 36.7831C5.07004 35.0221 5.07004 35.0221 3.39604 35.6001C2.92704 37.2171 3.68905 38.4141 4.96605 39.2171C5.93505 39.8271 6.15704 40.5851 6.18904 41.6081C6.29704 45.1211 7.49804 46.7351 10.859 48.0051C11.081 48.0891 11.391 48.0801 11.523 48.2331C12.621 49.5051 13.881 49.2491 15.232 48.7461C15.891 48.5011 16.616 48.4321 17.441 48.2551C17.277 47.3661 17.2041 46.4031 18.2871 45.8911C18.7321 46.2061 18.2971 46.624 18.4061 46.955C18.5521 47.395 18.845 47.7861 18.996 48.2261C19.115 48.5741 19.112 48.963 19.179 49.442C20.893 49.887 22.639 50.4671 24.508 50.0661C25.196 49.9181 25.729 50.1381 26.302 50.4921C26.905 50.8651 27.58 51.1381 28.25 51.3871C29.173 51.7271 30.1021 51.7631 31.0631 51.4181C31.8111 51.1501 32.601 50.9571 33.388 50.8551C34.34 50.7321 35.2841 50.7871 36.1901 51.2501C38.0771 52.2141 40.032 52.2451 41.958 51.3951C42.855 50.9981 43.677 51.096 44.489 51.494C46.88 52.664 47.188 53.305 51.125 52.179C52.579 51.763 54.1241 51.7161 55.6261 52.2171C55.9091 52.3111 56.243 52.2581 56.713 52.2801C56.542 51.8061 56.4181 51.4641 56.2941 51.1201C56.4311 51.0811 56.61 50.9641 56.696 51.0131C57.901 51.6981 59.1101 52.3031 60.5161 51.5621C60.7801 51.9371 60.9981 52.2511 61.2871 52.6631C62.8071 52.0141 64.2191 52.4721 65.5741 53.2421C66.4731 53.7531 67.385 53.8021 68.34 53.4311C68.713 53.2861 69.125 53.2361 69.481 53.0621C70.999 52.3231 72.403 52.1521 73.985 53.1261C74.702 53.5671 75.835 53.3441 76.78 53.4061C77.145 53.4301 77.5141 53.4101 78.1391 53.4101C77.7871 53.7921 77.67 54.0311 77.487 54.1011C76.173 54.6031 74.752 54.747 73.499 54.201C72.032 53.561 70.7031 53.7921 69.3111 54.2031C68.8511 54.3391 68.409 54.5431 67.943 54.6421C66.973 54.8491 66.042 54.7091 65.157 54.2391C64.067 53.6591 62.9421 53.4861 61.6881 53.7091C60.5961 53.9021 59.457 53.8581 58.338 53.8521C57.708 53.8471 57.005 53.858 56.463 53.597C54.443 52.625 52.342 52.8741 50.361 53.3761C48.52 53.8431 46.8881 53.7001 45.2641 52.9021C43.9891 52.2741 42.816 52.1951 41.374 52.5791C39.565 53.0611 37.618 53.2761 35.819 52.1131C34.916 51.5301 33.77 51.5731 32.784 51.8961C30.206 52.7411 27.759 52.6451 25.381 51.2851C25.118 51.1351 24.741 51.005 24.474 51.076C22.924 51.488 21.462 50.9011 19.97 50.7261C19.278 50.6441 18.541 50.428 17.955 50.063C17.136 49.554 16.329 49.3731 15.454 49.6901C12.683 50.6951 10.533 49.2051 8.33805 47.9391C7.86405 47.6661 7.49905 47.205 7.07305 46.843C5.62205 45.615 4.97705 44.0641 5.15305 42.1651C5.19005 41.7701 5.15904 41.3701 5.15904 41.0381C5.05204 40.8301 5.01505 40.6291 4.89905 40.5581C2.74505 39.2531 1.88304 37.3901 2.25804 34.8791C2.49504 33.2811 2.41005 31.6881 1.47505 30.2551C1.37905 30.1071 1.49305 29.817 1.53005 29.597C1.53805 29.549 1.64106 29.5181 1.80706 29.4091C3.22506 30.6951 3.38505 32.397 3.31005 34.291C4.01805 34.351 4.72904 34.2821 5.34204 34.4951C5.99904 34.7231 6.56605 35.216 7.17205 35.593L7.12505 35.524Z" fill="white"/>
<path d="M40.895 46.5411C40.681 45.7421 40.578 44.9671 41.148 44.3031C41.385 44.0281 41.769 43.7861 42.123 43.7181C43.125 43.5271 43.897 44.1471 44.191 45.2871C43.49 45.6421 43.308 44.8151 42.818 44.6751C42.275 44.5211 41.914 44.6351 41.645 45.1241C41.396 45.5751 41.688 46.2901 40.895 46.5411Z" fill="white"/>
<path d="M33.957 46.736C33.389 45.538 33.22 44.538 32.092 44.08C31.704 44.357 31.238 44.691 30.733 45.055C30.518 44.235 30.804 43.646 31.493 43.271C32.087 42.947 32.847 43.135 33.389 43.781C33.977 44.481 34.688 45.192 33.957 46.736Z" fill="white"/>
<path d="M34.6639 41.3111C34.1449 40.7211 33.8319 40.2731 33.4299 39.9301C32.8619 39.4461 32.1449 39.1511 31.4499 40.1931C31.2779 40.4511 31.1019 40.7051 30.8969 41.0061C30.4499 40.2561 30.8049 39.7071 31.2119 39.2501C31.4509 38.9801 31.8619 38.7721 32.2229 38.7211C32.9599 38.6161 33.6179 38.9051 34.1609 39.4181C34.6119 39.8471 35.1229 40.2621 34.6639 41.3111Z" fill="white"/>
<path d="M37.832 40.506C37.949 38.637 39.283 38.756 40.279 38.576C41.315 38.388 42.289 39.079 42.701 40.05C42.751 40.168 42.71 40.448 42.65 40.467C42.47 40.526 42.197 40.577 42.074 40.483C40.235 39.073 40.147 39.065 37.832 40.506Z" fill="white"/>
<path d="M28.962 39.836C26.766 38.583 26.766 38.583 24.9 39.586C25.021 39.076 25.008 38.657 25.205 38.395C25.702 37.728 26.445 37.771 27.171 37.929C28.163 38.147 28.464 38.443 28.962 39.836Z" fill="white"/>
<path d="M46.774 47.135C46.249 46.33 45.936 45.682 46.303 44.98C46.511 44.584 46.833 44.191 47.202 43.948C47.901 43.487 48.528 43.801 49.12 44.795C47.104 44.824 47.104 44.824 46.774 47.135Z" fill="white"/>
<path d="M22.209 44.8501C22.787 46.9881 22.787 46.9881 24.538 48.0361C23.603 48.5481 23.168 48.4941 22.459 47.7761C21.588 46.8951 21.498 46.2841 22.209 44.8501Z" fill="white"/>
<path d="M63.09 49.5131C65.5 50.9981 65.5 50.9981 67.403 51.1601C67.021 51.9571 66.347 52.0871 65.643 51.9361C64.547 51.7011 63.635 51.1791 63.09 49.5131Z" fill="white"/>
<path d="M71.811 43.771C72.627 43.97 72.718 44.795 73.178 45.268C73.658 45.763 74.117 46.282 74.625 46.833C72.945 46.956 71.834 45.726 71.811 43.771Z" fill="white"/>
<path d="M64.25 44.63C64.292 44.927 64.335 45.224 64.389 45.599C64.065 45.619 63.846 45.636 63.627 45.642C63.394 45.649 63.16 45.644 62.967 45.644C62.158 46.201 62.475 47.125 62.055 48.127C61.917 47.567 61.789 47.261 61.775 46.949C61.679 44.953 62.108 44.577 64.319 44.671L64.25 44.63Z" fill="white"/>
<path d="M39.311 44.527C38.997 44.369 38.741 44.227 38.473 44.109C38.266 44.018 38.046 43.956 37.717 43.839C37.341 44.404 36.973 44.957 36.559 45.58C36.551 43.664 36.89 43.105 37.989 43.116C38.969 43.127 39.346 43.487 39.311 44.527Z" fill="white"/>
<path d="M10.872 45.822C10.758 45.1 11.213 44.772 11.771 44.649C13.02 44.372 14.036 44.791 15.038 45.905C14.56 45.945 14.314 46.038 14.129 45.97C12.328 45.317 12.331 45.31 10.872 45.822Z" fill="white"/>
<path d="M53.459 43.5601C52.662 44.1651 52.016 44.6581 51.299 45.2021C50.799 44.6621 51.072 44.1121 51.52 43.6491C52.066 43.0831 52.707 42.9321 53.459 43.5601Z" fill="white"/>
<path d="M76.146 47.688C77.101 48.059 78.056 48.43 79.004 48.798C78.894 49.487 78.489 49.482 78.108 49.412C77.231 49.251 76.633 48.628 75.936 48.171C76.007 48.01 76.076 47.849 76.146 47.688Z" fill="white"/>
<path d="M46.845 49.308C47.467 48.551 48.086 48.475 48.702 48.628C49.458 48.818 50.201 49.101 50.448 50.099C49.69 50.508 49.415 49.601 48.88 49.539C48.271 49.47 47.664 49.4 46.845 49.308Z" fill="white"/>
<path d="M75.701 51.905C74.167 51.968 74.121 51.932 72.709 49.775C72.973 49.41 73.238 49.582 73.469 49.796C74.189 50.463 74.898 51.144 75.701 51.905Z" fill="white"/>
<path d="M10.781 41.552C9.75001 41.635 8.80101 41.875 7.78101 41.332C9.47301 40.53 9.89401 40.559 10.781 41.552Z" fill="white"/>
<path d="M60.685 41.353C59.809 41.684 58.989 41.995 58.086 42.335C58.076 42.181 57.948 41.835 58.063 41.616C58.229 41.298 58.524 40.961 58.845 40.827C59.541 40.538 60.207 40.629 60.685 41.353Z" fill="white"/>
<path d="M23.8199 42.847C24.4309 41.933 25.0639 41.679 25.7989 41.875C26.4669 42.055 27.0739 42.414 27.1429 43.486C26.5099 43.177 26.0719 42.856 25.5879 42.759C25.1109 42.665 24.5899 42.797 23.8199 42.847Z" fill="white"/>
<path d="M56.18 49.081C56.175 48.446 56.164 47.758 56.74 47.377C57.17 47.093 57.723 46.918 58.238 46.871C58.537 46.844 58.869 47.166 59.636 47.567C58.597 47.673 57.994 47.593 57.542 47.818C57.005 48.085 56.597 48.612 56.134 49.027L56.18 49.081Z" fill="white"/>
<path d="M70.477 48.939C69.594 49.411 69.122 48.9111 68.662 48.5751C68.202 48.2381 67.888 47.776 68.147 47.15C68.208 47.101 68.301 47.0101 68.311 47.0191C69 47.6201 69.682 48.229 70.477 48.939Z" fill="white"/>
<path d="M78.3789 44.5251C76.4939 45.3641 76.2909 45.2981 75.4929 43.8401C76.3729 44.0491 77.1749 44.2391 78.3789 44.5251Z" fill="white"/>
<path d="M64.3179 44.671C63.9239 44.421 63.528 44.175 63.14 43.916C63.089 43.883 63.085 43.781 63.059 43.711C63.925 43.375 63.925 43.375 65.923 44.065C65.241 44.294 64.7449 44.462 64.2489 44.63L64.3179 44.671Z" fill="white"/>
<path d="M56.135 49.027C55.1 49.269 54.065 49.511 52.807 49.806C54.229 48.286 54.267 48.281 56.18 49.08L56.135 49.027Z" fill="white"/>
<path d="M67.8879 42.623C69.1289 43.18 69.8189 43.4891 70.5979 43.8391C69.3459 44.6051 69.2669 44.575 67.8879 42.623Z" fill="white"/>
<path d="M27.5549 47.411C28.7759 46.289 28.9179 46.298 30.1759 47.62C29.2109 47.544 28.4529 47.483 27.5549 47.411Z" fill="white"/>
<path d="M42.428 49.0141C41.639 48.5811 40.676 48.5181 39.814 47.6251C41.045 47.6081 41.872 47.9701 42.604 48.5871C42.632 48.6111 42.516 48.8071 42.428 49.0141Z" fill="white"/>
<path d="M35.936 35.5591C36.259 35.8511 36.614 36.1181 36.887 36.4511C36.978 36.5621 36.862 36.8441 36.84 37.0491C36.636 37.0191 36.35 37.0631 36.242 36.9441C35.962 36.6361 35.76 36.2581 35.526 35.9091C35.664 35.7911 35.801 35.6751 35.936 35.5591Z" fill="white"/>
<path d="M35.407 48.902C34.799 48.511 34.1909 48.12 33.4709 47.656C34.6969 47.343 34.697 47.343 35.407 48.902Z" fill="white"/>
<path d="M56.775 38.4C56.955 38.716 57.134 39.014 57.281 39.328C57.294 39.355 56.994 39.569 56.986 39.56C56.746 39.3 56.523 39.023 56.298 38.749C56.414 38.665 56.529 38.58 56.775 38.4Z" fill="white"/>
<path d="M45.483 33.094C45.416 33.503 45.304 33.951 44.8 33.88C44.564 33.847 44.248 33.523 44.179 33.273C43.382 30.382 43.363 27.426 43.751 24.494C44.042 22.29 44.574 20.111 45.112 17.949C45.334 17.058 45.668 16.13 46.439 15.533C47.102 15.722 46.982 16.191 46.831 16.496C45.007 20.167 44.737 24.137 44.531 28.124C44.448 29.74 44.781 31.292 45.202 32.832C45.237 32.962 45.415 33.052 45.527 33.161L45.483 33.094Z" fill="white"/>
<path d="M54.55 16.815C55.119 16.905 55.683 17.01 55.567 17.797C55.37 19.131 55.161 20.464 54.958 21.798C54.341 25.848 54.504 29.878 55.261 33.895C55.361 34.418 55.419 34.95 55.566 35.95C55.041 35.439 54.767 35.291 54.679 35.07C54.152 33.734 53.775 32.361 53.777 30.904C53.778 29.632 53.756 28.358 53.713 27.087C53.614 24.207 53.952 21.377 54.645 18.584C54.795 17.975 55.07 17.358 54.608 16.76L54.55 16.815Z" fill="white"/>
<path d="M32.316 2.09399C32.63 2.64999 32.93 2.949 32.869 3.108C32.277 4.65 31.624 6.16901 30.946 7.79401C30.74 7.51901 30.59 7.41001 30.59 7.30301C30.594 6.91001 30.567 6.49 30.699 6.134C31.158 4.887 31.681 3.66399 32.316 2.09399Z" fill="white"/>
<path d="M56.988 10.524C57.911 9.82297 58.853 9.14598 59.75 8.41298C60.373 7.90298 60.994 7.47998 61.848 7.63698C61.85 8.10198 61.924 8.725 61.373 8.821C59.859 9.082 58.99 10.178 58.014 11.164C57.916 11.264 57.747 11.294 57.603 11.361C57.101 11.306 57.051 10.91 56.988 10.524Z" fill="white"/>
<path d="M68.451 11.916C68.545 12.2 68.639 12.485 68.762 12.858C68.042 13.184 67.386 13.43 66.782 13.772C66.195 14.105 65.663 14.535 64.813 15.127C65.688 13.237 66.99 12.464 68.514 11.962L68.451 11.916Z" fill="white"/>
<path d="M14.2649 7.14001C14.1909 7.84401 14.1289 8.54899 14.0309 9.24899C14.0159 9.35699 13.8359 9.441 13.6489 9.612C13.7319 9.009 13.7889 8.48999 13.8829 7.97699C13.9239 7.75199 14.0329 7.539 14.1279 7.328C14.1569 7.263 14.2429 7.223 14.3029 7.172L14.2649 7.14001Z" fill="white"/>
<path d="M3.79498 19.72C3.65998 17.365 4.67998 15.419 6.00198 13.594C6.07598 13.492 6.41198 13.5799 6.61998 13.5799C6.64498 13.7849 6.72398 13.9589 6.67198 14.0759C6.02998 15.5289 5.34599 16.963 4.72699 18.426C4.50399 18.951 4.36199 19.486 3.73999 19.672L3.79498 19.72Z" fill="white"/>
</svg>
