<svg width="94" height="121" viewBox="0 0 94 121" fill="none" xmlns="http://www.w3.org/2000/svg">
<path d="M48.425 115.828C48.606 116.357 48.786 116.887 48.99 117.407C49.2 117.943 49.29 118.45 49.065 119.027C48.6 120.226 47.81 120.49 46.888 119.667C45.972 118.85 45.457 117.782 44.982 116.664C43.669 113.576 42.293 110.516 40.936 107.447C40.614 106.715 40.172 106.021 39.958 105.261C39.019 101.94 37.463 98.868 36.11 95.721C34.695 92.423 33.282 89.132 32.038 85.763C29.689 79.401 27.22 73.084 24.849 66.73C23.624 63.447 22.389 60.171 21.425 56.787C20.423 53.269 19.295 49.766 17.466 46.552C17.272 46.209 17.174 45.812 17.027 45.442C16.233 43.443 15.486 41.424 14.63 39.451C13.709 37.327 12.664 35.258 11.715 33.145C10.408 30.237 9.11898 27.321 7.86398 24.39C6.25998 20.652 4.65999 16.911 3.13199 13.142C2.32399 11.148 1.63198 9.10501 0.968977 7.05701C0.614977 5.96301 0.744977 4.852 1.25998 3.789C2.17398 1.901 3.66498 1.29601 5.59898 2.04401C7.26198 2.68801 8.39998 3.89099 9.12298 5.46399C9.92298 7.20499 10.712 8.96201 11.332 10.772C12.729 14.851 13.967 18.985 15.366 23.064C16.895 27.522 18.505 31.954 20.136 36.375C21.077 38.922 22.206 41.4 23.113 43.959C24.365 47.496 25.503 51.074 26.661 54.644C28.239 59.506 29.79 64.377 31.353 69.244C31.645 70.155 31.919 71.072 32.234 71.975C33.419 75.37 34.61 78.761 35.815 82.149C36.481 84.022 37.18 85.883 37.922 87.907C39.526 85.143 41.433 82.942 43.655 80.991C44.983 79.825 46.287 78.644 47.984 78.048C49.642 77.464 51.303 76.888 52.984 76.377C57.355 75.049 61.776 74.794 66.233 75.914C67.879 76.328 69.52 76.115 71.452 76.135C70.916 75.248 70.543 74.566 70.109 73.925C67.914 70.685 65.724 67.44 63.491 64.226C61.622 61.537 59.704 58.881 57.792 56.222C56.487 54.406 55.144 52.618 53.837 50.804C52.205 48.535 50.698 46.168 48.95 43.994C46.338 40.743 44.066 37.264 41.847 33.754C39.757 30.448 37.87 27.015 35.878 23.647C35.431 22.891 34.941 22.158 34.426 21.446C32.131 18.275 29.827 15.111 27.512 11.955C26.174 10.132 25.221 8.111 24.469 5.999C24.15 5.101 23.832 4.01502 24.428 3.21302C25.408 1.89402 26.415 0.488003 28.488 0.793003C29.428 0.932003 30.115 1.13001 30.619 2.02301C31.391 3.39201 31.852 4.99099 33.308 5.91199C33.53 6.05299 33.549 6.48699 33.705 6.76099C34.574 8.28199 35.428 9.81402 36.342 11.308C38.925 15.532 41.685 19.655 44.082 23.98C45.826 27.126 47.711 30.151 49.777 33.084C51.385 35.367 52.925 37.702 54.395 40.077C55.949 42.586 57.328 45.203 58.885 47.71C60.611 50.487 62.632 53.095 64.208 55.95C67.722 62.316 71.926 68.245 75.683 74.455C78.861 79.71 82.409 84.734 85.618 89.978C87.698 93.378 89.861 96.729 91.851 100.184C92.526 101.356 93.056 102.612 93.636 103.837C93.771 104.122 93.876 104.434 93.928 104.743C94.087 105.685 93.494 106.534 92.443 106.92C91.776 107.165 91.283 106.948 90.696 106.071C89.584 104.411 88.517 102.719 87.391 101.069C86.368 99.57 85.292 98.108 84.045 96.356C83.798 97.438 83.522 98.188 83.477 98.953C83.405 100.198 82.993 101.284 82.329 102.31C81.421 103.713 80.474 105.095 79.646 106.544C78.441 108.656 76.929 110.448 74.933 111.866C73.481 112.896 71.992 113.79 70.245 114.198C68.532 114.597 66.809 114.952 65.107 115.396C62.726 116.018 60.343 115.887 57.987 115.39C57.106 115.204 56.269 115.175 55.388 115.201C54.113 115.237 52.814 115.286 51.564 115.088C50.412 114.905 49.309 114.405 47.794 113.919C48.082 114.791 48.247 115.311 48.425 115.828ZM44.858 81.379C44.575 81.436 44.31 81.696 44.086 81.917C42.168 83.81 40.162 85.633 39.11 88.217C38.997 88.496 38.721 88.709 38.457 89.032C38.574 89.499 38.707 90.025 38.851 90.597C39.235 90.488 39.572 90.392 39.975 90.277C40.278 91.151 39.738 91.832 39.604 92.574C39.553 92.858 39.615 93.176 39.688 93.463C39.714 93.568 39.922 93.628 40.133 93.763C40.422 92.18 40.704 90.635 40.986 89.092C40.646 88.848 40.339 88.626 40.033 88.406C40.094 88.29 40.154 88.173 40.216 88.056C40.541 88.097 40.866 88.139 41.192 88.18C42.49 85.996 42.49 85.996 42.306 84.759C44.22 84.918 45.189 83.531 46.238 82.294C46.313 82.205 46.105 81.875 46.029 81.657C46.474 81.655 47.002 81.807 47.347 81.621C48.155 81.186 48.874 80.589 49.819 79.925C49.278 79.585 48.889 79.134 48.571 79.179C47.476 79.334 46.481 79.802 45.887 80.816C45.798 80.968 45.935 81.252 45.966 81.476C45.595 81.434 45.207 81.31 44.858 81.379ZM43.074 25.357L43.132 25.424C42.373 22.956 40.925 20.836 39.654 18.633C38.819 17.186 37.831 15.828 36.857 14.348C35.119 14.16 33.467 14.395 32.074 15.759C32.125 16.683 32.71 17.297 33.196 17.863C35.186 20.186 36.533 22.912 38.131 25.481C40.87 29.887 43.581 34.312 46.423 38.652C48.037 41.117 49.899 43.421 51.629 45.811C52.797 47.425 53.918 49.074 55.085 50.69C56.439 52.565 57.852 54.397 59.181 56.289C61.473 59.557 63.709 62.862 65.989 66.14C67.902 68.891 69.895 71.588 71.76 74.372C73.757 77.355 75.685 80.386 77.571 83.439C80.59 88.323 83.505 93.271 86.553 98.135C88.033 100.496 89.715 102.732 91.314 105.019C91.483 105.261 91.711 105.462 91.886 105.656C92.744 105.365 92.695 104.748 92.484 104.241C91.873 102.771 91.296 101.263 90.485 99.902C88.074 95.863 85.583 91.871 83.072 87.891C80.773 84.245 78.395 80.649 76.077 77.015C74.445 74.459 72.855 71.877 71.248 69.306C70.952 68.831 70.718 68.307 70.361 67.883C68.288 65.418 66.977 62.479 65.275 59.783C64.168 58.028 63.04 56.288 61.94 54.528C59.954 51.347 57.919 48.195 56.02 44.963C53.388 40.484 50.649 36.085 47.387 32.031C47.335 31.906 47.257 31.802 47.153 31.717C46.03 29.447 44.706 27.304 43.074 25.357ZM42.387 89.064C41.643 91.295 41.279 93.492 41.65 95.801C41.71 96.169 41.952 96.508 42.11 96.86L42.068 96.799C41.807 97.976 42.169 98.965 42.873 99.919C43.622 100.935 44.64 101.247 45.795 101.236C47.056 101.224 47.891 100.415 47.937 99.145C47.963 98.436 47.824 97.72 47.754 97.007C47.719 96.653 47.673 96.3 47.589 95.578C48.608 97.268 49.019 98.819 48.849 99.918C48.671 101.072 47.991 101.801 46.874 102.062C46.106 102.241 45.312 102.307 44.348 102.451C44.659 103.1 44.897 103.669 45.194 104.204C46.121 105.877 47.094 107.524 48.005 109.205C48.784 110.644 50.034 111.511 51.547 111.814C54.126 112.331 56.739 112.709 59.354 113.016C60.279 113.124 61.258 112.911 62.195 112.744C64.39 112.354 66.582 111.934 68.76 111.46C69.367 111.327 69.945 110.999 70.498 110.692C71.543 110.111 72.535 109.431 73.596 108.88C75.205 108.043 76.392 106.786 77.373 105.304C77.99 104.373 78.521 103.377 79.207 102.5C80.006 101.475 80.264 100.392 79.984 99.094C79.671 99.094 79.371 99.094 78.975 99.094C78.975 98.015 78.975 96.946 78.975 95.658C79.073 95.585 79.377 95.356 79.7 95.114C79.865 94.043 79.47 93.045 78.985 92.161C78.066 90.487 77.004 88.889 75.955 87.289C75.302 86.293 74.579 85.382 74.265 84.162C74.06 83.367 73.435 82.649 72.9 81.976C70.767 79.289 67.834 78.546 64.578 78.675C61.55 78.795 58.521 78.931 55.495 79.096C54.948 79.125 54.369 79.245 53.877 79.476C52.218 80.256 50.564 81.056 48.968 81.954C48.451 82.244 48.118 82.858 47.701 83.324L47.619 83.367C45.009 84.474 43.303 86.317 42.387 89.064ZM17.218 39.742C16.602 38.504 16.639 37.944 17.511 36.682C17.939 36.771 18.385 36.865 18.829 36.957C18.879 36.765 18.987 36.59 18.943 36.473C18.577 35.507 18.183 34.551 17.81 33.623C17.165 33.281 17.233 33.964 16.962 34.135C15.978 34.758 15.114 34.605 14.477 33.697C13.68 32.561 13.592 31.365 14.049 30.16C15.479 29.52 15.94 30.841 16.794 31.311C16.681 29.836 16.079 28.17 15.165 26.794C14.629 26.667 14.648 27.263 14.355 27.452C13.73 27.854 13.013 27.899 12.602 27.466C11.824 26.647 11.195 25.729 11.076 24.557C11.007 23.882 11.587 23.246 12.264 23.412C13.007 23.595 13.7 23.983 14.398 24.276C14.076 21.747 12.861 19.336 12.068 16.801C11.667 15.518 10.462 15.044 9.16199 15.477C8.05299 15.847 7.21198 16.541 6.55498 17.756C6.87998 18.674 7.19199 19.741 7.62799 20.756C9.74199 25.671 11.899 30.57 14.025 35.481C15.548 39 17.048 42.53 18.558 46.054C19.469 48.182 20.427 50.292 21.273 52.447C21.738 53.633 21.979 54.903 22.381 56.115C23.44 59.297 24.45 62.499 25.63 65.636C27.484 70.568 29.479 75.447 31.376 80.363C31.951 81.851 32.335 83.414 32.922 84.896C34.481 88.83 36.105 92.738 37.696 96.659C38.866 99.543 40.022 102.433 41.194 105.317C41.434 105.907 41.717 106.48 41.977 107.062C43.247 109.906 44.511 112.751 45.789 115.591C46.148 116.392 46.524 117.188 46.937 117.962C47.06 118.192 47.336 118.341 47.877 118.831C47.721 118.021 47.685 117.645 47.574 117.29C46.69 114.472 45.849 111.638 44.873 108.851C44.427 107.579 43.667 106.42 43.117 105.18C42.409 103.58 41.769 101.949 41.099 100.332C40.854 99.742 40.609 99.152 40.354 98.566C39.051 95.567 37.697 92.589 37.112 89.332C36.959 88.477 36.583 87.658 36.286 86.831C35.805 85.487 35.289 84.154 34.814 82.807C33.301 78.524 31.785 74.242 30.303 69.947C29.731 68.288 29.261 66.594 28.722 64.924C27.963 62.572 27.184 60.227 26.413 57.878C26.363 57.727 26.359 57.535 26.262 57.427C24.876 55.88 24.421 53.901 23.846 52.01C22.967 49.12 21.892 46.282 21.433 43.271C21.339 42.653 21.039 42.067 20.774 41.289C19.1 41.572 17.925 41.162 17.218 39.742ZM8.42798 7.36301C7.91898 5.67001 7.21398 4.31002 5.83298 3.38102C5.00498 2.82402 4.10398 2.47601 3.18498 3.08701C2.18898 3.74801 1.66399 4.74701 1.89899 5.94001C2.09499 6.92901 2.50899 7.876 2.92499 9.142C4.70099 7.779 6.51298 7.62501 8.42798 7.36301ZM29.063 2.568C28.606 2.086 27.782 1.99801 27.31 2.43201C26.672 3.02001 26.111 3.70201 25.588 4.39801C25.427 4.61301 25.408 5.02799 25.484 5.30899C25.705 6.14299 25.956 6.98401 26.74 7.65601C28.103 6.97201 29.444 6.30001 30.941 5.54901C30.609 4.18601 29.826 3.375 29.063 2.568ZM28.635 10.935C28.837 11.989 29.277 12.854 30.305 13.424C31.69 12.624 33.048 11.84 34.547 10.974C34.057 10.111 33.637 9.37199 33.11 8.44699C31.362 9.20099 29.829 9.651 28.635 10.935ZM10.32 12.524C10.334 10.979 10.115 10.651 8.98298 10.613C7.69298 10.57 6.46199 10.828 5.35199 11.511C4.09099 12.287 4.06498 12.717 5.10498 14.016C6.86198 13.514 8.59599 13.018 10.32 12.524ZM64.602 113.292C62.966 113.565 61.314 113.735 59.704 113.946C59.509 114.388 59.689 114.622 60.032 114.709C61.466 115.075 62.94 114.989 64.219 114.353C65.122 113.903 65.963 113.712 66.932 113.688C67.632 113.67 68.337 113.502 69.02 113.321C69.274 113.254 69.468 112.959 69.689 112.768C69.612 112.617 69.534 112.465 69.456 112.315C67.838 112.645 66.228 113.021 64.602 113.292ZM55.094 77.482C55.772 78.262 56.609 77.639 57.313 77.781C58.281 77.974 58.594 76.963 59.362 76.58C60.373 77.233 61.408 78.348 62.677 76.624C59.626 75.953 56.666 76.296 55.094 77.482ZM49.404 112.616C48.2 110.642 47.005 108.943 45.748 107.27C45.584 109.321 46.606 110.913 47.452 112.527C48.099 112.557 48.625 112.58 49.404 112.616ZM3.41798 10.675C3.61998 10.777 3.87098 11.006 3.99898 10.951C5.63398 10.241 7.22598 9.422 9.27498 9.276C7.03398 7.986 4.87498 8.56899 3.41798 10.675ZM56.69 113.977C56.047 113.515 55.888 113.31 55.708 113.288C54.38 113.122 53.051 112.941 51.716 112.879C51.204 112.856 50.678 113.128 49.867 113.342C52.137 114.584 54.151 114.146 56.69 113.977ZM31.886 6.89402C30.366 6.79902 29.113 7.48501 27.923 8.31501C27.546 8.57801 27.537 8.943 27.809 9.832C29.285 9.052 30.742 8.28099 32.355 7.42899C32.084 7.10999 31.991 6.90002 31.886 6.89402ZM69.076 77.108C67.6 76.961 66.111 76.946 64.586 76.875C64.436 77.395 64.818 77.607 65.167 77.61C66.857 77.622 68.485 77.976 70.118 78.354C70.396 78.418 70.759 78.115 71.123 77.964C70.552 77.089 69.749 77.175 69.076 77.108ZM80.599 91.303C80.185 92.646 80.768 93.561 81.18 94.679C81.62 94.454 81.983 94.269 82.394 94.059C82.032 92.965 81.551 92.134 80.599 91.303ZM50.365 78.782C50.779 78.957 51.07 79.201 51.274 79.143C52.227 78.872 53.332 78.78 53.865 77.215C52.478 77.719 51.329 77.742 50.365 78.782ZM82.711 95.73C82.608 96.155 82.587 96.543 82.419 96.849C82.235 97.184 81.888 97.425 81.662 97.743C81.354 98.177 81.582 98.462 82.711 98.852C82.711 97.718 82.711 96.773 82.711 95.73ZM5.61299 15.344C5.51699 15.441 5.57599 15.831 5.69699 15.961C5.81299 16.086 6.17898 16.153 6.30498 16.064C6.94098 15.608 7.53398 15.093 8.31898 14.457C7.04498 14.175 6.28199 14.664 5.61299 15.344ZM35.882 12.545C33.988 12.289 32.915 13.032 31.945 14.037C33.191 13.722 34.453 13.444 35.882 12.545ZM72.885 78.703C72.754 78.636 72.48 78.847 72.093 79.001C72.647 79.814 72.992 80.653 74.118 81.072C74.192 79.904 73.783 79.163 72.885 78.703ZM75.863 83.156C75.613 84.562 75.613 84.562 76.744 86.005C77.352 84.534 76.564 83.958 75.863 83.156ZM72.615 112.08C73.342 111.636 74.084 111.286 73.481 110.151C72.85 110.542 72.281 110.893 71.542 111.35C72.018 111.674 72.317 111.878 72.615 112.08ZM79.806 90.838C80.273 90.176 80.273 90.176 79.236 88.676C78.631 89.845 79.331 90.278 79.806 90.838ZM77.978 86.559C77.924 86.495 77.674 86.523 77.575 86.593C77.466 86.669 77.337 86.876 77.371 86.97C77.586 87.563 77.957 88.005 78.932 87.797C78.619 87.381 78.317 86.954 77.978 86.559ZM12.971 24.983C12.802 24.798 12.488 24.746 12.237 24.634C12.237 24.898 12.151 25.204 12.259 25.411C12.381 25.647 12.676 25.793 12.897 25.977C13.016 25.901 13.136 25.825 13.256 25.749C13.167 25.489 13.142 25.171 12.971 24.983ZM75.78 108.79C75.677 108.94 75.663 109.152 75.61 109.337C75.817 109.356 76.077 109.457 76.216 109.369C76.377 109.267 76.446 109.002 76.515 108.795C76.525 108.767 76.301 108.661 76.185 108.592C76.046 108.655 75.854 108.682 75.78 108.79ZM15.886 32.791C15.631 32.377 15.377 31.964 14.976 31.311C14.874 32.25 15.042 32.712 15.886 32.791Z" fill="white"/>
<path d="M47.152 31.7199C46.73 31.5089 46.326 31.2509 45.885 31.0949C44.979 30.7739 44.32 31.2879 44.364 32.2579C44.414 33.3649 44.979 34.1939 45.867 34.7959C46.571 35.2739 47.567 34.7619 47.582 33.8999C47.593 33.2789 47.457 32.6559 47.387 32.0329C47.335 31.9079 47.257 31.8039 47.152 31.7199Z" fill="white"/>
<path d="M47.615 83.367C47.41 83.7 47.183 84.023 47.01 84.372C46.954 84.484 47.038 84.666 47.059 84.824C47.63 85.221 47.854 84.533 48.263 84.434C48.676 84.334 49.096 84.267 49.606 84.166C49.079 83.385 48.468 83.163 47.697 83.323L47.615 83.367Z" fill="white"/>
<path d="M56.998 108.391C56.71 108.138 56.459 107.806 56.125 107.648C55.03 107.131 54.031 106.503 53.172 105.635C52.846 105.306 52.398 105.098 52.145 104.928C51.294 105.144 50.612 105.433 49.922 105.454C49.414 105.47 48.852 105.207 48.396 104.932C48.031 104.712 47.975 104.257 48.32 103.906C48.564 103.657 48.883 103.57 49.133 103.9C49.748 104.714 50.42 104.702 51.309 104C51.196 103.445 51.13 102.816 50.935 102.232C50.378 100.566 50.599 98.9031 50.972 97.2691C51.184 96.3411 51.617 95.4561 52.63 95.0471C52.806 94.9771 52.904 94.7171 53.108 94.4571C52.326 93.9961 51.617 93.5791 50.984 93.2071C50.698 93.3421 50.545 93.3961 50.413 93.4801C50.061 93.7041 49.661 93.9251 49.475 93.3741C49.409 93.1771 49.631 92.7611 49.841 92.6121C50.705 91.9991 51.633 92.2641 52.57 92.7321C53.127 91.0201 54.082 89.9531 55.794 89.7101C56.438 89.6181 56.672 89.0881 56.748 88.4931C55.998 86.9491 54.405 87.5281 53.16 87.2061C53.613 86.0321 54.892 86.7931 55.476 85.9341C55.568 85.0121 55.269 84.1721 54.679 83.5291C53.167 83.3291 53.113 84.8761 52.225 85.2931C52.08 85.1251 51.897 85.0071 51.906 84.9051C51.977 84.0631 52.392 83.3961 53.057 82.8961C54.165 82.0631 55.529 82.4821 55.908 83.8271C56.101 84.5101 56.099 85.2471 56.18 85.9591C56.257 86.6411 56.541 87.1551 57.38 87.3891C58.657 85.1471 60.857 84.547 63.244 84.36C63.877 84.31 64.52 84.3811 65.159 84.4001C67.351 84.4661 68.421 83.7831 69.417 81.5701C69.629 81.8841 69.946 82.1391 69.927 82.3661C69.889 82.8131 69.777 83.346 69.492 83.662C68.93 84.285 68.23 84.7851 67.499 85.4111C68.74 86.5341 69.881 87.4681 71.191 88.0991C72.758 86.9461 72.758 86.9461 73.386 85.0791C74.196 86.0811 74.286 86.1931 73.861 86.8481C73.313 87.6881 72.635 88.4441 72.027 89.2191C73.381 91.4781 73.381 91.477 75.734 90.774C75.783 90.759 75.864 90.8551 76.001 90.9471C75.97 91.1211 75.992 91.3701 75.884 91.5271C75.293 92.3831 74.273 92.3901 73.401 92.5401C73.401 93.4361 73.459 94.154 73.388 94.86C73.277 95.966 73.222 97.1091 72.883 98.1531C72.444 99.5051 71.679 100.727 72.171 102.272C72.316 102.725 71.981 103.35 71.816 103.879C71.627 104.482 71.38 105.065 71.163 105.648C71.604 106.307 72.059 106.876 72.38 107.51C72.534 107.815 72.534 108.278 72.423 108.607C72.35 108.82 71.947 108.92 71.649 109.097C71.493 108.517 71.431 108.034 71.236 107.615C70.745 106.563 70.155 106.42 69.118 106.953C67.857 107.6 66.575 108.207 65.222 108.87C65.216 110.055 64.601 111.022 63.496 111.694C62.837 112.095 62.156 112.179 61.444 111.824C60.943 111.574 60.672 111.264 60.978 110.849C61.694 110.849 62.351 110.996 62.897 110.812C63.569 110.584 64.134 110.073 63.994 109.212C63.839 109.092 63.724 108.925 63.595 108.913C61.375 108.71 59.154 108.526 56.932 108.338L56.998 108.391ZM68.439 88.6391C68.123 90.3171 66.96 91.2021 65.516 91.8651C64.798 92.1951 64.108 92.5941 63.428 93.0001C62.13 93.7731 61.753 95.0741 61.558 96.4461C61.457 97.1551 61.768 97.6741 62.43 97.9711C62.865 98.1651 63.319 98.3471 63.783 98.4351C66.126 98.8821 68.495 99.087 70.766 99.261C71.663 98.573 71.877 97.7231 71.903 96.8371C71.959 94.9371 72.283 92.9821 71.485 91.1781C70.945 89.9551 70.25 88.7581 68.784 88.1011C68.602 88.3781 68.466 88.4981 68.439 88.6391ZM60.65 90.8551C61.445 91.1821 62.203 91.5971 62.871 91.9221C63.76 91.5321 64.506 91.26 65.196 90.886C65.675 90.627 66.154 90.2941 66.503 89.8831C67.792 88.3651 67.126 86.3101 65.203 85.7661C63.44 85.2661 61.695 85.5601 60.109 86.2781C58.75 86.8931 58.075 88.1791 58.007 89.9441C59.019 90.2881 59.852 90.5281 60.65 90.8551ZM59.984 96.55C60.569 95.266 61.092 94.114 61.609 92.981C59.983 91.137 57.319 90.3781 55.126 91.1451C54.306 91.4311 53.76 92.047 53.758 92.925C53.756 93.528 53.995 94.1321 54.076 94.5021C56.189 95.2331 58.036 95.874 59.984 96.55ZM63.085 107.689C62.993 106.337 62.72 104.998 62.864 103.705C63.009 102.396 63.566 101.133 63.992 99.6811C63.408 99.1671 62.534 99.1491 61.758 98.9611C59.335 101.739 59.035 103.493 60.269 107.792C61.257 108.06 62.105 108.072 63.085 107.689ZM65.681 103.5C65.463 104.207 65.656 105.074 65.798 105.846C65.875 106.262 66.233 106.626 66.528 107.121C68.258 106.222 69.931 105.495 70.563 103.555C70.684 103.182 70.808 102.796 70.839 102.41C70.918 101.457 70.569 100.869 69.671 100.578C69.006 100.362 68.296 100.288 67.337 100.098C66.689 101.385 66.022 102.393 65.681 103.5ZM57.34 96.8971C57.021 97.2411 56.664 97.4771 56.516 97.8071C55.9 99.1791 55.31 100.566 54.779 101.972C54.32 103.187 54.864 104.342 55.285 105.419C55.667 106.392 56.537 106.999 57.863 107.196C57.674 106.4 57.569 105.722 57.347 105.087C56.992 104.067 56.987 103.083 57.341 102.065C57.601 101.319 57.745 100.533 58.006 99.787C58.235 99.129 58.556 98.5031 58.878 97.7671C58.322 97.4531 57.863 97.1931 57.34 96.8971ZM52.581 96.6531C51.238 98.5651 51.399 101.645 52.916 103.655C53.082 102.364 53.129 101.042 53.45 99.7901C53.76 98.5781 54.352 97.4401 54.883 96.1141C53.771 95.6701 53.083 95.9391 52.581 96.6531ZM64.351 102.97C65.953 100.657 65.957 100.66 65.707 99.9671C64.457 101.418 64.457 101.418 64.351 102.97ZM59.041 100.68C60.084 99.5461 60.068 99.5351 60.072 98.6821C59.375 99.1541 59.027 99.7601 59.041 100.68Z" fill="white"/>
<path d="M74.1489 100.854C74.6959 100.935 75.1519 100.943 75.5669 101.076C76.5809 101.4 76.8849 102.245 76.3009 103.142C75.9339 103.706 75.4679 104.205 74.7229 105.141C76.2209 104.613 76.9859 104.004 77.4389 103.047C77.8699 102.136 77.5459 101.068 76.7369 100.494C75.8859 99.891 75.2779 99.954 74.1489 100.854Z" fill="white"/>
<path d="M61.305 82.116C60.946 80.622 60.116 80.273 59.193 80.129C58.005 79.943 56.999 80.31 56.382 81.41C56.18 81.771 56.139 82.169 56.665 82.349C58.722 80.669 58.722 80.669 61.305 82.116Z" fill="white"/>
<path d="M74.6069 93.7631C76.3979 95.0051 76.1259 96.216 74.7539 97.671C75.0419 98.188 75.4559 97.933 75.7179 97.731C76.7699 96.916 77.1159 95.452 76.5049 94.356C76.3289 94.041 75.977 93.7371 75.64 93.6271C75.344 93.5281 74.9559 93.7061 74.6069 93.7631Z" fill="white"/>
<path d="M50.553 91.494C51.698 91.071 52.153 90.466 52.066 89.72C51.977 88.964 51.637 88.221 51.307 87.52C51.205 87.305 50.755 87.115 50.492 87.147C50.066 87.198 49.663 87.441 49.233 87.61C49.373 87.877 49.41 88.074 49.508 88.112C49.925 88.275 50.55 88.264 50.744 88.554C51.019 88.963 51.051 89.582 51.047 90.112C51.045 90.469 50.804 90.825 50.553 91.494Z" fill="white"/>
<path d="M42.067 96.799C42.345 96.937 42.625 97.074 42.909 97.214C43.129 97.023 43.318 96.881 43.48 96.712C44.832 95.31 44.83 95.309 46.672 96.095C47.041 95.567 46.777 95.21 46.338 94.921C45.516 94.381 44.637 94.362 43.893 94.968C43.226 95.51 42.698 96.223 42.109 96.86L42.067 96.799Z" fill="white"/>
<path d="M53.041 106.547C52.74 106.795 52.614 106.882 52.509 106.989C52.136 107.371 51.819 107.829 51.389 108.129C50.784 108.552 50.423 107.894 49.953 107.687C49.822 107.629 49.546 107.791 49.399 107.922C49.329 107.986 49.347 108.255 49.424 108.357C49.606 108.599 49.81 108.869 50.069 109.001C51.382 109.667 52.967 108.884 53.341 107.385C53.387 107.206 53.201 106.97 53.041 106.547Z" fill="white"/>
<path d="M66.757 81.887C67.022 81.031 66.735 80.548 66.24 80.268C65.928 80.092 65.475 80.07 65.103 80.117C64.299 80.218 64.04 80.431 62.87 81.663C63.286 81.677 63.54 81.713 63.784 81.683C63.931 81.664 64.059 81.531 64.204 81.465C65.395 80.921 65.395 80.922 66.757 81.887Z" fill="white"/>
<path d="M56.998 108.391C56.855 108.454 56.664 108.478 56.574 108.585C56.231 109 55.973 109.497 55.585 109.856C55.207 110.205 54.708 110.422 54.108 110.794C54.427 111.091 54.644 111.454 54.834 111.441C56.029 111.357 57.199 110.122 57.204 108.983C57.204 108.768 57.027 108.553 56.931 108.338L56.998 108.391Z" fill="white"/>
<path d="M47.3349 88.5561C46.5639 87.5831 45.7189 87.6421 44.8859 87.8801C44.1969 88.0771 43.5759 88.4441 43.4249 89.2501C43.3999 89.3871 43.438 89.5761 43.522 89.6801C43.602 89.7771 43.8919 89.8521 43.9009 89.8351C44.6159 88.5071 45.9569 88.6661 47.3349 88.5561Z" fill="white"/>
<path d="M46.066 91.7801C46.464 92.1101 46.913 92.3291 47.099 92.6841C47.247 92.9681 47.036 93.4231 47.075 93.7921C47.087 93.9031 47.482 94.1071 47.571 94.0541C48.214 93.6641 48.44 92.9211 48.183 92.2301C47.959 91.6301 47.446 91.2621 46.754 91.2981C46.569 91.3091 46.395 91.5411 46.066 91.7801Z" fill="white"/>
<path d="M46.237 99.283C46.132 98.992 46.024 98.702 45.921 98.411C45.803 98.077 45.571 97.865 45.246 98.066C45.113 98.148 45.0201 98.54 45.1011 98.67C45.3171 99.018 45.638 99.3 45.917 99.609C46.024 99.5 46.131 99.392 46.237 99.283Z" fill="white"/>
<path d="M44.333 92.7301C43.525 92.4381 42.891 92.4081 42.337 93.2471C43.212 93.6231 43.769 93.3571 44.333 92.7301Z" fill="white"/>
<path d="M38.269 21.849C38.494 21.754 38.93 21.679 39.2 21.426C39.447 21.194 39.6899 20.7351 39.6289 20.4411C39.4429 19.5671 38.9189 18.847 38.1749 18.336C37.6619 17.983 37.1259 18.064 36.6119 18.393C36.0649 18.744 35.941 19.2211 36.088 19.8331C36.379 21.0611 37.16 21.858 38.269 21.849Z" fill="white"/>
<path d="M43.132 25.4249C42.681 25.1059 42.261 24.724 41.771 24.484C41.257 24.232 40.67 24.199 40.228 24.678C39.812 25.129 39.724 25.654 40.038 26.216C40.425 26.909 40.738 27.656 41.657 27.832C42.488 27.991 43.117 27.61 43.182 26.78C43.219 26.312 43.116 25.833 43.075 25.357L43.132 25.4249Z" fill="white"/>
</svg>
