<svg width="82" height="50" viewBox="0 0 82 50" fill="none" xmlns="http://www.w3.org/2000/svg">
<path d="M74.077 8.18396C75.299 8.66296 76.228 9.03796 77.167 9.39096C77.704 9.59296 78.076 9.96395 78.327 10.4559C79.119 12.0089 79.921 13.5569 80.675 15.1279C81.3 16.4309 81.525 17.781 81.23 19.247C80.965 20.56 80.764 21.916 80.782 23.25C80.804 24.987 80.993 26.7329 81.245 28.4549C81.862 32.6709 81.584 36.684 79.62 40.608C78.011 43.824 75.53 45.814 72.374 47.25C70.068 48.299 67.67 48.83 65.173 49.031C64.086 49.118 63.038 49.0019 62.006 48.5979C59.666 47.6819 57.218 47.253 54.714 47.196C52.037 47.134 49.543 46.3429 47.135 45.2879C46.234 44.8909 45.473 44.176 44.583 43.56C43.937 44.199 43.295 44.8669 42.615 45.4939C42.173 45.9019 41.727 46.371 41.192 46.603C39.468 47.354 37.744 48.153 35.943 48.66C34.079 49.184 32.16 49.6419 30.186 49.5669C29.048 49.5239 27.899 49.5029 26.779 49.3219C25.431 49.1029 24.112 49.0489 22.776 49.3429C21.164 49.6969 19.571 49.612 18.008 49.066C17.499 48.888 16.985 48.726 16.488 48.522C15.156 47.976 13.775 47.7239 12.343 47.8739C10.527 48.0629 8.89298 47.6079 7.33898 46.6749C6.48498 46.1629 5.69098 45.525 4.66798 45.302C4.40198 45.244 4.15398 44.886 3.98898 44.612C2.41598 41.975 1.39998 39.2149 1.44398 36.0459C1.47998 33.4359 1.12398 30.82 0.928979 28.208C0.888979 27.672 0.757984 27.1419 0.739984 26.6059C0.618984 23.1249 0.414983 19.642 0.657983 16.161C0.806983 14.013 1.29797 11.917 1.87397 9.84195C2.17497 8.75695 2.75599 7.89196 3.69499 7.26796C3.91899 7.12096 4.21097 7.00896 4.34197 6.79996C5.13497 5.53896 6.23098 5.03896 7.73098 5.05196C8.48898 5.05896 9.26397 4.63495 9.75597 3.89395C10.012 3.50695 10.348 3.14995 10.714 2.86395C11.073 2.58395 11.51 2.24196 11.924 2.22496C12.982 2.18296 13.828 1.74195 14.738 1.26495C16.21 0.493955 17.805 0.31596 19.41 0.97696C19.777 1.12796 20.147 1.27395 20.447 1.39395C20.601 1.34395 20.674 1.33696 20.724 1.29996C21.542 0.694958 22.37 0.0549491 23.473 0.302949C24.651 0.568949 25.848 0.83995 26.699 1.81595C27.053 2.22195 27.389 2.64596 27.628 2.93596C30.106 3.14096 32.19 3.59695 32.981 6.17795C34.617 6.34295 36.08 6.83596 37.457 7.77396C38.234 8.30296 39.366 8.32396 40.346 8.54196C41.142 8.71896 41.878 8.97795 42.548 9.47595C43.028 9.83195 43.594 10.089 44.149 10.328C45.771 11.027 46.945 12.1469 47.582 13.8129C47.649 13.9869 47.805 14.1269 47.973 14.3569C48.683 13.9709 49.373 13.5959 50.156 13.1709C50.595 10.4049 52.097 8.56695 55.003 8.19795C55.855 3.70695 59.061 2.30696 62.471 4.21396C62.591 4.16196 62.755 4.14496 62.827 4.05396C64.36 2.14596 66.374 2.44695 68.387 2.87195C69.31 3.06595 69.907 3.70096 70.174 4.61296C70.268 4.93196 70.327 5.25995 70.429 5.70395C72.079 5.92195 73.539 6.50996 74.077 8.18396ZM68.954 7.11795C67.552 7.21995 67.097 8.14296 66.895 9.46396C68.11 10.048 68.999 11.069 70.055 11.507C70.946 10.733 71.697 10.094 72.433 9.43596C73.211 8.73796 73.213 7.98595 72.305 7.49295C71.254 6.92195 70.105 6.56296 68.906 7.17096L68.954 7.11795ZM31.855 9.08295C31.345 9.74495 31.405 10.4499 31.708 11.1649C31.973 11.7899 32.565 12.001 33.136 12.181C33.705 12.362 34.303 12.4629 34.894 12.5629C35.08 12.5939 35.297 12.541 35.478 12.47C36.134 12.215 36.927 10.71 36.863 9.96596C36.68 7.89096 34.492 7.06096 32.998 7.55396C32.201 7.81796 31.696 8.22095 31.804 9.13095L31.855 9.08295ZM16.926 6.35095L16.869 6.31195C17.175 6.84695 17.586 7.25695 18.279 7.48195C18.881 7.20495 19.533 6.90396 20.107 6.63896C19.912 5.14296 19.733 3.77795 19.56 2.44795C18.43 1.19795 17.128 1.50895 15.829 1.94995C14.353 2.44995 13.943 3.24396 14.337 4.71796C14.584 5.64596 15.089 6.27295 16.125 6.31395C16.392 6.32295 16.659 6.33795 16.926 6.35095ZM7.55398 45.509C7.56098 45.02 7.65698 44.6139 8.16398 44.3469C8.75098 44.0379 9.42098 43.737 9.81498 43.242C11.067 41.668 12.249 40.031 13.369 38.359C13.726 37.826 13.944 37.1139 13.983 36.4679C14.094 34.6599 14.197 32.838 14.084 31.035C13.949 28.887 14.347 26.897 15.26 24.98C15.778 23.892 16.309 22.811 16.81 21.715C16.91 21.499 17.098 21.231 16.812 20.991C16.207 20.821 15.958 21.305 15.696 21.657C14.601 23.119 13.812 24.7539 13.174 26.4549C12.989 26.9439 12.927 27.5039 12.921 28.0329C12.888 30.7499 12.263 33.363 11.563 35.959C10.992 38.075 10.041 39.968 8.16297 41.28C7.23097 41.931 6.36698 42.68 5.48498 43.401C5.25498 43.589 5.07398 43.837 4.87798 44.048C5.54398 44.486 6.08198 44.8769 6.65798 45.2009C6.93298 45.3559 7.27897 45.385 7.59397 45.47C8.74997 46.806 10.275 47.245 11.933 46.975C13.322 46.747 14.602 46.9469 15.893 47.3729C16.721 47.6459 17.55 47.9189 18.385 48.1709C18.485 48.2009 18.623 48.101 18.806 48.04C18.806 47.811 18.806 47.562 18.806 47.267C18.587 47.25 18.398 47.206 18.216 47.23C17.929 47.266 17.675 47.293 17.62 46.914C17.649 46.857 17.668 46.788 17.712 46.746C17.857 46.608 18.014 46.4799 18.164 46.3469C20.839 43.9629 22.824 41.145 23.551 37.577C24.021 35.27 24.195 32.9289 24.146 30.5719C24.113 28.9599 24.069 27.347 24.042 25.734C24.014 24.075 24.467 22.5449 25.352 21.1489C25.748 20.5249 26.197 19.9359 26.6 19.3169C26.723 19.1289 26.773 18.8939 26.993 18.3309C26.447 18.6319 26.216 18.7189 26.035 18.8649C24.605 20.0259 23.041 20.6239 21.172 20.1619C20.06 19.8859 19.06 20.271 18.097 20.764C18.052 21.18 18.152 21.68 17.948 21.918C17.086 22.923 16.834 24.21 16.23 25.328C15.376 26.912 15.143 28.608 15.179 30.397C15.22 32.405 15.132 34.4179 15.042 36.4249C15.007 37.2259 14.821 38.001 14.332 38.702C13.525 39.859 12.873 41.1289 12.012 42.2399C10.851 43.7369 9.48098 45.025 7.55398 45.509ZM30.177 48.7619C31.365 46.2039 32.424 43.813 33.28 41.334C33.367 41.083 33.425 40.813 33.447 40.549C33.603 38.74 33.844 36.933 33.875 35.122C33.939 31.394 35.072 27.987 36.801 24.75C38.38 21.792 39.183 18.632 39.418 15.311C39.435 15.077 39.311 14.832 39.209 14.415C38.371 15.208 37.653 15.875 36.947 16.556C36.075 17.397 34.93 17.167 34.069 17.294C33.205 17.988 32.464 18.557 31.757 19.164C31.461 19.418 31.195 19.7289 30.989 20.0589C30.313 21.1419 29.674 22.248 29.016 23.341C27.628 25.653 26.899 28.104 27.231 30.842C27.368 31.971 27.359 33.13 27.294 34.269C27.145 36.864 26.387 39.327 25.045 41.522C23.715 43.698 22.18 45.7589 20.153 47.3859C19.871 47.6129 19.458 47.837 19.647 48.396C20.394 48.774 21.179 48.5849 21.975 48.4899C23.848 48.2669 25.713 48.13 27.589 48.59C28.352 48.776 29.179 48.7039 30.177 48.7619ZM71.056 46.9429C70.421 45.5739 70.015 44.423 69.389 43.41C68.259 41.579 66.905 39.9029 65.329 38.4249C64.401 37.5529 63.345 36.7999 62.515 35.8469C60.579 33.6209 58.551 31.472 56.826 29.065C55.244 26.858 53.949 24.5119 53.362 21.8519C52.802 19.3169 52.161 16.7769 52.623 14.1229C52.286 14.0599 52.085 13.9629 51.91 13.9979C51.125 14.1539 50.347 14.349 49.55 14.532C49.416 14.991 49.24 15.3659 49.207 15.7529C48.97 18.5039 49.016 21.254 49.376 23.992C49.733 26.697 50.775 29.149 52.181 31.471C52.738 32.391 53.272 33.307 54.025 34.095C54.763 34.867 55.408 35.7279 56.101 36.5409C56.798 37.3579 57.526 38.148 58.204 38.98C59.648 40.752 61.089 42.5359 61.703 44.8039C61.945 45.6979 62.126 46.609 62.366 47.648C65.237 48.44 67.997 47.7549 71.056 46.9429ZM78.204 41.1329C76.991 39.1019 75.665 37.4289 73.915 36.1109C73.544 35.8309 73.239 35.458 72.92 35.113C71.735 33.831 70.582 32.514 69.366 31.26C66.99 28.813 65.121 26.0719 64.108 22.775C63.753 21.618 63.497 20.4419 63.181 19.2829C62.223 15.7679 63.206 16.4769 59.423 15.5629C58.803 15.4139 58.162 15.044 57.395 15.492C57.145 17.111 57.134 18.784 57.446 20.431C57.913 22.893 58.834 25.1979 60.194 27.3089C61.946 30.0269 63.961 32.533 66.199 34.875C68.01 36.771 69.677 38.7979 70.975 41.1019C71.681 42.3539 72.095 43.682 72.182 45.118C72.2 45.424 72.273 45.726 72.351 46.226C74.84 44.99 76.814 43.4779 78.204 41.1329ZM14.636 21.053C13.242 20.287 11.855 19.628 10.926 18.295C10.415 17.562 9.80498 17.6619 9.03098 18.2229C8.02198 18.9539 7.36998 19.9449 6.76298 21.0029C5.80798 22.6689 5.41698 24.485 5.10798 26.349C4.78798 28.283 4.27998 30.165 2.70298 31.53C2.29998 31.88 2.28598 32.339 2.29698 32.819C2.32498 34.027 2.24998 35.245 2.37898 36.441C2.53698 37.901 2.81098 39.3549 3.13798 40.7879C3.29598 41.4829 3.56697 42.2019 4.21497 42.6369C7.28297 41.5569 10.051 38.6869 10.763 35.3039C11.302 32.7409 11.881 30.189 11.959 27.558C11.985 26.668 12.186 25.8369 12.601 25.0459C13.278 23.7459 13.933 22.435 14.636 21.053ZM70.935 15.988C69.327 16.458 67.754 16.135 66.275 16.683C65.959 17.736 66.056 18.7079 66.339 19.6969C67.375 23.3339 69.271 26.465 71.939 29.118C74.524 31.689 76.78 34.502 78.553 37.695C78.763 38.072 79.043 38.4089 79.285 38.7579C79.463 38.6479 79.549 38.626 79.57 38.575C80.756 35.845 80.72 32.958 80.633 30.069C80.616 29.502 80.32 29.093 79.778 28.81C79.127 28.47 78.465 28.097 77.926 27.608C75.613 25.511 73.651 23.148 72.539 20.172C72.047 18.855 71.533 17.548 70.935 15.988ZM37.083 47.228C37.464 46.571 37.722 46.039 38.059 45.561C39.479 43.551 40.489 41.378 40.748 38.907C40.908 37.375 41.012 35.836 41.165 34.303C41.305 32.901 41.414 31.4909 41.657 30.1059C41.806 29.2569 42.065 28.38 42.485 27.635C43.273 26.237 44.22 24.9289 45.089 23.5759C45.521 22.9029 46.1 22.263 46.311 21.523C46.923 19.379 47.131 17.179 46.741 14.953C46.534 13.77 46.051 12.7919 44.794 12.1669C44.643 12.7179 44.481 13.215 44.371 13.724C44.13 14.839 43.975 15.9759 43.678 17.0759C42.745 20.5189 41.545 23.873 40.012 27.095C38.752 29.741 38.022 32.497 37.931 35.431C37.907 36.231 37.75 37.03 37.623 37.824C37.119 40.984 35.942 43.896 34.36 46.66C34.172 46.988 34.065 47.363 33.878 47.82C35.206 48.108 36.242 47.72 37.083 47.228ZM40.355 9.67496C40.297 10.371 40.203 10.959 40.213 11.545C40.227 12.35 40.341 13.151 40.377 13.957C40.475 16.109 40.419 18.2629 39.645 20.2999C38.907 22.2419 38.075 24.152 37.222 26.047C36.061 28.633 35.128 31.263 34.993 34.139C34.898 36.15 34.699 38.159 34.472 40.16C34.383 40.95 34.174 41.7499 33.881 42.4899C33.141 44.3609 32.319 46.201 31.544 48.058C31.507 48.147 31.604 48.291 31.67 48.523C32.035 48.441 32.406 48.3579 32.681 48.2959C33.02 47.4669 33.224 46.676 33.635 46.014C34.889 43.99 35.689 41.778 36.311 39.514C36.716 38.039 37.031 36.483 37.029 34.963C37.024 32.2 37.758 29.645 38.854 27.19C40.031 24.554 41.121 21.896 42.033 19.156C42.759 16.976 43.167 14.745 43.486 12.488C43.55 12.041 43.496 11.578 43.496 11.102C42.417 10.621 41.565 9.96496 40.355 9.67496ZM59.135 46.506C59.093 46.144 59.105 46.004 59.059 45.888C58.117 43.49 56.825 41.345 54.903 39.565C52.492 37.333 50.185 34.9999 48.511 32.1099C48.106 31.4109 47.716 30.582 46.742 29.982C46.712 31.019 46.478 31.929 46.699 32.711C47.523 35.636 48.686 38.41 50.988 40.548C52.209 41.681 52.894 43.121 53.265 44.725C53.368 45.168 53.475 45.61 53.605 46.157C54.511 46.194 55.373 46.2159 56.234 46.2699C57.156 46.3269 58.077 46.418 59.135 46.506ZM54.203 14.34C53.525 15.186 53.546 16.007 53.585 16.803C53.769 20.564 54.706 24.1109 56.804 27.275C59.078 30.7069 61.753 33.823 64.782 36.595C66.178 37.873 67.496 39.179 68.631 40.685C69.149 41.371 69.714 42.023 70.257 42.69C70.289 42.279 70.164 41.923 70.001 41.586C69.796 41.163 69.614 40.714 69.328 40.349C68.168 38.869 67.031 37.363 65.778 35.963C62.859 32.7 59.988 29.421 58.072 25.42C56.926 23.027 56.151 20.565 56.147 17.889C56.145 16.888 56.105 15.8879 56.083 14.9119C55.724 14.7219 55.504 14.5549 55.256 14.4849C54.94 14.3979 54.602 14.391 54.203 14.34ZM6.67597 16.3349C6.21497 15.5109 5.80598 14.89 5.50498 14.22C4.92898 12.933 4.76698 11.45 5.53198 10.349C6.39498 9.10695 6.50697 7.65895 7.36097 6.41095C6.25897 6.35595 6.18297 6.37796 5.81597 6.80696C5.47197 7.20796 5.20997 7.79796 4.77497 7.98096C3.17997 8.64996 2.69598 10.028 2.41198 11.492C1.87398 14.259 1.32398 17.029 1.51098 19.883C1.58998 21.088 1.55097 22.3009 1.56397 23.5109C1.56597 23.7119 1.53198 23.9199 1.57098 24.1149C1.61198 24.3189 1.40998 24.632 1.80598 24.734C3.16698 21.811 4.47397 18.8729 6.67597 16.3349ZM79.8 24.419C80.011 22.261 80.255 20.4029 80.357 18.5369C80.466 16.5149 79.835 14.7199 78.374 13.1839C77.247 13.7129 76.168 14.2189 75.131 14.7059C74.883 17.4759 76.908 21.815 79.8 24.419ZM22.565 42.6659C22.65 42.7539 22.735 42.843 22.82 42.932C23.085 42.654 23.373 42.394 23.612 42.095C24.599 40.865 24.956 39.343 25.554 37.928C26.038 36.782 26.266 35.635 26.243 34.411C26.208 32.601 26.181 30.79 26.147 28.979C26.131 28.105 26.111 27.228 26.508 26.415C27.214 24.974 27.926 23.534 28.646 22.1C28.999 21.399 29.568 20.7919 29.647 19.8389C29.026 19.7189 28.457 19.6099 27.974 19.5159C25.629 21.8149 24.685 24.459 24.965 27.618C25.172 29.953 25.026 32.302 24.902 34.647C24.795 36.688 24.269 38.612 23.577 40.502C23.305 41.247 22.907 41.9459 22.565 42.6659ZM47.822 20.1149C47.323 22.0599 46.975 24.7179 47.211 26.1359C47.405 27.3109 47.636 28.4649 48.221 29.5799C49.925 32.8279 52.187 35.6059 54.789 38.1579C56.61 39.9439 58.384 41.792 59.451 44.174C59.781 44.909 60.099 45.651 60.446 46.379C60.541 46.578 60.718 46.738 61.157 47.298C60.919 44.9 60.239 43.167 59.081 41.682C57.431 39.569 55.72 37.4959 53.905 35.5239C52.154 33.6219 50.702 31.522 49.772 29.155C48.719 26.474 47.929 23.678 47.995 20.732C48 20.549 47.896 20.3639 47.822 20.1149ZM77.923 38.548C77.028 36.561 75.963 35.1709 74.857 33.8299C73.236 31.8639 71.526 29.969 69.836 28.06C67.089 24.959 65.396 21.387 64.936 17.252C64.874 16.699 64.604 16.453 64.194 16.523C63.758 16.595 63.71 16.9289 63.702 17.2699C63.696 17.5369 63.704 17.8119 63.761 18.0719C64.014 19.2529 64.229 20.445 64.564 21.603C65.416 24.544 66.807 27.206 68.882 29.48C70.557 31.314 72.254 33.127 73.946 34.944C74.128 35.14 74.34 35.308 74.539 35.489C75.574 36.426 76.61 37.362 77.923 38.548ZM17.188 13.245C15.469 14.027 14.124 13.1909 12.69 13.2349C12.363 13.7779 11.973 14.258 11.764 14.808C11.246 16.169 11.426 17.4649 12.473 18.5289C13.25 19.3179 14.247 19.6699 15.351 19.8179C16.431 19.9629 17.437 19.9379 18.488 19.2309C16.962 17.5749 16.503 15.712 17.188 13.245ZM45.891 24.7349C45.695 24.7809 45.525 24.767 45.451 24.844C43.931 26.451 43.001 28.381 42.64 30.532C42.32 32.446 42.208 34.394 42.01 36.328C41.907 37.328 41.884 38.342 41.706 39.329C41.336 41.39 40.727 43.373 39.517 45.131C39.321 45.416 38.949 45.763 39.459 46.282C39.733 46.06 40.145 45.89 40.277 45.596C41.744 42.337 42.845 38.9769 43.097 35.3729C43.22 33.6119 43.652 31.907 44.723 30.458C45.389 29.559 45.707 28.5819 45.784 27.4849C45.849 26.5729 46.192 25.6689 45.891 24.7349ZM23.628 14.1C22.649 14.164 21.854 14.323 21.085 14.239C20.309 14.155 19.559 13.831 18.832 13.622C17.749 14.52 17.934 15.618 18.194 16.639C18.426 17.546 18.87 18.4 19.965 18.617C20.288 18.681 20.602 18.818 20.907 18.952C22.185 19.509 23.354 19.31 24.519 18.575C25.478 17.971 26.029 17.269 25.377 16.321C24.76 15.534 24.141 14.75 23.628 14.1ZM24.716 7.37996C25.133 7.08996 25.56 6.86795 25.891 6.54695C26.769 5.69395 27.007 4.29096 26.474 3.19496C26.027 2.27596 25.158 1.87496 24.258 1.56296C22.854 1.07596 21.441 1.75296 20.99 3.09296C20.475 4.62096 21.06 6.03195 22.453 6.57495C23.136 6.84195 23.833 7.06796 24.716 7.37996ZM73.646 15.2659C72.248 15.7969 72.176 15.862 72.369 16.65C73.047 19.42 74.196 21.989 75.974 24.219C77.009 25.519 78.021 26.9 79.616 27.621C79.701 27.659 79.847 27.561 79.967 27.526C79.991 27.403 80.052 27.2759 80.035 27.1579C79.972 26.6979 79.886 26.241 79.8 25.738C76.256 23.204 74.954 19.2989 73.646 15.2659ZM24.32 9.36095C23.815 8.89195 23.353 8.40796 22.832 8.00096C22.583 7.80696 22.205 7.63095 21.913 7.66795C21.121 7.76795 20.297 7.87596 19.573 8.18596C18.746 8.53996 18.299 9.36695 17.974 10.176C17.741 10.757 17.82 11.436 18.301 11.868C19.161 12.64 20.16 13.204 21.364 13.243C22.019 13.264 22.555 12.986 22.856 12.402C23.339 11.468 23.771 10.5089 24.32 9.36095ZM65.74 15.582C66.72 15.497 67.788 15.42 68.852 15.308C69.597 15.229 69.941 14.859 69.857 14.101C69.8 13.592 69.657 13.0319 69.372 12.6189C68.131 10.8249 66.358 10.459 64.468 11.528C63.357 12.157 62.893 13.2479 63.281 14.6369C63.595 15.7629 64.613 15.5259 65.453 15.5809C65.52 15.5859 65.587 15.582 65.74 15.582ZM17.205 8.34296C15.883 7.07796 14.499 6.86795 13.104 7.73895C12.227 8.28595 11.874 9.09495 11.96 10.114C12.047 11.136 12.471 11.897 13.54 12.156C14.186 12.313 14.826 12.5129 15.481 12.5979C16.203 12.6919 16.748 12.189 16.834 11.464C16.951 10.487 17.066 9.51096 17.205 8.34296ZM27.954 4.44995C27.706 5.96295 26.974 7.26295 25.644 8.19795C25.472 8.31895 25.437 8.63596 25.195 9.18996C27.078 9.02396 28.512 9.70395 29.979 10.659C30.436 9.13995 30.749 7.70995 31.597 6.48195C31.884 6.06695 31.605 5.55096 31.222 5.23096C30.308 4.46696 29.296 4.01295 27.954 4.44995ZM28.844 15.9849C29.53 16.4999 30.192 16.5439 30.877 16.0669C31.164 15.8669 31.481 15.6439 31.672 16.0939C31.748 16.2749 31.605 16.6089 31.468 16.8089C31.135 17.2949 30.607 17.4889 30.054 17.3949C29.228 17.2539 28.417 17.02 27.593 16.824C27.369 17.339 27.537 17.786 27.972 18.04C28.961 18.617 29.994 19.29 30.967 17.983C31.003 17.933 31.077 17.8849 31.137 17.8819C32.366 17.8149 32.782 16.801 33.25 15.95C33.617 15.284 33.753 14.491 33.992 13.751C32.906 13.321 31.925 12.9329 31.057 12.5889C30.328 13.7079 29.643 14.7599 28.844 15.9849ZM71.692 14.7349C73.899 13.9099 76.268 13.578 77.869 11.595C77.336 10.43 76.381 10.04 75.326 9.76495C74.803 9.62795 74.259 9.41595 73.789 9.77695C72.956 10.4139 71.841 10.812 71.481 11.893C71.196 12.747 70.865 13.6889 71.692 14.7349ZM62.514 11.649C63.079 10.912 64.068 10.5399 65.073 10.1649C65.689 9.93495 65.834 9.17196 65.426 8.65596C64.909 8.00196 64.238 7.58995 63.387 7.54695C61.436 7.44495 59.221 8.31896 59.313 10.904C60.343 11.144 61.352 11.379 62.514 11.649ZM10.064 16.448C10.35 15.558 10.532 14.857 10.803 14.191C11.07 13.536 11.715 13.0259 11.535 12.0289C10.777 11.7759 9.88197 11.868 9.08297 11.62C8.22897 11.355 7.44298 10.876 6.60098 10.477C5.68598 11.725 5.91198 12.927 6.57598 14.082C7.32598 15.388 8.29397 16.438 10.064 16.448ZM2.49198 30.67C2.81298 30.175 2.96898 29.965 3.09298 29.738C3.91698 28.239 4.18498 26.582 4.36898 24.92C4.50498 23.703 4.83498 22.578 5.40298 21.496C6.02298 20.313 6.55798 19.0889 7.49098 18.0969C7.64498 17.9339 7.69498 17.6719 7.79698 17.4469C7.12798 17.1719 6.97398 17.649 6.75398 17.927C4.56598 20.687 3.11498 23.843 2.01098 27.15C1.65698 28.206 1.78798 29.377 2.49198 30.67ZM29.64 12.48C29.533 12.279 29.415 11.955 29.212 11.699C28.546 10.86 27.633 10.485 26.586 10.395C25.583 10.308 24.938 10.865 24.437 11.631C23.962 12.358 24.239 13.063 24.629 13.711C24.832 14.05 25.114 14.3649 25.425 14.6099C26.094 15.1379 26.869 15.4039 27.675 14.9769C28.58 14.4979 29.33 13.831 29.638 12.794C29.656 12.734 29.64 12.663 29.64 12.48ZM58.091 9.50096C59.24 7.84396 59.24 7.84395 61.11 6.92795C61.169 6.89895 61.231 6.87195 61.29 6.83995C62.028 6.43095 62.087 5.57596 61.412 5.04996C59.925 3.88696 57.704 4.39995 56.814 6.11095C56.017 7.64295 56.327 8.53796 58.091 9.50096ZM50.279 45.203C49.92 43.183 48.281 40.927 45.964 39.243C45.719 39.964 45.492 40.65 45.253 41.333C45.053 41.901 45.193 42.419 45.59 42.811C46.062 43.278 46.551 43.863 47.141 44.04C48.19 44.359 49.052 45.26 50.279 45.203ZM56.389 13.398C56.345 11.728 55.156 11.236 53.882 10.3C54.728 10.353 55.136 10.302 55.485 10.421C55.851 10.547 56.143 10.871 56.499 11.046C56.827 11.206 56.765 11.8629 57.337 11.6929C57.136 10.5469 57.082 10.306 56.739 10.099C55.716 9.48195 54.564 9.14196 53.487 9.73296C52.452 10.302 51.45 11.076 51.673 12.733C53.219 12.882 54.686 13.544 56.389 13.398ZM10.423 10.612C10.763 9.54795 11.01 8.65496 11.337 7.79196C11.65 6.96796 11.558 6.28395 10.962 5.83395C10.314 5.34295 9.32298 5.42196 8.79998 6.10796C8.19798 6.89696 7.55998 7.68695 7.28398 8.70395C7.98698 9.93895 8.68898 11.075 10.423 10.612ZM67.585 6.29096C67.214 5.20696 66.388 5.16196 65.59 5.02896C65.409 4.99796 65.26 4.77596 64.973 4.54196C66.409 4.01896 67.414 4.28395 68.196 5.33795C68.412 5.62795 68.647 5.85195 69.028 5.71295C69.318 5.60595 69.331 5.00696 69.028 4.64296C68.818 4.39196 68.581 4.08395 68.294 3.99095C67.335 3.67695 66.338 3.43396 65.327 3.67096C64.888 3.77396 64.404 3.97596 64.098 4.28696C63.644 4.75096 63.193 5.30195 63.42 6.13295C64.274 6.56995 65.156 7.02095 66.137 7.52295C66.631 7.10195 67.124 6.68296 67.585 6.29096ZM41.984 44.026C42.871 44.43 43.172 44.001 43.347 43.591C44.007 42.059 44.633 40.5 44.762 38.819C44.839 37.826 44.726 36.8179 44.752 35.8179C44.776 34.8799 44.872 33.942 44.937 33.005C43.832 36.641 43.641 40.477 41.984 44.026ZM51.98 45.643C52.104 45.622 52.228 45.6019 52.352 45.5799C52.327 45.2609 52.353 44.927 52.266 44.625C51.908 43.38 51.295 42.246 50.364 41.359C48.727 39.799 47.675 37.876 46.687 35.892C46.569 35.656 46.333 35.4779 46.004 35.1069C45.862 36.1159 45.865 36.8189 46.36 37.4599C46.848 38.0929 47.281 38.7709 47.794 39.3819C48.912 40.7129 50.151 41.951 50.95 43.523C51.308 44.223 51.638 44.936 51.98 45.643ZM59.775 13.084C59.85 12.994 59.924 12.904 60 12.814C60.242 12.983 60.577 13.101 60.704 13.334C60.889 13.671 60.892 14.1039 61.04 14.4689C61.1 14.6159 61.334 14.7759 61.492 14.7789C61.649 14.7829 61.913 14.63 61.955 14.491C62.269 13.462 61.459 12.086 60.432 12.112C59.298 12.14 58.203 12.482 57.673 13.799C58.398 14.444 59.286 14.399 60.284 14.745C60.069 14.043 59.922 13.564 59.775 13.084ZM13.576 6.27295C13.346 5.25395 13.16 4.43196 12.986 3.66396C11.687 3.41996 11.687 3.41996 11.201 4.41196C11.983 4.88796 12.235 6.03395 13.576 6.27295ZM35.967 13.894C36.266 13.975 36.648 14.055 37.012 14.186C37.536 14.374 37.741 14.317 37.825 13.901C37.947 13.301 37.971 12.723 37.593 12.28C37.053 12.815 36.544 13.32 35.967 13.894ZM38.918 9.39595C38.412 9.07795 38.056 9.12896 37.958 9.65996C37.808 10.479 38.211 11.056 38.918 11.513C38.918 10.758 38.918 10.052 38.918 9.39595ZM36.55 15.269C35.84 15.153 35.346 15.0719 34.766 14.9769C34.766 15.4809 34.766 15.84 34.766 16.199C35.543 16.311 36.007 16.001 36.55 15.269Z" fill="white"/>
<path d="M13.277 15.0179C14.324 17.1889 14.324 17.1889 16.289 18.5499C16.172 18.6899 16.057 18.9439 15.946 18.9419C14.221 18.9149 12.887 17.6159 12.858 15.9309C12.854 15.7159 13.05 15.4969 13.277 15.0179Z" fill="white"/>
<path d="M24.146 17.397C23.823 17.791 23.678 18.134 23.43 18.244C21.753 18.981 19.454 17.806 18.984 15.986C18.945 15.836 19.052 15.561 19.179 15.477C19.294 15.401 19.541 15.475 19.707 15.542C19.816 15.586 19.905 15.722 19.968 15.837C20.675 17.134 21.771 17.537 23.183 17.282C23.413 17.24 23.669 17.335 24.146 17.397Z" fill="white"/>
<path d="M22.071 3.84692C23.616 5.12592 23.616 5.12592 25.089 5.38092C25.403 5.93692 24.958 6.19192 24.598 6.20392C23.383 6.24392 22.41 5.73192 21.789 4.65292C21.73 4.54892 21.726 4.38492 21.759 4.26692C21.792 4.15492 21.904 4.06392 22.071 3.84692Z" fill="white"/>
<path d="M21.579 11.685C21.548 12.135 21.234 12.215 20.885 12.176C20.08 12.086 19.543 11.598 19.232 10.889C19.145 10.694 19.27 10.404 19.298 10.157C19.525 10.202 19.805 10.176 19.969 10.303C20.527 10.733 21.045 11.219 21.579 11.685Z" fill="white"/>
<path d="M64.558 13.8309C65.395 13.2379 65.923 14.0449 66.552 13.9989C67.116 13.9569 67.674 13.8109 68.296 13.6999C67.676 15.4919 66.305 15.5319 64.558 13.8309Z" fill="white"/>
<path d="M16.926 6.35094C16.407 5.84194 15.864 5.35595 15.39 4.80895C15.276 4.67695 15.36 4.33595 15.426 4.11395C15.441 4.06295 15.856 4.02695 15.929 4.11495C16.719 5.05995 17.8059 5.25695 18.8599 5.25095C19.1849 5.75895 18.957 6.05795 18.642 6.12795C18.066 6.25595 17.462 6.25795 16.869 6.31295L16.926 6.35094Z" fill="white"/>
<path d="M12.5809 9.69199C12.8869 9.65299 13.1269 9.54399 13.2379 9.62099C13.9749 10.131 14.6829 10.682 15.4269 11.238C15.4619 11.657 15.1509 11.771 14.8099 11.72C13.6609 11.551 12.9879 10.845 12.5809 9.69199Z" fill="white"/>
<path d="M27.174 7.29102C28.114 7.68502 28.872 8.00201 29.627 8.31801C29.765 8.72201 29.624 9.00201 29.229 9.04001C28.387 9.11901 27.669 8.82502 27.188 8.11702C27.084 7.96302 27.174 7.67602 27.174 7.29102Z" fill="white"/>
<path d="M31.803 9.13098C32.161 9.29198 32.598 9.37299 32.862 9.62999C33.452 10.205 34.072 10.382 34.854 10.142C34.964 10.108 35.247 10.298 35.278 10.426C35.311 10.564 35.188 10.83 35.056 10.905C34.044 11.475 33.162 11.148 32.312 10.49C31.814 10.106 31.73 9.64198 31.856 9.08398L31.803 9.13098Z" fill="white"/>
<path d="M73.545 10.8219C74.917 10.3019 75.789 10.7199 76.5 12.0479C75.651 11.9249 74.628 11.5139 73.545 10.8219Z" fill="white"/>
<path d="M62.5549 7.96802C64.3819 8.36102 64.585 8.60002 64.278 9.73102C63.573 9.40702 63.1839 8.82202 62.5549 7.96802Z" fill="white"/>
<path d="M10.07 15.4959C9.51502 15.4319 9.08601 15.5079 8.83801 15.3299C7.85801 14.6279 6.983 13.8159 7.053 12.3679C7.259 12.3679 7.52901 12.2929 7.60101 12.3799C8.38901 13.3359 9.14502 14.3179 10.07 15.4959Z" fill="white"/>
<path d="M27.5469 13.7579C27.3419 14.3099 26.9219 14.4499 26.4349 14.2259C25.5679 13.8259 24.9149 13.2059 24.6429 12.1799C24.8889 12.1149 25.1349 11.9709 25.2319 12.0389C26.0189 12.5889 26.7769 13.1779 27.5469 13.7579Z" fill="white"/>
<path d="M68.906 7.16989C69.919 7.06389 70.709 7.54389 71.422 8.17189C71.571 8.30389 71.593 8.58089 71.714 8.89789C69.968 8.39789 69.466 8.0619 68.954 7.1189L68.906 7.16989Z" fill="white"/>
<path d="M59.568 5.22691C59.987 5.22691 60.359 5.1629 60.695 5.2449C61.071 5.3379 61.283 5.9009 61.048 5.9929C60.842 6.0739 60.566 6.03191 60.334 5.98091C60.144 5.93991 59.959 5.82691 59.805 5.70491C59.714 5.63191 59.688 5.47891 59.568 5.22691Z" fill="white"/>
<path d="M8.63102 7.66089C8.89602 7.84889 9.03603 7.8969 9.08903 7.9939C9.33303 8.4409 9.55303 8.90189 9.88203 9.55789C9.43803 9.52689 9.09002 9.60889 8.91102 9.47089C8.33802 9.03189 8.11502 8.46089 8.63102 7.66089Z" fill="white"/>
</svg>
