<svg width="84" height="98" viewBox="0 0 84 98" fill="none" xmlns="http://www.w3.org/2000/svg">
<path d="M48.611 36.47C51.007 32.169 53.794 28.4979 57.229 25.2229C56.777 20.5749 57.46 16.013 58.559 11.501C58.752 10.709 59.142 9.93197 59.584 9.23897C61.79 5.78397 64.917 3.45295 68.697 1.95295C69.636 1.57995 70.628 1.30694 71.511 0.829938C73 0.0269377 74.558 0.0259645 76.18 0.0449645C78.952 0.0769645 80.434 1.84394 81.591 3.97294C81.916 4.56994 81.913 5.49696 81.731 6.18696C81.173 8.29596 79.435 11.0549 76.002 10.9949C75.08 10.9789 74.156 10.993 73.118 10.993C72.74 11.719 72.431 12.502 71.963 13.173C70.888 14.715 69.707 16.0199 67.567 16.1849C65.404 16.3509 64.035 15.356 62.954 13.725C62.542 13.105 62.304 12.3699 61.937 11.5799C61.735 11.7519 61.485 11.858 61.437 12.023C60.63 14.788 60.307 17.6279 60.227 20.4949C60.214 20.9679 60.412 21.445 60.54 22.052C62.287 21.529 63.604 20.47 65.094 19.773C65.309 19.671 65.545 19.47 65.629 19.259C66.166 17.909 67.45 17.613 68.58 17.069C70.741 16.029 73.081 15.551 75.403 15.354C78.113 15.124 80.643 16.0039 82.176 18.4519C83.965 21.3079 83.934 24.391 82.568 27.401C81.602 29.528 79.145 30.5189 76.864 29.9049C75.973 29.6639 75.097 29.3679 74.06 29.0499C73.628 29.4099 73.077 29.7869 72.628 30.2619C70.908 32.0769 68.109 30.6269 67.671 28.6579C67.373 27.3149 67.481 25.99 67.747 24.656C67.889 23.946 68.381 23.2319 67.847 22.4869C64.183 22.8089 54.696 31.018 51.309 37.207C51.633 37.41 51.95 37.646 52.298 37.819C53.73 38.529 55.197 39.1709 56.596 39.9389C57.166 40.2529 57.71 40.749 58.065 41.294C59.277 43.154 61.057 44.4489 62.558 46.0199C65.004 48.5779 67.427 51.1599 69.776 53.8049C71.131 55.3319 72.164 57.095 72.346 59.2C72.447 60.368 72.595 61.473 73.069 62.592C73.482 63.567 73.455 64.7289 73.619 65.8089C73.859 67.3869 74.037 68.9759 74.351 70.5379C74.587 71.7109 74.686 72.841 74.49 74.04C74.135 76.201 73.912 78.386 73.133 80.454C72.417 82.354 71.589 84.154 70.007 85.565C68.949 86.508 68.147 87.732 67.175 88.778C66.071 89.966 64.769 90.95 63.221 91.428C61.495 91.96 59.934 92.785 58.512 93.829C54.872 96.503 50.749 97.3079 46.355 97.2479C43.658 97.2109 40.943 97.051 38.267 97.286C36.247 97.465 34.238 97.494 32.221 97.577C29.758 97.679 27.374 97.117 24.954 96.862C24.369 96.801 23.788 96.635 23.204 96.629C19.878 96.59 17.236 94.9429 14.855 92.8989C13.334 91.5929 12.097 89.958 10.722 88.48C10.278 88.004 10.012 87.3639 9.23799 87.1879C8.93799 87.1199 8.72199 86.6069 8.50199 86.2739C7.94899 85.4379 7.513 84.5029 6.326 84.3599C6.023 84.3229 5.698 84.104 5.469 83.881C3.401 81.857 1.536 79.683 0.996997 76.72C0.695997 75.067 0.457996 73.3929 0.352996 71.7179C0.295996 70.8189 0.481996 69.87 0.727996 68.991C1.546 66.059 2.74699 63.286 4.23099 60.621C6.19899 57.088 8.16999 53.5649 10.391 50.1759C11.891 47.8869 13.785 45.9979 15.672 44.0799C16.853 42.8789 18.003 41.598 19.369 40.64C21.997 38.798 24.907 37.4439 28.029 36.6359C28.949 36.3989 29.756 36.0829 30.506 35.4809C32.44 33.9279 34.648 33.3639 37.119 33.7959C37.77 33.9089 38.459 33.809 39.13 33.82C41.861 33.869 44.486 34.3049 46.855 35.8039C47.33 36.1049 47.931 36.219 48.611 36.47ZM17.515 46.088C17.589 45.48 18.01 44.866 17.508 44.251C16.702 45.017 16.702 45.0169 17.572 46.0409C17.635 46.9659 17.64 47.898 17.779 48.812C17.909 49.666 17.838 50.616 18.58 51.528C19.813 50.129 20.92 48.8849 22.01 47.6279C22.502 47.0609 22.961 46.4639 23.523 45.7699C23.083 45.5089 22.743 45.3079 22.409 45.1109C22.066 45.3909 21.791 45.588 21.549 45.819C20.276 47.034 18.939 47.189 17.515 46.088ZM58.583 26.264C58.891 26.143 59.233 26.071 59.501 25.89C61.94 24.246 64.186 22.3099 66.894 21.0759C67.194 20.9389 67.529 20.7539 67.708 20.4949C68.708 19.0479 70.116 19.186 71.553 19.462C73.062 19.75 74.356 20.563 75.731 21.191C77.34 21.925 78.518 23.0409 79.447 24.4909C79.985 25.3299 80.534 26.16 81.107 27.039C81.919 25.541 82.144 24.8249 82.065 22.8569C82.026 21.8729 81.86 20.8319 81.475 19.9339C80.679 18.0789 77.813 16.41 75.905 16.682C73.247 17.062 70.579 17.481 68.212 18.897C67.784 19.153 67.21 19.347 66.989 19.733C66.478 20.627 65.593 20.909 64.809 21.371C63.867 21.928 62.843 22.377 61.995 23.049C60.771 24.018 59.247 24.7119 58.626 26.3129C56.599 27.2049 55.743 28.071 55.477 29.673C56.617 28.475 57.907 27.665 58.583 26.264ZM26.191 92.5969L26.132 92.5379C26.712 92.8589 27.258 93.33 27.88 93.471C29.265 93.782 30.687 93.93 32.103 94.146C32.37 93.762 32.581 93.171 32.826 93.156C34.111 93.075 34.332 91.897 34.866 91.168C35.43 90.397 35.667 89.352 35.912 88.392C36.098 87.669 36.125 86.8899 36.119 86.1369C36.115 85.6809 35.915 85.2259 35.823 84.8519C34.896 84.8519 34.157 84.8519 33.311 84.8519C32.781 86.3109 32.367 87.7699 31.728 89.1229C31.081 90.4939 30.619 92.077 28.9 92.721C30.004 90.125 31.546 87.6929 31.447 84.6709C30.321 84.1299 29.344 83.3219 28.002 83.0119C27.376 83.7409 26.739 84.408 26.189 85.139C25.127 86.548 24.124 88.0009 23.078 89.4209C22.467 90.2519 22.112 90.1499 21.614 89.0379C21.869 88.8329 22.178 88.669 22.369 88.415C23.82 86.483 25.251 84.537 26.673 82.583C26.739 82.492 26.655 82.293 26.622 81.944C26.158 82.232 25.673 82.393 25.4 82.728C24.4 83.957 23.388 85.19 22.55 86.528C22.083 87.273 21.952 88.227 21.669 89.087C21.228 88.979 20.787 88.868 20.284 88.743C21.374 85.5 23.426 83.079 25.477 80.617C25.122 80.202 24.878 79.8589 24.577 79.5799C24.223 79.2499 23.82 78.976 23.483 78.713C21.179 79.899 19.159 81.702 17.982 83.577C16.763 85.518 17.075 87.4259 18.838 88.9159C20.993 90.7359 23.503 91.8409 26.191 92.5969ZM46.46 72.3429C47.428 73.0849 47.548 73.408 47.102 74.088C46.469 75.051 45.622 75.696 44.441 75.793C43.966 75.833 43.486 75.7999 43.046 75.7999C42.333 77.2079 42.292 78.621 42.136 80.156C42.828 80.346 43.429 80.51 43.954 80.652C44.13 80.445 44.227 80.382 44.231 80.315C44.276 79.592 44.307 78.869 44.342 78.126C45.727 78.728 45.727 78.7279 45.112 81.2049C45.946 82.0189 46.812 82.866 47.802 83.833C48.077 83.246 48.344 82.888 48.398 82.501C48.454 82.106 48.251 81.681 48.26 81.271C48.264 81.069 48.519 80.692 48.611 80.707C48.9 80.752 49.266 80.879 49.414 81.1C49.582 81.353 49.643 81.7589 49.584 82.0669C49.411 82.9549 49.155 83.826 48.928 84.715C49.138 84.944 49.413 85.1579 49.577 85.4389C50.978 87.8199 51.432 87.8119 53.853 86.8389C53.975 86.7889 54.154 86.8849 54.372 86.9259C54.372 87.1439 54.47 87.4619 54.356 87.5809C53.465 88.5209 52.285 88.5569 51.092 88.5629C50.066 88.5689 49.673 87.7969 49.195 87.1099C49.04 86.8869 48.861 86.6819 48.332 86.0119C48.62 88.5899 46.741 89.633 46.067 91.242C47.64 92.241 48.092 90.3909 49.143 90.1759C49.336 91.3259 49.235 91.556 48.534 92.173C47.174 93.367 45.787 93.13 44.561 92.259C41.876 93.076 39.39 93.8609 36.71 93.2699C35.978 93.1079 35.41 93.443 35.169 94.392C36.32 94.392 37.406 94.283 38.461 94.418C39.913 94.604 41.316 94.5399 42.704 94.1149C44.428 93.5889 46.107 93.519 47.912 93.936C51.423 94.744 53.728 93.384 54.955 89.966C55.294 89.02 55.772 88.344 56.708 87.974C57.01 87.853 57.261 87.603 57.54 87.41C57.287 87.091 57.061 86.806 56.775 86.445C57.124 86.203 57.366 85.9369 57.663 85.8429C59.191 85.3579 59.903 84.451 59.367 82.815C59.354 82.775 59.47 82.6919 59.542 82.6109C61.058 82.3569 60.493 84.147 61.463 84.57C61.746 83.762 62.021 82.979 62.358 82.018C63.829 81.308 65.118 80.2949 64.285 78.0249C63.418 78.6589 62.689 79.374 61.817 79.781C60.886 80.215 59.806 80.693 58.619 79.626C59.099 79.367 59.417 79.058 59.755 79.035C61.686 78.904 62.91 78.024 63.213 76.034C63.232 75.908 63.438 75.811 63.558 75.7C63.715 75.724 63.891 75.714 64.028 75.78C65.306 76.402 65.876 76.2869 66.512 75.2579C67.362 73.8859 67.169 72.55 66.423 71.239C65.797 71.163 65.315 71.35 65.278 71.957C65.218 72.951 64.52 73.4039 63.845 73.9039C60.519 76.3669 55.778 76.019 52.68 73.932C51.589 73.197 50.691 72.1739 49.59 71.1789C48.785 71.4499 47.84 71.758 46.903 72.09C46.755 72.144 46.642 72.2969 46.513 72.4039C45.176 72.1919 43.853 72.1499 42.576 72.6659C42.746 74.2259 42.85 74.363 43.851 74.424C45.271 74.51 45.539 74.322 46.216 72.784C46.285 72.633 46.378 72.4899 46.46 72.3429ZM53.553 39.8649C52.861 39.4179 52.561 39.1419 52.207 39.0109C51.183 38.6289 50.128 38.326 49.101 37.95C46.847 37.125 44.5 36.9699 42.141 37.0289C41.402 37.0469 40.65 37.3079 39.942 37.5639C39.001 37.9019 38.091 38.33 37.179 38.742C36.415 39.09 35.66 39.461 34.912 39.842C34.087 40.262 33.304 40.7769 32.453 41.1289C27.795 43.0549 24.185 46.2379 21.271 50.2879C20.83 50.8999 20.284 51.437 19.821 52.036C18.231 54.096 16.289 55.8709 14.981 58.1629C13.728 60.3579 12.323 62.4689 11.099 64.6799C10.043 66.5869 8.919 68.488 8.423 70.644C7.913 72.857 7.436 75.0819 7.046 77.3169C6.86 78.3869 6.822 79.5029 6.873 80.5889C6.92 81.6059 7.32899 82.5139 8.37599 83.1109C8.45099 82.7479 8.557 82.506 8.542 82.271C8.313 78.839 8.89299 75.562 10.369 72.448C10.585 71.991 10.769 71.5179 10.937 71.0409C12.459 66.7359 15.14 63.0209 17.108 58.9429C17.469 58.1959 18.067 57.561 18.573 56.888C19.941 55.07 21.367 53.2939 22.681 51.4389C24.679 48.6209 27.515 46.8009 30.273 44.8789C30.41 44.7829 30.567 44.7139 30.72 44.6449C32.018 44.0539 33.314 43.4569 34.619 42.8779C38.996 40.9389 43.586 40.0099 48.368 40.0039C49.943 40.0029 51.523 40.0849 53.553 39.8649ZM69.609 63.0199C67.532 60.2149 64.9 58.8839 61.999 58.2799C60.133 57.8909 58.505 57.1989 56.92 56.2399C56.458 55.9609 55.914 55.8139 55.334 55.5769C55.098 56.1259 54.888 56.4919 54.779 56.8869C53.96 59.8349 53.824 62.858 54.115 65.872C54.286 67.65 54.983 69.368 56.465 70.466C59.719 72.876 64.427 71.462 66.013 68.746C66.435 68.023 66.976 67.3739 67.419 66.6629C68.165 65.4629 68.876 64.2419 69.609 63.0199ZM49.802 54.794C49.404 54.794 48.906 54.8039 48.411 54.7919C46.323 54.7359 44.18 54.815 42.28 53.815C40.702 52.985 39.249 53.0339 37.731 53.8269C37.285 54.0599 36.817 54.2489 36.361 54.4609C34.982 55.1009 34.71 55.453 34.861 56.971C35.132 59.693 35.923 62.202 37.847 64.285C39.748 66.341 42.072 66.916 44.698 66.389C48.73 65.582 50.765 62.189 50.987 58.324C51.06 57.064 51.021 55.785 49.802 54.794ZM23.897 76.476C23.932 76.631 23.925 76.815 24.008 76.937C25.644 79.349 28.1 80.835 30.366 82.532C30.69 82.775 31.131 82.867 31.522 83.014C33.643 83.814 35.63 83.2469 37.657 82.5379C39.149 82.0149 40.134 81.028 40.594 79.639C41.2 77.81 41.564 75.9089 41.355 73.9389C41.246 72.9179 40.85 72.177 39.844 71.842C38.823 71.502 37.8 71.171 36.9 70.876C32.541 74.382 32.728 75.762 23.897 76.476ZM20.546 69.09C23.103 71.467 25.717 72.7009 28.816 71.2739C31.712 69.9399 33.757 67.811 33.925 64.364C34.078 61.208 32.719 58.9119 30.046 57.1969C28.823 58.4339 27.377 59.0819 25.918 59.7359C24.696 60.2849 23.545 60.992 22.334 61.644C22.067 62.932 21.842 64.171 21.549 65.393C21.256 66.609 20.896 67.81 20.546 69.09ZM53.634 44.9819C51.684 42.9999 49.396 42.5209 47.507 41.3909C45.372 41.4759 43.152 41.023 41.197 42.269C41.3 43.031 41.58 43.4629 42.324 43.4809C43.248 43.5039 44.19 43.4779 45.091 43.6489C46.271 43.8729 46.637 44.7859 46.141 45.9559C45.991 46.3109 45.498 46.5379 45.799 47.1759C46.203 47.4039 46.692 47.7289 47.218 47.9689C49.076 48.8239 50.755 49.9449 52.195 51.3859C54.005 53.1969 56.21 54.4419 58.331 55.8039C59.703 56.6859 61.249 56.958 62.791 56.949C62.948 56.663 63.076 56.5269 63.095 56.3779C63.126 56.1319 63.168 55.836 63.064 55.634C61.876 53.31 60.722 50.961 58.749 49.156C57.976 48.448 57.146 48.005 56.032 48.045C55.298 48.072 54.552 47.822 53.659 47.67C52.851 48.167 51.888 48.6899 50.721 48.5029C49.736 48.3459 49.016 47.576 49.004 46.626C48.995 45.844 49.674 45.099 50.638 45C51.463 44.916 52.303 44.9819 53.634 44.9819ZM37.547 84.1749C37.495 84.6499 37.378 84.9899 37.436 85.2959C37.712 86.7349 37.465 88.1239 37.148 89.5159C37.055 89.9239 36.949 90.333 36.907 90.746C36.841 91.4 37.202 91.849 37.863 92.006C40.816 92.707 44.558 91.202 46.273 88.674C47.152 87.378 47.132 85.039 45.984 83.772C44.738 82.397 43.249 81.6649 41.362 81.2179C40.464 82.6499 39.2 83.7039 37.547 84.1749ZM10.283 84.935C10.386 85.359 10.367 85.837 10.592 86.125C12.302 88.313 13.937 90.584 16.068 92.39C17.828 93.88 19.874 94.868 22.184 95.22C23.431 95.41 24.7 95.499 25.929 95.773C29.601 96.589 33.3 96.296 36.998 96.14C37.237 96.13 37.471 95.9969 38.246 95.7449C36.964 95.7009 36.225 95.641 35.486 95.655C32.77 95.703 30.032 95.407 27.501 94.612C23.82 93.457 20.252 91.889 17.192 89.379C16.088 88.475 15.669 87.525 15.894 86.104C16.085 84.895 16.307 83.6289 15.897 82.2919C13.837 82.8389 12.08 83.775 10.283 84.935ZM58.878 47.7659C61.152 49.6029 62.321 52.0409 63.638 54.3819C64.052 55.1179 64.495 55.813 64.414 56.725C64.358 57.356 64.658 57.913 65.243 58.165C66.808 58.844 68.123 59.864 69.413 60.953C70.053 61.492 70.989 61.082 71.151 60.247C71.229 59.846 71.229 59.4049 71.154 59.0029C70.839 57.3109 70.094 55.819 68.907 54.565C66.366 51.88 63.822 49.199 61.268 46.527C61.042 46.29 60.756 46.091 60.463 45.944C60.27 45.847 60.015 45.8739 59.74 45.8389C59.482 46.4169 59.246 46.9439 58.878 47.7659ZM52.063 95.341C53.175 95.273 54.18 95.014 55.116 94.406C56.803 93.307 58.421 91.966 60.273 91.278C66.877 88.827 65.94 87.865 69.375 84.432C70.657 83.151 71.608 81.6189 72.014 79.8999C72.592 77.4569 73.025 74.9579 73.233 72.4599C73.339 71.1809 72.82 69.848 72.599 68.627C72.047 70.297 71.536 71.981 70.927 73.629C70.54 74.679 70.244 75.7089 70.502 76.8259C70.763 77.9509 70.533 79.056 70.047 80.019C68.192 83.692 65.861 86.94 61.765 88.424C61.212 88.625 60.642 88.7959 60.116 89.0549C59.518 89.3499 58.861 89.6269 58.403 90.0849C56.462 92.0339 54.486 93.931 52.063 95.341ZM51.851 52.816C51.516 52.377 51.333 51.9809 51.025 51.7609C49.865 50.9329 48.697 50.1089 47.471 49.3869C46.319 48.7079 45.132 47.7909 43.884 47.6489C42.287 47.4659 41.341 46.514 40.21 45.703C40.144 45.656 40.057 45.6349 39.978 45.6059C39.285 45.3539 38.561 45.845 38.741 46.591C39.023 47.757 38.534 48.3579 37.558 48.7409C37.025 48.9509 36.471 49.1069 35.774 49.3389C36.812 49.7779 37.738 50.1629 38.659 50.5629C39.35 50.8629 40.11 51.075 40.708 51.506C44.121 53.974 47.759 54.274 51.851 52.816ZM38.561 51.8389C37.718 51.0779 36.745 50.843 35.798 50.617C33.845 50.15 31.879 49.733 29.909 49.341C29.177 49.196 28.418 49.19 27.674 49.096C26.962 49.005 26.396 49.2419 25.825 49.6719C24.19 50.9069 23.222 52.592 22.322 54.364C25.208 54.316 27.955 54.271 30.701 54.221C31.538 54.205 32.382 54.233 33.21 54.13C33.861 54.05 34.527 53.879 35.122 53.608C36.255 53.091 37.344 52.4729 38.561 51.8389ZM64.249 6.23195C66.399 8.03095 68.211 9.88795 69.66 12.082C69.854 12.376 70.208 12.5649 70.487 12.8009C70.675 12.6029 70.755 12.551 70.785 12.48C70.917 12.174 71.067 11.8709 71.151 11.5509C71.656 9.63795 71.81 9.53195 73.672 9.58595C74.76 9.61795 75.855 9.60695 76.941 9.52995C77.291 9.50595 77.622 9.21194 78.14 8.95094C76.595 7.41694 75.072 6.29495 73.191 5.67595C71.368 5.07595 69.558 4.44095 67.723 3.81395C66.524 4.43995 65.263 4.92795 64.249 6.23195ZM62.058 86.478C63.964 85.973 63.971 85.979 64.644 85.316C66.154 83.831 67.381 82.132 68.374 80.265C68.936 79.207 69.258 78.085 69.155 76.875C69.016 75.253 69.172 73.697 69.99 72.241C70.233 71.808 70.322 71.291 70.496 70.819C71.094 69.191 70.781 67.731 69.673 66.23C68.604 67.29 67.76 68.3689 67.179 69.5929C69.082 72.8799 68.766 75.124 66.063 78.005C65.933 80.332 65.878 80.9829 64.944 81.7319C63.474 82.9119 62.973 84.579 62.058 86.478ZM6.22499 73.743C6.46199 73.278 6.64199 73.068 6.67699 72.837C6.94299 71.076 7.44499 69.402 8.22499 67.79C8.45699 67.31 8.48599 66.6089 8.33499 66.0889C7.86999 64.4799 7.298 62.8989 6.706 61.3299C6.574 60.9809 6.18499 60.7279 5.77899 60.2839C4.45599 62.7239 3.083 64.906 2.52 67.385C3.838 69.43 4.53999 71.717 6.22499 73.743ZM9.345 64.786C11.05 62.95 11.935 60.894 12.98 59.139C12.62 57.726 12.372 56.494 11.985 55.308C11.609 54.158 11.697 52.8399 10.829 51.7349C9.00199 53.9809 7.67199 56.356 6.75299 58.661C7.65499 60.792 8.455 62.682 9.345 64.786ZM36.151 64.5369C36.058 64.6209 35.963 64.705 35.87 64.789C36.261 65.794 36.655 66.7979 37.043 67.8039C37.8 69.7659 39.449 70.591 41.334 70.81C43.326 71.041 45.345 70.9519 47.311 70.3439C49.709 69.6029 50.714 67.8789 50.218 64.9939C49.758 65.3079 49.341 65.5629 48.957 65.8599C46.773 67.5439 44.304 68.028 41.603 67.743C40.039 67.578 38.679 67.032 37.53 65.976C37.043 65.527 36.61 65.0189 36.151 64.5369ZM51.995 54.3689C52.128 56.1939 52.576 57.9169 52.303 59.5169C51.768 62.6569 52.094 65.91 51.014 68.97C50.771 69.658 51.004 70.2839 51.417 70.8649C53.927 74.3989 58.722 75.1679 61.988 73.4809C62.095 73.4239 62.113 73.196 62.235 72.888C61.183 72.888 60.184 72.826 59.197 72.905C58.122 72.99 57.24 72.635 56.363 72.069C53.846 70.446 52.995 67.957 52.838 65.172C52.749 63.588 52.828 61.979 52.988 60.397C53.181 58.492 53.542 56.6009 53.832 54.6919C53.084 54.2429 53.084 54.2429 51.995 54.3689ZM10.515 75.501C9.83699 77.374 9.74099 79.289 9.57099 81.183C9.50399 81.929 9.676 82.6759 10.319 83.3519C12.231 82.4579 14.346 81.934 16.028 80.505C16.166 78.892 15.534 77.507 15.039 76.099C14.753 75.286 14.069 74.939 13.251 75.023C12.35 75.117 11.459 75.33 10.515 75.501ZM15.786 45.648C14.736 46.724 13.888 47.5289 13.121 48.4039C12.687 48.8979 12.387 49.5079 12.056 50.0209C12.729 52.4549 12.748 54.9309 13.802 57.4349C14.877 56.1629 15.864 55.046 16.78 53.875C17.015 53.574 17.138 53.094 17.121 52.703C17.021 50.439 16.792 48.19 15.786 45.648ZM18.189 60.006C22.043 60.673 26.6 58.8479 30.061 55.1239C28.56 55.0279 27.343 54.6259 25.985 54.8599C24.456 55.1259 22.899 55.232 21.136 55.433C20.493 56.971 18.508 57.931 18.189 60.006ZM79.036 7.97895C79.401 7.76395 79.488 7.73596 79.541 7.67796C80.61 6.53896 80.607 5.18996 79.996 3.92396C79.314 2.51496 78.174 1.52294 76.489 1.41594C75.903 1.37894 75.313 1.36496 74.726 1.35496C73.081 1.32996 71.688 1.97796 70.236 2.89396C71.115 3.93696 72.304 3.95294 73.222 4.47194C74.244 5.05294 75.328 5.52894 76.337 6.13194C77.267 6.69094 78.134 7.35695 79.036 7.97895ZM71.943 20.94C72.602 22.944 73.22 24.587 73.668 26.276C73.914 27.204 74.395 27.752 75.251 28.052C76.278 28.412 77.306 28.7749 78.367 29.1489C78.964 28.7819 79.639 28.5139 79.798 27.7919C79.969 27.0119 79.689 26.3019 79.158 25.6979C78.602 25.0649 78.094 24.3849 77.493 23.8009C75.964 22.3129 74.103 21.473 71.943 20.94ZM35.011 67.1229C34.082 69.4639 32.5 70.4569 31.046 71.5589C28.502 73.4849 24.53 73.6239 21.802 71.9559C21.231 71.6059 20.662 71.247 20.058 70.963C19.906 70.892 19.536 71.0359 19.427 71.1929C19.32 71.3479 19.32 71.7539 19.44 71.8599C20.006 72.3549 20.619 72.7989 21.235 73.2349C24.201 75.3319 28.949 75.3519 31.909 73.2269C32.93 72.4949 33.923 71.6899 34.78 70.7789C35.262 70.2669 35.527 69.4929 35.714 68.7909C35.793 68.4879 35.429 68.0679 35.011 67.1229ZM13.646 68.276C15.933 67.355 18.088 67.551 19.879 66.414C20.495 64.71 21.124 63.0979 20.879 61.2479C18.472 61.1849 16.601 61.6839 15.66 64.0509C15.324 64.8969 14.684 65.6169 14.247 66.4289C14.025 66.8409 13.946 67.329 13.646 68.276ZM5.28099 81.59C5.55599 79.617 5.78299 78.0599 5.98099 76.4979C6.01099 76.2649 5.951 75.9889 5.847 75.7739C4.795 73.6009 3.506 71.573 2.137 69.518C1.371 70.794 1.345 70.797 1.437 71.659C1.58 72.988 1.704 74.3239 1.943 75.6369C2.34 77.8189 3.24999 79.749 5.28099 81.59ZM62.597 7.59694C62.796 8.81994 62.931 9.78894 63.119 10.7479C63.216 11.2369 63.376 11.722 63.571 12.183C63.733 12.563 63.963 12.923 64.206 13.26C65.608 15.2 66.824 15.41 69.234 14.052C69.051 12.398 67.985 11.211 66.844 10.126C65.724 9.06096 64.762 7.67594 62.597 7.59694ZM69.206 20.6889C69.568 21.9999 69.561 22.281 69.327 23.901C69.147 25.137 68.95 26.377 68.864 27.621C68.799 28.571 69.522 29.416 70.405 29.634C71.193 29.827 72.151 29.2039 72.482 28.2059C72.637 27.7389 72.789 27.2029 72.706 26.7399C72.517 25.6789 72.291 24.5999 71.878 23.6119C71.373 22.4009 70.581 21.3539 69.206 20.6889ZM21.918 42.501C22.961 41.992 23.655 41.093 24.85 40.976C26.142 40.849 27.004 41.704 28.076 42.196C28.641 41.761 29.15 41.3689 29.633 40.9989C29.372 39.9119 29.144 38.97 28.88 37.871C28.099 37.993 27.391 37.955 26.825 38.22C24.633 39.243 22.479 40.353 20.328 41.462C20.043 41.608 19.856 41.942 19.438 42.388C20.508 42.435 21.251 42.47 21.918 42.501ZM13.545 72.827C14.426 72.893 15.245 72.955 16.08 73.018C17.397 71.698 18.496 70.322 18.948 68.401C16.606 67.9 14.782 69.1539 12.74 69.5419C12.559 70.0409 12.393 70.4999 12.203 71.0249C12.654 71.6299 13.093 72.221 13.545 72.827ZM17.451 78.1099C18.787 77.1069 20.514 76.859 21.983 75.698C20.702 74.542 19.421 73.708 18.049 73.047C16.269 75.034 16.208 75.5509 17.451 78.1099ZM35.021 38.431C35.469 38.248 35.865 38.1179 36.231 37.9289C36.679 37.6979 37.12 37.444 37.531 37.152C38.398 36.538 38.312 35.6369 37.281 35.2309C36.685 34.9959 35.941 34.813 35.348 34.959C34.294 35.218 33.025 35.08 32.205 36.075C33.156 36.87 33.986 37.565 35.021 38.431ZM28.314 47.7919C30.428 48.2279 32.19 48.591 34.318 49.028C33.19 47.626 33.393 46.6269 34.489 45.7749C34.553 45.7249 34.645 45.6519 34.646 45.5889C34.648 45.3179 34.621 45.0479 34.594 44.6019C32.539 45.7549 30.237 45.8439 28.314 47.7919ZM50.323 41.302C52.016 42.339 53.315 43.064 54.535 43.903C55.831 44.795 57.236 44.727 58.798 44.799C56.834 41.638 53.942 41.276 50.323 41.302ZM22.432 77.4469C18.528 78.3449 17.663 79.0809 17.834 81.2789C19.309 80.0489 20.694 78.8949 22.432 77.4469ZM49.416 96.0109C46.439 94.7079 45.044 94.688 43.344 95.778C45.239 96.226 47.022 96.0539 49.416 96.0109ZM70.237 63.095C70.617 64.11 70.974 65.131 71.392 66.127C71.514 66.422 71.809 66.645 72.143 67.043C72.366 64.24 72.332 63.7229 71.598 62.6889C71.188 62.1099 70.753 62.377 70.237 63.095ZM31.019 56.432C31.892 57.198 32.716 57.922 33.775 58.851C33.651 57.571 33.953 56.581 33.411 55.66C32.459 55.415 31.751 55.71 31.019 56.432ZM24.666 44.444C25.074 44.154 25.574 43.8549 26.004 43.4769C26.582 42.9719 26.393 42.4599 25.585 42.2369C24.722 41.9989 23.981 42.205 23.649 42.932C23.272 43.758 23.822 44.155 24.666 44.444ZM58.809 17.3859C58.624 18.8819 58.528 19.877 58.373 20.863C58.109 22.548 58.094 22.546 58.615 24.035C58.906 23.653 59.302 23.3659 59.33 23.0459C59.379 22.4829 59.166 21.9039 59.127 21.3259C59.052 20.1799 59.202 19.0159 58.809 17.3859ZM40.032 43.384C39.569 43.108 39.309 42.819 39.057 42.825C37.927 42.854 37.353 43.159 36.363 44.087C38.076 44.73 38.076 44.73 40.032 43.384ZM33.565 39.0759C33.273 38.0569 32.563 37.7589 31.665 37.8469C31.124 37.8999 30.785 38.2579 30.771 38.8349C30.758 39.3609 31.134 39.4999 31.56 39.5849C32.221 39.7169 32.863 39.7719 33.565 39.0759ZM44.868 45.315C43.816 44.499 43.49 44.4199 42.788 44.9219C42.633 45.0319 42.518 45.349 42.556 45.536C42.592 45.722 42.831 45.98 43.007 46.001C43.724 46.09 44.472 46.149 44.868 45.315ZM19.899 45.44C20.237 45.132 20.637 44.7939 20.996 44.4179C21.063 44.3479 21.019 44.0509 20.93 43.9779C20.767 43.8469 20.449 43.6779 20.34 43.7489C19.954 44.0009 19.612 44.333 19.292 44.669C19.221 44.743 19.259 44.9959 19.334 45.1099C19.407 45.2249 19.588 45.269 19.899 45.44ZM58.04 46.394C57.383 46.078 57.173 45.9079 56.946 45.8819C56.414 45.8209 55.785 45.433 55.431 46.208C55.399 46.278 55.382 46.3789 55.407 46.4469C55.685 47.2009 56.319 47.0519 56.878 46.9679C57.163 46.9249 57.42 46.709 58.04 46.394ZM35.076 47.2489C36.536 47.7809 36.954 47.7739 37.113 47.2099C37.133 47.1409 37.134 47.0429 37.1 46.9849C36.794 46.4649 36.252 46.5369 35.076 47.2489ZM50.654 46.285C50.602 46.449 50.55 46.6139 50.498 46.7789C50.895 46.9719 51.28 47.259 51.697 47.321C51.908 47.353 52.18 46.98 52.425 46.79C52.23 46.574 52.061 46.2189 51.833 46.1749C51.46 46.1039 51.049 46.237 50.654 46.285ZM42.704 35.7439C41.476 35.1189 40.575 35.186 39.109 35.423C40.518 36.085 41.431 35.8339 42.704 35.7439Z" fill="white"/>
<path d="M46.48 78.6329C46.906 78.3399 47.139 78.0579 47.28 78.0989C49.241 78.6709 50.451 77.7209 51.31 76.1289C52.109 76.2449 52.096 76.7329 51.869 77.2269C50.839 79.4589 49.25 79.9249 46.48 78.6329Z" fill="white"/>
<path d="M53.085 80.9929C53.706 81.2999 54.334 81.7339 55.027 81.9149C55.726 82.0979 56.491 82.0289 57.219 82.0699C57.638 82.7429 57.154 83.0429 56.712 83.1879C55.324 83.6449 53.596 83.0419 52.734 81.8539C52.651 81.7409 52.635 81.5229 52.682 81.3859C52.727 81.2569 52.895 81.1699 53.085 80.9929Z" fill="white"/>
<path d="M53.245 79.3389C54.232 79.0259 54.695 78.8709 55.163 78.7339C56.615 78.3059 56.616 78.3079 57.44 76.7689C58.189 77.2749 58.388 78.0729 57.783 78.6909C57.402 79.0809 56.832 79.3389 56.3 79.5139C54.94 79.9599 54.93 79.9279 53.245 79.3389Z" fill="white"/>
<path d="M60.279 68.4019C59.185 68.2799 57.926 67.9679 57.335 66.6899C56.782 65.4919 56.824 64.1999 57.703 63.1339C58.04 62.7259 58.633 62.3569 59.147 62.2989C61.104 62.0759 63.251 64.3909 63.008 66.3529C62.881 67.3829 61.635 68.3919 60.279 68.4019ZM61.52 66.1539C61.371 65.0079 61.01 64.2189 60.065 63.8099C59.504 63.5669 58.87 63.8119 58.635 64.3779C58.214 65.3959 58.451 66.5219 59.321 66.9899C59.697 67.1919 60.301 67.2339 60.688 67.0729C61.067 66.9159 61.303 66.4099 61.52 66.1539Z" fill="white"/>
<path d="M43.172 64.0289C40.21 64.3259 38.929 61.8889 40.093 59.9469C40.716 58.9089 41.493 58.0709 42.873 58.0669C45.205 58.0609 46.795 60.6549 45.622 62.7009C45.355 63.1649 44.81 63.5469 44.308 63.7789C43.791 64.0189 43.168 64.0289 43.172 64.0289ZM44.601 61.2979C44.559 60.3639 44.22 59.6969 43.587 59.4159C42.694 59.0199 42.224 59.7669 41.634 60.1799C41.568 60.2259 41.52 60.3009 41.466 60.3649C40.998 60.9179 40.82 61.5239 41.132 62.2159C41.408 62.8259 41.955 63.0679 42.818 62.9479C43.065 62.9139 43.313 62.8629 43.551 62.7899C44.286 62.5599 44.635 62.0549 44.601 61.2979Z" fill="white"/>
<path d="M26.1911 92.597C26.3521 92.133 26.4041 91.582 26.6941 91.222C27.9691 89.628 28.9441 87.907 29.3191 85.878C29.3491 85.717 29.3911 85.502 29.5041 85.427C29.7571 85.259 30.1101 85.012 30.3231 85.084C30.5291 85.154 30.6381 85.578 30.7321 85.865C30.7791 86.008 30.7191 86.199 30.6681 86.355C30.0441 88.285 29.0491 90.018 27.8341 91.628C27.4171 92.181 26.8721 92.556 26.1331 92.537L26.1911 92.597Z" fill="white"/>
<path d="M30.169 64.531C30.121 66.223 28.77 67.5919 27.133 67.6059C25.918 67.6169 24.487 66.262 24.439 65.056C24.382 63.607 26.2041 61.877 27.7821 61.883C29.1991 61.89 30.212 63.014 30.169 64.531ZM28.686 64.4389C28.534 64.2109 28.3491 63.714 27.9911 63.449C27.5251 63.103 27.0471 63.4579 26.6781 63.7919C26.4401 64.0099 26.2691 64.302 26.0811 64.569C25.7361 65.058 25.867 65.523 26.242 65.907C26.666 66.344 27.18 66.601 27.793 66.28C28.434 65.942 28.757 65.4049 28.686 64.4389Z" fill="white"/>
</svg>
