<svg width="49" height="92" viewBox="0 0 49 92" fill="none" xmlns="http://www.w3.org/2000/svg">
<path d="M6.467 7.70201C6.856 6.47301 7.684 5.77501 8.579 5.17901C10.067 4.18801 11.546 3.15701 13.13 2.34001C15.467 1.13401 17.938 0.262007 20.623 0.210007C21.194 0.199007 21.768 0.154008 22.338 0.103008C24.778 -0.119992 27.134 0.135009 29.519 0.824009C31.681 1.44901 33.695 2.35701 35.748 3.21901C36.686 3.61201 37.711 3.79701 38.649 4.18801C39.282 4.45301 39.877 4.86001 40.411 5.29901C41.056 5.83001 41.208 6.55701 40.964 7.42301C40.638 7.52901 40.341 7.62501 40.045 7.72101C37.357 8.59901 35.635 10.364 34.875 13.123C34.189 15.612 33.93 18.095 34.083 20.69C34.218 22.958 34.686 25.1 35.357 27.243C36.461 30.772 37.468 34.332 38.558 37.866C38.915 39.024 39.461 40.124 39.817 41.283C41.185 45.739 42.531 50.203 43.846 54.676C45.072 58.842 45.936 63.094 46.711 67.364C46.915 68.493 47 69.643 47.161 70.78C47.527 73.367 48.097 75.93 48.071 78.564C48.069 78.816 48.116 79.078 48.192 79.318C48.845 81.381 48.051 83.213 47.28 85.043C47.16 85.327 46.951 85.612 46.709 85.8C44.637 87.403 42.586 88.984 39.913 89.591C37.548 90.129 35.228 90.858 32.816 91.214C28.691 91.823 24.542 91.907 20.39 91.76C16.8 91.633 13.287 91.042 9.97698 89.538C8.17598 88.72 6.339 87.979 4.553 87.129C3.753 86.749 3.01 86.23 2.295 85.701C1.559 85.157 1.061 84.383 0.854999 83.499C0.365999 81.383 0.103989 79.25 0.262989 77.056C0.465989 74.237 0.931973 71.487 1.72197 68.771C2.16497 67.244 2.34898 65.643 2.70998 64.089C3.04198 62.662 3.45699 61.254 3.83199 59.836C4.44999 57.492 5.35099 55.234 5.84999 52.849C6.13599 51.483 6.58298 50.127 7.13698 48.844C8.45998 45.773 9.05498 42.49 10.046 39.323C10.351 38.348 10.627 37.362 10.851 36.366C11.144 35.061 11.375 33.741 11.626 32.428C11.733 31.864 11.789 31.289 11.926 30.733C12.851 26.988 12.845 23.158 13.067 19.341C13.197 17.106 12.758 15.094 11.913 13.039C11.056 10.959 9.71299 9.49201 7.76699 8.48401C7.33499 8.25801 6.928 7.98101 6.467 7.70201ZM23.032 34.95C22.444 34.251 22.444 34.251 21.726 34.079C22.061 34.552 22.457 34.901 23.066 34.913C23.452 35.317 23.805 35.761 24.232 36.116C24.817 36.604 25.47 37.01 26.069 37.483C26.294 37.66 26.449 37.925 26.638 38.152C26.14 38.567 25.842 38.262 25.55 38.04C24.487 37.229 23.409 36.436 22.387 35.576C21.399 34.745 20.278 34.158 19.123 33.621C18.999 33.563 18.804 33.66 18.386 33.724C18.826 34.085 19.09 34.335 19.386 34.539C20.696 35.442 22.009 36.341 23.331 37.224C24.184 37.793 24.986 38.4 25.297 39.383C26.307 39.635 27.136 39.433 27.997 38.969C28.045 37.664 27.882 36.461 27.23 35.351C27.193 34.665 27.172 33.978 27.091 33.298C27.083 33.236 26.684 33.221 26.466 33.184C26.722 33.955 26 33.849 25.538 34.164C26.142 34.566 26.706 34.941 27.269 35.315C27.074 35.637 26.879 35.958 26.689 36.271C26.749 36.591 27.331 36.782 26.861 37.268C26.198 37.034 25.678 36.584 25.128 36.169C24.481 35.681 23.912 35.042 23.032 34.95ZM34.202 11.127C34.475 10.714 34.82 10.33 35.006 9.88001C35.247 9.29401 35.326 8.64301 35.541 8.04301C35.773 7.39701 36.08 6.77901 36.37 6.11301C34.772 6.25901 31.284 7.08601 30.227 7.58101C30.94 7.95001 31.455 8.47501 32.344 8.34501C32.869 8.26801 33.418 8.60601 33.964 9.22301C31.985 9.02401 30.311 8.62201 29.047 7.46301C25.775 7.74101 22.632 7.85901 19.531 7.45501C17.01 7.12601 14.541 6.40801 12.046 5.87901C11.65 5.79501 11.238 5.79301 10.673 5.73701C10.827 6.22701 10.915 6.52501 11.013 6.81901C11.515 8.33501 12.23 9.81801 12.465 11.374C12.713 13.013 13.713 14.297 14.118 15.837C14.211 16.192 14.687 16.534 15.067 16.708C15.816 17.05 16.615 17.287 17.403 17.537C19.426 18.18 21.48 18.514 23.614 18.207C25.068 17.997 26.53 17.753 27.993 17.723C29.692 17.688 31.255 17.25 32.893 16.652C33.346 14.784 33.794 12.933 34.244 11.083L34.202 11.127ZM38.019 53.726C37.675 53.805 37.271 53.777 37.233 54.302C37.176 55.072 37.235 55.776 37.948 56.274C38.131 56.402 38.232 56.646 38.372 56.836L38.403 56.801C38.096 56.801 37.79 56.801 37.374 56.801C37.531 57.839 36.764 58.359 36.019 59.004C37.146 59.654 38.131 60.23 39.124 60.792C40.112 61.351 40.961 62.136 42.149 62.373C42.667 62.476 43.122 62.958 43.572 63.311C43.806 63.495 43.771 63.739 43.497 63.895C42.589 63.425 41.681 62.968 40.786 62.486C40.227 62.185 39.685 61.852 39.142 61.52C38.274 60.989 37.394 60.472 36.55 59.902C35.632 59.282 34.698 59.185 33.646 59.524C33.007 59.729 32.314 60.01 31.494 59.516C31.601 55.084 31.269 50.657 30.293 46.327C30.037 46.194 29.866 46.118 29.708 46.021C27.858 44.888 26.01 43.752 24.164 42.613C24.117 42.584 24.082 42.505 24.08 42.447C24.078 42.41 24.146 42.369 24.263 42.248C26.216 42.91 27.903 44.185 29.758 45.185C29.909 43.977 29.889 44.096 29.214 43.763C28.156 43.24 27.254 42.523 26.477 41.625C26.982 41.739 27.423 41.952 27.854 42.183C28.333 42.44 28.778 42.809 29.59 42.666C29.066 41.791 29.169 40.814 28.339 40.132C24.122 40.749 19.86 40.387 15.631 40.201C15.112 40.912 15.336 41.947 14.449 42.357C12.972 41.844 12.962 40.606 13.034 39.35C12.43 39.02 11.916 38.686 11.258 38.711C10.697 40.446 10.165 42.079 9.64299 43.715C9.17699 45.173 8.712 46.632 8.264 48.095C7.5 50.594 6.501 53.017 6.028 55.61C5.788 56.919 5.34298 58.202 4.88298 59.458C4.04498 61.745 3.43299 64.076 3.04699 66.485C2.67399 68.811 2.25897 71.142 1.66597 73.419C1.00697 75.946 1.015 78.489 1.208 81.031C1.37 83.164 2.362 84.936 4.273 86.068C7.821 88.169 11.623 89.614 15.686 90.314C17.191 90.573 18.726 90.71 20.252 90.776C22.614 90.878 24.989 91.02 27.343 90.876C30.593 90.677 33.838 90.247 37 89.442C38.971 88.941 40.991 88.504 42.771 87.432C44.363 86.472 45.934 85.484 46.417 83.488C46.477 83.243 46.563 82.982 46.713 82.784C47.212 82.122 47.273 81.369 47.221 80.593C47.13 79.255 47.009 77.919 46.92 76.581C46.662 72.695 46.022 68.86 45.371 65.028C45.2 64.024 44.919 63.039 44.747 62.035C44.164 58.628 43.224 55.317 42.141 52.041C41.783 50.956 41.473 49.856 41.148 48.761C40.568 46.812 40.009 44.857 39.41 42.914C39.035 41.695 38.616 40.489 38.188 39.287C37.954 38.628 37.667 37.986 37.381 37.347C37.348 37.273 37.172 37.264 36.998 37.202C36.773 37.466 36.535 37.746 36.351 37.962C36.423 38.427 37.062 38.494 36.793 38.983C36.183 39.145 35.717 38.287 34.927 38.774C35.718 39.614 36.989 39.816 37.594 41.03C36.619 40.989 36.236 40.287 35.631 40.004C35.031 39.724 34.528 39.197 33.801 39.217C33.669 39.867 33.956 40.156 34.377 40.39C35.046 40.764 35.713 41.144 36.36 41.555C36.524 41.659 36.829 41.836 36.504 42.115C35.882 41.821 35.267 41.53 34.657 41.242C34.575 41.391 34.509 41.454 34.519 41.499C35.05 43.798 35.601 46.092 36.118 48.394C36.272 49.082 36.698 49.508 37.263 49.851C38.464 50.582 39.668 51.31 40.863 52.053C41.058 52.175 41.21 52.368 41.613 52.746C41.091 52.746 40.829 52.827 40.677 52.733C39.699 52.128 38.756 51.467 37.778 50.862C37.496 50.688 37.241 50.266 36.799 50.566C36.904 52.668 36.904 52.668 37.99 53.761L38.019 53.726ZM17.459 32.47C17.631 32.528 17.81 32.647 17.983 32.636C18.619 32.598 19.255 32.538 19.885 32.448C22.095 32.133 24.298 31.715 26.542 32.171C26.717 32.207 26.914 32.136 27.081 32.116C28.688 29.348 28.711 29.335 30.944 29.89C31.179 30.844 31.422 31.823 31.67 32.829C33.314 32.679 34.643 33.504 36.262 34.072C35.46 31.231 34.752 28.603 33.975 25.996C33.185 23.353 33.165 20.604 32.915 17.866C31.281 18.214 29.808 18.606 28.309 18.825C26.734 19.054 25.135 19.2 23.544 19.23C22.018 19.259 20.469 19.212 18.964 18.98C17.419 18.742 15.915 18.238 14.257 17.815C14.095 19.075 13.987 20.204 13.943 21.348C13.882 22.874 13.851 24.411 13.635 25.92C13.293 28.315 12.805 30.689 12.396 33.075C12.369 33.237 12.49 33.425 12.571 33.701C13.072 33.574 13.54 33.454 14.056 33.323C14.263 32.126 14.446 30.997 14.655 29.873C14.877 28.682 15.037 27.47 15.383 26.315C15.704 25.245 15.619 24.012 16.461 23.135C18.238 23.448 18.531 23.741 18.497 25.286C18.482 25.921 18.37 26.556 18.275 27.186C18.013 28.94 17.735 30.69 17.459 32.47ZM35.68 4.78501C35.482 4.50701 35.432 4.37001 35.335 4.31101C32.793 2.76901 30.004 1.83601 27.133 1.18701C25.393 0.794008 23.599 0.583009 21.807 1.02601C21.564 1.08601 21.298 1.06301 21.043 1.06701C17.948 1.11901 15.141 2.03201 12.652 3.88201C12.421 4.05401 12.25 4.30901 12.01 4.57201C12.272 4.75201 12.407 4.89901 12.571 4.95001C13.545 5.25601 14.515 5.57901 15.506 5.82301C17.922 6.42001 20.343 7.00701 22.87 6.68201C23.248 6.63301 23.64 6.64401 24.02 6.68201C27.781 7.05201 31.392 6.27601 34.969 5.25101C35.197 5.18601 35.386 4.98201 35.68 4.78501ZM36.831 57.096C36.499 55.004 36.302 52.966 35.835 50.992C34.94 47.21 34.265 43.364 32.746 39.746C32.253 38.572 32.046 37.267 31.474 36.142C30.937 35.087 30.698 34.001 30.509 32.874C30.425 32.371 30.424 31.849 30.302 31.356C30.221 31.027 29.991 30.734 29.827 30.426C28.834 30.819 28.531 31.446 28.443 32.39C28.23 34.677 28.697 36.836 29.349 38.99C30.535 42.91 31.621 46.854 31.978 50.955C32.168 53.12 32.335 55.286 32.516 57.452C32.552 57.882 32.468 58.366 33.017 58.63C34.338 58.477 35.59 58.075 36.831 57.096ZM14.012 40.755C14.157 40.752 14.302 40.75 14.447 40.747C14.525 40.257 14.627 39.769 14.676 39.276C14.812 37.907 15.708 36.644 15.249 35.188C15.225 35.11 15.395 34.986 15.434 34.871C15.925 33.436 16.529 32.027 16.863 30.556C17.227 28.951 17.366 27.291 17.543 25.649C17.585 25.256 17.391 24.837 17.224 24.045C16.874 24.77 16.621 25.123 16.53 25.514C16.114 27.309 15.691 29.105 15.369 30.918C14.847 33.851 14.392 36.796 13.933 39.739C13.878 40.065 13.98 40.416 14.012 40.755ZM17.825 34.821C19.768 36.332 21.707 37.849 23.665 39.342C23.783 39.432 24.047 39.332 24.56 39.302C22.386 37.362 20.36 35.797 17.825 34.821ZM22.015 39.534C22.06 39.395 22.104 39.256 22.149 39.117C20.858 38.004 19.425 37.067 18.085 36.016C17.737 35.743 17.356 35.51 16.975 35.286C16.911 35.248 16.763 35.353 16.655 35.393C16.694 35.509 16.698 35.666 16.778 35.734C18.23 36.968 19.681 38.205 21.164 39.401C21.356 39.558 21.726 39.496 22.015 39.534ZM36.571 8.13801C37.776 7.75701 38.786 7.24901 39.688 6.57301C39.521 5.72501 39.032 5.44601 38.25 5.42601C37.783 6.32601 36.721 6.86301 36.571 8.13801ZM9.73598 8.18701C9.82098 8.03401 9.91098 7.93401 9.92998 7.82301C9.96098 7.64201 9.96698 7.45001 9.95098 7.26601C9.87498 6.41501 9.435 6.13701 8.721 6.52201C8.424 6.68201 8.18499 6.94901 7.83599 7.23601C8.48899 7.77901 9.06598 8.08001 9.73598 8.18701ZM15.795 39.032C16.571 39.322 17.117 39.644 17.859 39.301C17.417 38.561 16.927 38.059 16.103 37.692C15.985 38.2 15.905 38.55 15.795 39.032ZM12.05 36.697C11.536 37.101 11.645 37.398 12.011 37.655C12.644 38.1 12.768 38.082 13.419 37.443C12.929 37.176 12.468 36.925 12.05 36.697ZM32.889 36.88C32.871 36.934 32.823 37.006 32.841 37.039C32.991 37.295 33.148 37.548 33.325 37.785C33.34 37.805 33.526 37.696 33.634 37.646C33.496 37.395 33.373 37.134 33.21 36.901C33.172 36.846 33 36.884 32.889 36.88ZM13.372 36.256C13.581 35.733 14.003 35.196 13.478 34.52C13.17 34.942 13.456 35.202 13.465 35.469C13.476 35.73 13.406 35.994 13.372 36.256Z" fill="white"/>
<path d="M37.712 74.027C37.354 73.792 36.984 73.57 36.637 73.317C34.736 71.928 32.913 70.424 30.799 69.343C30.408 69.143 30.057 68.842 29.734 68.538C27.761 66.684 25.38 65.449 23.056 64.134C21.838 63.445 20.572 62.842 19.326 62.203C18.672 61.868 18.023 61.527 17.535 60.9C17.686 60.838 17.758 60.782 17.792 60.799C19.215 61.511 20.659 62.184 22.048 62.957C24.441 64.29 26.799 65.687 29.173 67.054C29.89 67.467 30.615 67.865 31.333 68.277C31.55 68.402 31.831 68.503 31.949 68.696C32.928 70.303 34.48 71.111 36.143 71.77C37.091 72.145 37.602 72.882 37.712 74.027Z" fill="white"/>
<path d="M26.833 85.035C26.349 85.615 26.078 85.375 25.824 85.207C23.272 83.522 20.728 81.826 18.175 80.144C17.439 79.659 16.767 79.039 15.811 78.977C15.639 78.966 15.451 78.841 15.314 78.72C13.838 77.418 12.373 76.106 10.579 74.506C11.174 74.664 11.393 74.676 11.558 74.776C11.83 74.938 12.079 75.145 12.319 75.354C15.117 77.794 18.362 79.565 21.495 81.508C23.273 82.611 24.992 83.814 26.833 85.035Z" fill="white"/>
<path d="M23.181 78.137C24.086 77.981 24.748 78.447 25.407 78.917C26.962 80.027 28.511 81.142 30.064 82.254C30.271 82.402 30.575 82.499 30.675 82.699C31.25 83.836 32.389 84.136 33.405 84.622C34.725 85.254 36.052 85.874 37.362 86.526C37.632 86.661 37.858 86.902 38.072 87.124C38.129 87.184 38.106 87.379 38.051 87.471C37.994 87.567 37.843 87.682 37.753 87.667C37.511 87.627 37.261 87.555 37.046 87.437C35.541 86.608 34.073 85.706 32.535 84.947C31.496 84.434 30.57 83.785 29.676 83.077C27.981 81.735 26.318 80.351 24.62 79.013C24.183 78.669 23.663 78.427 23.181 78.137Z" fill="white"/>
<path d="M30.682 71.594C30.287 71.63 30.139 71.692 30.054 71.644C24.808 68.646 19.567 65.639 14.407 62.358C14.599 62.368 14.828 62.313 14.98 62.397C18.673 64.419 22.366 66.444 26.043 68.496C27.213 69.148 28.348 69.864 29.479 70.581C29.849 70.815 30.156 71.147 30.682 71.594Z" fill="white"/>
<path d="M14.385 82.3881C18.456 84.4691 22.262 86.8751 26.275 88.9141C26.319 88.9351 26.342 89.0181 26.353 89.0771C26.362 89.1281 26.341 89.1851 26.334 89.2401C26.284 89.2811 26.218 89.3661 26.188 89.3551C24.962 88.8931 23.785 88.2991 22.494 88.0171C19.854 86.2461 17.213 84.4761 14.577 82.6981C14.484 82.6361 14.447 82.4931 14.385 82.3881Z" fill="white"/>
<path d="M43.713 81.902C43.218 82.267 42.898 81.998 42.579 81.815C41.029 80.922 39.467 80.051 37.947 79.11C37.268 78.69 36.661 78.626 36.059 79.144C34.893 78.444 33.759 77.879 32.783 77.025C33.255 76.646 33.543 77.035 33.872 77.166C34.553 77.436 35.133 78.071 35.998 77.654C36.16 77.576 36.481 77.766 36.701 77.882C38.905 79.04 41.107 80.202 43.299 81.384C43.477 81.479 43.575 81.723 43.713 81.902Z" fill="white"/>
<path d="M17.656 51.481C18.21 51.746 18.778 51.985 19.315 52.281C22.555 54.066 26.002 55.475 29.06 57.59C29.363 57.8 29.587 58.122 29.865 58.407C29.681 58.506 29.531 58.632 29.49 58.602C26.827 56.71 23.866 55.345 21.017 53.782C20.066 53.26 19.101 52.761 18.155 52.23C17.919 52.098 17.73 51.88 17.52 51.702C17.565 51.629 17.611 51.555 17.656 51.481Z" fill="white"/>
<path d="M28.795 55.248C27.421 54.661 26.242 53.711 24.94 52.991C23.604 52.253 22.327 51.409 21.002 50.652C19.697 49.907 18.363 49.212 16.932 48.435C17.214 48.362 17.356 48.274 17.433 48.313C21.016 50.112 24.586 51.935 27.97 54.097C28.334 54.329 28.652 54.635 28.991 54.906C28.926 55.02 28.86 55.134 28.795 55.248Z" fill="white"/>
<path d="M31.117 66.3809C30.613 66.4369 30.206 66.2109 29.991 65.8019C29.608 65.0779 28.964 64.6599 28.317 64.2689C26.025 62.8799 23.706 61.5359 21.399 60.1729C20.976 59.9229 20.56 59.6609 19.874 59.2419C20.367 59.2669 20.566 59.2219 20.707 59.2919C24.026 60.9429 27.281 62.7069 30.327 64.8339C30.9 65.2329 31.303 65.6669 31.08 66.4219L31.117 66.3809Z" fill="white"/>
<path d="M18.6951 77.505C19.3301 77.63 19.5381 77.615 19.6771 77.706C22.6221 79.614 25.5641 81.529 28.4951 83.458C28.7441 83.622 28.9181 83.899 29.3661 84.381C28.7721 84.323 28.45 84.388 28.261 84.258C27.263 83.57 26.3171 82.808 25.3201 82.12C23.3751 80.779 21.407 79.471 19.451 78.144C19.298 78.041 19.1651 77.904 18.6951 77.505Z" fill="white"/>
<path d="M14.797 80.162C17.175 80.767 22.552 84.423 24.019 86.157C23.832 86.209 23.661 86.311 23.513 86.285C23.337 86.253 23.159 86.137 23.022 86.012C20.758 83.928 18.068 82.443 15.562 80.7C15.306 80.521 15.052 80.341 14.797 80.162Z" fill="white"/>
<path d="M45.2561 80.674C44.9301 80.753 44.7241 80.876 44.6051 80.818C44.0891 80.569 43.5931 80.279 43.1011 79.984C40.9721 78.707 38.8471 77.423 36.6741 76.114C36.7291 75.79 37.04 75.795 37.36 75.904C37.66 76.007 37.9561 76.14 38.2301 76.299C40.3841 77.547 42.5371 78.801 44.6801 80.068C44.8741 80.185 45.0051 80.406 45.2561 80.674Z" fill="white"/>
<path d="M40.378 86.362C40.018 86.538 39.857 86.677 39.696 86.679C39.521 86.681 39.322 86.585 39.174 86.477C37.357 85.151 35.331 84.2 33.331 83.2C32.977 83.023 32.684 82.73 32.114 82.307C33.926 82.654 38.054 84.712 40.378 86.362Z" fill="white"/>
<path d="M43.181 85.248C42.665 85.417 42.443 85.557 42.234 85.54C41.994 85.521 41.757 85.377 41.534 85.26C39.498 84.192 37.463 83.12 35.432 82.04C35.23 81.933 35.063 81.761 34.765 81.531C36.47 81.757 39.912 83.277 43.181 85.248Z" fill="white"/>
<path d="M13.6951 84.8051C16.5101 85.9681 19.0861 87.547 21.9491 89.312C21.3891 89.396 21.1331 89.4761 20.8831 89.4591C20.7071 89.4481 20.5311 89.3221 20.3701 89.2201C18.3841 87.9551 16.3971 86.6901 14.4181 85.4121C14.1561 85.2431 13.9351 85.0091 13.6951 84.8051Z" fill="white"/>
<path d="M21.5 69.879C21.915 70.02 22.378 70.085 22.738 70.313C25.004 71.747 27.248 73.216 29.494 74.682C29.59 74.745 29.635 74.885 29.785 75.114C29.522 75.153 29.254 75.283 29.128 75.199C26.627 73.545 24.142 71.867 21.661 70.184C21.578 70.128 21.571 69.96 21.528 69.845L21.5 69.879Z" fill="white"/>
<path d="M30.885 61.954C30.78 62.043 30.736 62.095 30.68 62.122C30.626 62.148 30.557 62.167 30.5 62.156C30.378 62.133 30.246 62.112 30.143 62.05C29.87 61.886 29.616 61.69 29.343 61.525C27.381 60.338 25.415 59.157 23.451 57.972C23.24 57.845 23.035 57.708 22.67 57.476C22.981 57.391 23.164 57.277 23.253 57.327C25.637 58.678 28.015 60.041 30.384 61.419C30.585 61.536 30.718 61.771 30.885 61.954Z" fill="white"/>
<path d="M38.485 74.601C38.76 74.601 39.021 74.532 39.224 74.612C40.702 75.194 44.634 77.6 45.52 78.436C45.222 78.954 44.867 78.606 44.596 78.451C42.618 77.32 40.653 76.166 38.69 75.008C38.603 74.956 38.58 74.796 38.485 74.601Z" fill="white"/>
<path d="M38.713 71.171C38.935 71.138 39.169 71.04 39.373 71.085C39.864 71.192 40.37 71.306 40.819 71.522C42.185 72.178 43.534 72.871 44.873 73.58C45.214 73.76 45.22 74.056 44.809 74.402C42.808 73.355 40.905 72.04 38.608 71.528C38.643 71.408 38.678 71.29 38.713 71.171Z" fill="white"/>
<path d="M11.445 85.842C12.892 86.47 16.974 88.981 18.236 90.029C18.054 90.106 17.859 90.264 17.76 90.218C15.435 89.129 13.381 87.629 11.431 85.978C11.412 85.961 11.439 85.888 11.445 85.842Z" fill="white"/>
<path d="M32.149 81.0621C31.892 81.0801 31.639 81.1781 31.485 81.0951C30.813 80.7331 30.161 80.3331 29.52 79.9181C28.085 78.9881 26.661 78.0411 25.078 77.0001C25.408 76.9391 25.602 76.8361 25.702 76.8951C27.792 78.1161 29.872 79.3541 31.947 80.6001C32.029 80.6491 32.044 80.8111 32.149 81.0621Z" fill="white"/>
<path d="M38.215 72.356C38.519 72.356 38.723 72.294 38.855 72.365C40.808 73.425 42.754 74.495 44.69 75.587C44.888 75.699 44.999 75.965 45.292 76.341C44.869 76.31 44.609 76.365 44.437 76.266C42.398 75.105 40.372 73.921 38.345 72.739C38.305 72.716 38.304 72.628 38.215 72.356Z" fill="white"/>
<path d="M31.08 66.421C32.001 66.828 32.952 67.177 33.835 67.654C35.167 68.375 36.456 69.178 37.753 69.966C38.033 70.136 38.231 70.396 37.931 70.798C37.789 70.787 37.58 70.832 37.452 70.751C35.478 69.498 33.511 68.234 31.555 66.954C31.366 66.83 31.261 66.575 31.117 66.381L31.08 66.421Z" fill="white"/>
<path d="M6.54907 77.631C6.74407 77.747 6.95407 77.842 7.13107 77.982C8.78007 79.28 10.432 80.578 12.063 81.899C12.317 82.105 12.7511 82.382 12.1181 82.867C10.2341 81.187 8.23407 79.606 6.54907 77.631Z" fill="white"/>
<path d="M5.76196 82.9339C6.09396 83.1019 6.45096 83.2339 6.75296 83.4439C8.05396 84.3449 9.33696 85.2699 10.628 86.1849C11.058 86.4899 11.15 86.6229 11.386 87.2979C11.274 87.3399 11.127 87.4499 11.054 87.4129C9.78996 86.7809 6.65098 84.0699 5.79498 82.8979L5.76196 82.9339Z" fill="white"/>
<path d="M29.479 85.152C31.033 85.173 33.345 86.123 35.688 87.43C35.367 88.16 34.684 88.021 34.252 87.82C33.4 87.424 32.653 86.809 31.831 86.34C31.069 85.906 30.266 85.545 29.479 85.152Z" fill="white"/>
<path d="M7.12695 66.797C8.58595 67.239 11.3339 69.516 12.7189 71.164C12.4569 71.541 12.1959 71.339 11.9479 71.154C11.7959 71.04 11.6639 70.898 11.5209 70.769C10.0569 69.445 8.59195 68.121 7.12695 66.797Z" fill="white"/>
<path d="M37.577 80.4351C39.031 80.4411 40.782 81.3191 42.818 83.0631C42.716 83.5491 42.369 83.7421 42.012 83.4401C40.696 82.3251 39.285 81.3841 37.673 80.7541C37.609 80.7301 37.608 80.5451 37.577 80.4351Z" fill="white"/>
<path d="M34.1019 88.847C33.7999 89.008 33.5949 89.196 33.5089 89.152C31.5909 88.171 29.6859 87.164 27.7809 86.155C27.7549 86.141 27.7779 86.033 27.7779 85.949C28.3069 85.628 28.7619 85.99 29.1819 86.184C30.8349 86.948 32.5159 87.671 34.1019 88.847Z" fill="white"/>
<path d="M29.9679 89.482C28.3139 88.237 26.3379 87.535 24.3879 85.96C26.3879 86.269 27.5459 87.316 28.8709 87.99C29.4429 88.28 29.8749 88.725 29.9679 89.482Z" fill="white"/>
<path d="M22.5549 48.928C24.7069 49.596 26.5779 50.779 28.4909 51.877C28.7929 52.05 29.0319 52.333 29.5129 52.75C28.1369 52.355 23.8019 50.01 22.5549 48.928Z" fill="white"/>
<path d="M8.53503 76.3311C10.553 77.5261 12.145 78.7151 13.616 80.0701C13.72 80.1651 13.698 80.3971 13.734 80.5631C13.571 80.6091 13.407 80.7051 13.354 80.6631C11.882 79.4711 10.42 78.2671 8.96503 77.0551C8.85003 76.9571 8.79803 76.7811 8.53503 76.3311Z" fill="white"/>
<path d="M8.75403 53.0391C9.13803 53.2011 9.58704 53.2851 9.89304 53.5401C10.951 54.4221 12.54 54.5151 13.296 55.8391C13.159 56.2881 12.851 56.2211 12.538 56.1021C12.36 56.0341 12.18 55.9541 12.027 55.8421C10.882 54.9961 9.74403 54.1411 8.60303 53.2891C8.65403 53.2051 8.70403 53.1221 8.75403 53.0391Z" fill="white"/>
<path d="M7.28296 59.7841C8.83796 60.4261 12.071 62.7321 12.799 63.5531C12.586 63.5801 12.357 63.6861 12.238 63.6121C10.454 62.4991 8.84596 61.1551 7.28296 59.7841Z" fill="white"/>
<path d="M11.73 84.417C11.419 84.386 11.123 84.449 10.981 84.329C9.53002 83.105 8.10504 81.852 6.36804 80.342C7.47804 80.492 7.91004 81.055 8.43204 81.422C9.05504 81.86 9.66104 82.327 10.239 82.823C10.754 83.264 11.432 83.56 11.73 84.417Z" fill="white"/>
<path d="M24.631 44.988C26.468 46.039 28.305 47.09 30.121 48.13C30.064 48.548 29.802 48.615 29.565 48.493C28.837 48.117 28.117 47.721 27.423 47.284C26.414 46.649 25.432 45.972 24.439 45.313C24.504 45.204 24.567 45.096 24.631 44.988Z" fill="white"/>
<path d="M5.70398 68.2419C7.63998 68.9079 9.04296 70.2459 10.473 71.4829C10.372 71.9149 10.122 71.9899 9.89798 71.8029C8.48798 70.6289 7.09998 69.4319 5.70398 68.2419Z" fill="white"/>
<path d="M8.40704 71.971C8.40704 72.35 8.40704 72.71 8.40704 73.057C8.21504 73.088 8.05402 73.164 7.99802 73.117C6.75702 72.074 5.52804 71.016 4.31604 69.979C4.57004 69.545 4.78604 69.685 4.97604 69.842C5.75204 70.484 6.49803 71.165 7.30603 71.764C7.54603 71.94 7.95204 71.894 8.40704 71.971Z" fill="white"/>
<path d="M10.138 66.407C11.635 67.33 12.936 68.512 14.345 69.555C13.95 70.084 13.591 69.931 13.297 69.682C12.14 68.703 11.004 67.701 9.85901 66.706C9.95201 66.606 10.045 66.506 10.138 66.407Z" fill="white"/>
<path d="M12.52 60.878C12.296 60.959 12.233 61.007 12.183 60.995C12.003 60.953 11.797 60.934 11.655 60.831C10.289 59.849 8.93298 58.852 7.40198 57.733C8.92898 57.981 10.814 59.172 12.52 60.878Z" fill="white"/>
<path d="M18.112 77.604C16.876 77.019 14.853 75.243 13.442 73.651C14.767 74.071 16.412 75.426 18.112 77.604Z" fill="white"/>
<path d="M28.734 71.725C30.967 72.685 32.671 73.694 34.4 74.668C34.371 75.084 34.086 74.96 33.868 74.884C32.519 74.414 30.307 73.086 28.734 71.725Z" fill="white"/>
<path d="M44.44 69.533C44.346 69.603 44.21 69.755 44.165 69.732C42.871 69.079 41.634 68.338 40.129 67.182C40.851 67.284 41.163 67.265 41.42 67.375C42.717 67.934 43.688 68.648 44.44 69.533Z" fill="white"/>
<path d="M15.715 71.6851C15.922 71.7891 16.151 71.8631 16.333 71.9991C17.339 72.7541 18.35 73.5051 19.318 74.3061C19.49 74.4481 19.471 74.8181 19.553 75.1301C19.276 75.1301 19.113 75.1811 19.047 75.1231C17.882 74.0741 16.73 73.0111 15.573 71.9511C15.621 71.8621 15.668 71.7731 15.715 71.6851Z" fill="white"/>
<path d="M21.6471 56.445C19.8791 56.483 18.7151 55.231 17.2471 54.562C17.8621 54.396 18.3111 54.733 18.7881 54.948C19.2521 55.157 19.697 55.41 20.149 55.648C20.65 55.911 21.1481 56.179 21.6471 56.445Z" fill="white"/>
<path d="M37.988 53.761C39.43 54.193 40.713 54.937 42.22 55.848C41.741 56.029 41.398 56.276 41.264 56.191C40.114 55.464 38.772 54.975 38.018 53.726L37.988 53.761Z" fill="white"/>
<path d="M38.76 67.667C38.473 67.931 38.366 68.094 38.302 68.079C37.685 67.934 34.899 65.991 34.027 65.127C34.14 65.101 34.288 65.015 34.361 65.058C35.785 65.889 37.2 66.737 38.76 67.667Z" fill="white"/>
<path d="M43.949 71.911C42.651 71.207 41.354 70.503 40.056 69.799C41.799 69.687 43.151 70.325 44.209 71.531C44.123 71.658 44.036 71.784 43.949 71.911Z" fill="white"/>
<path d="M6.11795 74.384C4.75895 73.698 4.42793 73.397 3.17993 71.702C3.38193 71.702 3.57993 71.639 3.67493 71.712C4.47893 72.326 5.26893 72.959 6.04993 73.601C6.32493 73.826 6.39095 74.098 6.11795 74.384Z" fill="white"/>
<path d="M30.15 77.879C31.626 78.198 32.95 78.827 34.411 80.031C33.769 80.05 33.439 80.165 33.261 80.049C32.204 79.356 31.184 78.609 30.15 77.879Z" fill="white"/>
<path d="M5.177 63.08C5.391 63.128 5.63299 63.127 5.81299 63.233C6.89299 63.873 8.047 64.921 8.535 65.663C8.429 65.716 8.27198 65.844 8.22198 65.811C7.09798 65.065 6.005 64.279 5.177 63.08Z" fill="white"/>
<path d="M12.0119 57.845C10.5949 57.57 10.1889 57.293 8.33594 55.475C9.50594 55.605 10.1439 56.003 12.0119 57.845Z" fill="white"/>
<path d="M41.2009 65.002C42.8039 65.077 43.3469 65.377 44.5269 66.593C44.2339 66.645 43.9739 66.779 43.8429 66.7C42.9469 66.159 42.0779 65.573 41.2009 65.002Z" fill="white"/>
<path d="M12.95 53.688C11.684 52.827 10.573 52.071 9.21802 51.147C10.567 50.991 11.27 51.684 12.007 52.216C12.419 52.514 13.021 52.749 12.95 53.688Z" fill="white"/>
<path d="M36.9189 47.03C38.1869 47.687 39.5939 48.137 40.7769 49.291C39.5979 49.26 38.2079 48.469 36.9189 47.03Z" fill="white"/>
<path d="M13.647 50.688C13.459 50.857 13.363 51.008 13.294 50.997C12.11 50.802 11.345 49.958 10.443 49.288C10.605 49.106 10.712 48.934 10.753 48.949C11.832 49.329 12.706 50.028 13.647 50.688Z" fill="white"/>
<path d="M35.9439 62.639C37.3079 62.881 38.3189 63.702 39.5289 64.502C39.2429 64.657 39.0469 64.831 38.9769 64.791C37.9509 64.184 36.9399 63.548 35.9289 62.914C35.9089 62.9 35.9339 62.817 35.9439 62.639Z" fill="white"/>
<path d="M38.371 56.836C39.706 57.098 40.706 57.852 41.674 58.988C40.311 58.726 39.24 57.978 38.402 56.801L38.371 56.836Z" fill="white"/>
<path d="M25.327 48.01C26.724 47.972 27.579 48.964 28.603 49.632C27.398 49.501 26.902 49.231 25.361 47.972L25.327 48.01Z" fill="white"/>
<path d="M21.528 69.845C20.401 69.921 19.74 68.998 18.842 68.589C19.879 68.706 20.825 69.013 21.5 69.879L21.528 69.845Z" fill="white"/>
<path d="M39.023 45.038C38.143 45.052 38.143 45.052 37.104 44.066C38.083 43.98 38.185 44.031 39.023 45.038Z" fill="white"/>
<path d="M25.361 47.9719C24.267 48.0419 23.672 47.2029 22.869 46.7419C24.256 46.9519 24.423 47.0469 25.327 48.0099L25.361 47.9719Z" fill="white"/>
<path d="M13.757 49.001C13.375 48.78 13.05 48.614 12.75 48.412C12.452 48.211 12.179 47.974 11.811 47.689C12.655 47.548 12.655 47.548 13.497 48.177C13.679 48.312 13.679 48.312 13.757 49.001Z" fill="white"/>
<path d="M8.22195 62.727C7.42195 62.647 6.86096 62.188 6.10596 61.549C7.24896 61.488 7.74995 62.098 8.22195 62.727Z" fill="white"/>
<path d="M11.899 65.9581C11.644 65.8121 11.414 65.7241 11.24 65.5711C10.973 65.3371 10.747 65.0581 10.4 64.6901C11.851 65.0581 11.851 65.0581 11.899 65.9581Z" fill="white"/>
<path d="M5.79498 82.898C5.20898 82.845 4.84396 82.497 4.38196 81.834C5.13896 82.111 5.52996 82.421 5.76196 82.934L5.79498 82.898Z" fill="white"/>
<path d="M33.084 11.995C32.215 12.404 31.81 11.541 31.057 11.951C31.676 12.463 32.226 12.918 32.962 13.527C32.164 13.74 31.384 13.285 31.104 13.983C29.432 13.06 27.885 12.206 26.344 11.356C26.394 10.941 26.656 10.995 26.898 11.094C27.545 11.357 28.173 11.675 28.835 11.895C29.062 11.971 29.365 11.819 29.849 11.732C28.891 10.644 27.727 10.219 26.642 9.258C28.06 9.432 28.957 10.284 30.138 10.702C30.148 9.928 29.263 9.935 29.242 9.25C29.5 9.344 29.755 9.377 29.931 9.512C30.96 10.301 31.972 11.115 33.084 11.995Z" fill="white"/>
<path d="M27.5391 13.261C29.1621 13.574 30.3401 14.792 31.9431 15C31.5501 15.725 31.3211 15.86 30.7451 15.562C29.5611 14.949 28.4481 14.226 27.5391 13.261Z" fill="white"/>
<path d="M34.245 11.083C33.142 11.177 32.338 10.662 31.407 9.65601C32.743 9.83901 33.541 10.349 34.202 11.126L34.245 11.083Z" fill="white"/>
<path d="M29.791 15.997C29.093 16.299 29.093 16.299 27.952 15.304C28.702 15.278 28.712 15.258 29.791 15.997Z" fill="white"/>
</svg>
