<svg width="54" height="78" viewBox="0 0 54 78" fill="none" xmlns="http://www.w3.org/2000/svg">
<path d="M48.656 63.315C48.615 64.278 47.872 64.683 47.144 64.83C46.078 65.046 45.196 65.541 44.308 66.103C43.899 66.362 43.402 66.479 42.978 66.72C42.441 67.025 41.856 67.309 41.433 67.741C39.138 70.08 36.405 71.73 33.393 72.937C31.507 73.693 29.669 74.512 27.911 75.551C25.91 76.732 23.764 77.567 21.336 77.231C19.782 77.016 18.33 76.469 17.007 75.699C14.952 74.504 12.939 73.22 11.012 71.829C9.25702 70.562 7.64401 69.099 5.96001 67.733C5.47101 67.337 4.96704 66.955 4.44604 66.602C2.08804 65.001 0.814017 62.813 0.702017 59.938C0.592017 57.143 0.00702539 54.376 0.229025 51.558C0.267025 51.077 0.130035 50.584 0.101035 50.096C0.0520347 49.259 -0.0159763 48.42 -0.00397631 47.582C0.0170237 46.055 0.0920366 44.529 0.153037 42.729C2.23304 39.901 5.88001 38.677 9.00301 36.36C8.01001 35.943 7.25401 35.631 6.50301 35.308C5.86001 35.032 5.21901 34.752 4.58501 34.457C3.71501 34.052 3.14203 33.382 2.81603 32.477C2.36603 31.222 1.96702 29.968 1.91302 28.611C1.86202 27.355 1.67601 26.104 1.55501 24.851C1.31201 22.341 1.50101 19.826 1.47201 17.313C1.45801 16.131 1.38803 14.95 1.35003 13.93C2.22903 13.242 2.97503 12.65 3.72903 12.068C5.83803 10.439 8.06701 8.99404 10.417 7.73504C10.972 7.43804 11.577 7.18604 12.045 6.78204C14.867 4.34504 18.427 3.33204 21.703 1.79304C23.268 1.05804 25.018 0.77804 26.768 0.51304C28.653 0.22704 30.345 0.199039 31.918 1.39804C32.122 1.55404 32.448 1.56304 32.724 1.60904C35.709 2.10404 38.526 3.15004 41.321 4.26104C43.598 5.16704 45.857 6.11704 48.134 7.02704C50.119 7.82104 51.33 9.47304 52.612 11.042C52.772 11.238 52.8 11.561 52.842 11.833C53.519 16.229 53.633 20.607 52.483 24.959C51.959 26.943 51.85 28.952 52.293 30.987C52.454 31.729 52.428 32.518 52.431 33.286C52.433 33.756 52.22 33.849 51.356 33.889C50.412 35.965 48.131 36.671 46.714 38.37C46.987 39.479 47.321 40.614 47.534 41.77C47.737 42.868 47.818 43.989 47.949 45.1C47.998 45.517 48.052 45.934 48.078 46.353C48.278 49.497 48.454 52.643 48.673 55.786C48.789 57.462 49.02 59.13 49.112 60.806C49.16 61.679 49.408 62.642 48.605 63.367C48.563 62.879 48.551 62.387 48.473 61.905C47.704 57.208 47.446 52.461 47.074 47.725C46.921 45.773 46.83 43.814 46.605 41.871C46.368 39.825 45.412 38.203 43.545 37.232C41.978 37.904 41.175 38.943 40.943 40.585C40.73 42.091 40.521 43.635 39.798 45.03C39.739 45.144 39.871 45.356 39.962 45.704C41.103 44.9 42.111 44.163 43.149 43.467C43.899 42.963 44.511 43.088 44.823 43.94C45.323 45.309 45.867 46.707 46.053 48.137C46.576 52.151 46.941 56.185 47.333 60.215C47.407 60.975 47.321 61.75 47.311 62.519C47.307 62.839 47.31 63.16 47.31 63.473C47.837 63.411 48.247 63.363 48.656 63.315ZM29.268 56.173C28.314 56.964 27.36 57.755 26.519 58.452C26.402 59.543 27.088 60.449 26.426 61.31C25.721 62.227 25.914 63.141 26.415 64.063C26.726 64.635 26.948 65.287 26.678 65.878C26.182 66.962 26.491 67.951 26.893 68.919C27.302 69.904 27.565 70.892 27.591 71.963C27.604 72.479 27.543 73.09 28.261 73.541C28.284 72.951 28.374 72.476 28.309 72.024C27.979 69.751 27.575 67.488 27.276 65.211C27.199 64.617 27.281 63.929 27.519 63.384C27.835 62.658 27.935 61.92 28.084 61.166C28.38 59.674 28.364 58.097 29.22 56.742C29.313 56.594 29.232 56.336 29.231 56.129C30.523 55.944 31.816 55.764 33.105 55.566C33.227 55.547 33.351 55.44 33.444 55.344C34.537 54.216 35.955 53.618 37.334 52.957C38.074 52.602 38.776 52.211 39.069 51.301C38.015 51.051 37.179 51.32 36.407 51.862C35.494 52.503 34.554 53.112 33.69 53.815C33.178 54.231 32.67 54.526 32.01 54.545C30.797 54.582 29.886 55.132 29.268 56.173ZM33.481 51.965C34.259 52.054 34.771 51.534 35.361 51.169C35.89 50.841 36.457 50.371 37.021 50.349C38.332 50.299 39.442 49.734 40.62 49.318C41.078 49.156 41.56 49.047 42.041 48.966C42.7 48.855 43.341 49.031 43.774 49.512C44.076 49.846 44.206 50.347 44.371 50.789C44.594 51.383 44.908 51.574 45.501 51.095C45.337 50.014 45.319 48.861 44.96 47.826C44.591 46.762 44.654 45.474 43.602 44.503C40.489 46.92 36.802 48.171 33.619 50.334C33.585 50.909 33.552 51.463 33.519 52.018C33.122 51.648 32.724 51.278 32.279 50.862C31.663 51.124 30.99 51.335 30.393 51.679C28.587 52.718 26.81 53.81 25.022 54.881C23.918 55.331 23.406 56.204 23.401 57.343C23.396 58.527 23.477 59.713 23.558 60.895C23.596 61.449 23.772 61.995 23.799 62.548C23.946 65.547 24.075 68.549 24.192 71.55C24.248 73.002 24.462 74.416 24.903 75.809C26.676 75.148 26.796 75.052 26.702 73.64C26.624 72.459 26.488 71.273 26.258 70.113C26.098 69.304 25.808 68.484 24.804 68.205C26.283 65.856 25.231 63.677 24.368 61.552C25.516 60.726 25.519 60.726 25.544 59.884C25.565 59.188 25.468 58.466 25.621 57.801C25.792 57.061 25.747 56.451 25.321 55.822C25.133 55.546 25.093 55.171 24.985 54.84C25.979 54.78 26.189 55.869 26.789 56.171C27.834 56.156 28.064 55.215 28.729 54.883C29.52 54.488 29.094 53.524 29.582 52.883C30.156 53.497 30.765 53.64 31.491 53.553C32.511 53.433 33.039 52.772 33.481 51.965ZM44.855 6.98304C44.386 6.71304 43.917 6.44404 43.512 6.21204C42.034 7.07104 41.8 7.23104 41.489 8.09304C40.897 9.72904 40.456 11.401 40.722 13.514C41.771 11.483 42.717 9.74404 43.566 7.95904C43.863 7.33504 44.106 6.83504 44.894 6.93904C44.839 8.03904 44.251 8.92004 43.679 9.79204C42.353 11.813 41.822 14.139 41.104 16.392C40.966 16.825 41.01 17.316 40.965 17.842C42.78 18.131 43.961 16.966 45.39 16.601C45.689 13.545 46.945 10.904 48.065 8.11104C46.882 7.79604 46.064 6.89004 44.855 6.98304ZM36.891 33.017C36.3 32.667 35.709 32.317 35.218 32.026C33.268 32.737 32.068 34.13 30.823 35.441C30.466 35.818 30.223 36.401 30.135 36.924C29.711 39.473 29.36 42.034 28.979 44.591C28.885 45.213 28.77 45.832 28.671 46.454C28.456 47.821 28.245 49.189 28.032 50.556C28.88 48.989 29.517 47.378 30.149 45.764C30.225 45.569 30.274 45.362 30.316 45.157C30.709 43.244 31.09 41.328 31.49 39.417C31.704 38.39 31.833 37.297 32.564 36.493C33.831 35.097 35.113 33.695 36.928 32.969C36.858 33.525 36.775 34.049 36.257 34.429C35.697 34.84 35.225 35.368 34.672 35.789C33.271 36.857 32.529 38.237 32.193 39.986C31.618 42.985 31.245 46.046 29.958 48.876C29.721 49.398 29.471 49.992 29.698 50.819C32.127 49.645 34.612 48.905 36.484 47.18C36.623 46.316 36.835 45.565 36.846 44.811C36.873 42.896 37.36 41.084 37.977 39.304C38.2 38.66 38.56 38.052 38.931 37.474C39.446 36.674 40.031 35.919 40.626 35.087C39.412 34.142 38.296 33.326 36.891 33.017ZM26.254 29.853C25.258 31.365 24.41 32.725 23.486 34.031C22.65 35.213 22.152 36.472 22.177 37.934C22.189 38.563 22.181 39.199 22.098 39.82C22.035 40.294 21.952 40.835 21.682 41.2C20.408 42.923 20.083 44.889 20.046 46.951C20.012 48.858 19.541 50.708 18.952 52.481C18.522 53.774 18.305 55.028 18.284 56.364C18.232 59.828 19.151 63.143 19.84 66.487C20.419 69.298 21.115 72.08 20.943 74.988C20.92 75.376 21.053 75.773 21.112 76.143C22.051 76.423 22.855 76.478 23.757 76.028C23.711 75.555 23.68 75.084 23.615 74.617C23.452 73.441 23.128 72.267 23.127 71.093C23.125 67.315 23.113 63.547 22.281 59.834C22.22 59.563 22.21 59.279 22.196 59C22.031 55.681 22.066 55.601 24.847 53.681C26.058 52.846 26.857 51.687 27.093 50.28C27.864 45.669 28.553 41.044 29.234 36.418C29.331 35.761 29.495 35.2 29.995 34.757C30.989 33.878 31.984 33 32.97 32.111C33.248 31.859 33.492 31.569 33.832 31.212C31.323 29.763 28.97 28.588 26.254 29.853ZM19.048 75.52C19.048 75.02 19.094 74.809 19.041 74.626C18.46 72.61 17.83 70.606 17.283 68.581C16.994 67.508 16.825 66.401 16.631 65.305C16.363 63.796 16.261 62.242 15.842 60.779C14.986 57.789 15.144 54.824 15.862 51.88C16.458 49.434 17.078 47.008 17.211 44.477C17.287 43.014 17.444 41.55 17.657 40.1C17.942 38.167 18.326 36.249 18.647 34.321C18.7 34.006 18.655 33.674 18.655 33.245C16.631 33.905 14.8 34.534 13.576 35.625C13.035 38.647 12.624 41.34 12.054 43.999C11.542 46.387 10.891 48.747 10.236 51.102C9.77401 52.761 9.71002 54.398 10.095 56.076C10.216 56.604 10.345 57.222 10.187 57.707C9.64703 59.368 9.71102 61.052 10.021 62.693C10.5 65.232 11.189 67.73 11.763 70.252C11.964 71.133 12.471 71.755 13.208 72.222C14.627 73.119 16.038 74.028 17.475 74.895C17.882 75.138 18.367 75.254 19.048 75.52ZM8.98702 37.764C6.45402 38.977 4.34701 40.336 2.33901 41.847C1.45801 42.509 0.911031 43.358 1.12203 44.561C1.20503 45.034 1.11402 45.537 1.09902 46.026C0.96502 50.438 1.14103 54.839 1.59203 59.229C1.67803 60.064 1.76003 60.912 1.98403 61.715C2.18603 62.44 2.42803 63.25 2.91503 63.781C4.41803 65.421 6.12702 66.847 8.19002 68.25C8.13702 67.611 8.14701 67.211 8.06701 66.831C7.48701 64.098 6.83302 61.381 6.31502 58.637C5.96402 56.778 5.81103 54.874 6.41903 53.026C6.90103 51.567 7.46202 50.145 7.06502 48.554C6.98702 48.241 7.10702 47.856 7.20602 47.525C7.56202 46.321 7.87802 45.098 8.34002 43.934C9.10602 42.002 9.37302 40.046 8.98702 37.764ZM27.528 28.342C28.016 26.613 28.842 25.205 30.385 24.455C30.315 23.974 30.174 23.613 30.231 23.286C30.462 21.947 30.254 20.633 30.084 19.317C29.798 17.124 30.168 15.001 30.724 12.897C30.974 11.953 31.285 11.025 31.559 10.088C32.046 8.41904 32.488 6.74504 33.444 5.24404C33.832 4.63604 34.339 4.00204 34.343 3.08904C33.484 2.84104 32.695 2.62504 31.912 2.38604C31.065 2.12804 30.376 1.37204 29.321 1.56604C29.233 2.10404 29.182 2.64304 29.053 3.16204C28.059 7.16204 26.911 11.119 25.637 15.039C25.356 15.904 25.126 16.792 24.769 17.625C24.009 19.397 23.74 21.232 23.764 23.15C23.781 24.473 23.627 25.799 23.56 27.124C23.525 27.806 23.269 28.503 23.697 29.236C24.904 28.954 26.119 28.67 27.528 28.342ZM14.925 33.563C14.796 32.732 14.614 32.121 14.623 31.512C14.654 29.468 14.262 27.478 14.004 25.467C13.818 24.022 13.83 22.542 13.864 21.08C13.891 19.967 14.106 18.86 14.213 17.747C14.372 16.076 14.467 14.398 14.668 12.732C14.877 10.989 15.365 9.31004 16.046 7.68804C16.337 6.99604 16.758 6.31304 16.387 5.49904C15.412 5.44504 14.763 5.99104 14.133 6.53204C13.666 6.93204 13.142 7.33504 12.844 7.85204C11.158 10.783 10.025 13.944 9.28103 17.228C8.92803 18.786 8.71803 20.374 8.73003 22.008C8.74703 24.544 9.10202 27.022 9.61202 29.484C9.97102 31.216 10.102 32.941 9.87102 34.695C9.82802 35.015 9.86501 35.346 9.86501 35.805C11.844 35.443 13.459 34.721 14.925 33.563ZM22.167 2.76204C21.975 3.79004 21.897 4.54704 21.688 5.26504C20.879 8.01804 20.02 10.755 19.202 13.505C19.022 14.107 18.91 14.732 18.811 15.353C18.538 17.08 18.257 18.806 18.037 20.54C17.834 22.136 17.578 23.741 17.573 25.342C17.565 27.435 17.779 29.53 17.912 31.623C17.919 31.735 18.059 31.839 18.171 31.992C19.332 31.954 20.082 30.938 21.211 30.764C21.479 29.266 21.464 27.868 21.147 26.508C20.489 23.69 20.831 20.908 21.509 18.186C22.371 14.728 23.121 11.233 24.383 7.87904C24.937 6.40504 24.851 3.73804 24.379 2.06904C23.502 1.98604 22.771 2.35804 22.167 2.76204ZM39.77 22.07C39.894 22.008 40.019 21.947 40.144 21.885C40.637 22.45 41.035 23.187 41.651 23.533C42.28 23.887 43.125 23.857 43.761 23.974C44.396 23.53 44.882 23.123 45.429 22.826C45.996 22.516 46.794 22.884 46.924 23.511C47.108 24.401 47.202 25.308 47.346 26.206C47.411 26.617 47.363 27.175 47.61 27.403C48.435 28.167 48.469 29.094 48.468 30.092C48.468 30.501 48.547 30.966 48.751 31.309C49.229 32.116 49.408 32.944 49.301 33.868C49.283 34.023 49.51 34.205 49.691 34.474C49.996 34.117 50.256 33.811 50.533 33.487C49.624 30.854 49.19 28.176 49.056 25.442C48.952 23.318 48.471 21.287 47.484 19.389C46.776 18.029 46.03 17.712 44.582 18.199C43.72 18.489 42.866 18.805 42.019 19.132C40.851 19.583 39.669 20.01 38.537 20.537C37.852 20.856 37.265 21.287 36.988 22.136C36.672 23.107 35.844 23.627 34.675 23.809C34.753 23.312 34.802 22.996 34.907 22.319C33.06 23.884 31.884 25.62 30.397 27.008C29.38 26.377 29.128 26.546 28.956 27.975C30.542 28.563 32.071 29.375 33.591 29.697C34.928 28.517 36.102 27.48 37.274 26.446C36.891 25.925 36.041 25.661 36.396 24.717C37.358 24.824 37.711 25.733 38.429 26.087C39.682 25.372 39.682 25.372 40.504 24.137C40.388 23.83 40.258 23.506 40.142 23.178C40.012 22.812 39.894 22.44 39.77 22.07ZM38.77 4.34604C36.598 6.98404 35.354 9.86204 34.096 12.733C33.447 14.214 33.001 15.733 32.952 17.373C32.913 18.693 32.718 20.008 32.622 21.327C32.6 21.63 32.698 21.942 32.744 22.269C33.824 21.796 34.785 21.405 35.718 20.956C36.216 20.716 36.678 20.393 37.133 20.076C37.653 19.714 37.951 19.289 38.091 18.579C38.574 16.124 39.24 13.706 39.807 11.267C40.028 10.317 40.072 9.31604 40.374 8.39704C40.692 7.43104 41.224 6.53504 41.708 5.51204C40.748 5.12904 39.795 4.75204 38.77 4.34604ZM16.315 32.838C16.464 32.465 16.718 32.118 16.724 31.767C16.751 30.3 16.749 28.83 16.671 27.365C16.561 25.261 16.653 23.173 16.984 21.094C17.28 19.232 17.563 17.366 17.883 15.508C18.072 14.413 18.271 13.314 18.56 12.241C19.249 9.67904 20.002 7.13604 20.701 4.57604C20.778 4.29504 20.661 3.96104 20.624 3.54204C19.439 3.82304 18.532 4.29004 17.955 4.73204C17.385 6.38804 16.887 7.75604 16.447 9.14404C16.174 10.007 15.91 10.888 15.783 11.78C15.477 13.923 15.242 16.076 15.004 18.228C14.866 19.478 14.757 20.731 14.677 21.985C14.623 22.821 14.559 23.669 14.645 24.497C14.881 26.786 15.19 29.066 15.478 31.35C15.547 31.894 15.572 32.467 16.315 32.838ZM6.00802 11.757C3.32502 13.032 2.27502 15.1 2.45302 17.906C2.52302 19.015 2.34102 20.141 2.42602 21.248C2.65502 24.239 2.96001 27.224 3.24901 30.209C3.27501 30.482 3.39803 30.746 3.47603 31.014C4.01103 32.876 5.18901 33.989 7.16601 34.203C7.59701 33.541 7.49402 32.823 7.31402 32.171C6.51002 29.267 6.08902 26.303 5.72002 23.32C5.26202 19.626 4.96602 15.955 6.09902 12.322C6.13602 12.207 6.06002 12.058 6.00802 11.757ZM24.767 30.385C23.602 30.526 22.914 31.411 22.047 31.618C20.521 31.983 19.964 33.075 19.731 34.285C19.203 37.026 18.716 39.795 18.515 42.573C18.276 45.866 17.738 49.089 16.934 52.272C16.485 54.052 16.002 55.879 16.368 57.656C17.029 60.874 17.388 64.135 18.005 67.354C18.307 68.927 18.846 70.456 19.307 71.997C19.405 72.323 19.628 72.61 19.794 72.915C19.997 72.212 20.028 71.578 19.915 70.972C19.339 67.884 18.654 64.814 18.023 61.739C17.494 59.155 17.474 56.609 17.504 54.029C17.51 53.56 17.659 53.064 17.856 52.631C18.595 50.995 19.306 47.807 19.272 45.968C19.246 44.544 19.381 43.138 20.213 41.946C21.054 40.74 21.431 39.451 21.321 38.004C21.168 35.995 21.934 34.316 23.17 32.802C23.567 32.315 23.992 31.847 24.359 31.338C24.54 31.085 24.613 30.755 24.767 30.385ZM44.966 63.9C43.866 63.793 43.111 63.769 42.374 63.638C40.253 63.259 38.142 62.814 36.02 62.437C34.421 62.153 32.536 63.741 32.714 65.357C32.833 66.44 33.231 67.529 33.7 68.523C34.118 69.407 35.149 69.534 36.011 69.798C36.205 69.858 36.417 69.861 36.628 69.892C38.179 69.187 39.558 68.262 40.646 66.943C41.152 66.331 41.759 65.901 42.551 65.74C43.494 65.551 44.109 64.908 44.966 63.9ZM47.496 16.867C48.011 17.844 48.573 18.653 48.882 19.55C49.471 21.262 49.909 23.007 49.956 24.858C50.006 26.786 50.138 28.735 50.998 30.548C51.125 30.133 51.202 29.71 51.11 29.327C50.789 27.989 51.02 26.683 51.326 25.398C51.714 23.766 51.966 22.12 52.203 20.461C52.638 17.422 52.075 14.483 51.52 11.536C51.454 11.184 51.136 10.879 50.844 10.405C49.149 12.475 48.292 14.732 47.496 16.867ZM12.009 36.585C10.497 36.731 10.222 36.877 10.265 37.934C10.376 40.656 9.73402 43.181 8.70602 45.682C8.10202 47.153 7.64301 48.739 8.17901 50.393C8.33501 50.875 8.24701 51.344 7.97301 51.799C6.69401 53.918 6.72201 56.258 7.17101 58.536C7.86001 62.029 8.78301 65.475 9.61901 68.938C9.68201 69.198 9.81603 69.449 9.96203 69.676C10.012 69.754 10.194 69.746 10.483 69.821C10.404 69.29 10.411 68.796 10.253 68.363C9.50401 66.307 9.23403 64.153 8.86303 62.017C8.64403 60.761 8.57502 59.512 8.95602 58.274C9.23302 57.374 9.25004 56.453 8.94604 55.584C8.63204 54.683 8.62101 53.779 8.76101 52.887C9.04301 51.097 9.41802 49.322 9.76302 47.541C9.78902 47.408 9.87501 47.286 9.93801 47.161C11.308 44.413 11.657 41.416 12.038 38.432C12.113 37.831 12.022 37.209 12.009 36.585ZM32.864 56.287C32.378 56.412 31.981 56.545 31.574 56.612C30.468 56.794 29.811 57.546 29.564 58.514C29.137 60.192 28.72 61.903 29.199 63.66C29.255 63.862 29.294 64.07 29.369 64.264C29.659 65.01 30.706 65.226 31.264 64.619C31.54 64.319 31.717 63.921 31.912 63.553C32.922 61.641 34.584 60.587 37.161 61.522C37.838 61.767 38.523 62.052 39.67 61.788C38.94 61.507 38.577 61.291 38.192 61.234C36.944 61.05 36.009 60.449 35.286 59.409C34.572 58.382 33.757 57.428 32.864 56.287ZM22.394 27.844C22.863 26.117 23.078 24.77 22.879 23.354C22.653 21.747 22.83 20.152 23.334 18.61C23.724 17.418 24.213 16.259 24.602 15.067C25.055 13.676 25.462 12.269 25.862 10.86C26.49 8.64904 27.114 6.43704 27.698 4.21404C27.906 3.42104 27.994 2.59604 28.158 1.66804C27.34 1.55904 26.677 1.46704 25.91 1.96504C25.812 3.14004 25.673 4.38204 25.618 5.62904C25.563 6.89304 25.437 8.10904 24.895 9.29204C24.138 10.945 23.631 12.688 23.33 14.493C23.17 15.452 22.898 16.399 22.61 17.331C21.577 20.668 21.244 24.019 22.394 27.844ZM8.78402 34.483C9.31602 33.406 9.12402 32.303 8.95702 31.222C8.68902 29.496 8.30002 27.787 8.09502 26.055C7.73202 22.992 7.62303 19.937 8.40703 16.888C9.00103 14.58 9.70803 12.321 10.561 10.1C10.695 9.75204 10.666 9.34104 10.722 8.86704C8.46901 9.90104 8.11702 10.099 7.70302 11.196C7.08802 12.826 6.52003 14.457 6.45003 16.258C6.27703 20.696 6.81102 25.051 7.65102 29.389C7.96802 31.028 8.20701 32.681 8.49001 34.327C8.49701 34.367 8.60502 34.391 8.78402 34.483ZM40.16 33.507C41.141 33.047 41.882 32.66 42.652 32.346C44.313 31.667 45.907 31.705 47.373 32.878C47.546 33.016 47.745 33.335 47.939 33.095C47.312 31.71 46.595 30.429 46.154 29.058C45.797 27.948 45.224 27.226 44.073 26.87C43.13 27.131 42.133 27.406 41.145 27.679C40.292 29.505 39.521 31.266 40.16 33.507ZM35.767 3.39004C34.404 5.13204 33.299 6.76504 32.761 8.66004C32.039 11.207 31.475 13.8 30.852 16.375C30.771 16.71 30.674 17.064 30.699 17.399C30.823 19.071 30.984 20.74 31.16 22.72C31.839 21.386 31.808 20.266 31.828 19.163C31.858 17.41 31.995 15.654 32.586 14.01C33.575 11.255 34.68 8.53304 36.336 6.09104C36.779 5.43804 37.038 4.76104 37.17 3.90704C36.708 3.73804 36.271 3.57704 35.767 3.39004ZM29.033 65.986C28.391 68.602 29.164 70.892 29.453 73.411C30.414 73.037 31.27 72.748 32.087 72.375C32.938 71.986 33.961 71.889 34.703 70.979C33.987 70.198 33.28 69.528 32.699 68.763C32.073 67.939 32.357 66.667 31.281 65.855C30.655 65.892 29.901 65.935 29.033 65.986ZM40.883 52.338C40.399 52.449 39.974 52.419 39.76 52.616C38.716 53.583 37.422 54.108 36.208 54.782C35.559 55.143 34.849 55.484 34.48 56.145C35.215 57.981 35.485 58.318 37.064 59.406C37.189 59.251 37.385 59.112 37.429 58.934C37.685 57.92 38.347 57.233 39.167 56.659C39.623 56.34 40.06 55.99 40.54 55.712C41.241 55.305 41.489 54.691 41.366 53.945C41.28 53.422 41.064 52.921 40.883 52.338ZM38.523 60.105C39.534 60.679 40.523 61.012 41.167 61.922C41.514 62.414 42.194 62.592 42.916 62.26C43.287 61.376 42.997 60.527 42.681 59.68C42.391 58.904 42.117 58.12 41.797 57.357C41.675 57.066 41.442 56.823 41.223 56.505C39.673 57.24 38.546 58.131 38.523 60.105ZM48.06 35.876C47.697 35.225 47.51 34.77 47.221 34.394C46.054 32.875 43.984 32.575 42.411 33.665C41.908 34.014 41.831 34.516 42.284 34.875C43.308 35.685 44.361 36.457 45.461 37.29C46.314 36.825 47.091 36.403 48.06 35.876ZM40.15 50.93C42.134 51.338 42.239 51.444 42.408 53.175C42.448 53.591 42.419 54.015 42.487 54.425C42.69 55.656 42.885 56.891 43.161 58.107C43.406 59.187 43.737 60.249 44.065 61.308C44.164 61.623 44.363 61.914 44.555 62.189C44.615 62.276 44.852 62.347 44.922 62.299C45.068 62.2 45.244 62.022 45.253 61.867C45.267 61.603 45.243 61.269 45.092 61.076C44.404 60.193 44.389 59.152 44.237 58.117C44.087 57.095 43.75 56.101 43.521 55.089C43.385 54.49 43.257 53.882 43.208 53.272C43.152 52.58 43.231 51.876 43.166 51.186C43.13 50.813 42.916 50.456 42.734 49.963C41.85 50.251 40.985 50.142 40.15 50.93ZM41.642 35.745C41.345 36.012 41.064 36.213 40.846 36.468C38.451 39.272 37.746 42.634 37.684 46.197C37.682 46.317 37.92 46.441 38.093 46.61C38.31 45.958 38.441 45.371 38.694 44.842C39.298 43.578 39.831 42.31 39.944 40.884C40.076 39.225 40.724 37.799 42.082 36.753C42.173 36.684 42.185 36.511 42.264 36.306C42.093 36.151 41.9 35.978 41.642 35.745ZM46.846 15.774C47.82 13.883 48.794 11.993 49.766 10.101C49.797 10.041 49.808 9.96804 49.813 9.90004C49.848 9.45304 49.772 9.08004 49.141 9.03704C47.564 10.935 46.926 13.219 46.846 15.774ZM38.681 32.211C38.953 30.953 39.206 29.783 39.479 28.523C37.853 28.905 37.004 29.975 36.166 31.158C36.818 31.901 37.654 32.081 38.681 32.211ZM45.672 52.395C44.261 53.629 44.133 54.026 44.685 54.895C44.774 55.036 45.037 55.157 45.202 55.136C45.371 55.114 45.642 54.917 45.652 54.782C45.697 54.105 45.672 53.423 45.672 52.395ZM45.706 56.354C45.143 57.873 45.209 58.474 46.215 59.697C45.833 58.431 46.335 57.402 45.706 56.354ZM40.856 26.119C42.238 26.28 42.238 26.28 43.298 25.379C41.852 24.898 41.852 24.898 40.856 26.119ZM45.548 24.291C45.077 24.791 44.819 25.067 44.48 25.427C45.026 25.814 45.448 26.112 46.063 26.548C46.063 26.047 46.112 25.774 46.051 25.528C45.971 25.205 45.804 24.903 45.548 24.291Z" fill="white"/>
<path d="M44.9661 21.2751C45.4921 20.7231 45.8691 20.2361 46.4071 20.0031C47.0001 20.5241 46.5851 20.8521 46.3391 21.1301C46.0121 21.4981 45.6091 21.8241 44.9661 21.2751Z" fill="white"/>
<path d="M34.294 26.802C33.967 27.368 33.676 27.871 33.309 28.506C32.651 27.841 33.046 27.372 33.257 26.915C33.352 26.709 33.392 26.717 34.294 26.802Z" fill="white"/>
<path d="M42.654 19.5701C42.385 20.6181 41.772 20.6521 40.724 20.1851C41.558 19.9201 42.106 19.7451 42.654 19.5701Z" fill="white"/>
<path d="M41.921 47.685C41.647 46.844 41.986 46.506 42.494 46.268C42.587 46.224 42.821 46.268 42.84 46.322C42.894 46.477 42.944 46.722 42.863 46.819C42.623 47.101 42.319 47.328 41.921 47.685Z" fill="white"/>
<path d="M38.109 49.491C38.004 49.109 37.866 48.881 37.93 48.782C38.054 48.589 38.29 48.469 38.481 48.318C38.548 48.482 38.71 48.682 38.664 48.804C38.586 49.013 38.379 49.174 38.109 49.491Z" fill="white"/>
</svg>
