<svg width="96" height="73" viewBox="0 0 96 73" fill="none" xmlns="http://www.w3.org/2000/svg">
<path d="M87.811 40.633C88.444 41.679 88.915 42.49 89.42 43.28C90.212 44.52 90.436 45.786 89.525 47.114C90.069 47.8 90.55 48.408 91.137 49.147C90.846 49.681 90.59 50.249 90.245 50.754C89.933 51.212 89.492 51.58 89.166 52.03C88.662 52.726 88.46 53.467 89.079 54.226C89.179 54.349 89.264 54.489 89.336 54.63C90.389 56.69 90.09 57.759 88.103 59.036C87.908 59.162 87.701 59.27 87.418 59.433C87.458 59.82 87.474 60.209 87.542 60.589C87.789 61.974 87.504 63.079 86.185 63.86C85.247 64.415 84.693 65.149 85.162 66.452C85.512 67.422 84.76 68.567 83.765 68.944C83.028 69.224 82.225 69.358 81.44 69.482C80.734 69.594 80.012 69.605 79.713 69.628C78.723 70.489 77.986 71.098 77.286 71.747C76.444 72.527 75.533 72.792 74.43 72.348C73.399 71.934 72.345 71.575 71.101 71.12C70.238 71.52 69.216 71.961 68.224 72.461C66.866 73.146 65.64 73.002 64.409 72.11C63.189 71.227 61.896 70.447 60.654 69.633C57.6 70.946 54.701 70.044 51.804 69.573C51.003 69.442 50.292 68.963 49.93 68.194C49.228 66.707 48.05 66.124 46.461 66.104C45.75 66.096 45.045 65.874 44.332 65.81C42.946 65.686 41.693 65.212 40.439 64.392C40.134 64.535 39.773 64.676 39.441 64.867C38.627 65.334 37.845 65.382 36.928 65.048C35.053 64.364 33.133 63.806 31.227 63.208C30.161 62.874 29.077 62.596 28.021 62.236C27.117 61.928 26.227 61.572 25.356 61.18C24.044 60.589 22.774 59.902 21.447 59.35C20.648 59.017 19.786 58.722 18.933 58.657C15.867 58.422 15.109 58.114 13.066 55.898C12.66 55.829 12.183 55.776 11.721 55.663C10.242 55.298 9.04404 54.501 8.49804 53.053C8.15504 52.142 7.59604 51.598 6.74804 51.235C6.38404 51.078 6.05004 50.846 5.71104 50.634C2.92904 48.898 2.13304 47.055 2.73104 43.77C2.78704 43.461 2.80004 43.145 2.83504 42.818C2.61404 42.545 2.46004 42.234 2.20904 42.069C0.911043 41.215 0.829043 40.031 1.20904 38.69C1.36104 38.152 1.44704 37.592 1.62804 37.065C2.00904 35.952 1.91804 34.977 1.39704 33.856C0.875042 32.73 0.799042 31.39 0.581042 30.136C0.531042 29.848 0.652042 29.505 0.769042 29.217C1.18704 28.182 1.66204 27.168 2.06904 26.129C2.44704 25.164 2.76404 24.176 3.11804 23.17C2.43004 20.829 1.70804 18.467 1.04604 16.087C0.569042 14.373 1.52104 11.764 3.07804 10.833C4.16604 10.183 4.86904 9.36803 5.40504 8.22603C6.36404 6.17903 7.86204 4.55404 9.69104 3.18404C10.982 2.21604 12.383 1.48303 13.765 0.688035C14.653 0.177035 15.55 -0.00596721 16.524 0.233033C18.574 0.736033 20.659 0.663031 22.729 0.541031C24.974 0.410031 26.978 1.13103 28.936 2.04503C30.093 2.58503 31.203 3.23303 32.297 3.89203C33.542 4.64303 34.836 5.16003 36.278 5.47003C37.663 5.76703 38.973 6.42503 40.31 6.93903C40.894 7.16203 41.342 7.41603 42.046 6.91603C42.495 6.59803 43.516 6.70503 44.082 7.00203C45.919 7.96303 47.823 8.71303 49.768 9.41803C51.183 9.93103 52.525 10.691 53.828 11.461C54.823 12.049 55.827 12.399 56.981 12.456C58.277 12.52 59.381 12.945 60.42 13.882C61.958 15.266 63.746 16.327 65.908 16.604C66.59 16.692 67.278 17.056 67.874 17.434C69.455 18.435 71.199 18.953 72.996 19.36C73.617 19.501 74.225 19.71 74.825 19.929C76.186 20.428 77.559 20.728 79.033 20.705C81.783 20.663 84.512 21.23 86.982 22.277C90.358 23.708 93.061 26.092 94.347 29.733C94.531 30.255 94.655 30.843 94.985 31.258C95.759 32.233 95.684 33.15 95.052 34.12C94.66 34.723 94.207 35.296 93.897 35.939C92.856 38.094 91.252 39.489 88.864 39.959C88.513 40.031 88.213 40.368 87.811 40.633ZM21.136 31.801C19.956 31.925 18.989 31.356 17.979 30.874C16.468 30.152 14.984 29.296 13.39 28.847C10.186 27.945 7.27604 26.553 4.67204 24.492C4.45104 24.317 4.14004 24.256 3.83504 24.127C3.16804 25.971 2.51904 27.673 1.95004 29.4C1.78404 29.905 1.80504 30.486 1.81104 31.031C1.83004 32.511 2.55604 33.764 3.17304 34.848C2.85304 36.206 2.55104 37.364 2.31404 38.536C2.08004 39.694 2.24604 40.744 3.23804 41.567C3.59504 41.863 3.83004 42.307 4.15204 42.726C4.07404 43.038 3.99404 43.338 3.92304 43.641C3.23304 46.577 4.27704 49.554 7.54104 50.458C8.63304 50.761 9.33204 51.331 9.55804 52.538C9.83904 54.032 11.063 54.483 12.395 54.661C12.856 54.722 13.333 54.671 13.866 54.671C14.105 54.999 14.386 55.291 14.557 55.638C15.107 56.749 16.144 57.207 17.205 57.55C18.707 58.035 19.817 57.356 19.94 55.801C20.046 54.458 20.024 53.077 19.836 51.745C19.429 48.861 19.641 45.988 19.994 43.145C20.156 41.836 20.168 40.623 19.859 39.375C19.341 37.275 19.562 35.258 20.485 33.305C20.721 32.808 20.889 32.278 21.089 31.763C21.531 31.224 21.576 30.624 21.387 30.006C19.945 29.02 19.86 28.746 20.52 27.325C20.773 26.781 21.02 26.235 21.348 25.52C19.874 25.03 18.595 24.62 17.327 24.177C13.243 22.748 9.33104 21.027 6.15404 17.945C4.98604 16.811 3.97704 15.631 3.51104 14.044C3.39104 13.638 3.18504 13.256 2.85204 12.471C2.31704 13.99 1.95904 15.086 2.30404 16.278C2.51904 17.02 2.81304 17.741 3.03704 18.377C3.51404 18.443 3.86004 18.491 4.38804 18.566C3.97104 19.126 3.51604 19.467 3.47804 19.851C3.42704 20.369 3.56704 21.003 3.85404 21.437C4.50704 22.422 5.16904 23.472 6.06204 24.213C7.78604 25.644 9.80504 26.761 11.943 27.306C14.842 28.045 17.41 29.486 20.146 30.559C20.716 30.782 21.046 31.195 21.136 31.801ZM44.555 41.32L44.607 41.363C43.425 41.039 42.439 40.063 40.939 40.223C40.823 41.949 40.754 43.613 40.588 45.266C40.414 47.002 40.147 48.729 39.928 50.397C40.337 50.737 40.638 50.988 40.978 51.271C40.748 51.985 40.058 52.609 40.493 53.477C40.58 53.651 40.551 53.929 40.482 54.127C39.787 56.141 39.586 57.532 39.793 59.12C40.365 59.577 41.429 58.908 41.766 59.951C41.616 60.04 41.486 60.182 41.356 60.181C40.676 60.18 40.033 60.271 39.844 61.043C39.661 61.793 39.888 62.406 40.515 62.947C41.632 63.912 42.829 64.635 44.328 64.79C45.361 64.896 46.391 65.033 47.421 65.164C48.93 65.356 50.192 65.954 50.842 67.421C51.094 67.988 51.499 68.327 52.046 68.495C54.282 69.181 56.582 69.712 58.868 68.975C60.347 68.5 61.519 68.83 62.699 69.605C63.566 70.174 64.426 70.755 65.279 71.345C66.065 71.888 66.869 72.05 67.74 71.547C68.016 71.387 68.317 71.271 68.594 71.113C70.197 70.204 71.781 69.63 73.474 70.984C73.809 71.252 74.386 71.232 74.857 71.315C76.035 71.522 76.91 70.994 77.445 70.016C77.672 69.601 77.569 69.004 77.624 68.388C78.038 68.476 78.338 68.606 78.632 68.591C79.977 68.524 81.343 68.539 82.654 68.284C83.71 68.08 84.107 67.386 83.784 66.304C83.504 65.366 83.824 64.754 84.35 64.136C84.656 63.777 85.038 63.48 85.395 63.166C86.533 62.169 86.711 61.384 86.055 60.028C85.898 59.702 85.655 59.419 85.362 58.984C86.144 58.689 86.735 58.486 87.311 58.247C88.903 57.585 89.216 56.548 88.296 55.017C88.173 54.812 88.025 54.621 87.878 54.432C87.118 53.452 87.22 52.524 88.03 51.626C88.403 51.212 88.796 50.81 89.117 50.356C89.374 49.993 89.536 49.561 89.885 48.877C89.514 48.639 89.149 48.456 88.847 48.198C88.219 47.663 88.111 47.005 88.492 46.264C89.352 44.594 88.549 43.369 87.394 42.253C87.301 42.163 87.099 42.186 86.931 42.151C86.23 42.401 85.75 42.855 85.561 43.752C86.87 44.272 87.811 45.078 87.326 46.639C87.016 47.636 86.13 48.122 84.792 48.115C84.839 47.35 85.527 47.142 85.968 46.707C86.277 46.403 86.453 45.963 86.669 45.615C86.027 44.685 85.085 44.658 84.36 44.231C82.934 44.917 81.594 45.56 80.367 46.15C80.408 46.824 80.436 47.278 80.471 47.853C79.048 46.923 77.768 47.311 76.501 47.714C74.677 48.294 72.845 48.856 71.049 49.514C69.573 50.056 68.066 50.094 66.571 49.868C65.24 49.667 63.894 49.357 62.646 48.864C59.902 47.782 57.217 46.55 54.502 45.394C54.388 45.345 54.211 45.444 54.064 45.474C54.163 46.024 55.078 46.346 54.537 47.154C53.66 46.711 52.858 46.202 51.987 45.89C50.898 45.501 49.946 45.762 49.367 46.886C49.293 47.031 49.121 47.125 48.705 47.515C48.774 46.769 48.71 46.36 48.859 46.053C49.421 44.896 50.625 44.825 51.711 44.556C49.894 43.668 48.135 42.789 46.356 41.953C45.782 41.69 45.156 41.53 44.555 41.32ZM21.612 34.077C20.942 34.699 21.214 35.587 20.972 36.328C20.477 37.848 20.592 39.313 21.224 40.769C21.376 41.121 21.57 41.617 21.437 41.902C20.729 43.42 21.059 45.06 20.791 46.627C20.591 47.796 20.53 49.029 20.663 50.205C20.94 52.664 21.112 55.111 20.711 57.66C21.438 58.112 22.082 58.583 22.786 58.934C23.998 59.54 25.239 60.093 26.485 60.626C27.216 60.939 27.976 61.194 28.735 61.439C30.481 61.999 32.237 62.529 33.983 63.088C35.47 63.564 36.95 64.055 38.589 64.048C38.847 62.537 38.727 61.199 38.587 59.846C38.498 58.985 38.569 58.101 38.629 57.232C38.728 55.801 38.967 54.375 38.978 52.945C38.992 51.26 39.063 49.601 39.41 47.944C40.074 44.783 40.018 41.6 39.515 38.308C40.381 37.166 40.491 35.835 40.354 34.327C40.212 32.765 40.552 31.166 40.92 29.574C41.758 29.188 42.551 28.823 43.343 28.458C43.94 28.183 44.508 27.846 44.621 27.139C44.774 26.181 45.377 25.574 46.109 25.057C47.805 23.863 49.523 22.7 51.213 21.496C53.489 19.876 55.762 18.251 58 16.58C58.55 16.17 58.961 15.574 59.431 15.067C58.001 13.651 58.004 13.602 56.515 13.507C55.455 13.441 54.482 13.269 53.583 12.639C50.932 10.784 47.797 9.98803 44.868 8.74103C44.649 8.64703 44.39 8.64203 44.18 8.53703C43.371 8.13203 42.611 8.30203 41.907 8.75003C40.562 9.60603 39.215 10.462 37.918 11.387C34.204 14.035 30.797 17.061 27.359 20.051C24.966 22.133 23.192 24.642 21.793 27.45C21.699 27.638 21.739 27.892 21.721 28.079C22.29 28.423 22.806 28.733 23.34 29.056C22.714 30.837 22.137 32.478 21.56 34.118L21.612 34.077ZM41.837 30.252C41.742 31.303 42.397 31.656 43.053 31.937C44.52 32.562 46.012 33.129 47.49 33.729C48.967 34.328 50.441 34.935 51.914 35.544C53.898 36.366 55.851 37.277 57.873 37.993C59.368 38.521 60.924 38.93 62.55 38.91C64.082 38.892 65.535 39.201 66.977 39.782C68.708 40.479 70.521 40.639 72.355 39.979C74.676 39.144 77.02 38.372 79.357 37.579C79.884 37.399 80.408 37.15 80.951 37.089C83.657 36.783 85.991 35.604 88.117 34.009C90.003 32.595 91.585 30.952 91.238 28.269C91.171 27.747 91.332 27.195 91.381 26.721C90.039 25.129 88.488 24.031 86.682 23.309C84.6 22.478 82.447 21.753 80.211 21.697C76.366 21.6 72.987 19.745 69.306 19.073C67.079 17.738 64.471 17.488 62.104 16.547C61.598 16.346 61.029 16.303 60.473 16.184C56.666 18.89 52.904 21.564 48.996 24.342C49.277 24.545 49.444 24.73 49.651 24.804C51.076 25.321 52.5 25.849 53.947 26.297C54.462 26.456 55.043 26.42 55.594 26.433C55.689 26.435 55.788 26.23 55.92 26.082C55.726 25.561 55.511 24.986 55.249 24.282C55.77 24.192 56.165 24.018 56.517 24.081C58.079 24.358 59.626 24.717 61.185 25.017C61.556 25.088 61.984 25.125 62.212 24.42C61.76 24.001 61.268 23.511 60.739 23.063C60.253 22.651 59.696 22.318 59.234 21.882C58.975 21.639 58.686 21.274 59.13 20.887C60.726 21.401 61.815 22.564 62.846 23.784C63.393 24.433 63.438 25.008 63.054 25.52C62.62 26.1 62.05 26.265 61.359 26.04C61.056 25.941 60.748 25.844 60.435 25.787C59.431 25.604 58.423 25.44 57.433 25.272C57.364 25.546 57.293 25.688 57.3 25.827C57.362 27.175 57.167 27.508 56.001 27.461C55.06 27.423 54.102 27.242 53.199 26.967C51.375 26.41 49.583 25.745 47.821 25.141C46.793 25.816 45.87 26.423 45.573 27.627C45.382 28.4 44.7 28.738 44.073 29.086C43.318 29.503 42.545 29.884 41.837 30.252ZM40.373 8.06203C38.512 7.55003 37.192 6.64604 35.616 6.38904C34.083 6.14004 32.743 5.47803 31.44 4.68503C30.554 4.14603 29.675 3.56603 28.724 3.17203C27.112 2.50303 25.521 1.73403 23.714 1.66403C21.169 1.56503 18.626 1.41103 16.08 1.29903C15.613 1.27803 15.054 1.19603 14.687 1.40503C13.036 2.34703 11.29 3.21103 9.86304 4.43503C8.38404 5.70403 6.90604 7.08203 6.26904 9.10303C6.04604 9.81103 5.34304 10.358 4.91804 11.015C4.67104 11.396 4.34604 11.874 4.39204 12.27C4.54704 13.619 4.85904 14.979 5.80604 16.012C10.08 20.673 15.598 22.966 21.469 24.283C24.588 21.403 27.503 18.558 30.586 15.91C33.639 13.289 36.861 10.863 40.373 8.06203ZM41.711 32.679C41.052 33.707 41.673 34.645 41.585 35.538C41.495 36.455 41.183 37.349 40.938 38.38C41.87 38.801 42.721 39.221 43.597 39.573C45.369 40.288 47.2 40.857 48.8 41.964C49.312 42.318 49.95 42.498 50.546 42.717C51.514 43.074 52.557 43.282 53.459 43.76C56.077 45.145 58.841 46.18 61.561 47.323C62.294 47.631 63 48.009 63.747 48.278C66.58 49.301 69.402 48.879 72.216 48.159C75.956 47.203 79.325 45.316 82.874 43.88C84.434 43.248 85.863 42.213 86.599 40.655C87.072 39.655 87.678 39.102 88.693 38.959C90.325 38.727 91.459 37.832 92.287 36.455C92.861 35.502 93.477 34.575 94.142 33.529C93.142 32.295 94.179 30.518 92.85 29.226C92.745 29.554 92.603 29.769 92.624 29.967C92.736 31.051 92.223 31.796 91.403 32.409C91.149 32.599 90.909 32.821 90.705 33.063C88.606 35.559 85.699 36.695 82.752 37.725C81.254 38.249 79.679 38.553 78.167 39.042C76.497 39.583 74.866 40.24 73.206 40.813C71.019 41.566 68.853 41.534 66.645 40.765C65.377 40.324 64.027 40.076 62.694 39.875C60.722 39.578 58.746 39.35 56.883 38.57C54.017 37.371 51.159 36.15 48.266 35.017C46.132 34.184 43.947 33.472 41.711 32.679Z" fill="white"/>
<path d="M29.1161 34.5231C28.5401 32.8311 29.1071 31.3281 28.9791 29.7161C29.8411 30.6621 29.9021 32.8281 29.1161 34.5231Z" fill="white"/>
<path d="M36.624 44.28C36.392 43.769 36.264 43.567 36.205 43.346C35.823 41.92 36.164 40.559 36.599 39.191C36.999 40.853 37.027 41.968 36.624 44.28Z" fill="white"/>
<path d="M29.77 57.4141C29.141 55.3911 29.431 53.9621 29.907 52.5171C30.404 54.6451 30.409 55.3701 29.77 57.4141Z" fill="white"/>
<path d="M29.3921 36.9141C30.2191 38.2731 30.3251 39.5671 29.3921 40.8341C29.3921 39.5271 29.3921 38.2211 29.3921 36.9141Z" fill="white"/>
<path d="M38.905 13.359C39.586 11.537 41.12 10.635 42.61 9.70203C42.782 9.87603 42.872 9.92603 42.874 9.97903C42.877 10.047 42.824 10.138 42.767 10.185C41.481 11.246 40.192 12.303 38.905 13.359Z" fill="white"/>
<path d="M35.797 57.009C35.899 58.069 36.014 59.122 35.746 60.423C34.847 59.537 35.09 58.648 35.105 57.827C35.112 57.436 35.199 57.031 35.797 57.009Z" fill="white"/>
<path d="M45.1221 22.3101C45.8571 21.0181 46.7951 20.1081 47.8081 18.8351C47.3521 20.3461 46.5851 21.7801 45.9311 22.3571C45.8201 22.4541 45.5251 22.3411 45.1221 22.3101Z" fill="white"/>
<path d="M33.155 28.963C33.601 30.376 33.619 31.85 33.559 33.342C32.829 33.307 32.763 32.879 32.792 32.5C32.884 31.318 33.03 30.142 33.155 28.963Z" fill="white"/>
<path d="M26.9141 50.5191C26.9141 49.1151 26.9141 47.7091 26.9141 46.3051C27.2271 47.7001 27.9471 49.0651 26.9141 50.5191Z" fill="white"/>
<path d="M55.918 14.3771C55.525 15.7091 54.641 16.5981 53.505 17.2711C54.196 16.2041 54.716 15.0111 55.918 14.3771Z" fill="white"/>
<path d="M23.427 45.699C23.169 45.577 22.954 45.546 22.92 45.449C22.382 43.946 23.362 42.56 23.216 41.077C23.499 42.603 23.526 44.12 23.427 45.699Z" fill="white"/>
<path d="M33.33 37.1831C33.519 38.6631 33.914 40.1421 33.345 42.0701C32.938 40.1501 33.044 38.6671 33.33 37.1831Z" fill="white"/>
<path d="M50.0021 16.243C50.1401 15.223 50.3931 14.343 51.3951 14.154C51.4781 14.138 51.6021 14.338 51.8371 14.561C51.2201 15.127 50.6111 15.685 50.0021 16.243Z" fill="white"/>
<path d="M23.228 52.326C24.125 53.142 23.909 53.9161 23.228 54.9101C23.228 53.8831 23.228 53.104 23.228 52.326Z" fill="white"/>
<path d="M25.0901 36.095C24.9961 35.157 24.8561 34.2211 24.8231 33.2821C24.8021 32.6641 24.9361 32.041 25.1251 31.425C25.6811 32.974 25.1681 34.532 25.0901 36.095Z" fill="white"/>
<path d="M26.1221 37.4331C26.8471 38.2921 26.7041 39.1551 26.6801 40.0451C26.0701 38.9961 26.0751 38.9961 26.1221 37.4331Z" fill="white"/>
<path d="M37.5851 29.866C37.7451 30.839 38.0731 31.832 37.1581 33.07C36.9981 31.702 37.4461 30.803 37.5851 29.866Z" fill="white"/>
<path d="M32.001 58.5491C32.656 59.2291 32.705 59.9421 32.434 60.8381C31.666 60.0811 31.675 59.3251 32.001 58.5491Z" fill="white"/>
<path d="M36.263 48.752C35.352 48.023 35.684 47.345 36.109 46.391C36.258 46.791 36.377 46.96 36.373 47.126C36.361 47.669 36.303 48.21 36.263 48.752Z" fill="white"/>
<path d="M36.276 19.8091C36.348 18.9811 36.82 18.419 37.486 17.894C37.523 18.896 37.523 18.8961 36.276 19.8091Z" fill="white"/>
<path d="M26.5651 58.509C26.4471 57.456 26.0521 56.391 26.7141 55.106C27.1291 56.44 26.6851 57.467 26.5651 58.509Z" fill="white"/>
<path d="M30.4551 47.137C29.9631 45.909 29.6751 45.201 30.1431 44.384C30.7611 45.252 30.7611 45.252 30.4551 47.137Z" fill="white"/>
<path d="M26.4971 26.222C26.5631 25.363 26.8321 24.794 27.3891 24.329C27.7151 25.216 27.7151 25.216 26.4971 26.222Z" fill="white"/>
<path d="M41.389 24.379C41.667 25.079 41.72 25.638 41.062 26.121C40.761 25.436 40.822 24.901 41.389 24.379Z" fill="white"/>
<path d="M46.5441 11.759C46.1861 12.835 46.1861 12.835 44.6221 13.422C45.5051 12.658 46.0241 12.208 46.5441 11.759Z" fill="white"/>
<path d="M42.6291 18.825C42.2851 19.468 41.9451 20.103 41.4021 21.119C41.2641 19.818 41.6181 19.183 42.2041 18.646C42.2411 18.613 42.4171 18.732 42.6291 18.825Z" fill="white"/>
<path d="M36.701 24.24C37.087 25.224 36.514 25.829 36.21 26.766C35.747 25.661 36.169 25.023 36.701 24.24Z" fill="white"/>
<path d="M21.563 34.118C22.275 34.925 21.771 35.867 21.72 36.757C21.679 36.324 21.62 35.892 21.603 35.458C21.585 34.999 21.608 34.538 21.613 34.077L21.563 34.118Z" fill="white"/>
<path d="M32.3801 25.7081C31.9241 25.0701 32.3491 24.7211 32.5521 24.3321C32.6191 24.2051 32.7381 24.1051 32.8331 23.9921C32.8701 24.1361 32.9731 24.3041 32.9321 24.4191C32.7841 24.8361 32.5881 25.2351 32.3801 25.7081Z" fill="white"/>
<path d="M33.4641 50.0651C33.4641 50.6491 33.4641 51.2321 33.4641 51.9621C32.8241 51.3251 33.1431 50.7021 33.4641 50.0651Z" fill="white"/>
<path d="M32.2591 17.9301C32.3131 18.1271 32.3651 18.2181 32.3411 18.2471C32.1241 18.5141 31.8941 18.7711 31.6601 19.0241C31.6541 19.0311 31.5231 18.9611 31.4981 18.9051C31.3011 18.4611 31.5911 18.2171 31.8981 17.9921C31.9531 17.9531 32.0431 17.9651 32.2591 17.9301Z" fill="white"/>
<path d="M45.4 52.2271C45.435 52.5401 45.515 52.724 45.456 52.83C45.137 53.4 44.833 53.9651 45.242 54.6091C45.656 55.2601 46.311 55.6091 47.031 55.6651C47.802 55.7241 48.588 55.5921 49.384 55.5421C49.807 56.0071 49.4 56.3081 49.088 56.4471C47.585 57.1211 45.497 56.6851 44.521 55.4261C44.161 54.9611 43.898 54.2751 43.916 53.6991C43.938 52.9761 44.384 52.3501 45.4 52.2271Z" fill="white"/>
<path d="M55.2621 56.91C53.7021 57.152 53.4861 57.037 53.2381 55.825C53.1581 55.435 53.0661 55.045 53.0331 54.649C52.9441 53.572 53.4891 52.849 54.5721 52.558C55.6611 52.265 56.3301 52.613 57.0081 53.892C56.4241 53.831 55.9021 53.725 55.3801 53.734C54.4581 53.749 53.9231 54.482 54.2571 55.38C54.4641 55.936 54.9171 56.4 55.2621 56.91Z" fill="white"/>
<path d="M48.7161 50.254C48.0961 50.521 47.6021 50.75 47.0951 50.947C45.8401 51.433 44.5571 51.1 43.7001 50.089C43.2711 49.583 42.9891 49.021 43.1761 48.351C43.3661 47.669 43.9031 47.38 44.7071 47.262C44.6731 47.507 44.6691 47.701 44.6171 47.882C44.5161 48.237 44.2401 48.617 44.3051 48.931C44.4221 49.499 44.8991 49.836 45.4811 49.973C46.2191 50.146 46.8731 49.907 47.5351 49.605C48.0141 49.386 48.4601 49.442 48.7161 50.254Z" fill="white"/>
<path d="M71.065 61.148C70.523 61.885 70.321 62.394 70.122 62.393C68.704 62.387 67.272 62.371 65.878 62.152C65.335 62.066 64.78 61.522 64.406 61.048C64.046 60.593 63.598 60.025 64.067 59.189C64.327 59.358 64.644 59.454 64.773 59.665C65.97 61.611 67.749 61.821 69.758 61.397C69.978 61.353 70.199 61.314 71.065 61.148Z" fill="white"/>
<path d="M68.574 64.376C68.914 64.706 69.267 64.97 69.521 65.308C70.889 67.125 72.14 67.307 74.099 65.937C74.227 65.847 74.363 65.681 74.485 65.69C74.695 65.704 74.926 65.792 75.092 65.922C75.173 65.986 75.138 66.213 75.132 66.364C75.129 66.434 75.084 66.516 75.033 66.569C72.847 68.837 69.132 67.938 68.269 64.926C68.241 64.825 68.406 64.669 68.574 64.376Z" fill="white"/>
<path d="M66.6181 66.414C65.1431 67.502 63.8311 68.145 62.2421 67.416C60.9741 66.834 59.6441 66.293 59.2421 64.314C59.7651 64.582 60.0171 64.673 60.2241 64.826C60.7931 65.243 61.3041 65.756 61.9101 66.104C62.9811 66.719 64.0851 67.049 65.2121 66.118C65.5581 65.831 65.6241 65.911 66.6181 66.414Z" fill="white"/>
<path d="M52.5601 58.298C53.1991 58.234 53.4471 58.604 53.5271 58.967C53.8501 60.431 54.9281 61.011 56.2101 61.366C56.8831 61.554 57.5721 61.685 58.2731 61.846C58.5361 62.566 57.8811 62.751 57.5281 62.677C56.2941 62.417 54.9691 62.217 53.9111 61.597C52.7831 60.936 52.4721 59.629 52.5601 58.298Z" fill="white"/>
<path d="M78.6211 59.894C78.4551 61.168 78.1691 61.833 77.3651 61.945C75.5431 62.197 73.8881 61.776 72.6391 60.338C72.4481 60.117 72.5241 59.665 72.4181 58.889C74.3431 60.818 76.1181 61.79 78.6211 59.894Z" fill="white"/>
<path d="M62.696 55.573C61.802 54.712 61.638 54.181 62.117 53.428C62.65 52.592 63.388 52.045 64.419 51.938C65.785 51.796 66.5721 52.114 68.1101 53.599C67.6721 53.599 67.409 53.656 67.184 53.588C66.435 53.363 65.7161 53.017 64.9561 52.866C64.2471 52.725 63.514 52.861 63.002 53.465C62.486 54.073 62.4531 54.745 62.8711 55.435C62.8761 55.443 62.757 55.525 62.696 55.573Z" fill="white"/>
<path d="M45.445 57.3821C45.445 57.6421 45.5 57.8161 45.437 57.9021C44.405 59.3041 44.455 59.9151 45.754 60.7181C46.284 61.0451 46.874 61.2771 47.424 61.5451C47.567 62.1621 47.146 62.3721 46.8 62.2121C45.957 61.8191 45.073 61.4021 44.4 60.7831C43.275 59.7471 43.42 58.8031 44.654 57.8931C44.892 57.7201 45.149 57.5721 45.445 57.3821Z" fill="white"/>
<path d="M78.2391 52.0851C77.6581 51.8641 77.0881 51.6071 76.4941 51.4281C74.4991 50.8231 73.8131 51.3231 73.6211 53.5991C72.9221 53.3231 72.5951 52.9011 72.7831 52.1801C73.0911 50.9991 73.7861 50.3631 74.9771 50.3691C75.7541 50.3741 76.5561 50.5381 77.2961 50.7831C77.7661 50.9371 78.1441 51.3711 78.5641 51.6801C78.4551 51.8151 78.3471 51.9501 78.2391 52.0851Z" fill="white"/>
<path d="M59.938 56.0991C58.084 58.1031 58.075 58.1881 59.353 60.5571C58.977 60.9361 58.623 60.7161 58.3 60.4891C57.653 60.0311 57.394 59.3351 57.473 58.6021C57.548 57.9131 57.703 57.1691 58.054 56.5891C58.364 56.0781 58.995 55.7711 59.938 56.0991Z" fill="white"/>
<path d="M56.5231 51.3261C56.4651 50.8551 56.2731 50.4261 56.4111 50.2111C57.0351 49.2471 58.0381 49.0041 59.1221 49.0211C60.1981 49.0381 61.1511 49.2831 61.7641 50.5891C60.7291 50.3421 59.8901 50.0481 59.0311 49.9601C58.0671 49.8611 57.8441 50.0551 56.5231 51.3261Z" fill="white"/>
<path d="M82.1371 63.732C81.2301 63.682 80.6141 63.571 80.0141 63.632C78.8111 63.754 78.4591 64.617 79.1261 65.629C79.3171 65.918 79.8171 66.067 79.5511 66.729C79.0501 66.257 78.5631 65.876 78.1711 65.414C77.6361 64.782 77.7121 64.001 78.3661 63.527C79.3011 62.849 80.3381 62.445 81.4981 62.908C81.7071 62.991 81.8221 63.311 82.1371 63.732Z" fill="white"/>
<path d="M81.4531 52.952C81.2671 52.615 81.0231 52.298 80.9051 51.939C80.4541 50.567 81.1161 49.536 82.5231 49.414C83.6281 49.317 84.5141 49.7989 85.2391 50.5929C85.3041 50.6639 85.2071 50.883 85.1671 51.163C84.5341 50.865 83.9461 50.527 83.3171 50.305C82.1101 49.878 81.5091 50.378 81.5941 51.703C81.6181 52.088 81.7191 52.468 81.7841 52.85C81.6741 52.884 81.5631 52.918 81.4531 52.952Z" fill="white"/>
<path d="M73.78 54.365C71.717 55.573 71.717 55.573 71.126 57.722C70.304 57.114 70.35 56.337 70.742 55.633C71.299 54.632 72.12 53.974 73.78 54.365Z" fill="white"/>
<path d="M51.823 64.627C52.315 64.525 52.484 64.434 52.611 64.474C53.67 64.809 54.713 65.196 55.806 64.547C55.896 64.493 56.285 64.711 56.318 64.854C56.36 65.03 56.23 65.331 56.075 65.45C55.837 65.633 55.525 65.774 55.229 65.815C54.001 65.984 52.908 65.707 51.823 64.627Z" fill="white"/>
<path d="M44.5551 41.3201C44.6431 41.5301 44.7311 41.739 44.8731 42.08C44.2041 42.204 43.5591 42.2091 43.0241 42.4541C42.5021 42.6931 42.0911 43.1781 41.5441 43.6271C41.7101 42.1361 42.0021 41.6181 42.9511 41.3921C43.4751 41.2671 44.0531 41.3661 44.6071 41.3641L44.5551 41.3201Z" fill="white"/>
<path d="M82.8861 59.3641C79.9751 58.7471 79.9751 58.7471 78.5221 59.2981C78.9741 58.3581 79.6961 58.2171 80.4911 58.1981C81.3541 58.1801 82.2271 58.1331 82.8861 59.3641Z" fill="white"/>
<path d="M74.805 30.879C72.809 31.817 71.401 29.954 69.522 29.91C69.216 30.956 70.276 31.536 70.168 32.618C69.778 32.976 69.266 33.445 68.765 33.904C65.706 33.01 62.771 32.153 59.827 31.293C59.829 30.811 60.229 30.893 60.499 30.856C61.645 30.703 62.697 31.113 63.761 31.442C65.053 31.84 66.343 32.247 67.642 32.622C68.136 32.765 68.598 32.703 68.847 32.063C68.755 31.122 67.549 30.442 68.055 29.14C68.339 29.07 68.71 28.88 69.066 28.906C71.145 29.049 72.913 30.129 74.805 30.879Z" fill="white"/>
<path d="M78.651 23.276C79.452 22.958 80.106 23.46 80.617 23.817C82.517 25.148 84.21 26.716 85.462 28.713C85.872 29.367 85.98 30.038 85.824 30.769C85.657 31.555 85.044 32.033 84.25 31.869C83.476 31.71 82.742 31.352 81.967 31.191C81.442 31.082 80.834 31.029 80.344 31.192C79.871 31.35 79.502 31.818 79.22 32.043C79.045 33.238 80.425 33.788 79.878 34.979C79.004 34.167 78.389 33.28 77.91 32.339C79.642 30.162 80.394 29.926 82.883 30.682C83.478 30.864 84.101 31.238 84.669 30.671C85.081 30.259 84.983 29.493 84.466 28.691C83.32 26.912 81.789 25.557 79.956 24.503C79.474 24.226 78.67 24.195 78.651 23.276Z" fill="white"/>
<path d="M53.595 32.5851C50.98 31.7801 48.713 30.4641 46.478 29.0701C48.9 29.5501 50.969 30.8421 53.11 31.9611C53.322 32.0711 53.435 32.3721 53.595 32.5851Z" fill="white"/>
<path d="M10.422 10.7161C11.648 10.0651 12.847 10.0671 14.01 10.3001C16.117 10.7241 18.202 11.2621 20.298 11.7461C20.603 11.8161 20.916 11.8841 21.226 11.8921C21.354 11.8961 21.561 11.7691 21.602 11.6561C21.674 11.4551 21.747 11.1121 21.644 11.0151C21.186 10.5851 20.704 10.1531 20.16 9.84706C18.604 8.97506 17.457 7.67907 16.312 6.55707C16.398 5.62907 16.955 5.42606 17.498 5.36606C18.772 5.22206 20.025 5.29205 21.254 5.78805C23.471 6.68405 25.722 7.49306 27.95 8.36206C28.841 8.71006 29.722 9.09206 30.576 9.52206C30.886 9.67706 31.101 10.0191 31.684 10.5991C30.947 10.5101 30.614 10.5621 30.391 10.4281C28.728 9.43405 26.898 8.87507 25.081 8.26407C23.874 7.85807 22.693 7.36006 21.538 6.82206C20.495 6.33507 19.46 6.03705 18.319 6.38305C18.741 7.67405 18.988 7.99006 20.215 8.82806C20.94 9.32206 21.689 9.78605 22.377 10.3271C23.021 10.8341 23.11 11.3631 22.794 12.0121C22.425 12.7701 21.831 13.0891 21.049 12.9281C20.816 12.8801 20.589 12.7941 20.368 12.7051C17.363 11.5001 14.219 11.0481 11.006 10.9401C10.811 10.9351 10.618 10.7941 10.422 10.7161Z" fill="white"/>
<path d="M26.3621 15.2501C26.7491 16.0821 27.0741 16.7831 27.4581 17.6081C26.0351 16.8791 25.7221 16.4691 25.0541 14.5781C25.4251 13.8641 26.1131 13.9011 26.7131 14.0471C27.3971 14.2131 28.0571 14.5241 28.6851 14.8541C29.1691 15.1091 29.2821 15.7711 28.9421 16.0741C28.5361 16.4361 28.2211 16.1571 27.9531 15.8401C27.6041 15.4261 27.3361 14.8701 26.3621 15.2501Z" fill="white"/>
<path d="M18.6491 17.1491C16.6551 17.2621 15.0811 16.0501 13.2581 15.6901C13.2971 14.9651 13.7601 15.009 14.1161 15.09C15.7521 15.463 17.2231 16.2341 18.6491 17.1491Z" fill="white"/>
<path d="M9.10401 42.7991C8.94401 42.1081 8.70001 41.422 8.64401 40.722C8.56101 39.692 9.06101 39.093 10.096 38.887C11.325 38.642 12.565 38.453 14.007 39.274C13.557 39.497 13.323 39.702 13.076 39.719C12.208 39.78 11.331 39.7311 10.465 39.8121C9.85101 39.8701 9.52501 40.4411 9.66601 41.0391C9.83601 41.7621 10.18 42.356 10.858 42.736C11.164 42.907 11.423 43.163 11.79 43.447C10.512 44.039 9.84301 43.1821 9.05001 42.7411L9.10401 42.7991Z" fill="white"/>
<path d="M5.43511 30.638C4.48411 29.933 4.6351 29.261 4.8061 28.7C4.9581 28.2 5.2911 27.705 5.6741 27.345C5.9191 27.115 6.4611 26.965 6.7631 27.074C8.3061 27.635 9.99811 27.999 10.8861 29.629C10.4241 30.272 10.0101 30.451 9.7011 30.044C9.0501 29.188 8.2431 28.621 7.2201 28.324C6.3381 28.068 5.9411 28.279 5.6681 29.241C5.5631 29.605 5.53911 29.99 5.43511 30.638Z" fill="white"/>
<path d="M9.05104 42.74C9.00004 42.969 8.94904 43.199 8.88404 43.498C8.35304 43.569 7.80104 43.589 7.28004 43.726C6.26904 43.992 5.81204 45.131 6.42804 45.97C6.83404 46.524 7.42704 46.94 7.96304 47.443C7.89104 47.965 7.51504 47.958 7.11804 47.803C6.82804 47.69 6.54704 47.528 6.29904 47.338C5.34804 46.613 4.82804 45.693 5.14404 44.464C5.41604 43.404 6.21704 42.865 7.68804 42.756C8.15704 42.722 8.63304 42.782 9.10504 42.799L9.05104 42.74Z" fill="white"/>
<path d="M14.0101 51.578C13.5521 51.357 13.0171 51.223 12.6511 50.897C11.9371 50.261 11.4451 49.449 11.2491 48.485C10.9801 47.168 11.5181 46.177 12.5471 45.432C12.7111 45.314 13.0721 45.466 13.5731 45.516C12.9861 46.622 11.9811 47.322 12.2841 48.581C12.5651 49.747 13.4561 50.397 14.0101 51.578Z" fill="white"/>
<path d="M11.3031 36.169C9.0901 34.053 8.3071 34.104 5.9931 36.425C5.5331 36.262 5.3481 35.912 5.6021 35.513C6.7991 33.629 8.2841 33.195 10.3061 34.102C10.6681 34.264 11.0141 34.467 11.3541 34.672C11.5551 34.793 11.7311 34.955 12.0051 35.164C11.7301 35.557 11.5221 35.854 11.3031 36.169Z" fill="white"/>
<path d="M16.347 45.535C15.627 45.945 15.119 45.501 14.665 45.08C14.116 44.571 13.894 43.894 13.943 43.138C14.006 42.182 14.578 41.536 15.284 40.989C15.642 40.713 16.016 40.305 16.491 40.824C16.499 40.913 16.544 41.025 16.508 41.065C14.555 43.232 14.554 43.232 16.347 45.535Z" fill="white"/>
<path d="M7.62303 40.037C6.24003 38.713 5.73803 38.428 3.96003 40.569C3.39103 40.481 3.35803 40.0751 3.58003 39.7121C4.57003 38.0891 6.31303 37.5591 7.58903 38.4711C8.13203 38.8591 8.21703 39.348 7.62303 40.037Z" fill="white"/>
<path d="M15.2681 33.084C14.7111 33.591 14.1461 34.104 13.4831 34.707C13.4251 33.568 13.9551 32.646 14.8261 32.139C15.3281 31.846 15.5741 31.928 17.1571 33.002C16.3701 33.036 15.8231 33.06 15.2681 33.084Z" fill="white"/>
<path d="M64.2631 42.752C64.9201 42.915 65.2271 43.44 65.0741 43.991C64.9731 44.355 64.4871 44.698 64.0941 44.878C63.2851 45.249 62.5291 44.964 61.9161 44.385C61.4111 43.907 61.2411 42.56 61.5991 41.909C61.8561 41.44 62.3461 41.309 62.8391 41.447C63.5501 41.646 64.1471 42.015 64.3231 42.816C63.7521 42.653 63.1801 42.489 62.5941 42.322C62.3921 43.732 62.5411 44.12 63.2641 44.227C63.8451 44.315 64.0401 44.026 64.2631 42.752Z" fill="white"/>
<path d="M83.8561 42.272C82.3431 41.969 81.7961 41.22 81.6341 40.133C81.5531 39.589 82.0421 39.085 82.6201 39.063C83.0771 39.044 83.3631 39.305 83.4461 39.719C83.5941 40.457 83.6881 41.205 83.8561 42.272Z" fill="white"/>
<path d="M57.563 42.934C57.359 43.078 57.008 43.501 56.792 43.442C56.207 43.279 55.621 42.98 55.152 42.594C54.919 42.403 54.798 41.8621 54.882 41.5481C55.015 41.0561 55.513 40.848 56.023 40.905C56.865 41 57.552 41.854 57.563 42.934Z" fill="white"/>
<path d="M9.78609 22.8201C10.8271 22.7121 11.3491 23.3021 11.8001 23.9711C12.1231 24.4511 11.8141 25.1311 11.2381 25.2921C10.0631 25.6201 9.21609 24.8311 9.48009 23.6371C9.54509 23.3461 9.69009 23.0701 9.78609 22.8201Z" fill="white"/>
</svg>
