<svg width="139" height="84" viewBox="0 0 139 84" fill="none" xmlns="http://www.w3.org/2000/svg">
<path d="M86.794 39.325C88.28 39.693 89.727 40.161 91.211 40.396C94.916 40.983 98.589 41.798 102.347 42.036C102.741 42.06 103.127 42.196 103.517 42.28C107.888 43.217 112.257 44.159 116.63 45.086C117.252 45.218 117.894 45.358 118.522 45.342C121.248 45.273 123.911 45.748 126.589 46.14C128.721 46.452 130.876 46.603 133.011 46.893C134.502 47.096 136.01 47.254 137.265 48.282C138.04 48.917 138.35 49.621 138.13 50.583C137.523 53.236 135.899 54.937 133.305 55.71C133.013 55.797 132.669 55.783 132.362 55.735C128.895 55.195 125.418 54.706 121.968 54.07C118.906 53.505 115.869 52.797 112.833 52.105C111.433 51.786 110.048 51.389 108.675 50.966C105.387 49.954 102.003 49.397 98.635 48.755C95.189 48.098 91.713 47.612 88.336 46.579C87.003 46.171 85.532 46.212 84.093 46.045C83.911 46.476 83.787 46.761 83.67 47.048C82.807 49.163 82.868 49.706 84.961 50.82C87.271 52.049 89.317 53.778 91.464 55.308C93.35 56.652 95.19 58.061 97.102 59.366C98.482 60.307 99.956 61.112 101.373 62C102.723 62.847 104.057 63.72 105.394 64.586C106.399 65.237 107.418 65.87 108.395 66.561C109.37 67.25 110.272 68.042 111.255 68.72C114.606 71.032 117.912 73.423 121.371 75.563C123.167 76.674 123.52 78.228 123.542 80.017C123.553 80.929 122.955 81.636 122.268 82.239C120.523 83.772 118.458 84.155 116.241 83.885C115.808 83.832 115.357 83.522 115.012 83.22C113.63 82.011 112.309 80.735 110.924 79.529C108.52 77.436 106.097 75.364 103.659 73.31C101.826 71.766 99.894 70.334 98.119 68.727C94.56 65.503 90.734 62.628 86.846 59.828C84.318 58.007 81.787 56.188 79.252 54.376C79.131 54.29 78.954 54.282 78.702 54.208C77.909 54.661 77.326 55.417 76.757 56.177C74.912 58.637 72.562 60.569 70.13 62.389C69.32 62.995 68.272 63.289 67.322 63.702C64.891 64.758 62.372 65.397 59.729 65.771C56.159 66.276 52.58 66.573 48.992 66.709C46.436 66.807 43.924 66.143 41.392 65.813C37.244 65.273 33.579 63.503 30.094 61.378C27.423 59.749 25.115 57.589 23.288 55.042C20.212 50.752 17.32 46.331 15.347 41.396C14.222 38.582 12.964 35.803 12.471 32.778C12.28 31.603 12.191 30.411 12.044 29.133C10.606 28.264 8.95497 27.975 7.34597 27.57C5.33497 27.064 3.32397 26.558 1.31097 26.063C0.795967 25.937 0.420966 25.682 0.402966 25.12C0.384966 24.569 0.759966 24.26 1.20597 24.033C2.26997 23.49 3.40797 23.612 4.49997 23.817C6.77697 24.244 9.03596 24.772 11.3 25.262C11.61 25.329 11.915 25.42 12.363 25.536C12.664 25.105 13.041 24.699 13.263 24.221C13.921 22.811 14.892 21.674 16.072 20.682C18.108 18.969 20.297 17.536 22.87 16.752C23.844 16.456 24.799 16.098 26.024 15.679C24.996 14.722 24.182 13.879 23.278 13.146C22.225 12.293 21.075 11.56 20 10.734C17.596 8.88502 15.174 7.05703 12.835 5.12703C11.655 4.15403 10.716 2.92703 10.521 1.32003C10.488 1.04603 10.601 0.638027 10.798 0.484027C11.004 0.322027 11.425 0.292029 11.69 0.384029C12.052 0.511029 12.362 0.797023 12.681 1.03302C15.312 2.97802 17.921 4.95502 20.578 6.86402C21.867 7.79002 23.257 8.57303 24.581 9.45303C25.377 9.98203 26.144 10.56 26.904 11.141C27.284 11.432 27.617 11.784 27.979 12.098C30.983 14.702 31.72 14.998 35.764 14.619C39.59 14.26 43.427 14.054 47.254 14.2C50.6 14.328 53.942 14.763 57.263 15.227C59.629 15.558 62 16.014 64.291 16.68C67.88 17.725 71.615 18.3 74.958 20.172C78.858 22.356 82.149 25.218 84.926 28.673C85.766 29.718 86.383 30.972 86.941 32.203C87.259 32.903 87.402 33.758 87.362 34.53C87.287 36.023 87.023 37.504 86.794 39.325ZM39.472 43.432C40.34 44.101 41.345 44.105 42.364 44.078C42.111 43.846 41.837 43.646 41.543 43.61C40.844 43.526 40.136 43.519 39.432 43.48C38.458 42.766 37.34 42.648 35.936 42.537C37.185 43.362 38.308 43.489 39.472 43.432ZM78.834 24.731C78.567 23.743 77.855 23.356 76.901 23.295C76.845 23.152 76.83 22.961 76.728 22.872C74.761 21.161 72.415 20.211 69.935 19.549C69.727 19.493 69.478 19.589 68.955 19.647C71.784 20.924 74.362 22.088 76.94 23.253C77.318 24.091 77.939 24.602 78.875 24.687C78.945 25.524 79.739 25.783 80.198 26.302C80.724 26.898 81.357 27.4 81.951 27.935C82.437 28.371 82.757 29.011 83.627 29.484C82.613 27.623 81.521 26.369 79.897 25.177C79.595 24.956 79.19 24.876 78.834 24.731ZM14.524 33.662C14.378 33.71 14.232 33.758 14.085 33.806C14.194 34.328 14.252 34.868 14.419 35.371C16.687 42.168 19.927 48.448 24.265 54.174C26.425 57.025 29.009 59.325 32.119 61.053C34.921 62.609 37.766 64.051 41.014 64.451C41.964 64.568 42.901 64.783 43.846 64.943C47.01 65.48 50.192 65.727 53.394 65.374C55.775 65.112 58.153 64.819 60.526 64.49C63.404 64.091 66.047 62.907 68.745 61.919C68.963 61.839 69.149 61.663 69.341 61.52C72.475 59.175 75.306 56.535 77.57 53.129C75.534 51.664 73.54 50.231 71.636 48.861C68.982 49.717 66.46 50.036 63.889 50.08C60.375 50.141 56.873 50.055 53.36 49.831C50.166 49.627 47.022 49.17 43.88 48.651C42.546 48.431 41.238 48.048 39.928 47.7C35.305 46.47 30.622 45.405 26.425 42.955C25.942 42.674 25.439 42.425 24.935 42.183C22.764 41.142 20.815 39.778 19.019 38.18C18.245 37.491 17.372 36.906 16.645 36.173C15.876 35.398 15.227 34.504 14.524 33.662ZM14.15 3.64603C14.03 3.77503 13.91 3.90402 13.789 4.03402C14.241 4.45502 14.663 4.91303 15.148 5.29203C17.786 7.34803 20.444 9.37902 23.086 11.43C24.601 12.607 26.096 13.81 27.605 14.995C29.804 16.723 32.004 18.448 34.208 20.169C35.09 20.858 35.955 21.574 36.875 22.209C43.845 27.021 50.761 31.906 57.438 37.123C59.515 38.746 61.616 40.34 63.762 41.868C65.974 43.443 68.299 44.861 70.498 46.452C74.897 49.638 79.238 52.904 83.615 56.121C86.635 58.34 89.934 60.193 92.521 62.973C92.573 63.029 92.643 63.09 92.714 63.105C93.964 63.371 94.733 64.339 95.66 65.083C95.94 65.308 96.318 65.409 96.681 65.581C97.479 64.341 98.193 63.233 98.919 62.104C97.605 61.1 96.428 60.149 95.199 59.272C92.412 57.281 89.606 55.316 86.794 53.361C85.945 52.771 85.055 52.24 84.176 51.693C82.008 50.343 79.8 49.052 77.675 47.637C75.219 46.002 72.853 44.234 70.414 42.575C69.226 41.766 67.938 41.105 66.732 40.322C63.053 37.933 59.374 35.544 55.729 33.104C53.011 31.285 50.329 29.412 47.664 27.514C45.973 26.309 44.391 24.948 42.68 23.775C39.847 21.834 36.925 20.024 34.088 18.09C31.912 16.606 29.802 15.024 27.675 13.469C26.065 12.293 24.482 11.081 22.87 9.90902C22.034 9.30202 21.141 8.77202 20.305 8.16502C18.245 6.67302 16.201 5.15403 14.15 3.64603ZM83.08 37.358C83.809 36.746 83.756 35.993 83.879 35.313C84.054 34.345 84.029 33.49 83.276 32.653C82.321 31.591 81.554 30.359 80.718 29.192C78.477 26.062 75.655 23.683 71.984 22.387C71.307 22.148 70.625 21.91 69.975 21.608C67.647 20.524 65.23 19.745 62.691 19.342C61.355 19.13 60.017 18.918 58.69 18.658C55.489 18.032 52.295 17.366 49.093 16.743C48.551 16.637 47.981 16.612 47.428 16.632C43.604 16.772 39.78 16.932 35.957 17.102C35.86 17.106 35.771 17.297 35.574 17.52C37.551 18.863 39.498 20.218 41.488 21.508C41.857 21.747 42.4 21.809 42.859 21.8C45.743 21.744 48.598 22.012 51.458 22.35C54.245 22.679 57.019 23.135 59.65 24.054C65.373 26.053 71.134 27.965 76.425 31.05C79.14 32.633 81.681 34.291 83.08 37.358ZM64.379 36.802C64.57 37.117 64.639 37.373 64.804 37.48C66.68 38.693 68.549 39.918 70.469 41.06C71.137 41.457 71.921 41.706 72.684 41.892C75.316 42.536 77.959 43.135 80.603 43.728C85.113 44.74 89.619 45.771 94.141 46.726C98.425 47.631 102.726 48.454 107.021 49.302C107.555 49.407 108.101 49.448 108.699 49.526C109.144 48.006 109.561 46.581 110.026 44.991C109.333 44.797 108.669 44.549 107.982 44.428C104.372 43.793 100.757 43.189 97.144 42.577C95.021 42.218 92.897 41.872 90.776 41.501C89.837 41.337 88.902 41.136 87.97 40.933C84.547 40.187 81.14 39.347 77.698 38.707C74.569 38.125 71.404 37.722 68.246 37.315C67.005 37.155 65.801 36.61 64.379 36.802ZM58.167 39.892C55.812 37.413 53.497 34.988 49.865 34.664C47.965 34.495 46.089 34.057 44.204 33.726C43.103 33.534 42 33.348 40.91 33.102C36.396 32.083 31.89 31.03 27.375 30.014C24.034 29.262 20.681 28.565 17.341 27.813C14.387 27.148 11.447 26.425 8.49397 25.755C7.48397 25.525 6.45797 25.356 5.43397 25.205C5.11197 25.157 4.76797 25.257 3.94197 25.336C4.67997 25.69 4.94097 25.888 5.22797 25.942C8.91697 26.636 12.484 27.792 16.102 28.758C21.498 30.199 26.961 31.381 32.372 32.77C37.315 34.039 42.235 35.405 47.149 36.785C50.222 37.648 53.263 38.623 56.325 39.525C56.923 39.701 57.552 39.772 58.167 39.892ZM30.015 18.316C28.71 18.674 27.67 19.057 26.597 19.236C23.055 19.825 20.291 21.756 17.811 24.196C17.242 24.756 16.785 25.408 17.101 26.363C18.576 26.965 20.166 27.141 21.472 26.351C23.335 25.223 25.328 24.499 27.315 23.691C28.901 23.046 30.491 22.712 32.192 22.725C33.012 22.731 33.876 22.845 34.97 22.443C33.117 20.9 31.487 19.543 30.015 18.316ZM121.267 52.45C123.901 53.666 126.857 53.529 129.591 54.313C130.291 54.514 131.157 54.69 131.898 54.156C131.641 51.991 132.206 50.077 133.899 48.226C130.081 47.652 126.557 47.163 123.023 47.044C121.47 48.539 120.949 50.278 121.267 52.45ZM107.41 74.553C108.29 76.09 109.866 76.694 111.02 77.777C112.152 78.839 113.063 80.187 114.642 80.702C116.025 77.898 116.025 77.898 119.066 75.691C118.721 75.355 118.43 74.968 118.049 74.717C116.323 73.58 114.586 72.46 112.826 71.375C111.446 70.525 111.43 70.552 109.696 70.784C108.584 70.932 107.969 71.442 107.713 72.528C107.567 73.142 107.522 73.779 107.41 74.553ZM31.566 40.979C29.699 39.562 24.148 38.097 20.943 38.115C21.491 38.827 22.131 39.262 22.834 39.628C24.318 40.4 25.849 41.099 27.275 41.967C30.885 44.163 34.939 45.093 38.941 46.174C39.284 46.267 39.935 46.233 40.032 46.045C40.393 45.351 40.871 45.481 41.442 45.594C41.852 45.675 42.284 45.647 42.706 45.667C41.23 45.044 39.78 44.172 38.182 45.198C38.066 45.273 37.857 45.271 37.715 45.228C35.893 44.684 34.073 44.127 32.26 43.554C32.221 43.542 32.255 43.297 32.255 43.376C32.531 42.765 33.223 43.665 33.387 42.697C32.414 42.406 31.438 42.102 30.455 41.824C29.533 41.564 28.599 41.344 27.677 41.084C26.739 40.82 25.627 40.957 24.696 39.807C27.206 39.633 29.195 40.884 31.566 40.979ZM107.256 67.538C106.024 66.6 104.999 65.863 104.026 65.063C103.3 64.467 102.561 64.517 101.789 64.859C100.713 65.337 99.991 66.182 99.595 67.261C99.478 67.581 99.529 68.156 99.745 68.372C100.896 69.524 102.062 70.683 103.791 71.555C103.943 69.385 105.506 68.611 107.256 67.538ZM114.686 45.817C113.574 46.553 113.009 47.402 112.668 48.397C112.329 49.386 112.671 50.578 113.489 50.876C114.73 51.329 116.007 51.799 117.497 51.404C117.597 50.583 117.645 49.802 117.799 49.042C117.954 48.279 118.215 47.538 118.413 46.848C118.285 46.705 118.243 46.611 118.183 46.597C117.033 46.335 115.88 46.082 114.686 45.817ZM122.152 79.432C122.093 79.147 122.043 78.665 121.893 78.217C121.574 77.261 121.058 77.003 120.047 77.186C118.532 77.459 117.4 78.24 116.721 79.642C116.291 80.528 115.891 81.536 116.58 82.339C117.244 83.113 118.334 83.008 119.284 82.799C120.67 82.494 122.139 80.818 122.152 79.432ZM32.73 37.243C32.237 37.022 31.763 36.729 31.248 36.592C27.019 35.465 22.783 34.369 18.552 33.249C18.363 33.199 18.212 33.008 18.01 32.858C18.956 32.358 19.094 32.28 19.509 32.399C20.962 32.816 22.409 33.253 23.853 33.699C24.704 33.962 25.522 34.426 26.855 34.071C24.612 33.303 22.734 32.662 20.857 32.015C20.144 31.769 19.435 31.51 18.642 31.227C17.591 31.728 17.32 32.579 17.805 33.829C22.733 35.008 27.46 37.003 32.73 37.243ZM34.887 39.03C35.575 39.505 35.749 39.712 35.959 39.758C38.299 40.262 40.643 40.747 42.99 41.221C43.296 41.282 43.64 41.327 43.932 41.25C45.76 40.765 47.57 41.037 49.383 41.322C50.724 41.533 52.065 41.745 53.408 41.936C54.167 42.044 54.94 42.207 55.805 41.684C55.414 41.515 55.145 41.332 54.855 41.284C52.416 40.87 49.977 40.448 47.526 40.108C46.836 40.012 46.052 40.027 45.414 40.267C44.67 40.545 44.04 40.434 43.327 40.284C40.985 39.789 38.632 39.341 36.279 38.899C36.007 38.847 35.706 38.947 34.887 39.03ZM28.243 17.448C28.015 16.765 27.599 16.865 27.213 16.922C24.001 17.388 21.046 18.538 18.415 20.428C16.592 21.739 15.08 23.35 14.193 25.791C14.656 25.683 15.069 25.7 15.139 25.554C15.957 23.833 17.396 22.74 18.821 21.562C21.096 19.681 23.622 18.475 26.508 17.95C27.093 17.842 27.658 17.62 28.243 17.448ZM63.236 46.111C60.99 45.497 58.713 45.258 56.398 45.252C55.462 45.249 54.519 44.995 53.594 44.792C51.037 44.23 48.49 43.627 45.933 43.064C45.587 42.988 45.21 43.054 44.847 43.054C50.769 45.477 56.909 46.41 63.236 46.111ZM29.022 35.006C31.036 35.588 32.603 36.215 34.229 36.474C37.383 36.975 40.57 37.276 43.745 37.641C44.061 37.678 44.392 37.59 44.716 37.56C42.602 36.627 40.476 35.987 38.331 35.417C37.81 35.278 37.127 35.176 36.691 35.397C35.396 36.054 34.214 35.641 32.969 35.327C31.836 35.042 30.699 34.605 29.022 35.006ZM64.26 27.585C62.544 26.347 60.676 25.481 58.678 24.998C56.695 24.519 54.744 23.756 52.675 23.87C53.652 24.449 54.588 25.008 55.529 25.558C55.799 25.715 56.07 25.913 56.366 25.976C58.995 26.527 61.628 27.052 64.26 27.585ZM133.126 52.453C133.267 52.752 133.378 53.237 133.673 53.549C134.059 53.958 134.581 53.741 134.989 53.48C136.043 52.806 136.723 51.849 136.977 50.615C137.106 49.988 136.721 49.389 136.193 49.339C134.947 49.222 133.882 49.93 133.505 51.134C133.386 51.514 133.284 51.9 133.126 52.453ZM51.449 28.053C51.408 28.2 51.367 28.347 51.326 28.494C51.564 28.661 51.782 28.92 52.045 28.98C53.352 29.277 54.677 29.499 55.985 29.791C57.528 30.136 59.059 30.537 60.601 30.887C61.097 31 61.561 30.938 61.68 30.301C60.084 29.504 56.588 28.554 53.276 28.066C52.68 27.978 52.059 28.053 51.449 28.053ZM46.854 42.044C51.96 43.493 57.103 44.558 62.384 44.794C62.524 44.8 62.668 44.71 63.089 44.574C60.508 43.848 58.202 43.696 55.903 43.485C55.273 43.427 54.588 43.438 54.032 43.186C52.313 42.408 50.444 42.438 48.654 42.062C48.079 41.941 47.456 42.044 46.854 42.044ZM18.221 35.499C19.117 36.315 19.585 36.637 20.701 36.66C22.163 36.689 23.496 37.153 24.859 37.562C26.3 37.995 27.746 38.412 29.203 38.788C29.623 38.896 30.14 38.961 30.327 38.301C28.946 37.884 27.593 37.432 26.215 37.071C24.916 36.732 23.596 36.465 22.276 36.212C20.948 35.958 19.761 34.834 18.221 35.499ZM28.182 24.997C32.68 25.871 36.89 26.69 41.103 27.493C41.199 27.511 41.33 27.343 41.559 27.181C41.26 26.995 41.027 26.756 40.754 26.696C39.437 26.406 38.111 26.158 36.786 25.907C35.38 25.641 33.977 25.34 32.56 25.15C31.768 25.044 31.015 25.026 30.326 24.488C29.693 23.996 29.003 24.149 28.182 24.997ZM81.474 48.599C82.387 47.726 82.894 46.771 82.787 45.502C81.123 44.957 79.774 45.292 78.433 46.369C79.231 47.484 80.28 48.08 81.474 48.599ZM26.95 26.267C30.713 27.059 34.028 27.771 37.349 28.447C38.515 28.684 39.698 28.841 40.877 29.011C41.017 29.031 41.18 28.897 41.464 28.78C37.456 27.451 29.977 26.115 26.95 26.267ZM62.868 31.978C65.602 32.982 68.446 33.365 71.218 34.045C71.288 34.063 71.416 33.843 71.642 33.6C69.755 32.435 67.607 32.282 65.59 31.744C64.692 31.503 63.776 31.275 62.868 31.978ZM69.923 35.038C69.139 34.639 68.889 34.442 68.61 34.381C66.979 34.026 65.308 33.813 63.714 33.338C62.135 32.867 60.697 33.125 58.956 33.656C59.707 34.082 60.23 34.417 60.789 34.674C60.968 34.757 61.395 34.707 61.447 34.596C62.029 33.345 63.018 33.853 63.887 34.028C65.367 34.327 66.83 34.711 68.307 35.027C68.638 35.099 68.996 35.038 69.923 35.038ZM56.496 48.493C53.569 47.676 50.683 46.975 47.459 47.371C47.78 47.676 47.916 47.923 48.095 47.959C50.881 48.521 53.683 48.903 56.496 48.493ZM84.176 38.567C84.668 38.567 85.03 38.676 85.217 38.542C85.516 38.329 85.865 37.973 85.904 37.643C86.122 35.76 86.338 33.857 85.555 32.037C85.422 31.726 85.152 31.473 84.69 30.85C84.69 31.783 84.493 32.433 84.734 32.767C85.153 33.347 85.123 33.923 85.197 34.543C85.362 35.93 84.724 37.126 84.176 38.567ZM109.194 69.506C109.234 69.315 109.266 69.169 109.264 69.169C106.735 68.562 105.247 69.672 105.237 72.184C105.236 72.579 105.33 72.983 106.054 72.844C106.537 71.259 107.426 69.896 109.194 69.506ZM42.026 42.666C42.062 42.496 42.098 42.326 42.134 42.156C41.71 41.98 41.299 41.706 40.859 41.646C39.067 41.402 37.363 40.621 35.509 40.782C35.469 40.785 35.438 40.894 35.239 41.229C37.508 41.968 39.722 42.513 42.026 42.666ZM73.188 32.765C74.979 33.287 76.69 33.786 78.403 34.285C77.461 33.012 76.231 32.262 74.961 31.634C74.382 32.003 73.867 32.332 73.188 32.765ZM121.205 46.765C119.507 47.125 119.468 48.206 119.161 49.023C118.812 49.951 118.473 50.944 119.359 52.039C120.322 50.423 120.234 48.657 121.205 46.765ZM73.877 31.302C72.068 29.797 70.383 29.307 68.388 29.772C69.348 30.835 70.776 31.247 73.877 31.302ZM44.229 38.928C41.853 38.039 38.871 37.633 37.191 38.025C39.458 38.367 41.618 39.492 44.229 38.928ZM81.112 36.569C79.429 35.369 77.81 35.294 76.313 34.868C76.049 34.793 75.732 34.901 75.44 34.925C75.503 35.822 75.973 36.127 76.688 36.185C78.013 36.293 79.338 36.414 81.112 36.569ZM16.969 30.586C16.008 30.093 15.321 29.383 14.146 29.903C14.326 30.353 14.435 30.732 14.622 31.067C14.928 31.615 15.284 32.135 15.629 32.682C15.819 32.511 15.964 32.431 16.036 32.308C16.313 31.83 16.566 31.336 16.969 30.586ZM57.552 47.312C60.235 47.898 63.311 47.925 65.289 47.503C63.275 47.032 59.705 46.885 57.552 47.312ZM98.153 66.826C98.857 65.458 100.353 64.766 101.089 63.231C100.007 63.096 99.432 63.612 98.926 64.223C98.326 64.947 97.82 65.72 98.153 66.826ZM110.637 50.294C111.554 49.31 111.482 48.477 111.613 47.734C111.751 46.946 112.467 46.348 112.475 45.336C111.009 46.033 110.61 47.257 110.243 48.427C110.11 48.85 110.435 49.416 110.637 50.294ZM58.802 31.675C57.373 30.829 56.154 30.654 54.764 30.943C55.669 31.5 56.574 32.057 57.67 32.732C58.01 32.414 58.338 32.108 58.802 31.675ZM50.968 39.442C48.918 38.423 48.35 38.284 46.871 38.443C47.564 39.541 48.16 39.686 50.968 39.442ZM55.873 16.703C58.279 17.544 60.372 17.495 62.417 17.767C60.69 17.246 58.934 16.887 57.17 16.563C56.896 16.513 56.594 16.619 55.873 16.703ZM38.318 24.863C36.687 23.717 35.002 24.019 33.382 23.988C34.791 24.444 36.227 24.782 37.667 25.1C37.781 25.125 37.925 25.011 38.318 24.863ZM63.033 29.19C63.506 30.742 64.493 31.185 65.98 30.689C64.787 30.626 64.519 29.041 63.033 29.19ZM26.152 32.366C27.384 33.451 28.584 33.703 30.32 33.538C28.874 33.131 27.513 32.749 26.152 32.366ZM64.144 18.214C64.745 18.39 65.348 18.557 65.946 18.745C66.527 18.927 67.101 19.129 67.678 19.322C66.057 18.112 66.057 18.112 64.144 18.214ZM25.365 27.565C24.978 26.806 24.407 26.549 23.227 26.962C24.233 27.246 24.799 27.405 25.365 27.565ZM51.85 26.334C52.382 27.118 53.043 27.164 53.788 26.734C53.141 26.6 52.496 26.467 51.85 26.334ZM69.575 48.208C69.61 47.292 69.222 46.944 68.067 47.061C68.79 47.611 69.183 47.909 69.575 48.208ZM50.866 46.157C50.866 46.085 50.865 46.013 50.865 45.942C50.307 45.942 49.749 45.942 49.191 45.942C49.191 46.014 49.192 46.085 49.192 46.157C49.751 46.157 50.309 46.157 50.866 46.157ZM72.68 36.561C72.023 36.278 71.549 35.898 70.978 36.561C71.541 36.561 72.02 36.561 72.68 36.561Z" fill="white"/>
</svg>
