<svg width="101" height="46" viewBox="0 0 101 46" fill="none" xmlns="http://www.w3.org/2000/svg">
<path d="M92.233 37.5381C94.127 39.6061 96.612 40.298 99.345 40.712C99.009 40.865 98.683 41.127 98.337 41.154C96.154 41.329 94.219 40.6301 92.589 39.2161C91.548 38.3131 90.584 37.3 89.701 36.24C88.642 34.967 87.708 33.589 86.71 32.264C86.59 32.104 86.408 31.9911 86.163 31.7751C85.553 32.5431 84.961 33.287 84.338 34.071C84.486 34.748 84.683 35.4081 84.763 36.0821C84.827 36.6321 84.741 37.1761 84.202 37.5511C83.353 38.1441 82.543 38.7901 81.696 39.3851C81.359 39.6211 80.988 39.8401 80.599 39.9671C79.032 40.4781 77.452 40.931 76.029 41.823C75.668 42.049 75.077 42.014 74.614 41.948C73.544 41.793 72.552 42.0211 71.569 42.3841C69.767 43.0481 67.926 43.194 66.065 42.71C65.211 42.488 64.418 42.564 63.641 42.922C62.523 43.437 61.356 43.53 60.191 43.214C59.193 42.942 58.264 43.0701 57.36 43.4711C56.328 43.9281 55.277 44.1811 54.138 44.1051C53.159 44.0401 52.259 44.267 51.361 44.75C49.594 45.699 47.711 46.0981 45.774 45.2171C44.955 44.8441 44.155 45.0061 43.33 45.1091C41.437 45.3461 39.628 45.2071 37.97 44.0781C37.49 43.7511 36.811 43.6971 36.214 43.5651C35.136 43.3281 33.91 43.3741 32.998 42.8571C31.396 41.9481 29.763 41.422 27.947 41.319C26.927 41.261 26.088 40.742 25.44 39.989C24.904 39.366 24.272 39.132 23.483 38.988C22.61 38.828 21.783 38.425 20.936 38.128C20.05 37.817 19.382 37.244 18.889 36.451C18.551 35.907 18.112 35.533 17.46 35.338C15.621 34.788 14.047 33.8481 13.059 32.1071C12.86 31.7561 12.529 31.4801 12.25 31.1601C11.501 31.3861 11.17 32.023 10.76 32.556C9.58602 34.084 8.08403 34.9221 6.12503 34.8711C5.78003 34.8621 5.43304 34.905 5.08904 34.947C3.22104 35.176 1.68004 34.613 0.436035 32.987C0.675035 32.703 0.882037 32.351 1.18204 32.118C2.29604 31.255 3.17903 30.206 3.84703 28.973C4.96703 26.91 6.09103 24.875 6.83403 22.607C7.53803 20.458 8.57603 18.397 10.216 16.715C11.229 15.676 12.111 14.511 13.084 13.433C15.571 10.677 18.611 8.62605 21.768 6.74105C24.514 5.10105 27.585 4.19705 30.508 2.95405C32.471 2.11905 34.472 1.81405 36.565 1.77605C37.318 1.76205 38.117 1.73505 38.813 1.48505C40.468 0.89105 42.197 0.786048 43.905 0.579048C44.925 0.456048 45.978 0.58205 47.014 0.63105C48.187 0.68705 49.358 0.847049 50.53 0.849049C52.529 0.852049 54.528 0.753051 56.527 0.727051C57.077 0.720051 57.633 0.78805 58.176 0.88105C60.553 1.28705 62.959 1.36505 65.324 2.02405C71.957 3.86905 77.919 6.97705 83.347 11.141C84.426 11.968 85.347 13.054 86.172 14.148C87.629 16.079 88.934 18.1241 90.348 20.0881C90.911 20.8711 91.525 21.6441 92.235 22.2901C94.306 24.1751 95.565 26.465 96.042 29.222C96.194 30.103 96.494 30.96 96.749 31.822C97.024 32.749 97.422 33.6511 97.594 34.5951C97.92 36.3791 98.672 37.866 100.145 38.961C100.251 39.04 100.323 39.169 100.397 39.282C100.43 39.334 100.43 39.407 100.448 39.478C100.253 39.934 99.878 40.169 99.483 39.836C98.424 38.943 97.403 38.006 97.101 36.542C96.948 35.798 96.729 35.066 96.501 34.34C96.279 33.635 96.207 32.864 95.646 32.131C94.615 32.923 94.117 33.958 93.703 35.044C93.531 35.495 93.404 35.965 93.289 36.435C93.14 37.037 92.73 37.3671 92.189 37.5801C92.462 35.5171 92.975 33.5491 94.345 31.8961C94.648 31.5301 94.901 31.1081 95.099 30.6761C95.197 30.4641 95.117 30.1701 95.117 29.8581C94.003 30.3921 93.793 30.4741 93.364 31.2581C92.774 32.3351 92.276 33.465 91.776 34.589C91.528 35.149 91.199 35.513 90.544 35.451C91.331 32.702 92.236 30.027 94.983 28.534C94.352 26.425 93.403 24.61 91.849 23.1521C91.096 22.4461 90.307 21.78 89.497 21.063C88.716 21.576 88.442 22.473 87.96 23.211C86.737 25.083 86.401 27.1711 86.518 29.3561C86.539 29.7561 86.564 30.2181 86.768 30.5361C87.881 32.2791 88.932 34.0801 90.59 35.3971C91.139 36.1121 91.686 36.8251 92.233 37.5381ZM66.684 26.5101C67.216 26.6321 67.404 26.9351 67.06 27.3971C66.548 28.0841 65.829 28.4781 65.029 28.7721C62.746 29.6151 60.851 28.518 58.915 27.601C58.43 26.528 57.482 26.7061 56.591 26.7491C55.144 26.8181 53.699 26.9041 52.252 26.9711C51.284 27.0161 50.315 27.038 49.347 27.075C48.803 27.096 48.26 27.127 47.678 27.156C46.45 29.363 44.524 29.452 42.427 28.922C41.829 28.771 41.259 28.4981 40.692 28.2451C40.515 28.1661 40.334 27.997 40.257 27.824C40.189 27.673 40.227 27.4441 40.291 27.2771C40.322 27.1951 40.545 27.107 40.637 27.142C41.088 27.311 41.509 27.5711 41.968 27.7021C42.761 27.9281 43.567 28.1581 44.383 28.2451C45.138 28.3261 45.787 28.0271 46.219 27.1091C44.537 26.9691 43.03 26.7311 41.524 26.7451C39.559 26.7641 37.664 26.476 35.803 25.905C33.621 25.236 31.46 24.499 29.274 23.843C27.318 23.257 25.501 23.6151 23.794 24.6931C24.571 26.3621 26.167 25.615 27.488 26.114C27.211 26.433 27.085 26.7141 26.884 26.7871C25.858 27.1611 24.865 27.124 23.911 26.492C23.35 26.12 22.724 25.8471 22.171 25.5531C21.337 26.0501 20.554 26.335 19.877 27.101C20.347 27.384 20.712 27.686 21.132 27.834C21.581 27.993 22.086 27.9821 22.556 28.0911C22.902 28.1721 23.197 28.3511 23.095 28.7991C21.67 29.2091 21.127 29.0851 18.282 27.6501C16.904 28.8291 14.721 28.736 13.307 30.45C13.658 30.721 13.938 31.11 14.268 31.159C15.08 31.279 15.915 31.222 16.738 31.281C16.954 31.296 17.16 31.47 17.396 31.584C16.86 32.568 15.826 32.244 15.119 32.766C15.558 33.516 16.29 33.7791 16.976 34.0541C17.739 34.3601 18.541 34.5691 19.192 34.7771C20.515 37.6281 22.916 38.0131 25.608 37.9561C26.264 39.9491 27.815 40.5101 29.694 40.4561C30.7 40.4281 31.589 40.568 32.339 41.362C32.923 41.981 33.761 42.211 34.599 42.31C35.354 42.399 36.116 42.4591 36.876 42.4801C37.448 42.4951 37.95 42.595 38.412 42.977C40.058 44.339 41.972 44.392 43.917 43.923C44.644 43.748 45.263 43.745 45.907 44.089C47.849 45.125 49.659 44.6641 51.386 43.5531C51.634 43.3941 51.781 43.0791 51.946 42.8731C51.258 41.8521 49.794 41.8981 49.46 40.5121C49.797 40.4931 50.088 40.3941 50.299 40.4841C50.74 40.6711 51.129 40.977 51.557 41.201C52.675 41.786 53.798 42.3391 55.094 41.6641C55.236 41.5901 55.481 41.7151 55.733 41.7571C55.686 42.1181 55.644 42.437 55.59 42.853C55.875 42.826 56.202 42.8931 56.39 42.7621C57.761 41.8011 59.242 41.853 60.767 42.21C61.684 42.424 62.576 42.315 63.39 41.876C64.432 41.313 65.408 41.2521 66.541 41.7181C68.08 42.3491 69.808 42.3171 71.158 41.4571C72.22 40.7811 73.126 40.677 74.238 40.876C75.158 41.041 76.035 40.9351 76.748 40.2321C77.271 39.7161 77.939 39.6201 78.632 39.4821C79.361 39.3351 80.215 39.139 80.709 38.654C81.37 38.003 82.076 37.5451 82.897 37.1771C83.475 36.9191 83.661 36.3871 83.558 35.7901C83.501 35.4561 83.366 35.128 83.218 34.82C82.905 34.166 83.029 33.6171 83.545 33.1331C83.746 32.9441 83.969 32.7731 84.148 32.5631C84.897 31.6811 84.837 30.5831 83.968 29.8171C83.66 29.5471 83.275 29.363 82.913 29.159C80.972 28.06 78.861 27.3801 76.746 26.7211C75.629 26.3721 74.505 25.9601 73.354 25.8181C71.574 25.5991 69.768 25.5021 67.975 25.5111C66.182 25.5201 64.388 25.6861 62.601 25.8551C61.713 25.9391 60.84 26.1801 59.96 26.3551C59.896 26.3681 59.815 26.4041 59.786 26.4551C59.756 26.5071 59.779 26.59 59.779 26.655C62.457 28.528 63.912 28.4981 66.684 26.5101ZM54.992 25.687C56.387 25.885 57.606 25.6311 58.835 25.4421C60.391 25.2041 61.896 24.632 63.527 24.837C64.017 24.898 64.556 24.573 65.104 24.416C64.852 21.979 64.564 19.6621 64.386 17.3371C64.206 14.9821 64.362 12.6311 64.924 10.3311C65.476 8.07305 66.096 5.83205 66.678 3.61405C64.095 2.14005 58.206 1.30705 55.224 2.00105C54.33 3.88205 53.847 5.96005 53.574 8.08105C53.337 9.92805 53.264 11.7731 53.432 13.6571C53.64 15.9901 53.511 18.3511 53.548 20.7001C53.576 22.4541 53.878 24.138 54.992 25.687ZM52.152 25.671C52.177 25.611 52.231 25.548 52.223 25.493C52.179 25.155 52.165 24.8051 52.061 24.4851C51.02 21.3041 50.656 18.021 50.47 14.697C50.276 11.243 50.096 7.80505 51.071 4.41905C51.294 3.64405 51.347 2.82005 51.486 1.97205C51.133 1.88005 50.875 1.76805 50.61 1.75205C48.818 1.64505 47.025 1.50005 45.231 1.48405C44.064 1.47405 42.892 1.64705 41.726 1.76705C41.188 1.82305 40.832 2.14705 40.782 2.70205C40.706 3.52705 40.789 4.38605 40.591 5.17805C39.896 7.95805 40.04 10.803 39.823 13.618C39.552 17.136 40.314 20.4801 41.694 23.7001C41.988 24.3841 42.29 25.063 42.548 25.653C44.584 26.053 50.424 26.044 52.152 25.671ZM36.854 2.93605C35.84 2.93605 34.889 2.73105 34.083 2.98605C32.991 3.33205 31.848 3.47005 30.781 3.89905C29.886 4.25805 28.978 4.62305 28.042 4.83905C27.071 5.06405 26.629 5.64705 26.518 6.55305C26.375 7.71805 26.189 8.88605 26.166 10.056C26.124 12.205 26.473 14.321 26.845 16.437C27.135 18.085 27.615 19.653 28.207 21.21C28.587 22.208 29.227 22.8491 30.204 23.1451C33.047 24.0071 35.898 24.8441 38.754 25.6621C39.048 25.7471 39.396 25.64 39.889 25.612C39.66 25.026 39.546 24.562 39.316 24.166C36.294 18.9731 35.83 13.314 36.286 7.49605C36.403 6.00205 36.653 4.51605 36.854 2.93605ZM77.517 25.765C77.609 25.267 77.754 24.868 77.742 24.473C77.702 23.23 77.558 21.9911 77.539 20.7481C77.514 19.1651 77.449 17.566 77.625 16C77.865 13.855 78.739 11.9091 80.16 10.0961C77.33 7.96605 74.349 6.30605 71.012 5.10405C70.777 5.36605 70.521 5.59205 70.336 5.86705C69.283 7.43205 68.598 9.16705 68.119 10.9761C67.207 14.4221 67.139 17.949 67.234 21.482C67.262 22.506 67.462 23.5111 67.797 24.5221C69.468 24.5721 71.065 24.499 72.627 24.701C74.246 24.911 75.831 25.387 77.517 25.765ZM25.871 22.564C25.009 20.103 24.155 17.714 23.336 15.314C22.474 12.786 22.967 10.1391 22.811 7.44305C22.431 7.51605 22.125 7.49005 21.932 7.62605C19.841 9.08805 17.75 10.551 15.697 12.065C14.512 12.938 14.234 14.111 14.658 15.542C15.33 17.808 16.225 19.974 17.5 21.952C18.348 23.267 19.315 24.5421 20.775 24.9811C22.559 24.1351 24.172 23.37 25.871 22.564ZM83.804 28.365C84.242 26.265 84.443 24.389 85.047 22.655C85.651 20.921 86.656 19.3281 87.497 17.6521C86.645 15.7141 85.062 14.323 83.742 12.737C83.586 12.549 83.28 12.487 82.915 12.301C82.533 12.948 82.123 13.502 81.857 14.118C80.775 16.626 80.3 19.2601 80.313 21.9901C80.32 23.4911 80.274 24.993 80.25 26.668C81.279 27.16 82.451 27.719 83.804 28.365ZM17.644 26.669C17.432 26.398 17.364 26.269 17.26 26.186C14.576 24.043 12.81 21.2971 11.847 18.0121C11.76 17.7161 11.525 17.4641 11.303 17.1011C9.68402 18.4211 9.02802 20.183 8.23402 21.85C8.15602 22.014 8.18404 22.256 8.22704 22.447C8.67104 24.393 9.54903 26.0741 11.274 27.1921C12.019 27.6741 12.802 28.0961 13.464 28.4851C15.035 28.1811 16.38 27.698 17.644 26.669ZM38.039 2.70705C37.835 3.95005 37.642 5.16905 37.434 6.38505C36.76 10.325 36.884 14.2341 37.856 18.1161C38.467 20.5561 39.634 22.7581 40.752 24.9821C40.856 25.1891 41.085 25.333 41.282 25.532C41.685 24.886 41.234 24.521 41.039 24.112C39.747 21.396 38.855 18.596 38.971 15.531C39.107 11.941 38.928 8.33405 39.712 4.78505C39.87 4.06905 39.898 3.29105 39.379 2.54305C38.953 2.59505 38.556 2.64405 38.039 2.70705ZM6.31802 26.585C5.62502 27.777 5.06503 28.8851 4.36703 29.8981C3.66903 30.9121 2.83303 31.8321 2.00603 32.8561C3.36103 34.5191 5.23703 33.796 6.82603 33.695C8.62803 33.58 9.93503 32.367 10.75 30.614C9.94603 30.001 9.13903 29.464 8.42703 28.819C7.72003 28.179 7.10802 27.432 6.31802 26.585ZM68.229 3.95405C67.081 5.03605 66.834 6.45005 66.475 7.73505C65.426 11.4771 64.875 15.31 65.353 19.195C65.565 20.917 65.591 22.7311 66.573 24.291C66.496 22.936 66.21 21.604 66.171 20.265C66.132 18.895 66.302 17.5151 66.441 16.1441C66.573 14.8421 66.719 13.535 66.977 12.253C67.247 10.911 67.419 9.53805 68.073 8.28705C68.7 7.08905 69.243 5.84805 69.878 4.51205C69.225 4.29205 68.729 4.12405 68.229 3.95405ZM52.445 20.8731C52.513 20.4931 52.649 20.1121 52.638 19.7341C52.576 17.4561 52.52 15.1751 52.387 12.9001C52.204 9.75205 52.661 6.69605 53.528 3.68205C53.693 3.10505 53.802 2.51305 53.925 1.97705C53.276 1.50005 52.842 1.75205 52.696 2.26705C52.261 3.79105 51.799 5.32305 51.568 6.88405C51.359 8.30405 50.974 9.72505 51.257 11.208C51.436 12.148 51.494 13.1281 51.469 14.0871C51.411 16.3771 51.714 18.6211 52.445 20.8731ZM78.613 26.0131C79.308 25.9871 79.384 25.545 79.393 25.139C79.42 23.97 79.447 22.7961 79.389 21.6291C79.295 19.7431 79.554 17.921 80.181 16.146C80.748 14.541 81.317 12.9361 81.924 11.2211C81.632 11.0521 81.298 10.8591 81.022 10.6991C79.351 12.4541 78.578 14.5171 78.515 16.7561C78.43 19.8371 78.57 22.9251 78.613 26.0131ZM27.351 22.203C26.518 19.675 25.78 17.1571 25.566 14.5401C25.348 11.8611 25.313 9.16705 25.195 6.41305C24.961 6.41305 24.706 6.41305 24.324 6.41305C24.117 7.88005 23.729 9.30905 23.755 10.731C23.797 13.083 24.265 15.406 25.061 17.633C25.637 19.242 26.227 20.858 27.351 22.203ZM19.177 25.8711C19.248 25.7341 19.319 25.597 19.39 25.46C17.852 24.139 16.524 22.6671 15.739 20.7831C14.951 18.8911 14.127 17.014 13.319 15.132C12.44 15.554 12.336 15.649 12.505 16.424C12.934 18.388 13.584 20.27 14.656 21.993C15.587 23.49 16.807 24.686 18.277 25.631C18.526 25.791 18.875 25.7941 19.177 25.8711ZM85.167 29.0651C85.793 28.7691 85.703 28.2991 85.66 27.9291C85.458 26.1871 85.965 24.6561 86.917 23.2261C87.339 22.5931 87.726 21.9341 88.092 21.2681C88.453 20.6111 88.818 19.9351 88.428 19.1441C87.443 19.1391 87.303 19.9431 86.994 20.5051C85.541 23.1531 84.904 25.9751 85.167 29.0651ZM12.636 29.2451C11.636 28.5571 10.99 28.165 10.405 27.697C9.87203 27.27 9.38702 26.778 8.91302 26.283C8.43202 25.782 8.14903 25.0771 7.45503 24.6901C7.03903 26.1241 7.95702 26.913 8.65002 27.671C9.51402 28.615 10.513 29.5041 11.901 29.6371C12.065 29.6531 12.25 29.4591 12.636 29.2451Z" fill="white"/>
<path d="M48.894 42.118C46.449 43.681 45.2751 43.5181 42.4321 41.3091C40.3731 41.6281 38.3401 41.6911 36.7791 39.9191C36.9201 39.3971 37.301 39.3161 37.586 39.5381C39.108 40.7221 40.745 40.7611 42.387 40.0881C43.149 40.6111 43.796 41.1301 44.509 41.5281C45.502 42.0841 46.56 42.3481 47.681 41.8391C48.063 41.6661 48.456 41.577 48.894 42.118Z" fill="white"/>
<path d="M75.354 33.9991C78.352 36.0241 79.8 35.8451 81.909 34.3371C82.113 34.5371 82.334 34.7511 82.599 35.0111C82.339 35.2111 82.188 35.3321 82.032 35.4461C80.133 36.8311 78.113 36.7611 76.208 35.6251C75.344 35.1101 74.571 35.0211 73.678 35.1381C72.694 35.2671 71.748 35.1791 70.85 34.7291C70.726 34.6671 70.596 34.6191 70.474 34.5541C70.15 34.3811 69.861 34.1251 70.088 33.7581C70.179 33.6121 70.577 33.5631 70.805 33.6111C71.542 33.7671 72.256 34.0891 72.996 34.1571C73.736 34.2261 74.496 34.0671 75.354 33.9991Z" fill="white"/>
<path d="M59.246 35.5261C59.644 35.5261 60.049 35.4781 60.437 35.5371C61.066 35.6331 61.643 35.5711 62.256 35.3691C63.03 35.1141 63.885 34.9501 64.651 35.3501C66.056 36.0841 67.297 35.8591 68.486 34.9071C68.576 34.8341 68.735 34.8461 68.864 34.8191C69.258 35.0941 69.129 35.4241 68.885 35.6751C67.881 36.7041 66.645 36.9771 65.282 36.6281C64.685 36.4751 64.119 36.2031 63.404 35.9341C62.078 36.4231 60.609 37.2131 59.197 36.0181C59.213 35.8541 59.229 35.6901 59.246 35.5261Z" fill="white"/>
<path d="M26.451 36.885C25.331 36.949 24.649 37.044 23.972 37.017C22.235 36.947 20.486 35.546 20.023 33.88C19.987 33.75 20.156 33.525 20.286 33.403C20.351 33.341 20.581 33.361 20.665 33.43C20.868 33.6 21.065 33.798 21.201 34.024C21.978 35.32 23.082 35.982 24.619 35.891C24.954 35.871 25.318 35.909 25.628 36.026C25.837 36.105 25.975 36.371 26.451 36.885Z" fill="white"/>
<path d="M54.417 29.223C55.032 29.801 55.132 30.154 54.762 30.563C53.941 31.471 52.888 32.004 51.678 31.987C50.373 31.968 49.098 31.691 48.093 30.779C48.178 30.221 48.524 30.24 48.866 30.33C49.264 30.434 49.642 30.611 50.041 30.707C51.806 31.134 53.452 31.164 54.417 29.223Z" fill="white"/>
<path d="M74.995 28.392C75.001 28.653 75.114 29.003 74.989 29.207C74.822 29.478 74.491 29.673 74.194 29.835C72.299 30.871 69.752 30.417 68.229 28.782C68.357 28.337 68.701 28.36 69.04 28.445C69.235 28.494 69.413 28.615 69.596 28.708C71.188 29.522 72.745 29.631 74.253 28.502C74.358 28.423 74.499 28.386 74.629 28.35C74.69 28.333 74.765 28.362 74.995 28.392Z" fill="white"/>
<path d="M74.6521 39.1371C72.9831 39.1371 71.5941 38.4871 70.4521 37.2991C70.3471 37.1891 70.3181 36.8801 70.3971 36.7541C70.4771 36.6271 70.7631 36.5221 70.9101 36.5661C71.1591 36.6421 71.3871 36.8241 71.5941 36.9971C72.8511 38.0431 74.2521 38.3511 75.8221 37.8591C76.0141 37.7991 76.2211 37.7481 76.4181 37.7551C76.5211 37.7591 76.6661 37.8801 76.7061 37.9821C76.7481 38.0871 76.7331 38.2751 76.6631 38.3571C76.1401 38.9741 75.7041 39.1331 74.6521 39.1371Z" fill="white"/>
<path d="M69.7401 38.2671C69.6841 38.7301 69.7441 39.0511 69.6131 39.1831C68.6941 40.1121 67.5811 40.6321 66.2641 40.3291C65.3321 40.1151 64.4271 39.7661 63.5351 39.4141C63.3731 39.3501 63.3301 38.9841 63.2321 38.7571C63.4711 38.7011 63.7231 38.5671 63.9451 38.6061C64.3461 38.6781 64.7401 38.8261 65.1161 38.9901C66.3341 39.5231 67.5001 39.5221 68.6351 38.7581C68.8961 38.5821 69.2171 38.4951 69.7401 38.2671Z" fill="white"/>
<path d="M23.8541 31.2621C22.5941 32.3511 21.4961 32.1631 20.4771 31.8671C19.3841 31.5491 18.5921 30.7491 18.1521 29.6881C18.0691 29.4881 18.3191 29.1511 18.4371 28.8151C19.2771 29.5411 19.9021 30.3381 20.7221 30.7181C21.5341 31.0981 22.5411 31.0581 23.8541 31.2621Z" fill="white"/>
<path d="M27.9601 27.6801C28.2261 27.6451 28.5071 27.5251 28.7231 27.5971C29.1761 27.7491 29.6061 27.9821 30.0241 28.2191C31.0321 28.7901 32.0531 29.0461 33.1841 28.5621C33.3741 28.4811 33.7931 28.5601 33.8861 28.7051C34.1011 29.0451 33.8841 29.3691 33.5591 29.5521C32.6581 30.0591 31.6711 30.0901 30.7671 29.6991C29.8291 29.2931 28.9751 28.6911 28.0961 28.1551C28.0151 28.1061 28.0221 27.9111 27.9601 27.6801Z" fill="white"/>
<path d="M75.196 30.627C75.447 30.399 75.53 30.274 75.644 30.234C75.761 30.192 75.944 30.179 76.036 30.243C77.794 31.461 79.624 31.326 81.439 30.483C82.053 31.105 81.622 31.456 81.183 31.618C79.378 32.289 77.581 32.415 75.892 31.257C75.671 31.107 75.49 30.897 75.196 30.627Z" fill="white"/>
<path d="M59.6811 38.102C57.4201 39.938 55.4011 39.948 53.2461 38.082C53.5441 37.969 53.7801 37.791 53.9871 37.82C54.3191 37.865 54.6251 38.075 54.9551 38.167C56.1781 38.508 57.3871 38.705 58.5191 37.854C58.8641 37.594 59.2671 37.496 59.6811 38.102Z" fill="white"/>
<path d="M51.027 33.856C50.959 34.169 50.993 34.578 50.81 34.733C50.457 35.033 50.005 35.278 49.556 35.389C48.009 35.77 45.895 34.899 45.01 33.563C44.955 33.48 44.982 33.284 45.046 33.196C45.114 33.103 45.306 33 45.386 33.034C45.758 33.197 46.134 33.371 46.466 33.603C47.766 34.511 49.079 34.82 50.477 33.812C50.557 33.754 50.733 33.828 51.027 33.856Z" fill="white"/>
<path d="M61.698 30.27C61.788 30.847 61.914 31.12 61.85 31.338C61.626 32.103 61.111 32.644 60.393 32.993C59.168 33.589 57.285 33.467 55.855 32.693C55.898 32.234 56.22 32.151 56.584 32.202C56.991 32.259 57.387 32.416 57.794 32.452C59.11 32.568 60.262 32.267 61.018 31.059C61.123 30.891 61.278 30.753 61.698 30.27Z" fill="white"/>
<path d="M42.956 37.1221C43.317 37.2021 43.775 37.1691 44.02 37.3821C45.368 38.5551 46.901 38.9381 48.796 38.5511C48.799 38.8561 48.879 39.2221 48.79 39.2681C46.882 40.2721 44.039 39.3931 42.889 37.4671C42.864 37.4271 42.91 37.3451 42.956 37.1221Z" fill="white"/>
<path d="M41.645 31.3991C41.691 31.6611 41.838 31.9481 41.752 32.1041C41.429 32.6791 40.873 33.0141 40.23 33.0391C38.687 33.1011 37.202 32.8631 35.956 31.8511C35.854 31.7681 35.878 31.4751 35.92 31.2981C35.939 31.2171 36.166 31.1071 36.262 31.1351C36.719 31.2691 37.162 31.4511 37.612 31.6081C39.466 32.2521 39.783 32.2391 41.645 31.3991Z" fill="white"/>
<path d="M33.84 32.2261C33.618 32.5761 33.554 32.8121 33.407 32.8861C31.947 33.6251 29.326 32.9741 28.359 31.6401C28.298 31.5561 28.318 31.3591 28.376 31.2571C28.434 31.1531 28.577 31.0661 28.698 31.0381C28.821 31.0101 28.977 31.0331 29.093 31.0871C31.408 32.1701 31.407 32.1711 33.84 32.2261Z" fill="white"/>
<path d="M31.3671 25.927C31.5341 25.826 31.7801 25.608 31.8421 25.652C33.4551 26.774 35.4291 26.747 37.1981 27.361C35.7251 28.556 32.9581 27.895 31.3671 25.927Z" fill="white"/>
<path d="M68.8351 31.545C68.8731 31.984 68.5301 32.105 68.2121 32.213C67.0391 32.611 65.9001 32.349 64.7811 31.974C63.7821 31.64 63.2691 31.169 63.5471 30.912C64.0711 30.426 64.5691 30.908 65.0831 30.981C65.8911 31.096 66.7041 31.176 67.5161 31.266C67.9181 31.31 68.3221 31.338 68.7231 31.385C68.7621 31.39 68.7911 31.48 68.8351 31.545Z" fill="white"/>
<path d="M44.645 35.1851C43.75 36.0541 42.72 35.9521 41.749 35.9031C40.601 35.8441 39.438 35.7091 38.681 34.4121C39.006 34.3341 39.289 34.1651 39.46 34.2431C40.999 34.9481 42.61 35.0051 44.253 34.8651C44.3 34.8601 44.356 34.9451 44.645 35.1851Z" fill="white"/>
<path d="M26.387 32.576C27.175 33.281 27.803 33.8801 28.47 34.4311C29.134 34.9781 30.229 34.6111 30.948 35.5721C30.574 35.6761 30.34 35.8161 30.131 35.7851C29.39 35.6761 28.651 35.5371 27.924 35.3561C27.144 35.1621 26.64 34.5891 26.261 33.9251C26.016 33.4981 25.991 33.031 26.387 32.576Z" fill="white"/>
<path d="M28.728 37.777C28.961 37.651 29.104 37.51 29.184 37.539C30.566 38.048 31.942 38.577 33.406 39.136C33.223 39.373 33.123 39.633 32.998 39.646C31.24 39.823 29.801 39.281 28.728 37.777Z" fill="white"/>
<path d="M37.529 35.7951C35.932 35.7931 34.974 36.2271 34.164 37.0351C34.007 37.1921 33.618 37.1161 33.026 37.1821C33.706 36.0981 34.298 35.4041 35.232 35.0871C35.767 34.9051 36.259 35.0621 37.529 35.7951Z" fill="white"/>
</svg>
