<svg width="96" height="52" viewBox="0 0 96 52" fill="none" xmlns="http://www.w3.org/2000/svg">
<path d="M43.9529 45.168C41.9499 45.845 40.0019 46.531 38.0339 47.156C37.2619 47.401 36.4509 47.619 35.6489 47.659C33.4939 47.765 31.4489 48.34 29.4159 48.975C28.3309 49.314 27.2529 49.519 26.1039 49.568C24.8649 49.621 23.6279 49.909 22.4099 50.182C21.3039 50.43 20.2209 50.733 19.0689 50.562C18.7629 50.517 18.4229 50.484 18.1349 50.568C16.6959 50.987 15.4359 50.454 14.1349 49.947C11.8609 49.061 9.94294 47.676 8.32694 45.886C7.49094 44.959 6.74994 43.933 6.05794 42.891C5.26394 41.696 4.12994 40.746 3.55894 39.394C3.51094 39.28 3.40194 39.189 3.36294 39.074C2.62794 36.886 1.63694 34.786 1.24494 32.482C0.981937 30.94 0.573939 29.422 0.269939 27.885C0.149939 27.276 -0.0050621 26.619 0.104938 26.031C0.364938 24.657 0.28494 23.303 0.14294 21.937C0.0159399 20.724 0.32894 19.595 0.68494 18.44C1.66494 15.263 3.55594 12.777 6.18894 10.816C7.09894 10.138 8.01394 9.49095 8.47994 8.38495C8.59094 8.12195 8.88194 7.90796 9.13394 7.73596C10.6319 6.71196 12.1549 5.72396 13.6439 4.68896C14.4769 4.10896 15.3399 3.66295 16.3319 3.39195C17.4759 3.07995 18.5759 2.60796 19.6959 2.20896C20.0499 2.08296 20.4029 1.93796 20.7669 1.85196C24.0099 1.08096 27.3139 0.789957 30.6269 0.519957C32.5529 0.363957 34.1949 1.12896 35.8459 1.85196C37.3329 2.50296 38.7379 3.34496 40.1659 4.12696C40.4329 4.27296 40.6529 4.51696 40.8689 4.74096C43.3239 7.28696 45.3679 10.117 46.8289 13.352C46.8779 13.46 46.9849 13.542 47.1599 13.746C47.4249 13.534 47.7259 13.348 47.9569 13.097C48.9779 11.991 49.9409 10.827 50.9959 9.75295C54.1169 6.57195 57.7879 4.26595 62.0019 2.77395C63.6169 2.20195 65.2099 1.72696 66.9339 1.75496C67.2429 1.75996 67.5699 1.71296 67.8619 1.61196C69.3419 1.09496 70.6989 1.55496 72.0679 2.06596C73.2389 2.50296 74.4439 2.85195 75.6089 3.30195C77.3049 3.95695 78.9989 4.62296 80.6569 5.36496C82.9439 6.38796 85.1919 7.49796 87.4689 8.54696C88.5099 9.02596 89.4849 9.53895 90.0279 10.642C90.2159 11.023 90.6069 11.3 90.8679 11.651C91.7309 12.81 92.5109 14.001 92.9359 15.42C93.2939 16.615 93.8839 17.737 94.2929 18.92C95.8169 23.328 96.1459 27.858 95.6039 32.47C95.5019 33.341 95.4559 34.219 95.3589 35.091C95.2969 35.649 95.2639 36.226 95.0869 36.75C94.7309 37.802 94.6089 38.946 93.9019 39.868C92.2459 42.026 90.4449 43.999 87.7619 44.909C86.4559 45.352 85.1569 45.814 83.8549 46.27C81.6089 47.057 79.4429 48.067 77.0939 48.567C75.0699 48.998 73.0779 49.572 71.0539 50C69.5869 50.31 68.0919 50.484 66.6089 50.717C66.4849 50.737 66.3529 50.73 66.2369 50.77C62.9909 51.904 59.8189 51.198 56.6129 50.493C54.1479 49.951 51.7839 49.145 49.4799 48.159C47.9269 47.494 46.4279 46.702 44.9239 45.93C44.5439 45.732 44.2369 45.395 43.9529 45.168ZM62.2889 27.391C61.6959 27.452 61.4669 26.892 61.0429 26.666C60.5049 26.38 59.8899 26.481 59.4969 26.886C58.7829 27.621 58.7809 28.862 59.4929 29.797C60.0219 30.492 60.5829 30.514 61.7469 29.894C61.9139 29.039 62.0789 28.195 62.2429 27.351C62.8759 26.863 63.5089 26.374 64.1529 25.877C64.1529 25.345 64.1919 24.849 64.1419 24.362C64.0929 23.885 63.6849 23.648 63.1869 23.727C62.1929 23.885 61.6379 24.688 61.8299 25.788C61.9239 26.332 62.1319 26.856 62.2889 27.391ZM24.5449 10.756C24.3309 10.66 24.0149 10.619 23.9269 10.455C23.7889 10.196 23.7779 9.85696 23.7599 9.54896C23.7029 8.55496 22.9989 8.16895 22.2059 7.87795C21.3809 7.57495 20.9159 8.16595 20.4509 8.66195C19.8549 9.29895 19.4719 9.99896 20.2309 10.881C20.7049 10.997 21.2799 11.055 21.7829 11.278C22.8539 11.753 23.7209 11.5 24.4999 10.709C24.9949 10.71 25.4929 10.674 25.9819 10.722C26.4519 10.768 26.9119 10.902 27.3349 10.989C27.7489 10.245 28.1009 9.60996 28.4599 8.96596C28.0319 7.98196 27.2279 7.72696 26.3139 7.88596C25.3749 8.05096 24.8019 8.68796 24.6529 9.65096C24.5959 10.017 24.5799 10.388 24.5449 10.756ZM31.8009 45.751C31.2429 45.916 30.8489 45.555 30.4119 45.324C29.0209 44.587 27.5399 44.184 26.1729 44.057C25.8899 44.356 25.7489 44.628 25.5879 44.641C25.4139 44.655 25.0549 44.41 25.0649 44.304C25.1119 43.803 24.9229 43.482 24.5279 43.208C23.3769 42.411 22.4729 41.379 21.7079 40.21C21.4359 39.794 21.1099 39.393 20.7379 39.066C19.3099 37.815 18.2119 36.286 17.0729 34.791C16.5799 34.144 16.0569 33.502 15.6769 32.789C13.5309 28.757 12.2859 24.446 11.8079 19.908C11.7489 19.35 11.5369 18.78 11.6059 18.241C11.8169 16.577 11.9409 14.909 12.5799 13.299C13.1969 11.743 13.9399 10.338 15.2469 9.27995C16.2689 8.45195 17.2889 7.61596 18.3619 6.85696C19.8009 5.83896 21.3459 5.02796 23.1269 4.75396C23.6199 4.67796 24.0999 4.50896 24.5779 4.35796C27.2079 3.52996 29.8869 2.90396 32.6279 2.60996C33.5499 2.51096 34.4939 2.64296 35.3399 3.17096C35.9219 3.53396 36.5429 3.85496 37.1829 4.09896C38.0389 4.42596 38.7449 4.91496 39.2059 5.70096C39.8259 6.75796 40.7119 7.56696 41.6989 8.22396C42.5389 8.78296 43.0509 9.52996 43.3869 10.411C43.7219 11.288 43.9549 12.177 44.8079 12.762C45.0689 12.941 45.1389 13.412 45.2729 13.759C45.4499 14.217 45.6029 14.684 45.7609 15.131C45.9659 15.1 46.1009 15.11 46.2019 15.056C46.3019 15.002 46.3669 14.882 46.5279 14.7C45.5039 12.04 43.9299 9.64896 42.1659 7.37396C41.6679 6.73196 41.0859 6.15396 40.5249 5.56196C40.3119 5.33696 40.0759 5.10996 39.8059 4.96696C38.0349 4.02696 36.2929 3.01496 34.4619 2.20896C32.2199 1.22196 29.9109 0.739957 27.6509 2.28296C27.3379 2.49696 26.9209 2.54196 26.6129 2.21296C26.0469 1.60596 25.3469 1.73796 24.6809 1.87996C23.2719 2.17996 21.8179 2.38996 20.4899 2.91096C19.2429 3.39996 17.8229 3.65696 16.9609 4.80796C16.6069 4.67296 16.2809 4.41896 16.0429 4.48396C15.5129 4.62996 15.0409 4.97096 14.5199 5.16596C13.6829 5.47896 13.8489 6.40596 13.4759 6.92396C11.4019 7.09896 9.91594 7.94096 8.92094 9.56096C8.40594 10.399 7.63794 10.904 6.88294 11.469C6.08694 12.065 5.35594 12.755 4.63594 13.446C4.16594 13.898 3.90794 14.452 4.15294 15.146C4.20394 15.291 4.09794 15.492 4.04494 15.767C3.39094 15.559 2.75694 15.536 2.46894 16.253C1.93094 17.589 1.41594 18.936 0.94194 20.295C0.82394 20.635 0.869937 21.043 0.884937 21.417C0.935937 22.657 1.17794 23.918 1.03094 25.131C0.817937 26.889 1.28094 28.484 1.73194 30.116C1.94894 30.9 2.14194 31.698 2.25294 32.502C2.59994 35.02 3.61394 37.303 4.68494 39.567C4.84194 39.898 5.14294 40.159 5.36994 40.457C6.16894 41.502 7.00194 42.523 7.75394 43.601C9.47994 46.073 11.5799 48.05 14.5169 49.001C14.9309 49.135 15.3219 49.355 15.7059 49.566C16.2289 49.854 16.7509 49.878 17.3389 49.774C18.0109 49.655 18.7119 49.608 19.3919 49.65C20.4129 49.713 21.3799 49.563 22.3629 49.299C23.2639 49.058 24.2029 48.959 25.1279 48.809C26.4879 48.59 27.9109 48.563 29.1949 48.125C31.0039 47.508 32.8589 47.225 34.7179 47.034C37.1909 46.781 39.4429 45.9 41.7099 45.01C41.7479 44.995 41.7369 44.858 41.7729 44.618C40.6749 45.333 39.6719 45.089 38.7489 44.573C37.1979 45.752 36.4259 45.874 34.3809 45.422C33.7119 45.274 33.0139 45.243 32.3269 45.193C31.9479 45.166 31.7779 45.422 31.7449 45.777L31.8009 45.751ZM83.3479 7.72096L83.3909 7.76796C82.1309 7.08396 80.8969 6.34296 79.6039 5.72696C76.8229 4.40396 73.8369 3.63096 70.9429 2.61196C69.9919 2.27696 69.0079 2.09896 67.9879 2.37896C67.6299 2.47696 67.2419 2.50496 66.8679 2.50496C65.0089 2.50496 63.2809 3.04196 61.5989 3.76496C59.1209 4.83196 56.7739 6.06296 54.6019 7.73896C52.3879 9.44695 50.4829 11.424 48.7399 13.541C47.7339 14.764 46.6859 15.885 45.4839 16.894C44.8139 17.457 44.0309 17.98 43.5869 18.699C42.4319 20.566 41.3899 22.551 41.1619 24.761C40.7289 28.963 40.8439 33.132 42.3789 37.168C42.8169 38.321 42.9979 39.565 43.1999 40.805C43.5449 42.911 44.2019 45.004 46.6529 45.733C46.8889 45.803 47.1039 45.95 47.3239 46.07C51.7299 48.464 56.4239 49.926 61.4139 50.424C61.8429 50.467 62.2859 50.488 62.7109 50.428C64.5699 50.165 66.4359 49.922 68.2789 49.572C70.4929 49.151 72.6889 48.634 74.8889 48.144C75.1169 48.093 75.4519 47.992 75.5169 47.827C76.0329 46.525 77.2679 46.584 78.3179 46.305C78.4119 46.28 78.5689 46.491 78.7309 46.619C78.5009 46.83 78.3249 46.992 77.9639 47.324C78.7059 47.153 79.2739 47.107 79.7699 46.894C82.6949 45.641 85.7929 44.822 88.9369 43.38C87.9219 42.941 88.5169 42.465 88.5909 42.009C89.2329 41.967 89.6859 41.685 89.9399 40.953C89.2629 41.159 88.9029 41.555 88.6229 42.044C87.8149 42.143 87.0049 42.225 86.2009 42.348C85.7549 42.416 85.3499 42.549 85.3709 43.161C85.3779 43.361 85.2269 43.646 85.0599 43.757C84.5899 44.066 84.0659 44.291 83.5779 44.574C82.8919 44.971 82.7789 44.235 82.3739 43.98C80.9129 44.171 79.3779 44.262 78.1509 45.273C77.2119 46.045 76.1519 46.309 74.9909 46.207C74.2629 46.143 73.6239 46.34 73.0059 46.66C72.2299 47.06 71.3819 47.383 70.7239 47.931C70.0269 48.513 69.5489 48.511 68.7349 48.114C67.6209 47.57 66.3739 47.228 65.1649 48.102C64.8869 48.303 64.4459 48.417 64.1059 48.372C62.9299 48.217 61.7409 48.072 60.6619 47.513C59.9819 47.161 59.3709 46.712 58.9879 46.039C58.4279 45.057 57.8769 44.08 57.0769 43.258C56.8249 42.999 56.6359 42.63 56.5369 42.278C56.2779 41.352 55.8079 40.55 55.2359 39.796C54.6889 39.075 54.4299 38.268 54.3439 37.362C54.1909 35.752 53.6789 34.196 53.7109 32.548C53.7359 31.175 53.5319 29.799 53.5079 28.424C53.4719 26.413 53.7869 24.447 54.1759 22.467C54.3899 21.375 54.6539 20.437 55.4129 19.651C55.7109 19.342 56.0079 18.988 56.3789 18.803C56.9489 18.52 57.3999 18.173 57.8379 17.692C58.7709 16.666 59.8229 15.74 61.3939 15.921C62.3479 14.478 63.7659 14.071 65.3339 14.06C66.1689 14.054 66.9439 13.89 67.7029 13.555C68.5719 13.171 69.4769 12.932 70.4459 13.038C71.6709 13.172 72.7849 12.866 73.8829 12.303C75.4359 11.506 77.1499 11.305 78.8309 11.621C80.3799 11.912 81.8959 12.089 83.4729 11.962C85.1609 11.826 86.4869 12.556 87.3789 14.005C87.6769 14.489 87.9529 14.947 88.4879 15.238C90.6259 16.4 91.7679 18.239 92.0799 20.632C92.1269 20.991 92.2889 21.336 92.3969 21.687L92.3549 21.638C92.4679 22.184 92.5119 22.757 92.7089 23.271C93.2299 24.631 93.6439 25.993 93.5119 27.479C93.4799 27.837 93.6189 28.21 93.6709 28.518C94.1049 28.812 94.4769 28.996 95.0519 28.708C95.0019 27.422 95.1409 26.071 94.8599 24.815C94.2859 22.255 93.8019 19.659 92.7819 17.215C91.9129 15.134 91.1239 13.012 89.4049 11.424C89.1829 11.219 88.8909 10.927 88.8909 10.676C88.8899 9.92995 88.3789 9.75095 87.8569 9.52395C86.5359 8.94795 85.2199 8.35996 83.8959 7.79196C83.7369 7.72396 83.5339 7.74296 83.3479 7.72096ZM32.9159 23.353C31.3349 21.893 30.6899 20.049 29.2629 18.819C28.0109 19.214 26.8819 19.569 25.7539 19.929C25.5159 20.005 25.2769 20.087 25.0529 20.197C24.7179 20.361 24.3779 20.527 24.0709 20.737C22.7849 21.617 22.3169 23.081 22.9259 24.518C23.2139 25.196 23.6559 25.809 23.9859 26.377C25.4209 26.593 25.4249 26.605 26.2889 26.273C27.8039 25.69 29.3219 25.113 30.8189 24.487C31.4439 24.226 32.0179 23.844 32.9159 23.353ZM33.6499 22.617C34.8759 22.845 35.8999 22.734 36.9429 22.428C37.8839 22.152 38.8399 21.861 39.8749 22.226C40.6019 22.483 41.0249 21.972 41.2579 21.358C41.0329 20.628 40.8439 19.92 40.5949 19.233C40.3419 18.533 40.0869 17.825 39.7349 17.173C39.0139 15.839 38.3349 15.526 36.8339 15.711C35.4359 15.884 34.2339 16.553 33.0409 17.232C32.6369 17.462 32.4929 17.883 32.4529 18.345C32.3199 19.905 32.7659 21.295 33.6499 22.617ZM79.4499 37.675C79.3699 37.455 79.3369 37.264 79.2399 37.113C77.5769 34.527 76.7999 31.657 76.4719 28.633C76.4089 28.051 76.4189 27.416 76.0239 26.911C74.6609 27.578 74.1629 28.574 74.3189 30C74.5039 31.679 74.5059 33.378 74.7089 35.054C74.9139 36.744 75.5879 38.272 76.6459 39.616C77.8459 39.232 78.6999 38.536 79.4499 37.675ZM71.3929 29.981C71.1259 30.142 70.7469 30.255 70.5639 30.509C70.3609 30.792 70.2829 31.197 70.2429 31.56C70.0919 32.923 69.9209 34.288 69.8629 35.656C69.7859 37.476 69.9929 39.253 71.0439 40.738C72.8789 41.06 72.9769 41.054 74.4019 40.545C74.3599 40.37 74.3569 40.17 74.2699 40.019C72.7679 37.416 72.1239 34.589 72.0189 31.612C71.9989 31.051 71.9439 30.488 71.3929 29.981ZM38.3759 36.996C37.9029 34.75 38.5219 32.575 39.0139 30.388C39.0949 30.026 39.1399 29.572 39.3769 29.345C40.0549 28.698 40.0049 27.9 40.0509 27.092C40.0939 26.346 40.1909 25.602 40.2629 24.858C40.2989 24.486 40.3639 24.113 40.3539 23.742C40.3499 23.593 40.1859 23.333 40.0829 23.326C39.8659 23.313 39.5289 23.365 39.4379 23.512C38.9809 24.253 38.5109 25.003 38.1899 25.807C37.7039 27.024 37.2059 28.263 36.9529 29.54C36.6279 31.186 36.4849 32.875 36.3789 34.552C36.3369 35.216 36.5669 35.911 36.7489 36.571C36.9719 37.38 37.2709 37.449 38.3759 36.996ZM66.9089 29.039C67.7679 29.387 68.5799 29.726 69.4779 29.503C70.3249 29.293 71.1669 29.05 71.9909 28.762C72.3949 28.621 72.8039 28.404 73.1189 28.12C73.9959 27.329 74.8289 26.49 75.6659 25.657C75.7279 25.595 75.6849 25.428 75.6959 25.23C75.4579 25.218 75.1939 25.132 74.9879 25.206C73.4049 25.771 71.8709 25.877 70.2539 25.198C69.2579 24.78 67.9909 25.32 67.4809 26.21C67.0199 27.015 66.5509 27.859 66.9089 29.039ZM35.3069 23.536C34.4079 25.46 33.5799 27.144 33.3409 29.044C33.1369 30.658 32.8199 32.258 32.6549 33.875C32.5739 34.667 32.6449 35.498 32.7889 36.286C33.0029 37.453 33.4819 37.646 34.8879 37.248C33.8179 32.478 34.9689 27.987 36.8949 23.438C36.2609 23.477 35.7919 23.506 35.3069 23.536ZM27.8869 26.757C26.6429 26.985 25.6669 27.172 24.6879 27.339C24.1789 27.426 23.8839 27.755 23.8439 28.215C23.7899 28.833 23.7609 29.478 23.8779 30.082C24.2529 32.02 25.0619 33.779 26.3179 35.312C26.4789 35.508 26.7659 35.601 27.1839 35.858C27.1839 34.186 27.0959 32.741 27.2079 31.312C27.3249 29.835 27.6369 28.374 27.8869 26.757ZM80.1839 26.597C78.7229 26.894 78.6349 26.997 78.6649 28.121C78.7279 30.469 79.2759 32.714 80.1109 34.894C80.2319 35.208 80.2159 35.667 80.7989 35.75C82.0609 34.778 82.8539 33.512 82.9489 31.867C81.5029 30.396 81.0149 28.475 80.1839 26.597ZM91.2049 37.471C92.4499 36.799 93.1459 35.96 92.9049 34.462C92.7609 33.566 92.8789 32.628 92.8789 31.586C91.9629 31.487 91.0099 31.385 90.1349 31.291C89.5259 32.219 88.9909 33.034 88.3259 34.046C88.4569 34.351 88.5639 34.935 88.9009 35.316C89.5489 36.047 90.3269 36.664 91.2049 37.471ZM83.1109 23.677C83.6439 24.121 84.1739 24.41 84.4759 24.855C84.8129 25.353 84.9499 25.99 85.1609 26.571C85.6089 27.806 86.0569 28.117 87.3679 28.075C87.6739 28.065 87.9789 28.034 88.2199 28.017C89.1879 27.119 89.0549 26.202 88.5079 25.25C88.2059 24.725 87.8379 24.572 87.2489 24.779C86.8979 24.903 86.5809 25.134 86.2259 25.237C85.9699 25.311 85.6759 25.251 85.2129 25.251C86.0589 23.752 86.3639 22.419 84.8069 21.377C83.6769 21.413 83.6779 21.417 82.6769 22.048C82.8129 22.557 82.9539 23.088 83.1109 23.677ZM31.7459 25.447C31.6559 25.431 31.5659 25.416 31.4759 25.4C31.0859 26.378 30.7179 27.366 30.3029 28.334C29.4789 30.255 29.0719 32.275 28.8549 34.339C28.7449 35.393 28.6889 36.452 29.3389 37.409C30.0019 37.513 30.6049 37.694 31.2629 37.252C31.1399 35.298 30.8559 33.312 30.9359 31.341C31.0169 29.369 31.4609 27.412 31.7459 25.447ZM41.7019 20.215C42.1229 19.496 42.3499 18.992 42.6789 18.568C43.7299 17.212 43.4659 15.777 42.9899 14.325C42.7969 13.733 42.3409 13.41 41.7379 13.337C41.3679 13.292 40.9729 13.257 40.6179 13.339C40.2089 13.434 39.7619 13.587 39.4609 13.859C39.2229 14.074 39.1809 14.506 39.0559 14.833C40.7369 16.17 41.1749 18.059 41.7019 20.215ZM82.1629 24.084C82.2939 22.909 81.6759 22.207 80.8079 21.8C79.8679 21.359 77.8289 22.19 77.1899 23.135C76.2979 24.455 76.5219 25.043 78.0519 25.479C78.5869 25.631 79.0999 25.914 79.6589 25.581C80.5009 25.078 81.3429 24.574 82.1629 24.084ZM76.9529 21.508C75.5759 21.149 74.4599 21.153 73.3549 21.399C72.4749 21.595 71.7519 22.079 71.2149 22.825C70.7159 23.518 70.8299 24.15 71.6349 24.488C72.0719 24.672 72.6099 24.746 73.0799 24.69C73.8789 24.595 74.6609 24.358 75.3949 24.193C75.9099 23.305 76.3689 22.514 76.9529 21.508ZM63.3759 39.702C63.2909 38.387 62.6969 37.248 63.3579 36.039C62.9559 35.82 62.6199 35.476 62.3489 35.522C61.7529 35.623 61.1119 35.813 60.6309 36.163C59.9519 36.657 59.6079 37.411 59.8369 38.297C59.9769 38.837 60.1669 39.365 60.3239 39.901C60.5069 40.523 60.9609 40.779 61.6689 40.868C62.1629 40.53 62.7199 40.15 63.3759 39.702ZM14.9419 21.13C14.2879 21.13 13.6329 21.13 12.8619 21.13C12.9249 21.701 12.9879 22.179 13.0299 22.659C13.1849 24.424 14.4199 25.184 15.8859 25.712C16.5739 25.959 17.2589 25.511 17.1809 24.66C17.0889 23.646 16.9829 22.696 16.0289 22.071C15.6689 21.836 15.3709 21.506 14.9419 21.13ZM29.2229 15.503C29.4459 16.066 29.7959 16.576 29.8239 17.103C29.8769 18.115 30.5929 18.518 31.5219 19.495C31.1139 17.11 32.3159 16.204 33.8079 15.642C33.8829 15.422 33.9619 15.304 33.9569 15.189C33.8839 13.465 33.0489 12.921 31.5349 13.621C30.6099 14.048 29.9299 14.777 29.2229 15.503ZM14.0479 26.271C14.2849 27.153 14.4489 27.808 14.6359 28.457C14.9969 29.712 15.9169 30.381 17.0909 30.797C17.6339 30.989 18.0539 30.898 18.4499 30.288C18.1049 29.14 17.7349 27.912 17.3739 26.712C16.2829 26.567 15.3149 26.439 14.0479 26.271ZM35.2279 15.074C35.8129 15.016 36.4859 14.989 37.1449 14.877C38.4189 14.66 39.2019 12.688 38.4499 11.634C38.1059 11.151 37.6369 10.904 36.9539 10.918C36.1399 11.589 35.2899 12.289 34.4179 13.006C34.5969 13.633 34.7399 14.165 34.9059 14.69C34.9389 14.797 35.0589 14.877 35.2279 15.074ZM14.8409 20.023C15.0129 19.701 15.2209 19.323 15.4179 18.939C15.5319 18.717 15.6489 18.493 15.7279 18.257C16.0519 17.288 15.6049 15.962 14.7559 15.455C14.5639 15.34 14.2499 15.276 14.0519 15.35C13.5309 15.544 13.0189 15.802 12.8579 16.422C12.7329 16.902 12.5689 17.376 12.4859 17.863C12.3669 18.57 12.4899 19.234 13.0269 19.765C13.5349 20.265 14.1199 20.302 14.8409 20.023ZM61.8649 34.505C61.2609 33.219 61.9939 32.136 62.5359 30.866C61.9419 30.943 61.5259 31.041 61.1119 31.038C60.6159 31.035 60.1219 30.919 59.6249 30.9C59.0959 30.881 58.6969 31.246 58.5749 31.792C58.2989 33.029 58.7669 33.934 60.0129 34.765C60.6329 35.18 61.1589 35.188 61.8649 34.505ZM59.6799 35.569C59.0509 35.053 58.5329 34.698 58.0999 34.258C57.3709 33.516 56.1439 33.949 55.8149 34.862C55.4549 35.864 55.1899 36.866 55.2969 37.938C55.2989 37.963 55.3959 37.979 55.5559 38.04C56.3849 37.227 57.4809 37.152 58.6629 37.358C58.9949 36.773 59.2969 36.242 59.6799 35.569ZM85.8289 36.841C86.2039 36.446 86.6479 36.018 87.0469 35.551C87.3859 35.155 87.5799 34.657 87.3939 34.155C87.1069 33.38 86.6689 32.691 85.8509 32.358C85.1359 32.067 84.6799 32.596 84.1569 32.91C84.0499 32.974 83.9299 33.021 83.8309 33.096C83.2249 33.552 83.2109 34.098 83.7659 34.671C84.4499 35.378 85.1229 36.097 85.8289 36.841ZM92.6359 27.563C92.6649 27.416 92.7039 27.295 92.7099 27.173C92.7449 26.46 92.3799 26.115 91.7059 26.217C90.6509 26.376 89.7929 27.277 89.6809 28.345C89.5999 29.109 90.3009 30.243 91.0959 30.575C91.6509 30.807 92.1979 30.735 92.6659 30.345C93.0529 30.022 93.0449 29.598 92.9049 29.153C92.7409 28.627 92.4219 28.126 92.6359 27.563ZM14.7849 11.198C15.3469 12.897 16.7719 12.325 17.9389 12.533C18.3779 12.077 18.7969 11.643 19.1819 11.244C18.9349 10.009 18.3649 9.21296 17.2479 8.87196C16.2729 9.53996 15.3679 10.183 14.7849 11.198ZM26.0059 11.542C23.2669 12.362 22.8839 13.15 24.2949 15.175C25.5459 14.621 27.0179 14.444 27.8989 13.145C27.6239 12.069 26.7129 11.895 26.0059 11.542ZM32.0059 9.21095C32.2509 8.78295 32.4879 8.42496 32.6659 8.03896C32.8419 7.65696 32.9569 7.24695 33.0809 6.89895C31.8799 5.53095 31.1459 5.28196 30.1849 5.85796C29.1599 6.47296 28.9889 7.34496 29.6389 8.75796C30.3429 8.89396 31.0709 9.03295 32.0059 9.21095ZM23.2809 27.181C22.8929 25.539 21.6649 24.523 21.7239 23.08C20.9889 22.69 20.3959 22.162 19.5039 22.54C19.0869 23.658 18.9639 24.78 19.6049 25.871C20.2699 25.982 20.8969 26.009 21.4659 26.204C22.0189 26.395 22.5139 26.757 23.2809 27.181ZM72.5069 20.383C73.4989 20.473 74.4459 20.323 75.3489 19.932C75.5929 18.925 75.1729 18.143 74.6799 17.433C74.1579 16.681 73.2179 16.658 72.5879 17.309C72.1659 17.746 71.7749 18.212 71.2959 18.748C71.6729 19.26 72.0739 19.8 72.5069 20.383ZM66.0729 43.192C65.8659 42.317 65.5229 41.737 64.9769 41.292C64.0889 40.568 62.9679 40.723 62.4149 41.693C62.1489 42.161 61.8049 42.654 62.0069 43.387C62.5279 43.756 63.1279 44.18 63.7279 44.605C64.5269 44.125 65.2599 43.683 66.0729 43.192ZM90.2059 39.076C90.3109 37.971 89.8529 37.323 89.2539 36.755C88.5299 36.07 87.7719 36.116 87.1969 36.906C86.9149 37.294 86.7289 37.752 86.5289 38.124C87.1239 39.036 87.6529 39.846 88.2599 40.777C88.9589 40.167 89.6419 39.57 90.2059 39.076ZM90.5639 40.432C91.1819 40.432 91.6299 40.57 91.8799 40.406C92.5699 39.953 92.6659 38.841 93.6949 38.703C93.7619 38.694 93.8229 38.5 93.8549 38.383C94.4819 36.07 94.7959 33.718 94.7149 31.319C94.7069 31.073 94.6319 30.823 94.1679 30.845C93.8049 31.916 93.4009 33.002 93.7409 34.209C94.0389 35.268 93.8429 36.309 93.0559 36.994C91.9769 37.932 91.7139 39.337 90.5639 40.432ZM64.7329 22.225C65.3829 21.804 66.0509 21.372 66.6669 20.973C66.8459 19.544 66.8409 19.204 66.5919 18.69C66.2249 17.932 65.5809 17.637 64.9259 18.015C64.5539 18.23 64.1839 18.449 63.8449 18.648C63.6929 19.252 63.5579 19.787 63.4259 20.314C63.8069 20.919 64.1709 21.498 64.5399 22.073C64.5719 22.123 64.6359 22.151 64.7329 22.225ZM86.7269 22.006C86.9549 21.856 87.2119 21.692 87.4619 21.518C87.6159 21.411 87.7739 21.303 87.9039 21.17C88.7019 20.357 88.6549 19.099 87.8069 18.332C87.0209 17.622 85.6629 17.845 85.0109 18.792C84.6749 19.279 84.7189 19.87 85.1439 20.332C85.6439 20.873 86.1559 21.403 86.7269 22.006ZM68.7039 44.894C69.4979 43.941 70.7459 43.497 70.8809 42.047C69.9939 41.656 69.1559 41.286 68.3059 40.911C67.7259 41.157 67.1649 41.395 66.5099 41.673C66.9729 42.92 67.4389 44.037 68.7039 44.894ZM80.1239 17.982C81.3899 17.071 82.7799 17.432 84.1479 17.836C84.3549 16.717 84.3429 16.676 83.9329 16.026C83.6559 15.587 83.3179 15.281 82.7699 15.18C82.0049 15.04 81.3089 15.06 80.6109 15.476C79.8009 15.959 79.9479 16.844 79.5409 17.471C79.7599 17.662 79.8989 17.784 80.1239 17.982ZM89.8659 25.736C91.0949 24.965 91.5709 24.144 91.1929 22.931C90.8659 21.885 90.1689 21.434 89.0079 21.493C88.5249 22.009 87.7539 22.365 87.5359 23.352C88.7329 23.687 89.3499 24.596 89.8659 25.736ZM22.9379 15.791C22.6299 14.837 21.9779 14.736 21.3839 14.586C20.5819 14.384 19.8729 14.642 19.3589 15.252C18.8219 15.889 18.8809 16.641 19.1969 17.377C19.4269 17.913 19.9429 18.123 20.4109 17.784C21.2659 17.164 22.0729 16.478 22.9379 15.791ZM85.5399 17.044C85.7089 17.009 85.8609 17.023 85.9379 16.954C86.1189 16.791 86.2929 16.605 86.4199 16.398C87.1249 15.249 86.8769 14.268 85.7629 13.543C84.7519 12.886 83.6929 12.819 82.5629 13.113C82.7429 14.005 82.7219 14.058 83.1119 14.213C84.2459 14.662 84.9199 15.489 85.2679 16.63C85.3159 16.788 85.4539 16.918 85.5399 17.044ZM33.6489 10.967C34.5599 10.57 35.4779 10.195 36.3719 9.77096C36.9949 9.47596 37.1489 8.71896 36.7409 8.19696C35.9259 7.15496 34.4569 7.21196 33.7229 8.31196C33.1629 9.15196 32.9839 10.006 33.6489 10.967ZM63.3149 45.415C61.8569 44.273 61.0839 44.186 59.9659 44.925C59.6359 45.144 59.4969 45.603 59.7399 45.906C60.5889 46.966 61.6109 47.689 63.1859 47.541C63.2309 46.802 63.2709 46.129 63.3149 45.415ZM67.5819 21.375C68.2219 22.027 68.8869 22.703 69.5369 23.365C70.2539 22.46 70.8979 21.646 71.5419 20.833C70.9969 18.893 68.5879 19.063 67.5819 21.375ZM65.2029 30.58C65.8459 29.59 65.6809 28.676 65.7919 27.821C65.8629 27.273 65.3719 26.914 64.8019 26.991C63.5369 27.162 62.8109 28.059 62.9519 29.333C62.9989 29.753 63.1539 30.161 63.2599 30.579C63.9619 30.58 64.5759 30.58 65.2029 30.58ZM65.4859 35.912C64.1409 36.452 63.9609 36.725 64.0869 37.823C64.1769 38.609 64.5039 39.308 65.0949 39.781C65.5059 40.11 66.0859 40.273 66.6169 40.383C66.8469 40.431 67.1439 40.159 67.3739 40.05C66.7359 38.651 66.1419 37.349 65.4859 35.912ZM76.3959 18.92C76.4949 20.173 76.4949 20.173 78.0419 21.129C78.7449 21.007 79.4719 20.881 80.1979 20.75C80.2519 20.74 80.2979 20.681 80.3469 20.645C80.1889 19.443 79.9969 19.063 79.2749 18.682C78.3289 18.182 77.3939 18.126 76.3959 18.92ZM84.5359 37.335C84.3289 36.089 83.5989 35.558 82.3979 35.375C81.8679 35.954 81.3329 36.54 80.7749 37.148C81.3669 37.92 81.8749 38.582 82.3959 39.26C83.1399 38.591 83.7839 38.011 84.5359 37.335ZM66.5099 30.443C65.6989 32.584 66.1289 34.65 67.0729 36.718C67.4489 34.723 67.8259 32.727 68.1959 30.765C67.6699 30.276 67.1489 30.253 66.5099 30.443ZM88.0939 32.979C88.3199 32.651 88.5089 32.409 88.6609 32.144C88.7849 31.929 88.8909 31.695 88.9559 31.457C89.1969 30.563 88.6509 29.394 87.8689 29.091C87.2029 28.833 86.4079 29.25 85.9299 30.158C85.7959 30.413 85.7809 30.732 85.7369 30.913C86.5439 31.621 87.2389 32.23 88.0939 32.979ZM66.6639 16.971C67.0349 17.595 67.4079 18.222 67.8149 18.906C68.5689 18.739 69.3269 18.571 70.0539 18.41C70.2579 16.94 69.9599 16.151 69.1259 15.828C68.3219 15.519 67.5539 15.873 66.6639 16.971ZM68.2489 47.024C68.0199 46.253 67.9529 45.824 67.7699 45.453C67.1429 44.182 65.8709 43.998 64.8729 45.005C64.0549 45.83 64.0739 46.837 64.1269 47.953C64.9919 47.364 65.7449 46.851 66.4169 46.393C67.0169 46.601 67.4699 46.756 68.2489 47.024ZM55.1579 29.335C56.3109 29.816 57.2009 30.187 58.0999 30.562C58.2509 30.358 58.4649 30.2 58.4479 30.073C58.3329 29.224 58.2069 28.371 57.9959 27.542C57.9339 27.301 57.6149 27.039 57.3569 26.952C56.5099 26.665 55.7179 27.046 55.4189 27.889C55.2619 28.334 55.2449 28.827 55.1579 29.335ZM42.2069 40.38C42.0409 39.223 41.9269 38.248 41.3169 37.39C40.2599 37.74 39.2609 38.07 38.1179 38.448C38.3799 38.914 38.4999 39.375 38.7979 39.61C39.7229 40.341 40.8349 40.437 42.2069 40.38ZM65.1129 31.696C64.2389 31.32 63.6639 31.356 63.1589 31.881C62.7409 32.316 62.5599 32.835 62.6209 33.423C62.7139 34.322 63.5839 35.104 64.5439 35.183C64.9379 35.216 65.2809 34.934 65.2689 34.508C65.2409 33.58 65.1689 32.652 65.1129 31.696ZM68.4359 24.022C68.4519 23.39 68.0249 22.991 67.5979 22.641C66.7259 21.926 65.6879 22.205 65.3589 23.27C65.0979 24.114 65.0809 25.006 65.4139 25.847C65.4819 26.018 65.7979 26.09 65.9429 26.175C66.8229 25.414 67.6229 24.724 68.4359 24.022ZM84.6409 38.566C84.1259 39.118 83.6329 39.647 83.1169 40.2C83.3799 40.555 83.5969 40.846 83.8129 41.139C84.0219 41.424 84.2309 41.709 84.4719 42.038C84.9509 41.799 85.3169 41.551 85.7209 41.431C86.1829 41.293 86.6799 41.269 87.1769 41.193C86.5089 39.466 86.5089 39.466 84.6409 38.566ZM24.2149 36.634C24.5199 37.959 25.3269 38.644 26.2979 39.114C26.7129 39.315 27.2589 39.296 27.7439 39.284C28.1479 39.274 28.4009 38.887 28.2979 38.47C28.2279 38.188 28.0939 37.847 27.8759 37.689C27.0279 37.072 26.1349 36.517 25.2119 35.908C24.8809 36.149 24.5899 36.361 24.2149 36.634ZM29.2459 41.803C29.0629 42.613 29.3959 43.298 29.9679 43.615C30.8709 44.114 31.8979 44.431 33.0399 44.098C32.8349 43.322 32.6499 42.618 32.4679 41.926C31.3299 41.674 30.3129 41.405 29.2459 41.803ZM19.1089 8.71596C19.4769 8.35096 19.8699 7.97296 20.2479 7.58096C20.9789 6.82296 21.8119 6.60896 22.7909 7.05796C23.2929 7.28896 23.8049 7.49796 24.3399 7.72896C24.6189 7.50996 24.8589 7.32295 25.0799 7.14895C24.5949 5.54095 24.4559 5.44896 23.0649 5.73796C22.8209 5.78896 22.5669 5.79496 22.3269 5.85796C21.0449 6.19596 19.8839 6.77896 18.8779 7.64396C18.4379 8.02296 18.5019 8.39096 19.1089 8.71596ZM38.5989 10.097C39.0129 10.811 39.4359 11.542 39.8219 12.208C40.0659 12.242 40.1929 12.289 40.3089 12.271C40.9419 12.172 41.7829 12.527 42.0929 11.661C42.3889 10.835 41.7889 10.241 41.2989 9.70596C40.5349 8.87096 39.6449 9.01296 38.5989 10.097ZM15.9549 31.793C17.3049 33.311 17.9389 34.885 19.3919 35.829C20.1369 34.798 20.1819 34.744 19.9579 34.293C19.5229 33.416 19.0469 32.56 18.5779 31.678C18.1859 31.723 17.8819 31.774 17.5759 31.789C17.2129 31.807 16.8499 31.793 15.9549 31.793ZM62.6459 19.497C62.9479 18.874 62.8139 18.381 62.4809 18.004C62.1209 17.597 61.6929 17.195 61.2129 16.959C60.4609 16.588 59.8869 16.889 59.0609 17.932C59.4069 18.476 59.7659 19.039 60.0579 19.497C60.9939 19.497 61.7839 19.497 62.6459 19.497ZM20.7149 30.69C21.4929 30.341 22.1549 30.044 22.8239 29.743C22.7519 29.258 22.7499 28.871 22.6329 28.522C22.3559 27.694 21.7889 27.149 20.9069 26.973C20.4219 26.876 19.9689 27.168 19.9969 27.649C20.0509 28.632 19.9169 29.668 20.7149 30.69ZM79.9859 43.314C80.7779 43.243 81.5229 43.193 82.2619 43.103C82.7189 43.047 83.0949 42.825 83.2459 42.353C83.3629 41.986 83.0479 41.355 82.6019 41.106C82.3909 40.988 82.1419 40.906 81.9019 40.88C81.0719 40.789 80.2729 40.876 79.6169 41.464C79.4889 41.579 79.4229 41.761 79.3059 41.947C79.5279 42.393 79.7449 42.829 79.9859 43.314ZM15.3179 14.223C15.7709 15.03 16.1979 15.85 16.6909 16.63C16.8319 16.853 17.1459 17.048 17.4079 17.092C17.7549 17.151 17.9679 16.86 18.0269 16.525C18.1659 15.736 18.2849 14.944 18.4059 14.188C17.0339 13.137 16.7089 13.146 15.3179 14.223ZM57.2379 41.327C57.8099 41.058 58.2699 40.881 58.6909 40.636C59.4679 40.184 59.4549 38.949 58.6729 38.5C58.1129 38.178 57.5039 38.086 56.8849 38.309C56.4829 38.453 56.0979 38.646 55.5849 38.869C56.1129 39.654 56.6209 40.409 57.2379 41.327ZM61.5389 23.475C61.9999 23.26 62.3399 23.102 62.6789 22.943C62.7919 22.89 62.9079 22.839 63.0129 22.773C63.4279 22.511 63.5399 22.04 63.2389 21.653C63.0109 21.361 62.7439 21.086 62.4529 20.858C61.7289 20.291 60.7679 20.358 60.0629 20.988C59.6089 21.394 59.6249 22.032 60.1219 22.426C60.5559 22.773 61.0139 23.089 61.5389 23.475ZM20.9909 31.9C21.9909 33.212 22.8769 34.375 23.7959 35.581C24.0619 35.445 24.2859 35.352 24.4849 35.219C24.5739 35.16 24.6099 35.024 24.7019 34.869C24.2399 33.825 23.7769 32.741 23.2799 31.673C22.9779 31.026 22.5839 30.904 21.9109 31.233C21.6429 31.365 21.4179 31.585 20.9909 31.9ZM28.1839 16.084C26.9459 16.8 25.5299 16.893 24.3109 17.699C24.4699 18.13 24.6129 18.519 24.8229 19.092C26.0829 18.744 27.3129 18.606 28.4189 17.987C28.8849 17.726 29.0039 17.384 28.7739 16.885C28.6519 16.618 28.4229 16.4 28.1839 16.084ZM57.2579 22.523C56.9549 21.962 56.5419 21.719 55.9969 21.833C55.3979 21.958 55.0079 22.371 54.8839 22.96C54.7699 23.502 54.6919 24.063 54.6889 24.616C54.6849 25.471 55.0739 25.701 56.2229 25.59C56.5529 24.611 56.8879 23.618 57.2579 22.523ZM60.8029 24.863C60.8009 24.043 60.3629 23.55 59.5519 23.319C58.7519 23.091 58.0989 23.29 57.7679 23.902C57.6219 24.172 57.5259 24.474 57.4429 24.771C57.2009 25.642 57.9419 26.413 58.8069 26.141C59.3909 25.957 59.9459 25.659 60.4799 25.353C60.6609 25.251 60.7389 24.967 60.8029 24.863ZM57.5969 32.872C57.1489 30.918 56.5249 30.425 55.1809 30.731C54.6169 30.86 54.3299 31.209 54.3889 31.814C54.4659 32.61 54.5979 33.401 54.7379 34.418C55.5259 33.455 56.3719 32.89 57.5969 32.872ZM76.0309 17.761C76.7649 17.545 77.3669 17.397 77.9449 17.186C78.3489 17.038 78.5029 16.634 78.3769 16.271C78.2419 15.886 78.0179 15.408 77.6939 15.245C77.2959 15.044 76.7319 15.018 76.2799 15.112C75.7329 15.226 74.9969 15.179 74.8119 16.004C75.1979 16.56 75.5799 17.111 76.0309 17.761ZM57.7379 42.643C58.0969 43.32 58.5179 43.834 59.1769 44.171C59.7799 43.943 60.3619 43.723 60.9489 43.501C60.9979 43.204 61.0609 42.96 61.0749 42.713C61.1319 41.736 60.7479 41.321 59.8139 41.298C58.8929 41.273 58.2879 41.756 57.7379 42.643ZM73.7629 45.315C74.0519 45.235 74.2439 45.237 74.2769 45.165C74.6179 44.432 74.9649 43.698 75.2409 42.94C75.3989 42.505 74.9619 41.875 74.4649 41.828C73.5059 41.737 72.6139 41.891 71.9689 42.875C72.3649 43.261 72.7629 43.561 73.0459 43.946C73.3319 44.336 73.5049 44.809 73.7629 45.315ZM18.2919 17.996C17.0309 18.185 16.2679 18.887 16.0609 20.023C15.9229 20.781 16.2729 21.453 17.0649 21.764C17.8379 20.863 18.5559 20.025 19.3359 19.116C18.9309 18.681 18.6049 18.332 18.2919 17.996ZM75.2299 45.292C77.0269 45.414 77.9839 44.361 79.0109 43.513C78.9669 43.286 78.9599 43.162 78.9169 43.053C78.8719 42.939 78.8109 42.82 78.7249 42.735C77.9129 41.936 77.1629 41.938 76.5509 42.844C76.0689 43.556 75.7239 44.361 75.2299 45.292ZM23.9559 40.586C23.9749 40.959 23.8899 41.294 24.0189 41.484C24.8489 42.709 26.7839 43.49 28.4069 43.309C28.4449 42.267 27.9399 41.737 26.9189 41.52C26.0169 41.329 25.1509 40.971 23.9559 40.586ZM33.7339 42.213C33.8329 44.133 34.2729 44.484 35.9899 44.043C36.1709 43.997 36.3529 43.954 36.5289 43.895C37.4599 43.581 37.5849 43.232 37.1779 42.016C36.0429 42.141 34.8579 41.62 33.7339 42.213ZM58.4849 22.35C58.7839 21.457 59.0109 20.881 59.1659 20.286C59.3199 19.696 58.9009 18.989 58.3889 19.02C57.7789 19.057 57.1269 19.129 56.5879 19.386C56.1069 19.615 55.9009 20.185 55.7909 20.884C57.0449 20.663 57.6809 21.481 58.4849 22.35ZM73.2139 45.423C72.9439 45.073 72.7989 44.871 72.6399 44.682C71.9519 43.869 71.2709 43.775 70.2339 44.686C70.0019 44.89 69.8139 45.146 69.6209 45.39C69.3309 45.758 69.1839 46.199 69.4399 46.603C69.7169 47.039 70.2079 46.919 70.6349 46.841C70.8149 46.808 70.9939 46.73 71.1529 46.638C71.7919 46.272 72.4239 45.891 73.2139 45.423ZM69.1849 31.882C69.0419 32.089 68.8899 32.221 68.8509 32.382C68.5819 33.468 68.3139 34.555 68.0919 35.651C67.8639 36.772 67.9259 37.89 68.3059 38.976C68.5119 39.563 68.8289 40.043 69.6909 40.215C68.6039 37.403 69.0479 34.674 69.1849 31.882ZM91.0219 20.702C91.0719 20.594 91.1699 20.482 91.1639 20.376C91.0669 18.756 90.0579 17.655 88.9689 16.613C88.7989 16.451 88.5349 16.337 88.3019 16.307C88.0869 16.279 87.8539 16.394 87.6289 16.447C87.6819 16.667 87.6639 17.01 87.7989 17.088C88.9519 17.755 89.3439 18.819 89.4659 20.053C89.4769 20.163 89.5839 20.264 89.6689 20.407C89.9859 20.526 90.3299 20.671 90.6859 20.78C90.7799 20.811 90.9089 20.731 91.0219 20.702ZM32.4079 11.42C31.3169 9.97895 30.7139 9.68496 29.5289 10.009C29.2619 10.082 28.9449 10.294 28.8259 10.53C28.4799 11.218 28.4569 11.916 29.0179 12.585C30.1549 12.195 31.1969 11.836 32.4079 11.42ZM71.8249 14.211C69.8029 13.748 69.8029 13.748 68.5019 14.444C69.1059 14.789 69.7449 15.038 70.2309 15.464C70.7159 15.888 71.0469 16.489 71.4919 17.073C71.8489 16.631 72.1519 16.257 72.4479 15.89C72.2279 15.299 72.0379 14.784 71.8249 14.211ZM79.1889 15.175C79.9929 14.718 80.6789 14.326 81.4589 13.883C81.1919 13.523 81.0579 13.138 80.8339 13.076C80.0629 12.86 79.2639 12.713 78.4669 12.638C78.2449 12.617 77.9169 12.888 77.7709 13.112C77.5529 13.446 77.6169 13.835 77.9399 14.12C78.3119 14.449 78.6979 14.762 79.1889 15.175ZM80.2589 38.204C78.8439 39.361 77.2179 40.094 75.9099 41.486C76.8019 41.389 77.5869 41.456 78.2409 41.195C79.1529 40.831 79.9769 40.24 80.8149 39.708C81.1059 39.523 81.1519 39.169 80.9499 38.883C80.7819 38.644 80.5299 38.464 80.2589 38.204ZM27.9039 4.40996C27.0499 4.51896 26.1459 4.57396 25.4189 5.24296C25.7409 5.80796 26.0159 6.29096 26.3149 6.81396C27.0399 6.91096 27.8089 7.27796 28.3509 6.46896C28.8579 5.71396 28.5899 5.04496 27.9039 4.40996ZM38.6649 42.116C38.6339 42.604 38.6119 42.955 38.5929 43.266C40.9279 44.335 41.6729 44.126 42.5599 42.049C41.2729 42.07 40.0739 41.889 38.6649 42.116ZM76.7099 12.7C75.5429 12.542 74.6939 12.951 73.8329 13.258C73.4219 13.404 72.9689 13.651 72.9919 14.14C73.0099 14.517 73.2659 14.883 73.4409 15.312C74.5109 14.806 75.4479 14.362 76.4529 13.887C76.5209 13.573 76.5989 13.217 76.7099 12.7ZM29.2659 4.08496C29.2269 4.65796 29.4309 4.92596 29.9079 4.82696C31.1259 4.57396 32.2549 4.67996 33.2529 5.50496C33.3179 5.55896 33.4829 5.49296 33.6489 5.47796C33.7329 5.35396 33.8999 5.21596 33.9239 5.05596C34.0979 3.87896 33.8039 3.50096 32.6949 3.53196C31.5199 3.56496 30.3629 3.73496 29.2659 4.08496ZM81.1089 20.611C82.1649 21.196 82.9139 20.776 83.7429 20.293C83.7489 19.554 83.5409 18.914 82.9189 18.516C82.2319 18.076 81.6329 18.494 81.0009 18.771C81.0389 19.413 81.0709 19.963 81.1089 20.611ZM22.5419 13.723C22.4319 13.197 22.4739 12.745 22.2739 12.574C21.7529 12.127 21.0839 11.92 20.3809 12.052C19.7299 12.173 19.2529 12.535 19.0769 13.323C20.1179 14.092 21.2769 13.472 22.5419 13.723ZM83.7549 29.348C83.8799 29.127 84.0839 28.93 84.0889 28.728C84.1099 27.923 84.0859 27.115 84.0409 26.31C84.0279 26.073 83.9099 25.833 83.8029 25.612C83.6599 25.317 83.4319 25.106 83.0719 25.171C82.6949 25.238 82.5709 25.527 82.6139 25.859C82.7009 26.536 82.8009 27.213 82.9439 27.88C83.0569 28.401 83.0969 28.982 83.7549 29.348ZM38.0249 5.45096C36.9509 5.01896 36.1529 4.69796 35.2979 4.35396C34.9189 5.06296 34.5709 5.71096 34.1899 6.42396C35.0069 6.46396 35.7949 6.50196 36.5829 6.53996C36.9849 6.23596 37.3809 5.93696 38.0249 5.45096ZM37.4689 39.608C36.9399 38.028 36.2809 37.908 34.2929 38.967C34.2909 39.65 34.6469 39.999 35.3099 40.081C36.0959 40.18 36.7789 39.897 37.4689 39.608ZM28.9869 38.619C30.2599 39.932 31.5299 40.044 32.9219 39.573C33.2569 39.46 33.3459 38.855 33.0549 38.624C32.8709 38.478 32.6139 38.327 32.3979 38.338C31.3629 38.393 30.3309 38.502 28.9869 38.619ZM62.2999 16.69C62.6469 17.009 63.0469 17.376 63.3679 17.671C64.1649 17.523 64.5589 17.119 64.7609 16.593C64.8819 16.279 64.8959 15.843 64.7719 15.537C64.6169 15.151 64.1709 15.169 63.7949 15.236C63.1629 15.348 62.6039 15.572 62.2999 16.69ZM21.5419 21.822C22.2679 21.081 22.9289 20.435 23.5479 19.751C23.6929 19.592 23.7669 19.297 23.7419 19.079C23.7189 18.873 23.5229 18.687 23.3019 18.329C22.5519 19.71 21.3559 20.356 20.1609 21.061C20.3539 21.288 20.4449 21.486 20.5919 21.546C20.9289 21.684 21.2919 21.753 21.5419 21.822ZM72.9589 29.49C72.7729 31.627 73.2099 34.95 73.9509 36.577C73.7379 34.121 73.5539 31.964 73.3529 29.809C73.3459 29.73 73.1809 29.664 72.9589 29.49ZM23.5099 39.889C22.3059 38.572 21.7529 37.049 20.5239 35.812C20.3609 36.294 20.2459 36.633 20.1039 37.052C21.0619 38.036 22.0049 39.006 22.9549 39.97C22.9789 39.995 23.0669 39.957 23.5099 39.889ZM37.3639 7.25696C37.6319 7.77496 37.8799 8.25495 38.1799 8.83595C38.7249 8.50295 39.1639 8.23296 39.6459 7.93896C39.1979 7.38596 38.8519 6.94496 38.4849 6.52196C38.4239 6.45196 38.2729 6.45996 38.0879 6.41196C37.8759 6.66096 37.6409 6.93496 37.3639 7.25696ZM30.0649 25.866C29.9859 25.816 29.9069 25.765 29.8289 25.715C29.6379 25.892 29.3409 26.037 29.2739 26.253C28.9449 27.312 28.6499 28.384 28.4019 29.465C28.3129 29.855 28.3879 30.282 28.3879 30.692C28.4429 30.701 28.4989 30.709 28.5549 30.717C29.0569 29.101 29.5609 27.483 30.0649 25.866ZM82.8619 30.484C82.9799 30.442 83.0979 30.399 83.2159 30.357C82.8879 29.637 82.5809 28.906 82.2239 28.201C81.8939 27.549 82.0119 26.695 81.2689 25.955C81.4229 27.792 82.0819 29.161 82.8619 30.484ZM23.1609 37.583C23.1729 36.805 22.7139 36.198 22.4319 35.537C22.2879 35.201 22.0439 34.9 21.8099 34.613C21.7179 34.501 21.5269 34.47 21.1909 34.314C21.6089 35.696 22.5069 36.563 23.1609 37.583ZM77.5959 26.664C77.3219 28.139 77.2259 29.621 78.0609 30.997C77.9059 29.553 77.7509 28.108 77.5959 26.664ZM39.8519 30.883C39.6259 32.194 39.1039 33.253 39.3899 34.741C39.6579 33.895 39.8239 33.31 40.0299 32.738C40.2269 32.19 40.5989 31.657 39.8519 30.883ZM43.9829 13.132C43.8729 13.182 43.7629 13.232 43.6529 13.281C43.8069 13.801 44.0019 14.313 44.1019 14.844C44.2029 15.378 44.2099 15.93 44.2609 16.509C44.8219 16.419 45.1329 16.253 44.9259 15.657C44.7659 15.197 44.6929 14.706 44.5269 14.248C44.3869 13.861 44.1679 13.503 43.9829 13.132ZM13.9909 14.239C14.1849 13.88 14.4379 13.539 14.5569 13.157C14.6549 12.843 14.4969 12.569 14.0799 12.608C13.6979 13.059 13.5389 13.551 13.9909 14.239ZM40.6859 35.074C40.5819 35.098 40.4789 35.123 40.3759 35.147C40.2869 35.501 40.1589 35.85 40.1179 36.209C40.0679 36.647 40.3289 36.717 41.1009 36.435C40.9629 35.984 40.8249 35.529 40.6859 35.074ZM29.4099 40.524C28.1729 40.242 28.1729 40.242 27.5079 40.568C28.2599 40.866 28.2599 40.866 29.4099 40.524ZM32.9959 25.976C33.5279 25.323 33.8699 24.802 33.6899 23.83C33.0869 24.536 32.8439 25.09 32.9959 25.976ZM74.4289 37.934C74.6619 38.664 74.7029 39.473 75.6379 40.265C75.3519 39.149 74.8719 38.535 74.4289 37.934ZM21.7819 18.285C20.9969 18.582 20.5619 18.913 20.2759 19.597C21.0779 19.5 21.6249 19.32 21.7819 18.285ZM78.6159 33.152C78.4309 33.973 78.6559 34.437 78.9829 34.878C79.0219 34.839 79.0609 34.799 79.1559 34.703C79.0119 34.29 78.8559 33.842 78.6159 33.152ZM67.0619 14.894C66.4779 15.015 66.2129 15.07 65.9489 15.124C65.9959 15.342 66.0429 15.56 66.1279 15.951C66.4509 15.585 66.6419 15.369 67.0619 14.894ZM37.3189 25.578C36.8599 25.873 36.5109 26.212 36.8759 26.939C37.0719 26.339 37.1959 25.959 37.3189 25.578Z" fill="white"/>
<path d="M62.382 8.69202C61.89 9.56502 61.812 9.61502 59.5 10.539C60.284 9.45602 60.856 9.08802 62.382 8.69202Z" fill="white"/>
<path d="M49.2759 31.1539C49.8909 32.2419 50.0549 33.1599 50.1149 34.2009C49.4599 33.6419 49.4599 33.6419 49.2759 31.1539Z" fill="white"/>
<path d="M65.5039 9.421C66.6879 8.523 66.6919 8.533 68.3549 8.495C67.2989 8.945 66.7369 9.603 65.5039 9.421Z" fill="white"/>
<path d="M50.7749 23.0459C51.0169 23.8879 50.9769 24.5899 50.5789 25.3669C50.0569 24.3249 50.0669 24.2099 50.7749 23.0459Z" fill="white"/>
<path d="M51.5589 16.225C51.6809 16.46 51.8069 16.6 51.7769 16.663C51.4829 17.273 51.1699 17.874 50.8399 18.465C50.8069 18.524 50.6019 18.547 50.5219 18.503C50.4299 18.453 50.3269 18.304 50.3349 18.209C50.4159 17.353 50.9639 16.813 51.5589 16.225Z" fill="white"/>
<path d="M62.847 12.6329C62.238 12.8289 61.617 13.0289 60.964 13.2389C61.226 12.4409 61.576 12.0799 62.279 12.0029C62.61 11.9679 62.852 12.1949 62.847 12.6329Z" fill="white"/>
<path d="M70.7289 7.05791C71.4879 6.15991 72.1229 5.95491 72.9949 5.99291C72.3859 6.68391 72.3859 6.68391 70.7289 7.05791Z" fill="white"/>
<path d="M83.348 7.72095C83.273 8.00495 83.266 8.34395 82.874 8.39595C82.696 8.41995 82.511 8.41395 82.331 8.40195C82.036 8.38395 81.744 8.34895 81.178 8.29595C81.494 8.00195 81.621 7.77895 81.764 7.76895C82.304 7.73095 82.849 7.76295 83.391 7.76795L83.348 7.72095Z" fill="white"/>
<path d="M78.5109 9.392C77.7309 9.593 77.0539 10.17 76.1609 9.977C76.8539 9.167 76.9139 9.149 78.5109 9.392Z" fill="white"/>
<path d="M73.749 8.93899C73.317 9.63299 72.645 9.78299 71.939 9.86699C72.307 9.09699 72.97 8.89699 73.749 8.93899Z" fill="white"/>
<path d="M52.616 19.5009C52.803 18.7919 53.154 18.2099 53.833 17.6229C53.546 19.3089 53.39 19.5319 52.616 19.5009Z" fill="white"/>
<path d="M81.6849 10.8219C82.1059 10.2149 82.6309 10.2079 83.2949 10.5669C82.8309 11.1979 82.2669 11.0439 81.6849 10.8219Z" fill="white"/>
<path d="M65.413 6.34991C66.196 5.55591 66.196 5.55591 67.343 5.65191C66.725 6.12891 66.129 6.36991 65.413 6.34991Z" fill="white"/>
<path d="M51.7859 38.554C51.1539 37.751 51.1079 37.556 51.1199 36.017C51.5399 36.769 51.8079 37.556 51.7859 38.554Z" fill="white"/>
<path d="M49.3529 44.9569C49.5499 45.1799 49.7719 45.3869 49.9379 45.6309C50.1139 45.8889 50.6259 46.1979 50.1179 46.4839C49.7539 46.6889 49.4579 46.2709 49.2959 45.9329C49.1739 45.6799 49.1199 45.3939 49.0349 45.1229C49.1409 45.0679 49.2469 45.0119 49.3529 44.9569Z" fill="white"/>
<path d="M54.141 46.355C54.727 46.676 55.086 47.131 55.219 47.81C54.217 47.565 54.202 47.543 54.141 46.355Z" fill="white"/>
<path d="M67.3169 11.632C67.7569 11.291 68.2149 11.058 68.8159 11.251C67.9569 12.346 67.9409 12.35 67.3169 11.632Z" fill="white"/>
<path d="M47.7629 35.867C47.0019 35.154 47.3069 34.486 47.2699 33.892C47.6049 34.422 47.7789 34.987 47.7629 35.867Z" fill="white"/>
<path d="M46.49 27.9459C46.842 28.4479 46.801 29.0169 46.543 29.6379C46.4 29.1099 46.257 28.5819 46.115 28.0529C46.239 28.0179 46.365 27.9809 46.49 27.9459Z" fill="white"/>
<path d="M69.1079 4.33702C69.2419 4.17302 69.2719 4.10901 69.3219 4.07901C69.6279 3.89801 69.9019 3.59001 70.3149 3.79801C70.3599 3.82101 70.4149 3.89601 70.4089 3.93801C70.3299 4.48501 69.9199 4.59301 69.4679 4.60601C69.3789 4.60901 69.2879 4.47702 69.1079 4.33702Z" fill="white"/>
<path d="M47.667 21.293C47.966 21.925 48.024 22.495 47.747 23.027C47.316 23.077 47.236 22.81 47.282 22.581C47.368 22.144 47.534 21.722 47.667 21.293Z" fill="white"/>
<path d="M76.033 7.32002C75.746 6.47202 76.138 6.30202 76.596 6.23402C76.735 6.21302 76.899 6.35602 77.051 6.42302C77.001 6.53102 76.978 6.67402 76.894 6.74002C76.66 6.92402 76.4 7.07702 76.033 7.32002Z" fill="white"/>
<path d="M53.8299 44.849C53.0299 44.362 53.2639 43.726 53.4729 43.078C53.6359 43.462 53.8239 43.838 53.9499 44.234C53.9949 44.377 53.8909 44.567 53.8299 44.849Z" fill="white"/>
<path d="M54.782 13.276C55.087 12.765 55.419 12.408 56.436 12.483C56.001 12.884 55.861 13.068 55.677 13.171C55.434 13.306 55.191 13.568 54.782 13.276Z" fill="white"/>
<path d="M89.511 13.8829C89.895 13.8619 90.28 13.8399 90.83 13.8099C90.4 14.5959 89.988 14.5479 89.511 13.8829Z" fill="white"/>
<path d="M88.0819 11.6569C87.7529 11.7159 87.4249 11.7889 87.0929 11.8199C87.0259 11.8259 86.8909 11.6739 86.8839 11.5859C86.8759 11.4909 86.9709 11.3099 87.0379 11.3009C87.3739 11.2569 87.7169 11.2579 88.0569 11.2429C88.0659 11.3809 88.0739 11.5199 88.0819 11.6569Z" fill="white"/>
<path d="M53.3199 11.079C53.8829 10.417 54.1729 10.077 54.5619 9.62C54.5629 10.764 54.5629 10.764 53.3199 11.079Z" fill="white"/>
<path d="M57.9349 6.976C58.2819 6.396 58.7249 6.11399 59.4489 6.36399C59.0909 7.05499 58.4729 6.95 57.9349 6.976Z" fill="white"/>
<path d="M62.5439 4.38992C62.9889 4.09592 63.3189 3.87692 63.7109 3.61792C63.7119 4.52392 63.6169 4.58992 62.5439 4.38992Z" fill="white"/>
<path d="M49.4259 39.6099C48.7469 39.0109 48.6929 38.4939 48.7879 37.6899C49.0139 38.0679 49.1839 38.2689 49.2589 38.5009C49.3459 38.7729 49.3499 39.0709 49.4259 39.6099Z" fill="white"/>
<path d="M43.9659 29.2479C44.1639 29.9629 44.2719 30.3519 44.4029 30.8229C43.5579 30.5299 43.5599 30.5289 43.9659 29.2479Z" fill="white"/>
<path d="M45.4739 43.375C45.9679 43.567 46.2699 43.893 46.2889 44.456C45.4079 44.339 45.4079 44.339 45.4739 43.375Z" fill="white"/>
<path d="M48.703 16.549C48.466 16.768 48.287 16.975 48.065 17.109C48.01 17.142 47.725 16.958 47.698 16.838C47.621 16.496 48 16.062 48.307 16.127C48.431 16.152 48.52 16.345 48.703 16.549Z" fill="white"/>
<path d="M56.899 14.8679C56.649 15.1669 56.398 15.4669 56.111 15.8089C55.953 15.1719 55.953 15.1719 56.899 14.8679Z" fill="white"/>
<path d="M62.219 49.173C62.798 49.173 63.148 49.161 63.497 49.181C63.593 49.187 63.684 49.289 63.776 49.347C63.704 49.434 63.65 49.563 63.557 49.601C63.168 49.766 62.766 49.914 62.219 49.173Z" fill="white"/>
<path d="M92.403 21.6889C92.474 21.4129 92.437 20.9989 92.841 21.0239C93.245 21.0489 93.441 21.3499 93.309 21.9269C92.984 21.8279 92.673 21.7339 92.361 21.6389L92.403 21.6889Z" fill="white"/>
<path d="M44.5189 22.8759C44.4799 22.5959 44.3989 22.3129 44.4239 22.0389C44.4329 21.9379 44.7109 21.7679 44.8269 21.7959C44.9469 21.8249 45.1039 22.0619 45.0929 22.1949C45.0739 22.4259 44.9379 22.6479 44.8509 22.8729C44.7399 22.8739 44.6289 22.8749 44.5189 22.8759Z" fill="white"/>
<path d="M58.685 48.4029C58.312 48.0109 58.064 47.7489 57.745 47.4129C58.536 47.3879 58.536 47.3879 58.685 48.4029Z" fill="white"/>
<path d="M46.9069 42.5799C46.8259 42.3059 46.7279 42.0349 46.6759 41.7559C46.6599 41.6699 46.7709 41.5599 46.8239 41.4609C46.9189 41.5199 47.0729 41.5599 47.0979 41.6399C47.1809 41.9139 47.2179 42.2019 47.2719 42.4849C47.1499 42.5159 47.0289 42.5479 46.9069 42.5799Z" fill="white"/>
<path d="M24.3479 2.99399C23.4869 3.63899 22.7019 4.07699 21.5809 4.07699C22.5809 2.95899 22.5809 2.95899 24.3479 2.99399Z" fill="white"/>
<path d="M7.28496 17.809C7.36696 18.881 7.41896 19.575 7.47896 20.363C6.38496 19.479 6.37596 19.409 7.28496 17.809Z" fill="white"/>
<path d="M7.54594 30.372C7.08394 30.221 6.85394 30.218 6.79594 30.116C6.38094 29.392 5.99894 28.648 6.23294 27.422C6.70994 28.496 7.05594 29.272 7.54594 30.372Z" fill="white"/>
<path d="M16.6389 36.809C18.1729 37.538 18.1729 37.538 18.2289 38.611C17.4729 38.297 17.0579 37.788 16.6389 36.809Z" fill="white"/>
<path d="M12.066 30.9189C12.479 31.6649 12.894 32.3269 13.034 33.2589C11.947 32.4839 11.947 32.4839 12.066 30.9189Z" fill="white"/>
<path d="M10.0539 41.3029C9.31092 40.9269 8.88392 40.3179 8.74792 39.3999C9.65592 40.1269 9.65592 40.1269 10.0539 41.3029Z" fill="white"/>
<path d="M3.65991 17.928C3.75291 18.749 3.82491 19.381 3.91791 20.194C2.95591 19.195 2.95591 19.195 3.65991 17.928Z" fill="white"/>
<path d="M7.07898 15.2109C6.65698 14.4989 6.78098 13.9509 7.19998 13.3059C7.48798 14.2879 7.48798 14.2879 7.07898 15.2109Z" fill="white"/>
<path d="M9.89997 16.6429C10.373 17.3929 10.696 17.8859 10.332 18.5309C9.65497 17.9679 9.65497 17.9679 9.89997 16.6429Z" fill="white"/>
<path d="M4.80792 23.089C5.42392 23.653 5.44392 23.643 5.72492 24.705C4.79192 24.399 4.74992 24.325 4.80792 23.089Z" fill="white"/>
<path d="M9.25394 26.502C9.94094 27.53 9.94094 27.53 10.1029 28.773C9.19194 27.895 9.18794 27.886 9.25394 26.502Z" fill="white"/>
<path d="M9.70398 32.116C10.216 32.706 10.681 33.336 10.681 34.237C9.94498 33.737 9.94498 33.737 9.70398 32.116Z" fill="white"/>
<path d="M18.3149 5.02902C18.7679 4.66102 19.2209 4.29402 20.0219 3.64502C19.8579 4.26702 19.8699 4.53802 19.7449 4.63702C19.3839 4.92502 18.9679 5.14302 18.5739 5.38902C18.4869 5.27002 18.4009 5.14902 18.3149 5.02902Z" fill="white"/>
<path d="M15.9679 6.37598C15.7049 6.97398 15.3569 7.50498 14.4509 7.51998C14.6899 6.65298 15.2959 6.49098 15.9679 6.37598Z" fill="white"/>
<path d="M10.2099 14.919C10.1469 13.874 10.1119 13.294 10.6289 12.604C10.9879 13.446 10.9279 14.018 10.2099 14.919Z" fill="white"/>
<path d="M23.7939 47.284C22.7329 47.394 22.7329 47.394 22.1749 46.329C22.8319 46.413 23.1949 46.804 23.7939 47.284Z" fill="white"/>
<path d="M31.7449 45.779C31.9379 45.91 32.1299 46.042 32.3399 46.186C31.4859 46.842 31.4859 46.842 30.5709 46.539C31.0319 46.244 31.4159 45.997 31.7999 45.751L31.7449 45.779Z" fill="white"/>
<path d="M13.9779 40.641C14.6569 41.274 15.0799 41.679 15.0079 42.528C14.2619 42.109 14.2139 41.507 13.9779 40.641Z" fill="white"/>
<path d="M12.7469 39.415C11.5809 39.005 11.5659 38.276 11.3149 37.49C12.1399 37.916 12.2259 38.6 12.7469 39.415Z" fill="white"/>
<path d="M8.12099 35.9029C7.33799 35.4159 7.33799 35.4159 7.38899 34.2489C7.69499 34.9429 7.90799 35.4229 8.12099 35.9029Z" fill="white"/>
<path d="M3.62393 30.105C3.71493 30.116 3.79293 30.101 3.83193 30.133C4.16393 30.409 4.48593 30.697 4.24093 31.194C4.22193 31.232 4.12893 31.268 4.08893 31.254C3.49993 31.043 3.44193 30.626 3.62393 30.105Z" fill="white"/>
<path d="M19.166 45.702C18.876 45.208 18.587 44.713 18.298 44.219C18.984 44.472 19.426 44.88 19.529 45.522C19.408 45.582 19.287 45.642 19.166 45.702Z" fill="white"/>
<path d="M11.8909 10.7229C11.7309 9.93292 12.0679 9.64292 12.5099 9.41492C12.9199 9.64192 12.8739 9.75092 11.8909 10.7229Z" fill="white"/>
<path d="M20.8749 48.8099C19.9259 48.3359 19.4889 47.9179 19.3119 46.9659C20.0659 47.4309 20.5339 47.8019 20.8749 48.8099Z" fill="white"/>
<path d="M14.7019 37.7299C13.9419 37.3169 13.6289 36.9289 13.7099 36.2959C14.2999 36.7069 14.2999 36.7069 14.7019 37.7299Z" fill="white"/>
<path d="M12.1599 24.9619C11.9689 25.0919 11.8659 25.2189 11.7899 25.2039C11.3549 25.1159 11.0809 24.6129 11.2529 24.2179C11.2859 24.1419 11.5329 24.0669 11.5529 24.0929C11.7709 24.3709 11.9619 24.6689 12.1599 24.9619Z" fill="white"/>
<path d="M3.09494 27.841C2.77694 27.546 2.60694 27.454 2.54294 27.314C2.44494 27.103 2.41994 26.858 2.36194 26.617C3.08394 26.586 3.04194 27.073 3.09494 27.841Z" fill="white"/>
<path d="M9.32898 10.768C9.36298 9.99499 9.50298 9.58699 10.09 9.39099C10.313 9.95499 10.075 10.311 9.32898 10.768Z" fill="white"/>
<path d="M8.86491 22.406C9.04191 22.958 9.14791 23.224 9.20791 23.5C9.24091 23.652 9.19691 23.82 9.17891 24.152C8.51091 23.678 8.64291 23.209 8.86491 22.406Z" fill="white"/>
<path d="M12.6609 44.2299C12.4219 43.8549 12.184 43.4799 11.95 43.1119C12.312 42.8239 12.3299 42.8439 12.6609 44.2299Z" fill="white"/>
<path d="M16.513 46.5039C16.485 46.5899 16.48 46.6739 16.449 46.6859C16.351 46.7229 16.2309 46.7709 16.1419 46.7429C16.0379 46.7099 15.92 46.6199 15.875 46.5239C15.81 46.3839 15.8049 46.2159 15.7729 46.0609C15.9239 46.0749 16.1059 46.0399 16.2169 46.1139C16.3529 46.2019 16.426 46.3809 16.513 46.5039Z" fill="white"/>
<path d="M17.2059 40.8099C17.3889 40.7319 17.5729 40.6379 17.5809 40.6519C17.7069 40.8539 17.8099 41.0719 17.9179 41.2849C17.8139 41.3269 17.6409 41.4299 17.6179 41.4029C17.4659 41.2259 17.3459 41.0209 17.2059 40.8099Z" fill="white"/>
</svg>
