<svg width="62" height="60" viewBox="0 0 62 60" fill="none" xmlns="http://www.w3.org/2000/svg">
<path d="M60.86 38.689C61.128 39.322 61.34 39.793 61.528 40.273C61.999 41.482 62.004 42.6961 61.404 43.8531C60.965 44.6991 60.802 45.52 61.086 46.456C61.453 47.671 61.368 48.881 60.749 50.079C61.799 51.763 62.088 53.5751 61.446 55.4661C61.189 56.2231 60.909 57.0261 59.842 57.4611C59.94 56.7261 60.014 56.1741 60.094 55.5701C59.751 55.1201 59.207 55.1361 58.733 55.2631C58.25 55.3921 57.787 55.66 57.375 55.952C57.221 56.061 57.139 56.4351 57.198 56.6381C57.257 56.8351 57.512 57.0341 57.726 57.1141C58.236 57.3031 58.879 57.0131 59.379 57.5701C59.214 57.7121 59.09 57.912 58.947 57.926C57.339 58.082 55.729 58.295 54.116 58.327C51.14 58.386 48.171 58.3201 45.197 58.6771C43.218 58.9141 41.195 58.7531 39.193 58.8071C37.581 58.8511 35.97 58.9371 34.36 59.0281C32.746 59.1181 31.149 59.1081 29.524 58.9611C27.083 58.7401 24.619 58.7401 22.155 58.9751C20.233 59.1591 18.287 59.1821 16.354 59.1391C12.928 59.0621 9.505 58.8871 6.082 58.7381C5.707 58.7211 5.33601 58.609 4.87201 58.525C4.87201 58.151 4.86499 57.853 4.87299 57.555C4.90199 56.366 4.78901 55.2621 3.79801 54.3781C3.03101 53.6951 2.74601 52.7431 2.98001 51.7161C3.12101 51.0971 2.93399 50.6221 2.65799 50.0721C2.16599 49.0921 1.81101 48.0491 2.21201 46.9041C2.41101 46.3331 2.277 45.7881 1.965 45.2371C1.685 44.7421 1.55 44.1571 1.397 43.6001C1.17 42.7741 1.087 41.9541 1.551 41.1531C1.945 40.4771 1.845 39.805 1.474 39.124C1.229 38.673 1.01501 38.18 0.919007 37.68C0.811007 37.119 0.672007 36.4601 0.863007 35.9661C1.28601 34.8781 1.18101 33.8201 1.06201 32.7271C0.940013 31.6061 1.03301 30.507 1.78601 29.594C2.34101 28.921 2.41 28.1591 2.185 27.3951C1.827 26.1801 2.094 25.076 2.677 24.036C3.146 23.201 3.34001 22.3861 3.07401 21.4401C2.81201 20.5091 3.11 19.6501 3.603 18.8501C4.144 17.9741 4.82799 17.132 4.29999 15.995C4.53699 15.061 4.77999 14.1281 5.01199 13.1921C5.14999 12.6371 5.493 12.016 5.358 11.534C5.001 10.263 5.50401 9.25206 6.04001 8.21806C6.27601 7.76006 6.57699 7.33705 6.82599 6.93505C6.43899 4.24405 7.49999 2.59206 10.093 1.79606C13.496 0.750058 16.932 0.397051 20.416 1.37905C21.247 1.61305 22.057 1.69805 22.894 1.39405C23.254 1.26305 23.67 1.28406 24.032 1.15606C25.056 0.794059 26.059 0.80805 27.077 1.17205C27.44 1.30205 27.85 1.31205 28.202 1.46305C29.499 2.01905 30.776 2.02305 32.176 1.77605C33.624 1.52205 35.152 1.57305 36.555 2.24705C37.235 2.57405 37.868 2.58006 38.587 2.22306C39.969 1.53706 41.383 1.30505 42.869 2.10505C43.322 2.34905 43.995 2.23905 44.561 2.20405C45.137 2.16805 45.708 2.03506 46.277 1.92506C48.025 1.58706 49.403 2.46105 50.76 3.33305C51.051 3.52005 51.28 3.93106 51.368 4.28106C51.588 5.14106 52.073 5.80405 52.715 6.36605C53.492 7.04805 53.951 7.90905 53.944 8.91405C53.936 10.0441 54.427 10.9301 55.101 11.7201C55.767 12.5001 56.161 13.3381 56.127 14.3621C56.103 15.1251 56.477 15.734 56.873 16.327C57.494 17.254 57.957 18.243 58.156 19.344C58.214 19.66 58.341 20.0111 58.259 20.2961C57.925 21.4601 58.227 22.417 58.95 23.355C59.337 23.855 59.511 24.5181 59.789 25.1031C60.103 25.7601 60.253 26.4321 60.165 27.1731C60.067 28.0061 60.043 28.848 59.998 29.687C59.981 30.008 59.862 30.4341 60.018 30.6381C61.026 31.9591 60.485 33.662 61.176 35.077C61.458 35.655 61.332 36.4671 61.278 37.1641C61.24 37.6651 61.014 38.156 60.86 38.689ZM31.067 20.635C31.389 20.918 31.712 21.2011 32.115 21.5561C33.514 19.9131 34.833 18.367 36.237 16.719C35.799 16.316 35.461 16.0051 35.026 15.6041C34.44 16.3171 33.902 16.8721 33.485 17.5061C32.921 18.3611 32.434 19.2691 31.95 20.1731C31.738 20.5691 31.465 20.745 31.028 20.68C31.326 19.907 31.534 19.082 31.94 18.37C32.67 17.088 33.519 15.8741 34.374 14.5461C34.153 14.3211 33.897 14.061 33.646 13.805C31.484 15.634 30.4 17.4721 29.835 20.2941C30.24 20.4061 30.653 20.521 31.067 20.635ZM46.294 13.9881C46.319 14.2411 46.296 14.5101 46.375 14.7441C46.941 16.4151 47.528 18.0781 48.104 19.7331C48.578 18.4341 47.724 17.2941 47.505 16.0751C47.388 15.4211 46.907 14.8291 46.571 14.2201C46.519 14.1251 46.361 14.087 46.252 14.023C46.26 13.015 45.951 12.1951 45.214 11.4221C43.346 9.46405 41.098 8.11406 38.674 7.01606C38.152 6.78006 37.563 6.69805 37.008 6.53405C35.834 6.18905 34.645 5.88405 33.496 5.46905C32.816 5.22305 32.162 5.01405 31.43 5.04905C30.202 5.10805 28.966 5.05705 27.748 5.18505C26.687 5.29705 25.738 5.74206 24.948 6.91006C26.476 6.60006 27.738 6.37205 28.986 6.08205C29.895 5.87105 30.747 5.84606 31.632 6.24006C32.075 6.43706 32.625 6.40205 33.129 6.45405C35.054 6.65405 36.978 6.78506 38.62 8.04206C39.433 8.66506 40.364 9.15706 41.291 9.60806C43.136 10.5071 44.694 11.6931 45.714 13.5201C45.827 13.7231 46.098 13.8351 46.294 13.9881ZM42.781 24.525C42.157 25.637 41.533 26.7501 40.957 27.7761C41.525 28.8131 42.498 27.8941 43.179 28.4881C42.252 29.7501 41.119 28.7491 40.191 28.8631C38.536 30.2551 37.591 30.662 35.816 30.736C32.451 30.874 29.086 31.007 25.721 31.137C24.62 31.179 23.512 31.1441 22.419 31.2571C21.263 31.3771 20.152 31.3711 18.981 31.2261C17.881 31.0901 17.288 30.5611 16.9 29.7541C15.589 27.0241 15.444 24.277 17.075 21.59C17.308 21.207 17.539 20.8231 17.767 20.4441C16.51 17.6371 16.735 14.833 17.645 12.068C18.383 9.82505 19.893 8.09506 21.967 7.02006C23.117 6.42406 24.244 5.83906 25.296 5.07606C26.144 4.46206 27.114 4.14505 28.216 4.20605C29.182 4.25905 30.168 4.22705 31.124 4.08605C31.872 3.97605 32.533 4.06405 33.196 4.36805C34.73 5.07305 36.28 5.72905 37.998 5.83805C38.189 5.85005 38.395 5.88805 38.562 5.97605C40.449 6.96705 42.325 7.96105 44.037 9.26205C45.009 10 45.558 11.0111 46.231 11.9381C47.023 13.0291 47.825 14.168 48.316 15.409C48.854 16.77 49.374 18.2211 49.158 19.7441C49.063 20.4101 49.124 21.0191 49.279 21.6551C49.551 22.7661 49.482 23.8621 48.85 24.8431C47.936 26.2651 48.047 28.1501 46.773 29.4051C46.742 29.4361 46.756 29.536 46.777 29.594C47.004 30.244 46.596 30.5251 46.12 30.8091C45.92 30.9281 45.793 31.1701 45.576 31.4221C46.239 31.6131 46.808 31.729 47.336 31.943C47.741 32.108 48.165 32.3441 48.08 33.2501C47.749 33.5231 47.219 33.959 46.429 34.609C47.026 34.485 47.286 34.4731 47.511 34.3771C48.493 33.9601 49.445 33.7521 50.502 34.2271C50.943 34.4251 51.54 34.4201 52.033 34.3301C52.851 34.1791 53.635 33.7461 54.451 33.6881C55.324 33.6261 56.218 33.8621 56.95 33.9491C57.516 33.4151 57.933 33.0231 58.349 32.6291C58.783 32.2161 59.044 31.782 59.017 31.109C58.969 29.885 58.991 28.6451 59.133 27.4291C59.305 25.9601 58.772 24.677 57.97 23.62C57.259 22.683 57.073 21.8121 57.281 20.7541C57.464 19.8171 57.224 18.9401 56.834 18.1191C56.587 17.6011 56.229 17.115 55.839 16.689C55.366 16.174 55.136 15.6301 55.22 14.9311C55.346 13.8961 54.928 13.0331 54.31 12.2421C54.071 11.9351 53.838 11.6231 53.594 11.3211C53.217 10.8561 52.937 10.351 52.976 9.73005C53.06 8.37305 52.409 7.39705 51.439 6.52705C51.079 6.20305 50.791 5.71906 50.64 5.25306C50.093 3.56206 49.183 2.74105 47.465 2.71105C46.639 2.69605 45.794 2.84006 44.982 3.02406C44.004 3.24406 43.043 3.39805 42.16 2.83305C41.338 2.30705 40.548 2.47106 39.747 2.78706C39.028 3.07106 38.329 3.40505 37.914 3.58805C36.495 3.25005 35.388 2.86905 34.252 2.75005C33.305 2.65105 32.316 2.80005 31.362 2.94605C30.376 3.09805 29.471 3.10405 28.545 2.61005C27.763 2.19305 26.881 1.94406 25.945 1.99606C25.963 2.20506 25.939 2.34006 25.99 2.43406C26.213 2.83906 26.452 3.22805 26.086 3.68105C25.725 4.12805 25.229 4.34806 24.709 4.19506C24.17 4.03606 23.674 3.71606 23.176 3.43806C22.788 3.22106 22.456 2.86605 22.047 2.73505C20.14 2.12205 18.174 1.78305 16.175 1.64605C16.077 1.64005 15.972 1.75306 15.866 1.81306C15.934 2.10406 16.003 2.39505 16.102 2.81705C15.34 2.76905 14.624 2.58405 13.975 2.72105C13.342 2.85505 12.78 3.31905 12.1 3.68505C12.1 3.24205 12.1 2.83405 12.1 2.39005C11.066 2.25505 10.216 2.61805 9.42301 3.00405C8.22201 3.58905 7.60199 4.86706 7.86099 6.24006C7.98499 6.89506 7.87499 7.36805 7.45499 7.83105C7.23899 8.06905 6.98301 8.30305 6.86301 8.58805C6.57701 9.26905 6.025 9.91205 6.431 10.913C7.216 10.05 8.11201 9.57906 9.18201 9.55706C9.60001 9.54806 9.94999 9.70905 9.78299 10.331C9.49899 10.389 9.18299 10.4361 8.87799 10.5191C7.74099 10.8271 7.33099 11.2941 7.37299 12.4331C7.39399 12.9991 7.61899 13.5571 7.74899 14.1191C7.80099 14.3441 7.847 14.5721 7.892 14.7801C7.375 14.9971 7.21499 14.7091 7.00699 14.4621C6.70199 14.0991 6.69202 13.4631 6.08402 13.3641C5.36302 14.0581 5.234 14.9281 5.414 15.7421C5.689 16.9901 5.41901 18.0011 4.65601 18.9921C4.09001 19.7271 3.79801 20.5961 4.11301 21.5541C4.37601 22.3471 4.221 23.0741 3.819 23.7911C3.632 24.1241 3.548 24.5151 3.418 24.8791C3.125 25.4641 3.10499 26.0701 3.38199 26.6901C3.38199 26.0731 3.38199 25.457 3.38199 24.84C3.85099 24.867 4.30599 24.2121 4.78699 24.8081C4.04499 26.6421 4.05 26.6391 5.159 28.5191C5.229 28.6391 5.152 28.8461 5.134 29.2031C4.532 28.7071 4.06001 28.3201 3.60501 27.9461C3.25501 28.6711 2.97101 29.394 2.57501 30.049C2.08101 30.864 1.93599 31.728 1.94699 32.652C1.95699 33.458 2.49199 33.926 3.01199 34.415C3.05699 34.457 3.07499 34.5271 3.11099 34.5801C4.21999 36.1931 5.82201 36.953 7.71301 37.036C8.80101 37.084 9.89801 36.8561 10.993 36.8131C12.604 36.7491 14.252 36.5221 15.821 36.7651C17.712 37.0561 19.529 37.1981 21.376 36.6551C22.119 36.4371 22.869 36.2341 23.629 36.0861C24.124 35.9891 24.672 35.8751 25.143 35.9891C27.059 36.4571 28.873 36.0941 30.656 35.4341C31.356 35.1751 32.035 35.1201 32.749 35.2871C33.127 35.3761 33.504 35.483 33.887 35.54C36.136 35.876 38.385 36.267 40.439 34.786C40.986 34.392 41.647 34.421 42.314 34.538C43.124 34.681 43.951 34.761 44.825 34.465C44.7 34.016 44.541 33.6501 44.51 33.2741C44.476 32.8421 44.556 32.401 44.584 31.999C43.948 31.468 43.35 31.63 42.704 31.816C41.529 32.153 40.337 32.435 39.144 32.704C38.138 32.932 37.122 33.1151 36.109 33.3071C33.785 33.7461 31.566 34.829 29.108 34.456C29.047 34.447 28.981 34.483 28.917 34.486C27.626 34.534 26.332 34.6471 25.043 34.6081C23.695 34.5671 22.361 34.273 21.002 34.611C20.587 34.715 20.107 34.5401 19.656 34.5201C19.209 34.5001 18.759 34.4801 18.314 34.5171C16.499 34.6661 14.918 33.91 13.316 33.243C13.226 33.205 13.125 33.0071 13.15 32.9181C13.199 32.7491 13.311 32.5011 13.44 32.4721C13.813 32.3871 14.211 32.3471 14.593 32.3711C16.593 32.4991 18.601 32.5751 20.587 32.8221C22.081 33.0081 23.545 33.1001 25.018 32.7661C25.136 32.7391 25.239 32.6461 25.331 32.5951C25.353 32.2951 25.374 32.0081 25.406 31.5691C25.932 31.7731 26.372 31.8181 26.611 32.0611C27.231 32.6901 27.973 32.7421 28.763 32.7241C29.087 32.7171 29.417 32.7591 29.735 32.7121C30.684 32.5731 31.605 32.4211 32.533 32.0471C33.378 31.7061 34.485 32.0551 35.378 31.7801C36.691 31.3751 38.026 31.188 39.363 30.956C41.277 30.623 43.014 29.83 44.66 28.827C44.941 28.933 45.22 29.0381 45.466 29.1301C45.858 27.8541 46.14 26.6661 46.591 25.5461C46.977 24.5871 47.12 23.7051 46.658 22.7441C46.375 22.1541 46.189 21.4981 46.531 20.8711C47.125 19.7841 46.854 18.747 46.432 17.708C46.068 16.81 45.688 15.919 45.362 15.135C44.712 14.911 44.176 14.7561 43.666 14.5421C43.017 14.2701 42.425 14.228 41.866 14.743C41.755 14.845 41.562 14.8581 41.396 14.9171C41.359 14.7191 41.276 14.5511 41.325 14.4901C41.523 14.2451 41.728 13.9741 41.993 13.8221C42.819 13.3461 43.704 13.678 44.81 13.9C43.879 12.433 42.883 11.4771 41.61 10.7961C40.927 10.4311 40.247 10.0581 39.588 9.65105C38.042 8.69505 36.5 7.73305 34.633 7.54705C33.925 7.47605 33.174 7.58706 32.509 7.39106C30.837 6.89706 29.223 7.13506 27.554 7.39506C26.561 7.54906 25.587 7.73406 24.85 8.33906C23.657 9.31706 22.56 10.426 21.514 11.564C20.773 12.37 20.223 13.3501 19.515 14.1901C18.286 15.6481 18.53 17.254 18.807 19.049C19.987 18.358 21.019 17.7521 21.948 17.2071C22.235 16.1481 22.502 15.2181 22.732 14.2791C22.8 14.0021 22.767 13.7 22.782 13.387C22.298 13.431 21.945 13.4631 21.181 13.5331C21.765 13.0351 22.025 12.625 22.309 12.607C23.262 12.546 23.775 11.9351 24.371 11.3221C25.383 10.2821 26.568 9.51305 28.091 9.41605C28.401 9.39605 28.806 9.33405 28.989 9.13105C30.179 7.81305 31.665 8.04605 33.148 8.27705C33.337 8.30605 33.495 8.53206 33.689 8.68406C33.546 8.81806 33.499 8.90205 33.452 8.90105C33.013 8.89705 32.572 8.88206 32.133 8.86506C31.378 8.83406 30.612 8.76306 29.977 9.47506C31.195 10.3791 32.396 11.1491 33.451 12.0841C34.557 13.0661 35.524 14.206 36.6 15.327C36.878 15.306 37.199 15.2931 37.515 15.2541C38.911 15.0801 40.187 15.3481 41.425 16.0571C43.674 17.3451 44.361 18.8991 43.649 21.4071C43.349 22.4621 43.047 23.5161 42.747 24.5711L42.781 24.525ZM59.602 46.0781C59.918 45.1631 60.154 44.3671 60.467 43.6031C60.88 42.5971 60.909 41.5751 60.612 40.5631C60.518 40.2461 60.14 39.8041 59.869 39.7851C58.744 39.7101 57.576 39.2041 56.483 39.9531C56.432 39.9871 56.27 39.8581 56.157 39.8041C56.006 39.2831 56.437 39.168 56.743 38.965C57.682 38.343 58.615 38.7971 59.514 39.0411C60.834 37.0131 60.538 35.1231 59.253 33.1701C58.972 33.4341 58.715 33.628 58.518 33.87C57.695 34.883 56.703 35.2941 55.426 34.8131C54.787 34.5721 54.171 34.6331 53.541 34.9071C52.505 35.3591 51.462 35.4921 50.329 35.1231C49.748 34.9341 49.013 34.9191 48.428 35.0931C46.401 35.6991 44.365 35.7291 42.301 35.4401C41.637 35.3471 41.04 35.4761 40.426 35.7671C39.734 36.0971 38.989 36.4481 38.243 36.5131C36.573 36.6581 34.885 36.789 33.223 36.327C32.328 36.079 31.428 36.0761 30.564 36.4901C29.418 37.0381 28.155 37.1961 26.954 37.0631C24.898 36.8361 22.959 37.2431 21.015 37.7371C19.407 38.1461 17.824 38.0931 16.213 37.7571C15.464 37.6011 14.674 37.506 13.916 37.562C12.309 37.681 10.713 37.9441 9.10599 38.0891C8.56399 38.1381 8.15101 38.3481 7.68601 38.5981C6.84901 39.0491 6.15601 39.8081 5.19901 39.9141C3.41801 39.0301 3.14 37.1271 2.065 35.5421C1.65 36.6271 1.77101 37.482 2.18701 38.286C2.75801 39.39 2.80101 40.4771 2.41501 41.6531C2.07601 42.6841 2.148 43.7741 2.91 44.5861C3.564 45.2821 3.51002 45.9431 3.26502 46.7261C2.94102 47.7681 2.94601 48.7721 3.75501 49.6311C3.96701 49.8571 4.18199 50.0821 4.42999 50.3431C3.53899 52.2901 4.123 53.7821 5.858 54.9071C5.858 55.7811 5.858 56.6071 5.858 57.4271C7.311 58.0351 8.75899 57.856 10.158 58.034C11.639 58.222 13.01 58.1651 13.926 56.7371C13.992 56.6331 14.12 56.5681 14.224 56.4901C14.91 55.9761 15.315 55.9331 15.97 56.4571C16.673 57.0191 17.317 57.6541 17.915 58.1921C18.082 58.2341 18.145 58.2671 18.207 58.2631C22.736 57.9811 27.265 57.815 31.793 58.277C32.15 58.313 32.578 58.4131 32.818 57.9741C31.906 56.8281 31.906 56.8281 32.997 56.0861C33.075 56.3951 33.055 56.792 33.234 56.93C33.714 57.3 34.347 57.3911 34.794 57.9171C34.993 58.1531 35.652 58.0341 36.101 58.0191C39.335 57.9071 42.57 57.7791 45.804 57.6561C48.713 57.5451 51.623 57.4401 54.533 57.3131C54.964 57.2941 55.388 57.17 55.81 57.096C55.965 56.37 56.097 55.7541 56.237 55.1001C56.961 54.8471 57.613 54.537 58.301 54.4C59.022 54.257 59.775 54.2811 60.597 54.2271C60.597 53.7211 60.597 53.239 60.597 52.719C59.754 52.999 59.033 53.2911 58.285 53.4741C57.024 53.7841 56.886 53.723 56.011 52.844C57.534 52.683 59.091 52.8551 60.232 51.5241C60.027 51.0501 59.804 50.5371 59.596 50.0571C59.98 49.1111 60.639 48.2661 60.004 47.2891C59.347 46.9151 58.363 47.199 58.08 46.232C58.155 46.163 58.203 46.083 58.252 46.081C58.691 46.074 59.133 46.0781 59.602 46.0781ZM23.184 29.8131C23.473 29.9261 23.588 30.0091 23.707 30.0131C27.969 30.1671 32.223 30.0111 36.464 29.5951C37.089 29.5341 37.705 29.263 38.293 29.012C38.476 28.934 38.693 28.5641 38.648 28.3901C38.464 27.6581 38.364 26.776 37.483 26.538C35.955 26.124 34.628 25.372 33.396 24.409C32.827 23.964 32.171 23.954 31.572 24.286C30.843 24.688 30.119 25.124 29.478 25.65C27.825 27.004 26.105 28.2421 24.164 29.1541C23.843 29.3051 23.566 29.5521 23.184 29.8131ZM39.941 27.7161C41.238 25.4871 42.128 23.2911 42.748 20.9851C42.862 20.5601 42.819 20.087 42.815 19.637C42.805 18.651 42.287 17.8811 41.542 17.3541C40.703 16.7611 39.757 16.2891 38.672 16.3211C38.322 16.3311 37.975 16.4341 37.694 16.4831C38.09 18.0331 38.689 19.4501 38.757 20.8931C38.827 22.3991 38.386 23.9301 38.175 25.4101C38.713 26.1131 39.251 26.8151 39.941 27.7161ZM31.782 22.8761C30.875 21.5671 29.682 21.198 28.456 21.152C26.959 21.095 25.718 20.59 24.525 19.732C23.915 19.293 23.151 19.054 22.432 18.788C22.198 18.702 21.889 18.8171 21.554 18.8451C22.924 21.5461 25.942 24.4691 28.204 25.3201C29.331 24.5501 30.493 23.7561 31.782 22.8761ZM25.178 27.333C25.112 27.139 25.107 26.9791 25.026 26.9061C23.272 25.3391 21.987 23.3921 20.611 21.5171C20.321 21.1221 19.975 20.7681 19.648 20.3881C19.386 20.6631 19.216 20.8571 19.031 21.0331C17.985 22.0271 17.886 22.3501 18.594 23.5041C19.269 24.6051 19.976 25.7011 20.803 26.6861C21.327 27.3101 22.078 27.756 22.771 28.217C23.008 28.375 23.406 28.4431 23.677 28.3661C24.289 28.1921 24.867 27.9 25.178 27.333ZM29.652 10.842C27.806 12.778 25.743 17.4211 25.814 19.4031C26.084 19.5261 26.368 19.6561 26.58 19.7531C26.89 18.9001 27.14 18.121 27.452 17.368C28.177 15.625 29.357 14.156 30.375 12.59C30.98 11.659 30.943 11.592 29.652 10.842ZM27.751 20.1431C28.142 20.0031 28.435 19.987 28.562 19.833C28.803 19.543 29.027 19.1941 29.122 18.8341C29.547 17.2351 30.499 15.9501 31.471 14.6641C31.856 14.1551 32.18 13.5951 32.486 13.0331C32.538 12.9371 32.383 12.6911 32.272 12.5591C32.21 12.4881 32.02 12.4681 31.918 12.5051C31.745 12.5681 31.545 12.6601 31.443 12.8021C30.545 14.0551 29.61 15.285 28.799 16.594C28.195 17.57 27.727 18.6401 27.751 20.1431ZM18.401 13.5851C18.883 13.2001 19.234 13.0311 19.418 12.7531C20.53 11.0851 21.805 9.56806 23.334 8.26606C23.525 8.10306 23.902 7.91505 23.61 7.44405C21.879 7.88305 20.792 9.19805 19.718 10.4331C19.044 11.2091 18.356 12.1191 18.401 13.5851ZM36.818 17.801C35.328 18.836 34.361 20.102 33.433 21.4C33.288 21.601 33.146 21.8771 33.166 22.1031C33.191 22.3701 33.395 22.6191 33.537 22.9071C34.639 21.6611 35.661 20.5141 36.672 19.3561C36.838 19.1661 37.046 18.9411 37.069 18.7161C37.096 18.4611 36.935 18.189 36.818 17.801ZM37.563 19.788C36.305 20.846 35.319 21.9271 34.429 23.0931C34.103 23.5211 34.436 23.7841 34.884 23.9781C35.901 23.1611 36.94 22.3271 38.026 21.4551C37.88 20.9251 37.747 20.449 37.563 19.788ZM22.103 21.344C21.994 21.446 21.884 21.547 21.775 21.648C22.671 22.822 23.513 24.0421 24.483 25.1511C24.979 25.7191 25.68 26.1221 26.336 26.5221C26.485 26.6121 26.833 26.375 27.307 26.215C26.224 25.333 25.289 24.6541 24.455 23.8691C23.62 23.0821 22.884 22.19 22.103 21.344ZM21.651 29.23C20.71 27.773 18.372 24.991 17.709 24.523C18.093 25.776 19.414 27.9741 20.261 28.6961C20.637 29.0181 21.048 29.327 21.651 29.23ZM19.715 29.7281C18.762 28.5861 18.207 27.3611 17.149 26.3481C17.216 27.9491 17.489 28.913 18.023 29.577C18.406 30.054 18.692 30.0991 19.715 29.7281ZM25.749 12.0311C24.007 13.0611 23.525 14.7531 23.541 16.6691C24.277 15.1231 25.013 13.5771 25.749 12.0311ZM24.705 18.2791C25.484 16.3911 26.265 14.5041 27.038 12.6131C27.055 12.5721 27.018 12.492 26.982 12.452C26.954 12.42 26.889 12.4201 26.75 12.3801C25.739 14.1931 24.557 15.9461 24.705 18.2791ZM48.127 23.719C48.62 22.295 48.611 22.2461 47.693 20.8351C47.011 21.9671 47.949 22.802 48.127 23.719ZM6.685 37.9341C5.631 37.7131 5.07999 37.224 4.33099 37.568C5.12399 38.679 5.13399 38.7351 5.59299 38.6571C5.85399 38.6121 6.078 38.3491 6.685 37.9341ZM37.477 23.4011C36.671 23.7171 36.141 24.0021 35.929 24.6731C37.101 25.2071 37.154 25.1681 37.477 23.4011ZM15.96 57.9981C15.474 56.9371 15.159 56.899 14.419 57.896C14.931 58.216 15.416 58.3421 15.96 57.9981ZM43.618 30.4531C44.245 30.7541 44.833 30.8631 45.404 30.0191C44.642 30.2041 44.13 30.3281 43.618 30.4531ZM45.979 32.59C45.83 32.792 45.665 32.9591 45.584 33.1601C45.563 33.2121 45.802 33.445 45.939 33.465C46.271 33.512 46.657 33.131 46.521 32.924C46.435 32.79 46.226 32.734 45.979 32.59Z" fill="white"/>
<path d="M8.49096 47.412C8.66996 47.724 8.85596 48.05 9.06796 48.421C8.85896 48.464 8.64895 48.581 8.51095 48.524C7.47695 48.094 7.24397 47.475 7.77597 46.581C7.96797 46.255 8.22098 45.965 8.51898 45.56C7.73398 44.962 6.96995 44.402 6.23095 43.811C5.74895 43.425 5.67496 42.942 5.95996 42.445C6.29296 41.866 6.80796 41.685 7.43396 42.013C8.40196 42.519 9.38298 43.015 10.282 43.629C10.996 44.116 10.954 44.659 10.303 45.211C10.013 45.457 9.62197 45.612 9.39697 45.902C9.05097 46.347 8.80696 46.872 8.49096 47.412ZM7.36398 42.829C7.61798 43.902 7.95596 44.138 9.65796 44.397C8.99996 43.557 8.23598 43.172 7.36398 42.829Z" fill="white"/>
<path d="M50.2821 42.239C49.0341 42.202 48.5801 41.185 47.9761 40.4C47.7401 40.092 47.7851 39.634 48.1041 39.341C48.4311 39.041 48.7941 38.77 49.1781 38.547C49.7851 38.195 50.4201 37.893 51.1381 37.521C52.0541 37.763 53.0561 37.967 53.4421 39.279C52.9341 39.796 52.4211 40.351 51.8711 40.868C51.3611 41.347 50.8131 41.784 50.2821 42.239ZM49.0441 40.084C49.1421 40.246 49.2511 40.477 49.4061 40.672C49.5601 40.865 49.7601 41.022 49.9551 41.208C50.9451 40.707 51.6601 40 52.3631 39.038C52.1571 38.907 51.9861 38.705 51.8361 38.719C51.2731 38.771 50.6991 38.844 50.1591 39.006C49.6681 39.151 49.2101 39.418 49.0441 40.084Z" fill="white"/>
<path d="M53.297 46.541C53.577 45.825 54.171 45.666 54.672 45.424C55.63 44.96 55.828 45.047 56.587 45.945C56.992 46.425 57.444 46.865 57.853 47.298C57.966 47.976 57.607 48.453 57.296 48.92C56.871 49.557 56.232 49.637 55.648 49.18C55.498 49.062 55.354 48.931 55.229 48.786C54.571 48.03 53.92 47.267 53.297 46.541ZM54.908 46.485C55.222 47.425 55.748 48.019 56.557 48.558C56.723 48.216 56.854 47.946 57.012 47.621C56.408 47.072 56.019 46.282 54.908 46.485Z" fill="white"/>
<path d="M49.1271 53.103C47.7311 53.275 46.5881 53.417 45.5051 53.55C45.3381 53.415 45.2101 53.354 45.1461 53.252C44.0461 51.501 44.6411 50.766 46.5131 50.627C47.1551 50.579 47.8021 50.537 48.4451 50.555C49.0731 50.572 49.4441 50.929 49.4161 51.515C49.3921 52.009 49.2421 52.497 49.1271 53.103ZM48.5451 52.176C47.7231 51.362 47.5011 51.281 46.6001 51.508C46.2171 51.604 45.8541 51.778 46.0641 52.421C46.8141 52.619 47.5931 52.729 48.5451 52.176Z" fill="white"/>
<path d="M27.0969 41.6521C28.4299 42.2661 29.6639 42.7841 30.8479 43.3981C31.5549 43.7661 31.4869 44.5591 30.7619 44.8841C30.4799 45.0111 30.1359 45.1341 29.8459 45.0901C28.5109 44.8891 27.2349 44.5231 26.1799 43.4061C26.4759 42.8411 26.7579 42.3011 27.0969 41.6521ZM27.6889 42.9141C28.0629 43.7411 28.6789 44.0911 29.6939 43.8591C29.1629 43.1231 28.5149 42.8681 27.6889 42.9141Z" fill="white"/>
<path d="M39.3819 47.133C38.6289 46.679 38.0649 46.374 37.5369 46.014C36.8329 45.533 36.8149 45.011 37.5239 44.484C38.0889 44.063 38.6999 43.689 39.3309 43.374C40.0699 43.006 40.6719 43.157 41.0559 43.697C41.4969 44.318 41.5569 45.141 41.0719 45.67C40.6029 46.181 40.0209 46.589 39.3819 47.133ZM38.3329 45.239C39.1919 46.03 39.4239 46.097 39.9179 45.728C40.4839 45.305 40.5029 44.968 39.9659 44.108C39.3229 44.336 38.6999 44.588 38.3329 45.239Z" fill="white"/>
<path d="M21.506 50.444C21.261 51.679 19.851 51.802 19.436 52.838C18.494 52.63 17.865 52.166 17.224 51.769C16.517 51.331 16.537 50.696 17.192 50.222C18.876 48.999 19.729 49.038 21.506 50.444ZM17.902 50.928C19.076 51.833 19.309 51.858 19.861 51.225C20.101 50.949 20.028 50.641 19.713 50.458C19.025 50.061 18.531 50.442 17.902 50.928Z" fill="white"/>
<path d="M9.58295 52.6641C10.8209 52.8791 11.6259 53.4151 12.3909 54.0111C12.7869 54.3201 12.8299 54.8971 12.4509 55.1991C11.9049 55.6321 11.2939 55.9811 10.7849 56.3161C9.72994 56.0411 9.07493 55.4241 8.32593 55.0171C8.37493 53.9031 9.25195 53.4861 9.58295 52.6641ZM9.56595 54.3461C10.4109 55.0721 10.529 55.1511 11.006 55.0371C11.168 54.9981 11.3519 54.8231 11.4149 54.6651C11.4749 54.5181 11.4539 54.2561 11.3559 54.1401C10.7599 53.4321 10.2269 53.5031 9.56595 54.3461Z" fill="white"/>
<path d="M19.143 41.005C19.857 42.581 19.857 42.581 18.17 44.165C17.383 43.933 16.527 43.72 15.704 43.412C15.469 43.324 15.248 42.983 15.186 42.719C15.149 42.561 15.387 42.254 15.578 42.14C16.637 41.511 17.81 41.211 19.143 41.005ZM17.029 42.52C17.275 43.064 17.6199 43.266 18.0799 43.03C18.2569 42.94 18.335 42.658 18.457 42.463C18.264 42.365 18.06 42.171 17.88 42.191C17.594 42.223 17.324 42.398 17.029 42.52Z" fill="white"/>
<path d="M31.313 52.9991C31.365 52.5371 31.357 52.1501 31.458 51.7931C31.764 50.7041 32.326 50.4481 33.312 50.9441C33.884 51.2321 34.434 51.5651 34.983 51.8971C35.078 51.9541 35.116 52.1051 35.19 52.2301C35.081 52.6701 34.711 52.5901 34.45 52.4981C33.972 52.3281 33.536 52.0351 33.054 51.8721C32.896 51.8181 32.655 52.0061 32.281 52.1491C33.421 53.1971 34.445 53.7901 35.927 52.7121C35.698 53.6721 35.223 53.9231 34.755 54.0221C34.346 54.1071 33.864 54.0291 33.456 53.8971C32.793 53.6821 32.164 53.3631 31.313 52.9991Z" fill="white"/>
<path d="M28.134 56.977C26.217 57.712 26.219 57.728 24.781 56.947C24.717 56.838 24.606 56.733 24.595 56.618C24.454 55.102 24.8 54.25 25.582 54.273C26.454 54.298 27.179 54.754 27.821 55.298C28.313 55.713 28.399 56.277 28.134 56.977ZM25.874 55.321C25.509 56.368 25.763 56.85 26.679 56.803C26.842 56.795 27.063 56.672 27.138 56.536C27.214 56.397 27.211 56.138 27.128 56C26.852 55.542 26.459 55.237 25.874 55.321Z" fill="white"/>
<path d="M21.426 44.868C21.577 44.139 22.059 43.951 22.564 43.804C23.062 43.659 23.441 43.921 23.798 44.212C24.098 44.457 24.413 44.691 24.673 44.975C24.939 45.265 25.131 45.612 24.88 46.024C24.589 46.5 23.992 46.799 23.566 46.594C22.753 46.2 21.929 45.798 21.426 44.868Z" fill="white"/>
<path d="M42.842 43.5131C43.438 43.6951 43.691 43.7181 43.882 43.8381C45.206 44.6771 46.504 44.8371 47.811 43.7931C47.916 43.7101 48.211 43.7421 48.333 43.8331C48.612 44.0431 48.439 44.2991 48.268 44.4841C47.544 45.2661 46.557 45.3931 45.596 45.3611C44.536 45.3271 43.596 44.9201 42.842 43.5131Z" fill="white"/>
<path d="M17.592 53.5591C17.877 54.0461 18.018 54.2611 18.135 54.4881C18.811 55.8011 19.07 55.9441 20.544 55.8511C20.831 55.8331 21.123 55.8811 21.417 55.8991C21.39 56.5531 20.957 56.6261 20.613 56.7181C19.89 56.9111 19.195 56.7191 18.545 56.3991C17.589 55.9271 17.265 55.0871 17.592 53.5591Z" fill="white"/>
<path d="M43.386 48.397C43.472 48.016 43.54 47.715 43.611 47.408C44.174 47.202 44.693 46.959 45.24 46.836C45.507 46.775 46.008 46.854 46.084 47.017C46.259 47.396 46.33 47.881 46.259 48.29C46.226 48.483 45.774 48.715 45.501 48.73C45.135 48.749 44.762 48.558 44.387 48.49C44.09 48.436 43.785 48.432 43.386 48.397Z" fill="white"/>
<path d="M27.3149 38.488C28.3859 38.881 29.1559 39.124 29.8919 39.444C30.7119 39.801 31.5139 39.418 32.2799 39.381C32.6099 39.877 32.2599 40.098 32.0109 40.17C31.5269 40.309 30.9669 40.48 30.5099 40.361C29.5899 40.124 28.7089 39.721 27.8319 39.339C27.6679 39.267 27.5999 38.973 27.3149 38.488Z" fill="white"/>
<path d="M33.889 45.4691C32.552 47.4371 32.5521 47.4371 33.1961 49.4641C32.8961 49.3681 32.6031 49.3661 32.4761 49.2201C31.5021 48.0991 31.758 46.1991 33.007 45.3371C33.143 45.2421 33.45 45.3951 33.889 45.4691Z" fill="white"/>
<path d="M38.476 48.078C38.604 48.275 38.8259 48.464 38.8429 48.67C38.9319 49.693 39.6009 50.092 40.4769 50.308C40.8389 50.397 41.199 50.497 41.526 50.583C41.562 51.089 41.3009 51.318 40.9609 51.273C40.0519 51.153 39.2279 50.773 38.5409 50.166C37.9219 49.618 38.088 48.893 38.476 48.078Z" fill="white"/>
<path d="M52.2201 52.254C51.3771 53.637 51.3771 53.637 52.3401 55.074C51.6311 55.312 51.205 54.901 50.873 54.434C50.419 53.796 50.625 52.702 51.235 52.138C51.44 51.948 51.6331 51.971 52.2201 52.254Z" fill="white"/>
<path d="M51.129 49.4461C50.833 49.3911 50.547 49.4231 50.387 49.2961C49.526 48.6081 49.33 47.2191 49.991 46.3571C50.284 45.9731 50.704 45.8081 51.141 46.2231C50.419 47.5281 50.419 47.5281 51.129 49.4461Z" fill="white"/>
<path d="M28.907 53.8601C27.587 53.3651 26.909 52.4101 26.868 51.0251C26.864 50.9091 26.917 50.7481 27.002 50.6821C27.138 50.5771 27.317 50.4991 27.486 50.4811C27.581 50.4711 27.789 50.6191 27.78 50.6691C27.573 51.9391 28.306 52.8411 28.907 53.8601Z" fill="white"/>
<path d="M40.158 53.9041C40.419 55.4011 40.419 55.4011 41.971 56.0841C42.005 56.5651 41.637 56.5791 41.336 56.5581C39.919 56.4601 39.193 55.7011 39.372 54.4861C39.431 54.1031 39.625 53.7291 40.158 53.9041Z" fill="white"/>
<path d="M13.877 47.3731C12.502 48.7051 12.5 48.7831 13.645 50.5171C12.93 50.5951 12.468 50.2901 12.215 49.7481C11.907 49.0891 11.891 48.3631 12.223 47.7061C12.349 47.4571 12.669 47.2521 12.946 47.1551C13.132 47.0901 13.396 47.2491 13.877 47.3731Z" fill="white"/>
<path d="M43.9099 37.4711C43.7859 39.1171 44.8069 39.7451 46.7539 39.9071C46.0159 40.1931 45.7329 40.4001 45.4529 40.3941C44.1979 40.3671 43.1169 39.2791 43.0999 38.0321C43.0949 37.5941 43.3259 37.2901 43.9099 37.4711Z" fill="white"/>
<path d="M53.958 37.1771C55.787 35.7281 56.66 35.5591 57.999 36.1681C57.95 36.2691 57.915 36.4461 57.848 36.4591C56.554 36.7101 55.256 36.9421 53.958 37.1771Z" fill="white"/>
<path d="M5.78601 51.432C6.56901 52.725 6.56899 52.725 8.02099 53.592C8.03999 54.03 7.73001 54.194 7.42001 54.065C6.84601 53.825 6.26498 53.538 5.78698 53.147C5.28998 52.739 5.28401 52.167 5.78601 51.432Z" fill="white"/>
<path d="M12.5981 41.166C11.4901 40.796 11.448 40.647 11.86 38.751C12.298 38.551 12.632 38.628 12.632 39.164C12.631 39.531 12.4541 39.896 12.4371 40.266C12.4241 40.553 12.5351 40.845 12.5981 41.166Z" fill="white"/>
<path d="M38.1861 40.075C37.8661 40.202 37.5531 40.4 37.2241 40.435C36.9731 40.462 36.701 40.283 36.175 40.107C36.977 39.657 37.5071 39.483 38.1861 40.075Z" fill="white"/>
<path d="M24.233 48.3961C25.246 48.1301 25.88 47.9631 26.506 47.7991C26.852 48.2501 26.52 48.4541 26.256 48.5671C25.711 48.8001 25.158 48.7141 24.233 48.3961Z" fill="white"/>
<path d="M17.934 45.41C18.396 45.679 18.757 45.878 19.1 46.105C19.138 46.13 19.1 46.345 19.037 46.425C18.971 46.511 18.796 46.617 18.733 46.586C18.41 46.424 18.094 46.237 17.81 46.015C17.758 45.974 17.864 45.73 17.934 45.41Z" fill="white"/>
<path d="M6.73408 28.056C7.13108 28.357 7.50206 28.606 7.83506 28.896C8.34906 29.341 8.60208 29.843 8.47508 30.597C8.28608 31.716 8.63407 32.759 9.29807 33.689C9.84107 34.448 10.4621 35.067 11.4721 35.142C11.6871 35.158 11.8901 35.325 12.1861 35.462C11.0731 36.036 10.6171 36.038 9.84705 35.479C9.05105 34.9 8.41907 34.173 8.01307 33.268C7.85707 32.921 7.72306 32.564 7.56706 32.182C7.12206 32.389 6.72308 32.574 6.32408 32.76C5.81508 32.555 5.32807 32.389 4.86707 32.165C4.21307 31.847 4.10908 31.362 4.54408 30.745C4.72908 30.482 4.95607 30.249 5.16007 29.998C5.63607 29.415 6.10808 28.829 6.73408 28.056ZM5.53706 31.261C6.84906 31.528 6.97707 31.425 7.24107 29.906C6.66707 30.332 5.86106 30.299 5.53706 31.261Z" fill="white"/>
<path d="M48.733 7.14201C48.067 6.44701 47.711 5.85701 47.19 5.57801C46.003 4.94401 44.788 4.76602 43.54 5.63902C42.365 6.46202 40.407 6.02401 39.595 4.84901C39.434 4.61601 39.336 4.20401 39.432 3.96601C39.526 3.73401 39.892 3.50901 40.165 3.47001C41.014 3.34901 41.837 3.534 42.625 3.874C43.344 4.184 44.07 4.36501 44.881 4.30001C45.94 4.21501 46.9289 4.54901 47.8399 5.08901C48.4959 5.48001 48.84 6.03001 48.733 7.14201ZM40.5809 4.469C41.1079 5.18 41.68 5.21101 42.54 4.94601C41.872 4.44601 41.3379 4.265 40.5809 4.469Z" fill="white"/>
<path d="M48.54 9.919C48.146 9.515 47.7239 9.46999 47.2709 9.66299C46.8699 9.83399 46.48 10.029 46.078 10.217C45.74 9.81499 46.101 9.606 46.319 9.444C47.481 8.588 48.219 8.583 49.181 9.589C49.531 9.954 49.8829 10.068 50.3039 10.205C50.9699 10.423 51.648 10.641 52.259 10.972C52.819 11.275 52.829 12.029 52.324 12.433C52.086 12.624 51.776 12.79 51.479 12.833C50.575 12.964 49.885 12.467 49.22 11.946C48.726 11.558 48.492 11.075 48.627 10.428C48.664 10.259 48.568 10.063 48.54 9.919Z" fill="white"/>
<path d="M12.4 17.9991C11.748 16.9641 11.178 16.0601 10.574 15.1011C11.251 14.1371 12.393 14.2361 13.295 13.8601C13.806 13.6471 14.261 13.9451 14.493 14.5271C14.725 15.1111 14.895 15.7181 15.111 16.3731C14.221 16.9061 13.413 17.3911 12.4 17.9991ZM11.871 15.2321C12.156 15.8451 12.355 16.2741 12.596 16.7921C13.097 16.5251 13.473 16.3261 13.929 16.0821C13.72 15.6121 13.549 15.2281 13.361 14.8031C12.895 14.9371 12.531 15.0421 11.871 15.2321Z" fill="white"/>
<path d="M10.349 5.00708C11.2 5.93708 11.971 6.77907 12.756 7.63707C12.332 8.73107 11.527 9.12307 10.438 9.32707C9.81202 8.41807 9.20304 7.53507 8.61304 6.68007C8.93804 5.75107 9.80703 5.63608 10.349 5.00708ZM9.90604 6.48508C9.90604 6.62908 9.86803 6.76808 9.91403 6.87108C10.017 7.10108 10.143 7.32607 10.291 7.53207C10.757 8.18307 11.223 8.34607 11.493 7.96307C11.849 7.46207 11.485 7.12908 11.181 6.81108C10.833 6.44608 10.47 6.03208 9.90604 6.48508Z" fill="white"/>
<path d="M5.93602 24.001C5.75202 23.028 5.38501 22.201 5.59001 21.193C6.75701 20.983 7.78202 21.283 8.72002 21.826C8.99702 21.986 9.14202 22.455 9.24602 22.812C9.36502 23.222 9.187 23.584 8.761 23.732C7.908 24.029 7.03802 24.22 5.93602 24.001ZM7.25401 23.476C7.58301 23.222 7.89002 23.087 8.02602 22.853C8.19302 22.564 7.78503 22.228 7.29003 22.212C6.91503 22.2 6.611 22.382 6.666 22.748C6.7 22.984 7.00201 23.181 7.25401 23.476Z" fill="white"/>
<path d="M55.984 21.474C55.662 22.084 55.367 22.728 54.996 23.323C54.649 23.881 54.038 23.982 53.468 23.66C52.799 23.282 52.575 22.698 52.859 22.041C52.935 21.864 53.057 21.707 53.138 21.531C53.359 21.053 53.574 20.56 54.185 20.5C54.951 20.424 55.568 20.67 55.984 21.474ZM54.815 21.867C54.699 21.777 54.583 21.686 54.466 21.596C54.236 21.861 53.993 22.116 53.788 22.398C53.754 22.445 53.851 22.643 53.936 22.707C54.012 22.764 54.22 22.782 54.257 22.732C54.463 22.458 54.634 22.158 54.815 21.867Z" fill="white"/>
<path d="M6.55498 19.8721C6.24098 19.4621 5.96599 19.2661 5.98399 19.1021C6.07799 18.2451 6.46498 17.4881 7.06498 16.8811C7.68198 16.2571 8.49998 16.3271 9.25798 16.5131C9.79698 16.6441 10.335 16.9081 10.396 17.7801C9.75298 17.6251 9.21499 17.4881 8.67399 17.3661C8.09099 17.2341 7.64598 17.4611 7.38298 17.9731C7.12198 18.4791 6.92298 19.0171 6.55498 19.8721Z" fill="white"/>
<path d="M17.322 8.557C15.238 8.649 15.017 8.853 14.704 10.867C14.668 11.097 14.577 11.319 14.516 11.53C14.354 11.511 14.255 11.527 14.231 11.491C13.535 10.482 13.911 9.51599 14.442 8.62199C14.918 7.82299 15.753 7.605 16.631 7.675C17.014 7.705 17.401 7.874 17.322 8.557Z" fill="white"/>
<path d="M52.457 14.238C53.791 14.188 54.379 14.622 54.477 15.59C54.611 16.913 53.577 18.245 52.182 18.523C52.089 18.541 51.926 18.44 51.871 18.35C51.818 18.262 51.811 18.064 51.871 18.004C52.048 17.829 52.271 17.703 52.471 17.55C52.774 17.318 53.123 17.122 53.361 16.835C53.825 16.269 53.768 15.678 53.263 15.097C53.03 14.83 52.779 14.581 52.457 14.238Z" fill="white"/>
<path d="M39.17 12.2181C38.877 11.8631 38.706 11.6191 38.499 11.4131C38.185 11.1001 37.883 10.7481 37.508 10.5291C36.974 10.2161 36.416 10.2361 35.902 10.6811C35.523 11.0091 35.094 11.2811 34.681 11.5691C34.652 11.5891 34.571 11.5341 34.514 11.5141C35.424 9.59811 35.906 9.2891 37.383 9.6771C39.009 10.1041 39.257 10.4231 39.17 12.2181Z" fill="white"/>
<path d="M50.327 25.9211C50.564 25.8551 50.746 25.75 50.912 25.771C51.227 25.811 51.527 25.9501 51.841 26.0011C53.252 26.2301 53.689 26.064 55.021 24.842C55.42 24.92 55.582 25.201 55.419 25.535C55.092 26.21 54.478 26.603 53.773 26.748C52.692 26.972 51.603 26.9381 50.59 26.4191C50.467 26.3561 50.43 26.1241 50.327 25.9211Z" fill="white"/>
<path d="M13.874 22.379C13.636 22.764 13.378 23.041 13.285 23.364C13.167 23.781 13.059 24.272 13.178 24.66C13.267 24.949 13.731 25.117 14.012 25.356C14.092 25.424 14.119 25.553 14.215 25.741C13.451 26.023 12.765 25.814 12.364 25.238C11.843 24.489 12.063 23.629 12.495 22.87C12.756 22.412 13.13 22.09 13.874 22.379Z" fill="white"/>
<path d="M17.685 5.81408C17.608 5.64708 17.443 5.4631 17.483 5.3501C17.989 3.8881 19.659 3.1141 21.064 3.6951C21.246 3.7701 21.35 4.03009 21.55 4.27809C19.042 4.39909 19.86 4.04308 17.685 5.81408Z" fill="white"/>
<path d="M49.761 30.7151C51.199 30.9571 52.286 31.5241 53.25 30.7641C53.707 31.2451 53.557 31.5791 53.267 31.6941C52.219 32.1101 51.164 32.1021 50.184 31.4701C50.051 31.3841 50.004 31.1621 49.761 30.7151Z" fill="white"/>
<path d="M44.67 19.9921C44.574 19.3671 44.496 18.8531 44.408 18.2841C44.707 18.2041 44.943 18.0841 45.176 18.0911C45.715 18.1081 45.996 18.4991 45.85 18.9671C45.688 19.4801 45.385 19.8491 44.67 19.9921Z" fill="white"/>
<path d="M14.732 28.4381C13.762 28.9821 13.762 28.9821 13.268 30.1621C13.118 30.0681 12.852 29.9751 12.855 29.8921C12.872 29.4061 12.845 28.8721 13.04 28.4491C13.31 27.8601 13.958 27.8961 14.732 28.4381Z" fill="white"/>
<path d="M51.3311 20.0941C52.7651 18.8511 53.403 18.7661 54.481 19.6171C53.446 19.7741 52.4931 19.9191 51.3311 20.0941Z" fill="white"/>
<path d="M9.48199 28.674C8.91199 27.411 8.93499 27.2031 9.58899 26.6971C10.175 26.2431 10.409 26.237 11.012 26.661C10.013 27.489 10.013 27.489 9.48199 28.674Z" fill="white"/>
<path d="M42.743 24.57C43.51 23.981 44.35 23.757 45.238 24.224C45.526 24.376 45.703 24.74 46.12 25.228C45.341 24.95 44.852 24.638 44.363 24.64C43.899 24.642 43.437 24.972 42.861 25.204C42.834 24.974 42.807 24.749 42.781 24.524L42.743 24.57Z" fill="white"/>
<path d="M10.674 32.3251C9.92002 32.1481 9.76801 31.7811 9.95301 31.2841C10.106 30.8701 10.427 30.7411 10.945 30.9371C10.859 31.3771 10.777 31.7931 10.674 32.3251Z" fill="white"/>
</svg>
