<svg width="102" height="72" viewBox="0 0 102 72" fill="none" xmlns="http://www.w3.org/2000/svg">
<path d="M43.1359 51.125C43.6689 51.749 44.219 52.347 44.714 52.987C45.071 53.448 45.242 53.993 45.079 54.589C44.923 55.157 44.9619 55.696 45.2049 56.242C45.6729 57.298 45.565 58.339 44.978 59.314C44.57 59.992 44.369 60.633 44.634 61.448C45.162 63.073 44.481 64.525 43.802 65.949C43.535 66.508 43.185 67.027 42.934 67.592C42.415 68.762 41.505 69.3 40.265 69.347C40.077 69.354 39.888 69.323 39.701 69.3C38.714 69.178 37.935 69.397 37.183 70.188C36.061 71.369 34.576 71.781 32.905 71.84C29.615 71.957 26.3819 71.448 23.1229 71.23C21.5629 71.125 19.98 71.237 18.413 71.35C14.786 71.612 11.411 70.815 8.26996 69.023C6.95496 68.272 5.64796 67.604 4.11896 67.323C3.23096 67.16 2.37097 66.628 1.59797 66.113C0.560968 65.423 0.349961 64.675 0.734961 63.49C0.985961 62.715 1.29296 61.947 1.67196 61.227C2.98696 58.721 4.34596 56.238 5.68496 53.745C5.80396 53.525 5.90096 53.293 5.99096 53.102C5.81596 52.517 5.64195 51.983 5.49895 51.44C5.31695 50.755 5.34296 50.085 5.59096 49.402C6.10696 47.981 6.52296 46.523 7.07996 45.121C7.56696 43.895 8.18997 42.739 9.08497 41.723C9.91297 40.781 10.56 39.681 11.363 38.715C12.084 37.848 12.896 37.056 13.693 36.255C14.491 35.452 15.324 34.683 16.133 33.891C17.076 32.968 17.968 31.986 18.96 31.121C20.525 29.756 22.093 28.413 23.402 26.779C24.145 25.851 25.073 25.072 25.896 24.206C27.5 22.518 29.087 20.812 30.687 19.119C33.194 16.468 35.711 13.828 38.21 11.169C38.985 10.344 39.784 9.525 40.453 8.617C42.038 6.462 44.148 4.843 46.044 3.007C46.533 2.533 47.153 2.17 47.765 1.856C48.197 1.633 48.707 1.52399 49.196 1.46099C49.878 1.37399 50.341 1.672 50.728 2.298C51.631 3.754 51.903 5.367 51.885 6.998C51.866 8.626 51.656 10.263 51.39 11.873C50.969 14.417 50.417 16.939 49.947 19.475C49.719 20.712 49.445 21.955 49.379 23.205C49.285 24.985 48.791 26.675 48.451 28.401C48.33 29.017 48.2 29.634 48.115 30.255C47.886 31.94 47.494 33.569 46.954 35.195C46.102 37.757 45.421 40.382 44.798 43.011C44.16 45.699 43.6819 48.426 43.1359 51.125ZM20.454 49.1C20.797 49.142 21.141 49.183 21.474 49.223C21.874 48.529 21.411 48.057 21.153 47.541C22.078 47.461 22.1 48.537 22.682 48.912C23.329 48.041 22.233 47.327 22.693 46.482C23.074 46.711 23.402 46.907 23.997 47.264C23.643 46.174 23.381 45.37 23.12 44.566C24.063 44.436 23.945 45.527 24.561 45.819C25.392 45.264 24.577 44.467 24.825 43.829C25.115 43.901 25.437 44.219 25.604 43.772C25.647 43.657 25.404 43.312 25.236 43.262C24.031 42.905 23.718 43.121 23.16 44.611C22.509 45.601 21.858 46.591 21.207 47.582C20.971 48.098 20.734 48.614 20.497 49.13C20.371 49.326 20.096 49.582 20.145 49.709C20.346 50.215 20.534 50.779 21.371 51.081C21.008 50.297 20.731 49.698 20.454 49.1ZM17.475 54.078C16.684 54.644 16.138 55.372 15.984 56.356C15.485 56.562 15.187 56.928 15.095 57.507C15.546 57.94 16.009 58.386 16.577 58.932C16.773 57.833 15.938 57.175 15.94 56.311C16.335 56.358 16.627 56.282 16.895 55.906C17.051 55.686 17.48 55.659 17.783 55.548C17.655 54.994 17.543 54.511 17.431 54.028C18.303 53.958 18.244 55.167 19.076 55.329C18.76 54.237 18.76 54.237 17.943 53.28C17.773 53.57 17.624 53.824 17.475 54.078ZM42.079 53.684C41.791 53.851 41.465 53.962 41.226 53.673C40.671 53 40.111 52.322 39.634 51.593C37.436 48.238 34.694 45.593 30.672 44.575L30.7179 44.606C29.8569 44.187 29.61 44.184 29.309 44.703C29.094 45.077 28.94 45.495 28.818 45.911C28.21 47.99 28.439 49.896 30.026 51.508C30.112 51.595 30.178 51.711 30.226 51.825C30.273 51.937 30.285 52.064 30.319 52.213C30.145 52.498 29.964 52.798 29.811 53.048C30.164 53.333 30.464 53.577 30.976 53.991C30.13 54.053 29.583 54.093 28.878 54.145C28.979 54.601 28.959 54.996 29.141 55.241C29.603 55.86 30.09 56.49 29.982 57.279C29.805 58.572 30.266 59.602 31.043 60.563C31.156 60.703 31.192 60.905 31.246 61.032C31.142 62.91 29.124 63.563 28.457 65.569C29.189 64.921 29.567 64.517 30.012 64.207C30.78 63.672 31.513 63.992 32.015 65.126C31.721 65.097 31.494 65.065 31.266 65.055C30.969 65.042 30.567 64.92 30.391 65.065C29.589 65.73 28.602 65.934 27.681 66.309C27.235 66.492 26.713 66.645 26.599 67.387C28.059 68.351 29.565 69.138 31.426 68.368C31.52 68.329 31.57 68.182 31.667 68.047C31.506 67.64 31.336 67.21 31.045 66.476C31.551 66.73 31.7979 66.786 31.9379 66.939C32.2309 67.262 32.504 67.615 32.719 67.993C33.124 68.706 33.79 68.912 34.49 68.783C35.086 68.673 35.657 68.358 36.197 68.06C36.506 67.89 36.731 67.571 37.033 67.282C37.354 67.489 37.655 67.615 37.864 67.829C38.629 68.614 39.5989 68.517 40.5239 68.42C41.5369 68.313 41.977 67.712 42.023 66.618C42.036 66.311 42 66.001 41.987 65.732C41.438 65.078 40.664 64.669 40.42 63.668C40.686 63.657 40.959 63.559 41.096 63.656C41.75 64.12 42.367 64.636 43.112 65.224C43.429 64.494 43.818 63.891 43.949 63.238C44.255 61.706 43.186 60.6 42.313 59.213C42.819 59.28 43.051 59.342 43.281 59.332C43.516 59.322 43.822 59.317 43.967 59.176C44.433 58.724 44.793 58.115 44.618 57.486C44.305 56.363 44.103 55.113 42.768 54.62C42.324 54.456 42.028 54.153 42.038 53.637C42.73 53.853 43.399 54.284 44.239 53.922C44.12 52.853 43.685 52.174 42.437 52.002C42.306 52.615 42.192 53.149 42.079 53.684ZM27.689 23.769C26.859 24.217 26.105 24.73 25.867 25.642C26.307 26.269 27.228 25.875 27.46 26.622C27.027 27.185 26.606 26.849 26.253 26.669C25.367 26.218 24.702 26.485 24.085 27.17C23.284 28.057 22.469 28.933 21.63 29.783C19.645 31.795 17.158 33.278 15.477 35.613C12.824 37.636 11.043 40.407 9.10796 43.045C8.88596 43.348 8.68196 43.671 8.51096 44.005C7.55796 45.868 7.12696 47.915 6.46996 49.882C6.33596 50.282 6.37696 50.296 6.86796 51.295C7.42496 50.247 7.94295 49.273 8.45595 48.31C7.92395 47.444 7.85096 47.311 8.16096 46.797C8.74396 45.831 9.32096 44.845 10.034 43.976C11.242 42.502 12.813 41.634 14.77 41.592C15.651 41.572 16.537 41.49 17.412 41.551C19.546 41.701 21.677 41.897 23.805 42.116C26.562 42.401 29.29 42.789 31.884 43.887C34.178 44.858 36.261 46.148 37.978 47.918C39.017 48.99 39.774 50.335 40.657 51.559C40.824 51.79 40.988 52.023 41.189 52.305C42.441 50.041 42.608 49.388 43.209 46.349C43.817 43.266 44.387 40.172 45.385 37.178C45.902 35.629 46.488 34.088 46.821 32.497C47.493 29.3 48.028 26.073 48.591 22.852C48.818 21.554 48.951 20.239 49.158 18.937C49.326 17.884 49.5419 16.839 49.7309 15.789C50.0529 13.996 50.383 12.204 50.686 10.407C50.791 9.78799 50.903 9.15399 50.874 8.53399C50.815 7.27999 50.632 6.032 50.555 4.778C50.476 3.476 49.8539 2.687 48.5369 2.401C45.8619 3.913 43.782 6.101 41.739 8.328C40.036 10.183 38.372 12.074 36.655 13.917C34.251 16.498 31.801 19.036 29.398 21.618C28.762 22.302 28.228 23.081 27.647 23.816L27.689 23.769ZM9.75497 48.313C9.34697 48.887 9.17997 49.067 9.07397 49.279C8.71197 50.008 8.39997 50.762 8.01597 51.479C6.11597 55.024 4.18896 58.553 2.29996 62.104C2.00896 62.65 1.83996 63.268 1.66396 63.868C1.59896 64.094 1.57596 64.429 1.69796 64.595C2.20196 65.283 2.67296 66.058 3.65996 66.124C6.97596 61.911 9.35396 57.206 12 52.551C11.233 51.314 10.027 50.287 9.75497 48.313ZM22.383 43.128C20.895 42.428 20.558 42.462 19.786 43.458C18.978 44.5 18.186 45.555 17.415 46.624C16.424 47.997 15.512 49.43 14.473 50.765C12.763 52.961 11.456 55.388 10.222 57.862C10.059 58.19 9.95796 58.574 9.93296 58.939C9.88796 59.584 10.429 60.19 11.165 60.419C11.628 60.564 11.92 60.397 12.354 59.742C13.048 58.696 13.709 57.625 14.444 56.608C16.135 54.267 17.801 51.916 19.163 49.355C19.867 48.032 20.7909 46.827 21.5459 45.528C21.9749 44.793 22.55 44.066 22.383 43.128ZM23.627 54.909C22.813 54.909 22.066 54.905 21.32 54.91C20.535 54.915 19.996 55.316 19.722 56.022C19.381 56.9 19.06 57.79 18.801 58.695C17.872 61.946 17.508 65.22 18.573 68.654C19.897 68.842 21.216 68.784 22.634 68.058C21.079 63.565 21.889 59.273 23.627 54.909ZM29.069 51.989C28.875 51.661 28.708 51.326 28.493 51.025C27.69 49.895 27.463 48.71 27.648 47.295C27.796 46.172 28.114 45.111 28.43 43.991C27.919 43.622 27.476 43.307 26.837 43.625C25.271 47.089 22.881 50.118 21.1 53.754C22.364 53.779 23.414 53.74 24.453 53.837C25.568 53.941 26.672 54.171 27.829 54.355C28.237 53.576 28.643 52.804 29.069 51.989ZM26.764 55.215C26.191 55.763 25.954 56.403 25.737 57.058C25.478 57.832 25.259 58.625 24.932 59.37C24.019 61.448 24.1309 63.531 24.8169 65.625C24.9249 65.956 24.986 66.375 25.492 66.467C26.039 66.219 26.527 65.881 26.91 65.348C27.418 64.64 27.994 63.979 28.557 63.311C29.157 62.6 29.909 62.006 30.273 61.163C30.204 60.979 30.1919 60.827 30.1099 60.751C29.2219 59.932 28.746 59.029 29.101 57.746C29.296 57.043 28.924 56.382 28.268 55.99C27.792 55.705 27.282 55.479 26.764 55.215ZM36.583 69.367C35.745 69.536 35.082 69.778 34.423 69.771C33.745 69.764 33.074 69.49 32.394 69.38C32.094 69.332 31.765 69.359 31.467 69.427C29.916 69.781 28.464 69.478 27.055 68.824C26.711 68.665 26.355 68.533 26.022 68.355C25.402 68.024 24.818 68.082 24.237 68.446C24.024 68.579 23.794 68.685 23.568 68.798C21.46 69.862 19.195 69.907 16.939 69.647C14.141 69.324 11.653 68.073 9.21197 66.742C8.66397 66.444 8.11296 66.15 7.56396 65.854C7.37796 66.02 7.21397 66.124 7.11297 66.271C7.01197 66.417 6.97396 66.606 6.86996 66.878C7.24396 67.187 7.58896 67.558 8.00796 67.802C11.061 69.581 14.288 70.638 17.899 70.426C21.231 70.23 24.573 70.216 27.896 70.673C28.457 70.75 29.019 70.873 29.581 70.873C31.081 70.874 32.585 70.879 34.078 70.766C35.008 70.696 35.866 70.314 36.583 69.367ZM13.481 61.667C12.324 63.107 11.994 64.655 12.216 66.332C12.263 66.68 12.394 67.174 12.643 67.309C13.598 67.826 14.596 68.305 15.738 68.231C15.898 66.469 15.611 62.761 15.214 61.585C14.639 61.612 14.029 61.641 13.481 61.667ZM12.392 51.606C13.796 50.666 14.396 49.403 15.152 48.287C15.681 47.507 15.372 46.546 14.542 46.075C13.965 45.746 13.361 45.722 12.739 45.96C11.154 46.567 10.401 48.485 11.214 49.971C11.505 50.505 11.927 50.97 12.392 51.606ZM13.192 44.646C13.815 44.852 14.382 44.955 14.86 45.22C15.381 45.51 15.82 45.95 16.376 46.389C17.166 45.035 18.305 44.038 18.943 42.526C17.094 42.261 15.438 42.193 13.794 42.822C13.584 43.46 13.392 44.043 13.192 44.646ZM25.036 56.11C24.951 56.034 24.866 55.957 24.78 55.88C24.588 56.025 24.307 56.13 24.217 56.323C23.876 57.054 23.461 57.79 23.324 58.568C23.01 60.352 22.77 62.157 22.647 63.964C22.58 64.949 22.757 65.974 23.338 66.84C23.454 67.013 23.734 67.076 23.939 67.19C24.024 66.984 24.2119 66.756 24.1749 66.576C24.0469 65.965 23.881 65.354 23.654 64.773C22.997 63.096 23.19 61.482 23.828 59.841C24.302 58.626 24.639 57.356 25.036 56.11ZM9.14497 60.184C7.44297 61.967 6.40597 63.97 5.06097 65.742C4.93397 65.91 4.88697 66.139 4.66897 66.659C5.34997 66.363 5.81496 66.292 6.07896 66.023C7.48996 64.587 8.52396 62.876 9.44196 61.099C9.52796 60.935 9.29097 60.605 9.14497 60.184ZM8.19996 64.896C8.84496 65.154 9.22296 65.895 10.172 65.965C9.90296 64.666 10.463 63.507 10.152 62.29C9.06995 63.146 9.06996 63.146 8.19996 64.896ZM12.287 43.106C10.805 43.91 9.99296 45.192 9.28496 46.832C9.67796 46.832 10.096 46.941 10.187 46.815C10.981 45.721 11.717 44.584 12.464 43.456C12.479 43.432 12.417 43.358 12.287 43.106ZM16.74 62.851C17.124 61.948 17.337 61.046 17.32 59.811C16.553 60.939 16.633 61.908 16.74 62.851ZM17.244 67.385C17.202 66.969 17.168 66.551 17.117 66.136C17.064 65.709 16.997 65.285 16.936 64.859C16.804 65.722 16.556 66.583 17.244 67.385ZM20.443 52.755C20.603 51.937 20.291 51.307 19.503 50.748C19.265 51.741 20.001 52.172 20.443 52.755ZM11.199 63.598C11.806 62.541 11.806 62.541 11.607 61.816C11.252 62.357 11.052 62.891 11.199 63.598ZM19.221 53.061C19.24 52.948 19.314 52.792 19.266 52.728C19.102 52.508 18.896 52.319 18.699 52.125C18.694 52.12 18.586 52.185 18.568 52.232C18.476 52.486 18.782 52.992 19.082 53.085C19.121 53.097 19.173 53.07 19.221 53.061Z" fill="white"/>
<path d="M98.144 61.312C97.429 62.69 96.82 63.922 96.155 65.124C95.825 65.721 95.469 66.337 94.993 66.812C94.019 67.785 93.69 67.78 92.237 67.063C92.004 67.276 91.726 67.506 91.475 67.763C90.723 68.533 89.785 68.806 88.743 68.872C87.932 68.924 87.125 69.043 86.314 69.115C85.94 69.148 85.521 69.249 85.193 69.128C84.275 68.791 83.501 69.125 82.677 69.442C82.158 69.641 81.576 69.779 81.027 69.766C80.313 69.749 79.632 69.822 79.012 70.142C77.001 71.181 75.124 70.918 73.286 69.573C72.825 69.69 72.348 69.821 71.865 69.931C69.704 70.423 67.871 69.998 66.588 68.036C66.523 67.938 66.4 67.877 66.243 67.748C65.934 67.722 65.558 67.713 65.187 67.654C63.66 67.412 62.442 66.715 61.885 65.194C61.634 64.507 61.268 64.039 60.593 63.685C59.331 63.023 58.298 62.136 58.226 60.518C58.212 60.199 57.908 59.825 57.636 59.596C56.814 58.905 56.655 57.984 56.736 57.027C56.828 55.947 56.834 54.895 56.532 53.847C56.465 53.611 56.488 53.346 56.485 53.095C56.452 49.567 56.434 46.038 56.384 42.511C56.366 41.258 56.238 40.007 56.218 38.754C56.18 36.366 56.128 33.977 56.183 31.591C56.25 28.634 56.464 25.681 56.529 22.724C56.575 20.585 56.446 18.442 56.454 16.302C56.465 13.274 56.253 10.268 55.787 7.275C55.671 6.531 55.643 5.77001 55.623 5.01501C55.572 3.18101 55.624 3.02901 56.668 1.17301C57.963 0.718013 59.054 0.976007 60.193 1.97601C63.903 5.23301 67.011 9.02401 70.145 12.802C71.351 14.256 72.638 15.642 73.864 17.081C74.802 18.182 75.776 19.264 76.598 20.448C78.334 22.947 80.555 25.02 82.498 27.335C84.967 30.276 87.544 33.127 90.09 36.004C91.383 37.465 92.735 38.876 94.019 40.346C95.735 42.311 97.002 44.561 97.904 46.996C98.427 48.409 98.769 49.89 99.192 51.34C99.21 51.401 99.208 51.468 99.232 51.525C100.29 53.983 100.547 56.629 101.006 59.225C101.114 59.838 101.158 60.486 101.089 61.101C100.98 62.083 100.203 62.451 99.313 62.009C98.977 61.84 98.666 61.625 98.144 61.312ZM59.497 54.427C59.228 54.775 58.923 55.101 58.697 55.476C57.113 58.098 57.322 57.856 59.294 59.689C59.304 59.846 59.358 60.039 59.32 60.213C59.097 61.224 59.531 61.924 60.355 62.433C60.993 62.828 61.647 63.195 62.331 63.597C62.77 65.676 63.627 66.925 67.032 66.754C67.168 66.985 67.329 67.246 67.474 67.516C68.153 68.771 69.288 69.201 70.622 69.234C71.576 69.258 72.342 68.926 72.767 67.995C72.939 67.619 72.966 67.113 73.655 66.981C73.682 67.275 73.778 67.561 73.716 67.809C73.613 68.225 73.69 68.549 73.985 68.837C75.279 70.1 77.068 70.174 78.524 69.026C78.099 68.137 78.099 68.137 78.099 66.646C77.293 66.612 76.48 66.61 75.673 66.534C74.868 66.458 74.217 66.088 73.964 65.265C73.85 64.892 73.881 64.51 74.412 64.449C75.495 65.83 75.601 65.882 77.238 65.829C77.301 65.827 77.365 65.824 77.426 65.811C78.249 65.628 78.867 66 79.5 66.542C79.307 67.007 79.125 67.444 78.948 67.867C81.052 69.096 81.592 69.105 82.87 67.968C82.744 67.442 82.555 66.91 82.503 66.365C82.449 65.825 82.746 65.408 83.24 65.148C83.597 64.96 83.907 65.004 84.611 65.445C84.303 65.622 84.032 65.746 83.797 65.921C83.226 66.344 83.169 67.082 83.687 67.517C83.923 67.716 84.207 67.906 84.498 67.984C84.979 68.112 85.513 68.276 85.975 68.182C86.491 68.077 86.95 67.702 87.43 67.447C89.521 68.327 90.413 68.054 91.394 66.273C89.054 61.879 86.713 57.512 83.734 53.566C83.56 53.636 83.479 53.645 83.466 53.678C82.623 55.893 80.755 57.263 79.172 58.865C78.96 59.078 78.638 59.203 78.345 59.31C75.657 60.291 72.952 60.533 70.222 59.468C69.766 59.29 69.295 59.149 68.914 59.02C68.236 59.403 68.218 60.341 67.38 60.425C67.037 59.577 67.838 59.12 67.891 58.37C65.402 56.58 63.709 54.13 62.666 50.947C61.312 52.049 59.954 52.833 59.463 54.467L59.497 54.427ZM64.397 7.51101L64.429 7.54801C63.025 5.66601 61.322 4.087 59.446 2.689C59.099 2.43 58.724 2.17401 58.322 2.03301C57.637 1.79401 57.093 2.105 56.847 2.801C56.482 3.832 56.469 4.88201 56.592 5.96801C56.92 8.84301 57.245 11.718 57.235 14.623C57.228 16.885 57.105 19.155 57.505 21.408C57.602 21.948 57.446 22.532 57.406 23.096C57.269 25.032 57.155 26.968 57.371 28.95C57.727 28.95 57.971 28.95 58.215 28.95C58.432 28.95 58.65 28.95 59.244 28.95C58.363 29.512 57.798 29.872 57.244 30.225C57.198 30.599 57.128 30.909 57.126 31.22C57.115 33.798 57.101 36.376 57.118 38.953C57.129 40.652 57.185 42.351 57.234 44.051C57.237 44.15 57.355 44.246 57.42 44.345C57.688 44.39 57.956 44.435 58.464 44.521C57.925 45.022 57.576 45.347 57.311 45.594C57.311 48.22 57.293 50.731 57.327 53.242C57.334 53.702 57.552 54.16 57.747 54.91C58.245 54.222 58.551 53.765 58.892 53.336C59.319 52.798 59.733 52.24 60.224 51.766C61.997 50.059 64.213 49.183 66.533 48.543C68.048 48.126 69.585 47.79 71.105 47.392C72.134 47.123 73.146 46.787 74.175 46.521C75.39 46.208 76.638 46.007 77.827 45.624C78.456 45.421 78.992 44.934 79.57 44.575L79.523 44.622C80.389 44.508 81.293 44.182 82.115 44.324C83.929 44.637 85.578 44.126 87.285 43.733C87.285 43.429 87.285 43.184 87.285 42.907C87.735 42.725 88.191 42.663 88.499 43.064C88.799 43.456 89.169 43.591 89.614 43.667C90.787 43.866 91.966 44.047 93.127 44.302C93.899 44.472 94.602 44.408 95.338 44.044C95.181 43.309 94.874 42.719 94.278 42.297L94.319 42.341C93.673 40.952 92.609 39.876 91.616 38.751C90.867 37.903 90.084 37.086 89.313 36.257C88.927 35.842 88.543 35.427 88.141 35.028C88.063 34.95 87.913 34.943 87.796 34.904C87.359 34.838 87.055 35.708 86.49 35.083C86.756 34.797 87 34.535 87.324 34.187C85.856 32.354 84.268 30.659 82.79 28.881C80.418 26.027 77.841 23.35 75.545 20.416C73.144 17.345 70.5 14.465 67.981 11.485C67.573 11.001 67.128 10.82 66.504 10.859C65.694 10.911 64.879 10.872 63.697 10.872C64.791 10.361 65.762 10.576 66.469 9.93301C66.061 8.84301 65.216 8.18801 64.397 7.51101ZM69.367 48.762C68.206 49.05 67.175 49.29 66.153 49.566C65.73 49.68 65.315 49.843 64.92 50.032C64.083 50.43 63.817 50.973 64.066 51.875C64.214 52.416 64.42 52.957 64.69 53.448C67.043 57.724 71.007 59.586 75.733 58.945C76.71 58.812 77.793 58.566 78.564 58.009C80.296 56.757 81.801 55.248 82.522 53.11C82.81 52.253 82.749 51.566 82.298 50.797C81.536 49.498 80.874 48.141 80.149 46.82C79.975 46.505 79.713 46.239 79.498 45.959C77.748 46.479 76.096 46.97 74.339 47.492C75.524 48.548 75.473 49.748 75.115 51.01C74.947 51.6 74.562 51.994 74.014 52.224C72.953 52.668 71.949 52.479 70.921 52.018C69.99 51.599 69.612 50.911 69.546 49.957C69.524 49.644 69.455 49.335 69.367 48.762ZM85.882 45.188C86.368 45.763 86.763 46.232 87.158 46.699C87.725 47.369 88.306 48.027 88.858 48.709C90.398 50.614 91.845 52.59 93.605 54.317C94.587 55.281 95.41 56.408 96.308 57.459C97.125 58.415 97.937 59.377 98.773 60.316C99.097 60.68 99.417 61.103 100.019 61.045C100.548 60.599 100.422 60.003 100.284 59.483C100.058 58.636 99.806 57.777 99.413 57C98.644 55.484 97.81 54.008 97.574 52.286C97.542 52.046 97.396 51.816 97.275 51.597C96.514 50.221 95.817 48.803 94.955 47.493C94.41 46.666 93.624 45.997 92.926 45.277C92.757 45.102 92.524 44.935 92.293 44.882C90.198 44.405 88.111 44.212 85.882 45.188ZM95.228 64.196C96.031 63.466 96.493 62.545 96.824 61.634C97.14 60.769 97.122 59.84 96.39 58.996C94.951 57.334 93.699 55.513 92.068 54.01C91.47 53.459 90.927 52.829 90.447 52.172C88.925 50.087 87.235 48.148 85.512 46.228C84.721 45.346 83.897 45.238 82.785 45.535C82.935 45.983 83.005 46.362 83.18 46.683C83.901 48.008 84.607 49.345 85.407 50.621C86.307 52.059 87.323 53.422 88.253 54.842C89.562 56.842 90.83 58.869 92.128 60.877C92.953 62.153 93.998 63.226 95.228 64.196ZM80.997 45.464C80.957 45.568 80.854 45.699 80.886 45.774C82.22 48.977 83.978 51.952 85.826 54.877C87.336 57.267 89.003 59.559 90.199 62.142C90.646 63.108 91.215 64.027 91.806 64.915C92.149 65.431 92.621 65.871 93.078 66.299C93.44 66.639 93.893 66.589 94.265 66.254C94.86 65.716 94.895 65.118 94.251 64.479C92.588 62.829 91.186 60.973 89.954 58.996C88.654 56.913 87.268 54.898 85.85 52.893C84.627 51.161 83.345 49.433 82.534 47.421C82.242 46.695 81.637 46.095 81.168 45.443C81.15 45.422 81.056 45.457 80.997 45.464ZM73.063 47.585C72.432 47.848 71.85 48.061 71.295 48.33C70.731 48.604 70.489 49.055 70.584 49.715C70.787 51.14 72.474 51.965 73.74 51.197C73.975 51.054 74.225 50.71 74.228 50.455C74.234 49.912 74.156 49.34 73.971 48.831C73.831 48.443 73.475 48.132 73.063 47.585ZM94.602 45.285C95.244 46.273 95.791 46.85 96.929 46.565C96.63 45.998 96.381 45.525 96.098 44.985C95.624 45.08 95.229 45.159 94.602 45.285ZM97.642 49.925C97.698 48.879 97.482 48.132 97.096 47.448C97.026 47.323 96.604 47.398 96.232 47.373C96.448 48.391 96.786 49.142 97.642 49.925Z" fill="white"/>
<path d="M34.059 43.709C35.74 44.169 35.981 44.324 36.888 45.399C35.827 45.265 35.648 45.164 34.059 43.709Z" fill="white"/>
<path d="M37.936 34.3831C36.684 33.7371 35.775 33.2671 34.812 32.7691C35.676 32.5611 35.677 32.5591 36.467 32.8921C37.022 33.1261 37.612 33.3231 37.936 34.3831Z" fill="white"/>
<path d="M27.058 30.835C28.206 30.495 29.153 30.846 30.447 31.562C28.93 31.729 28.009 31.155 27.058 30.835Z" fill="white"/>
<path d="M27.646 23.815C28.533 23.898 29.483 23.739 30.255 24.374C30.171 24.53 30.151 24.619 30.116 24.625C29.361 24.752 28.68 24.442 27.991 24.224C27.855 24.181 27.787 23.926 27.688 23.769L27.646 23.815Z" fill="white"/>
<path d="M46.573 12.1741C47.511 12.2511 48.091 12.7841 48.693 13.2481C48.601 13.7301 48.34 13.7791 48.013 13.6061C47.283 13.2201 47.169 13.0981 46.573 12.1741Z" fill="white"/>
<path d="M44.9279 33.4191C44.3429 33.3511 44.1859 32.839 43.8999 32.451C43.6089 32.056 43.2759 31.6921 42.9309 31.2791C43.7139 31.3351 44.0069 31.5241 44.8009 32.4361C45.0609 32.7351 45.2489 33.0401 44.9279 33.4191Z" fill="white"/>
<path d="M40.722 28.317C39.911 27.861 39.502 27.612 39.077 27.397C38.655 27.184 38.217 27.004 37.505 26.682C39.749 26.819 40.016 26.938 40.722 28.317Z" fill="white"/>
<path d="M41.1909 24.762C42.1849 24.801 43.0989 25.032 44.0379 26.004C42.7749 25.81 41.9299 25.42 41.1909 24.762Z" fill="white"/>
<path d="M33.079 36.125C32.414 35.935 31.749 35.744 30.953 35.517C31.995 35.077 31.995 35.077 33.079 36.125Z" fill="white"/>
<path d="M39.4449 32.579C40.6499 32.496 41.2919 32.925 41.9139 33.388C41.8869 33.834 41.6569 33.992 41.3199 33.801C40.7649 33.485 40.2449 33.106 39.4449 32.579Z" fill="white"/>
<path d="M40.5909 46.068C40.3919 45.938 40.1709 45.832 39.9979 45.673C39.6889 45.391 39.4079 45.077 39.0239 44.682C40.2019 44.779 40.2019 44.779 40.5909 46.068Z" fill="white"/>
<path d="M29.4779 38.797C30.5469 38.48 31.1679 38.731 31.7759 39.305C31.0799 39.524 31.0799 39.524 29.4779 38.797Z" fill="white"/>
<path d="M49.81 11.0881C49.751 11.0911 49.669 11.122 49.636 11.094C49.219 10.744 48.81 10.3861 48.307 9.94906C48.903 9.60606 49.295 9.79706 49.668 10.1261C49.876 10.3091 49.885 10.3781 49.81 11.0881Z" fill="white"/>
<path d="M46.0959 23.905C46.9879 23.924 47.5179 24.208 47.7229 25.109C46.8369 24.862 46.8269 24.874 46.0959 23.905Z" fill="white"/>
<path d="M44.3179 37.51C43.1569 36.855 43.161 36.851 42.95 35.933C43.735 36.328 43.7349 36.328 44.3179 37.51Z" fill="white"/>
<path d="M29.417 41.651C30.425 41.519 31.068 41.741 31.768 42.718C30.757 42.473 30.078 42.333 29.417 41.651Z" fill="white"/>
<path d="M47.3409 19.459C47.7089 19.81 48.0779 20.161 48.5029 20.566C47.5369 20.896 47.3829 20.772 47.3409 19.459Z" fill="white"/>
<path d="M42.5809 18.552C43.7819 18.476 44.4699 18.631 45.1109 19.491C44.1689 19.429 43.5579 19.043 42.5809 18.552Z" fill="white"/>
<path d="M24.9949 31.1901C23.8539 31.3861 23.133 31.7311 22.252 31.4351C23.07 30.8381 23.0699 30.8381 24.9949 31.1901Z" fill="white"/>
<path d="M36.881 29.501C38.121 29.683 38.121 29.683 38.976 30.337C38.284 30.451 38.284 30.451 36.881 29.501Z" fill="white"/>
<path d="M25.3049 40.68C24.8039 40.733 24.6189 40.799 24.4599 40.761C24.0499 40.661 23.6519 40.515 23.1659 40.361C24.1429 40.003 24.1429 40.003 25.3049 40.68Z" fill="white"/>
<path d="M36.72 37.656C37.59 37.868 37.59 37.868 38.186 38.405C37.383 38.389 37.383 38.389 36.72 37.656Z" fill="white"/>
<path d="M19.6859 34.876C20.2489 34.318 20.9209 34.272 22.0059 34.426C21.0559 34.869 20.4239 35.066 19.6859 34.876Z" fill="white"/>
<path d="M40.74 38.5081C41.124 38.7671 41.507 39.0271 42.027 39.3791C41.723 39.5331 41.523 39.6951 41.466 39.6541C41.117 39.4091 40.801 39.1181 40.475 38.8431C40.563 38.7321 40.651 38.6201 40.74 38.5081Z" fill="white"/>
<path d="M50.162 7.98703C49.238 8.23503 48.724 8.25804 48.261 7.68204C48.872 7.47804 49.374 7.45603 50.162 7.98703Z" fill="white"/>
<path d="M33.5239 23.0771C34.2699 22.7241 34.6349 23.3121 35.1789 23.5691C34.4059 24.0171 34.4059 24.0131 33.5239 23.0771Z" fill="white"/>
<path d="M37.6079 17.504C38.6039 17.309 39.1459 17.522 39.5919 18.176C39.3769 18.235 39.2389 18.322 39.1579 18.285C38.7089 18.08 38.2729 17.844 37.6079 17.504Z" fill="white"/>
<path d="M45.7279 8.82897C45.0019 9.15697 44.4849 8.82998 43.5769 8.45498C44.5769 8.28198 45.1879 8.04297 45.7279 8.82897Z" fill="white"/>
<path d="M39.318 14.4541C40.391 14.3171 40.969 14.3351 41.394 14.8571C41.313 15.2431 41.083 15.2531 40.835 15.1511C40.45 14.9911 40.075 14.8041 39.318 14.4541Z" fill="white"/>
<path d="M27.854 28.297C28.35 28.343 28.847 28.39 29.593 28.459C28.785 29.116 28.311 28.797 27.854 28.297Z" fill="white"/>
<path d="M43.2559 22.661C42.7989 22.458 42.3719 22.268 41.7229 21.98C43.3169 21.903 43.3169 21.903 43.2559 22.661Z" fill="white"/>
<path d="M35.4679 20.563C36.2149 20.177 36.5729 20.377 36.8609 20.761C36.9179 20.837 36.9279 21.013 36.8779 21.085C36.8169 21.171 36.6299 21.267 36.5629 21.232C36.2409 21.066 35.9409 20.859 35.4679 20.563Z" fill="white"/>
<path d="M40.783 49.101C40.76 49.192 40.752 49.292 40.731 49.295C40.569 49.315 40.32 49.386 40.256 49.309C40.123 49.149 40.087 48.908 40.012 48.7C40.172 48.689 40.37 48.617 40.484 48.685C40.625 48.77 40.696 48.971 40.783 49.101Z" fill="white"/>
<path d="M44.3359 15.599C44.4979 15.519 44.5509 15.473 44.6069 15.468C44.9569 15.441 45.3539 15.291 45.5249 15.78C45.5409 15.825 45.5069 15.904 45.4719 15.945C45.2489 16.204 44.868 16.16 44.493 15.834C44.451 15.796 44.4269 15.737 44.3359 15.599Z" fill="white"/>
<path d="M26.516 33.7911C27.225 33.3471 27.542 33.2311 27.92 33.8681C27.51 33.8461 27.199 33.8291 26.516 33.7911Z" fill="white"/>
<path d="M24.793 36.2911C24.966 36.2271 25.036 36.1731 25.075 36.1901C25.293 36.2851 25.513 36.3831 25.709 36.5141C25.744 36.5371 25.71 36.7801 25.644 36.8211C25.293 37.0411 25.081 36.765 24.862 36.555C24.827 36.521 24.831 36.4451 24.793 36.2911Z" fill="white"/>
<path d="M19.549 37.6421C18.773 37.7101 18.306 37.7511 17.468 37.8251C18.253 37.1981 18.735 37.3201 19.549 37.6421Z" fill="white"/>
<path d="M42.766 11.377C43.027 11.476 43.292 11.561 43.541 11.682C43.614 11.717 43.636 11.856 43.681 11.948C43.57 11.983 43.446 12.07 43.352 12.045C43.089 11.975 42.838 11.858 42.583 11.759C42.644 11.632 42.705 11.505 42.766 11.377Z" fill="white"/>
<path d="M47.4779 16.048C47.9969 15.743 48.2569 15.931 48.4179 16.313C48.4529 16.397 48.4039 16.562 48.3349 16.63C48.2749 16.689 48.0869 16.712 48.0349 16.665C47.8369 16.484 47.6719 16.269 47.4779 16.048Z" fill="white"/>
<path d="M37.3459 42.224C36.8939 42.096 36.6449 41.891 36.7409 41.245C37.1299 41.47 37.4899 41.579 37.3459 42.224Z" fill="white"/>
<path d="M46.3579 5.74008C46.8599 5.59908 47.1139 5.48508 47.3709 5.47708C47.4679 5.47408 47.5729 5.71607 47.6739 5.84607C47.5459 5.92507 47.4079 6.07907 47.2899 6.06607C47.0639 6.04107 46.8469 5.92008 46.3579 5.74008Z" fill="white"/>
<path d="M46.059 29.485C45.788 28.974 45.623 28.659 45.356 28.157C46.103 28.577 46.103 28.577 46.059 29.485Z" fill="white"/>
<path d="M18.0119 40.058C17.2759 40.058 16.908 40.058 16.304 40.058C16.857 39.411 17.2419 39.461 18.0119 40.058Z" fill="white"/>
<path d="M33.1 29.839C33.314 30.108 33.478 30.313 33.641 30.519C33.496 30.569 33.321 30.697 33.214 30.654C33.024 30.576 32.878 30.395 32.713 30.257C32.816 30.146 32.919 30.035 33.1 29.839Z" fill="white"/>
<path d="M35.5799 52.888C34.5659 53.682 33.7889 53.596 33.0589 52.892C32.7019 52.548 32.3879 52.159 31.9139 51.637C31.8989 51.359 31.8329 50.863 31.8559 50.37C31.8869 49.701 32.2589 49.196 32.7959 48.82C33.2229 48.52 33.5899 48.636 34.2099 49.276C34.0399 49.356 33.8969 49.473 33.7479 49.484C33.0509 49.538 32.7779 49.98 32.6889 50.593C32.5869 51.285 32.7999 51.855 33.4649 52.14C34.0759 52.402 34.7199 52.588 35.5799 52.888Z" fill="white"/>
<path d="M36.376 60.3851C36.071 60.2181 35.775 60.0341 35.462 59.8861C34.85 59.5961 34.294 59.8821 34.257 60.5461C34.236 60.9071 34.394 61.2751 34.406 61.6421C34.41 61.7821 34.258 62.0081 34.131 62.0491C33.997 62.0921 33.712 62.0061 33.657 61.8961C32.966 60.4981 33.522 59.1531 34.795 58.9351C35.616 58.7941 35.943 58.9951 36.376 60.3851Z" fill="white"/>
<path d="M40.0299 59.343C38.8029 58.805 38.6099 58.517 38.6489 57.59C38.6909 56.594 39.076 56.235 40.769 55.686C41.119 56.014 41.517 56.387 41.915 56.76C41.878 56.832 41.84 56.905 41.803 56.977C41.55 56.908 41.3 56.829 41.044 56.772C39.964 56.533 39.3159 57.153 39.5639 58.21C39.6339 58.507 39.7949 58.782 40.0299 59.343Z" fill="white"/>
<path d="M37.566 65.397C37.327 65.382 37.189 65.409 37.087 65.36C36.655 65.156 36.3859 64.506 35.8319 64.722C35.4719 64.862 35.237 65.303 34.91 65.563C34.807 65.644 34.5239 65.64 34.4339 65.557C34.3329 65.463 34.2839 65.207 34.3359 65.069C34.8949 63.596 36.3919 63.368 37.3829 64.593C37.4589 64.688 37.525 64.803 37.558 64.919C37.589 65.026 37.566 65.147 37.566 65.397Z" fill="white"/>
<path d="M30.673 44.575C30.934 44.91 31.391 45.359 30.867 45.656C30.221 46.023 30.177 46.428 30.325 47.03C30.357 47.164 30.203 47.3439 30.132 47.5079C29.355 47.0509 29.072 46.651 29.263 46.121C29.515 45.416 29.837 44.7269 30.719 44.6049L30.673 44.575Z" fill="white"/>
<path d="M35.5389 55.521C35.7209 54.694 36.2269 54.391 36.7859 54.354C37.2519 54.323 37.7599 54.494 38.2039 54.681C38.7059 54.892 38.7129 55.163 38.3669 55.844C37.2699 55.211 37.2699 55.211 35.5389 55.521Z" fill="white"/>
<path d="M38.319 50.878C37.733 50.878 37.375 50.821 37.046 50.894C36.707 50.969 36.397 51.171 36.045 51.33C35.948 50.52 36.067 50.321 36.72 50.07C37.391 49.813 37.569 49.887 38.319 50.878Z" fill="white"/>
<path d="M30.8289 58.8801C31.1029 58.7871 31.3799 58.6181 31.6509 58.6271C31.8269 58.6331 32.1079 58.8771 32.1409 59.0521C32.2099 59.4161 31.9179 59.6271 31.5839 59.5861C31.3109 59.5531 31.0549 59.3731 30.7909 59.2581C30.8049 59.1321 30.8159 59.0061 30.8289 58.8801Z" fill="white"/>
<path d="M39.7009 62.633C39.3549 62.661 39.0069 62.725 38.6649 62.7C38.5319 62.69 38.4149 62.479 38.2899 62.359C38.4109 62.253 38.5339 62.056 38.6519 62.059C39.0029 62.068 39.3509 62.156 39.7009 62.213C39.7009 62.353 39.7009 62.493 39.7009 62.633Z" fill="white"/>
<path d="M32.0599 56.4351C31.8089 56.3371 31.5759 56.2721 31.3749 56.1541C31.3029 56.1121 31.2619 55.8541 31.2839 55.8421C31.4859 55.7371 31.7249 55.5691 31.9149 55.6091C32.1079 55.6501 32.2579 55.9021 32.4269 56.0631C32.3159 56.1741 32.2069 56.2871 32.0599 56.4351Z" fill="white"/>
<path d="M80.413 36.7941C79.208 37.0271 78.002 37.2601 76.802 37.4921C76.747 37.3371 76.667 37.154 76.683 37.146C77.855 36.503 79.099 36.258 80.412 36.424C80.412 36.547 80.413 36.6711 80.413 36.7941Z" fill="white"/>
<path d="M78.528 39.9571C80.008 38.9501 80.3409 38.869 81.9719 39.064C80.9019 39.749 79.852 39.7831 78.528 39.9571Z" fill="white"/>
<path d="M72.8699 23.966C71.9799 24.031 71.091 24.097 70.127 24.168C71.011 23.366 71.4569 23.288 72.8699 23.966Z" fill="white"/>
<path d="M74.298 30.788C74.122 30.924 73.995 31.0851 73.833 31.1381C72.903 31.4351 71.958 31.672 70.741 31.958C71.943 30.957 72.919 30.665 74.298 30.788Z" fill="white"/>
<path d="M70.3889 43.93C69.2049 44.762 68.0929 44.775 66.9919 44.832C67.9169 44.112 68.9629 43.845 70.3889 43.93Z" fill="white"/>
<path d="M80.5869 31.4321C81.5469 31.4361 82.5049 30.8161 83.5119 31.5181C83.0809 31.7751 81.6929 31.9071 80.6689 31.8091C80.6369 31.8061 80.6239 31.6101 80.5869 31.4321Z" fill="white"/>
<path d="M71.684 40.214C72.653 39.404 73.619 39.246 74.813 39.068C74.009 39.81 74.009 39.81 71.684 40.214Z" fill="white"/>
<path d="M65.4769 24.297C64.5979 25.38 64.5979 25.38 62.7329 25.324C62.9569 24.796 63.4809 24.943 63.8249 24.782C64.2059 24.604 64.6379 24.535 65.4769 24.297Z" fill="white"/>
<path d="M66.926 16.877C66.021 17.44 65.125 17.354 63.975 17.628C65.316 16.596 65.362 16.586 66.926 16.877Z" fill="white"/>
<path d="M78.5369 25.245C77.6839 25.806 76.8099 25.691 75.8789 25.967C76.5319 25.003 76.9119 24.91 78.5369 25.245Z" fill="white"/>
<path d="M62.8799 43.538C62.1199 43.756 61.3609 43.974 60.5179 44.217C61.2929 43.108 61.5279 43.021 62.8799 43.538Z" fill="white"/>
<path d="M64.397 7.51107C64.348 7.83707 64.253 8.13906 63.844 8.11106C63.474 8.08506 63.107 7.97607 62.739 7.97507C62.387 7.97407 62.035 8.06606 61.517 8.14006C61.891 7.41306 62.398 7.26906 62.96 7.31006C63.453 7.34606 63.939 7.46506 64.429 7.54706L64.397 7.51107Z" fill="white"/>
<path d="M79.5699 44.576C78.7169 44.576 77.8639 44.576 76.6179 44.576C77.5889 43.979 78.2739 43.84 78.9949 43.838C79.5379 43.837 79.4739 44.274 79.5229 44.623L79.5699 44.576Z" fill="white"/>
<path d="M66.824 35.42C66.897 35.029 66.872 34.794 66.966 34.728C67.625 34.26 68.362 34.134 69.593 34.281C68.496 34.732 67.797 35.02 66.824 35.42Z" fill="white"/>
<path d="M75.419 33.239C74.883 34.036 74.087 33.966 73.354 34.119C73.872 33.358 74.595 33.143 75.419 33.239Z" fill="white"/>
<path d="M75.601 28.816C76.365 28.677 77.1279 28.538 78.1929 28.344C77.2729 29.216 76.4649 29.279 75.6549 29.33C75.6369 29.159 75.618 28.987 75.601 28.816Z" fill="white"/>
<path d="M71.343 27.086C69.817 27.263 68.716 27.391 67.522 27.529C68.885 26.775 69.227 26.727 71.343 27.086Z" fill="white"/>
<path d="M73.2049 18.238C72.1839 19.009 71.3349 18.842 70.3999 18.935C71.4199 18.131 71.4719 18.117 73.2049 18.238Z" fill="white"/>
<path d="M69.84 29.501C69.183 29.98 68.476 30.265 67.484 30.136C68.205 29.259 69.065 29.507 69.84 29.501Z" fill="white"/>
<path d="M61.2629 33.777C60.6949 33.968 60.1259 34.158 59.4659 34.38C60.0379 33.247 60.1169 33.212 61.2629 33.777Z" fill="white"/>
<path d="M68.9069 41.0829C68.1279 41.4409 67.3479 41.7999 66.5849 42.1499C66.2899 41.8819 66.4029 41.6379 66.6199 41.5119C67.3109 41.1109 68.0239 40.7439 68.9069 41.0829Z" fill="white"/>
<path d="M76.8169 41.73C75.9039 42.534 75.1409 42.698 74.0249 42.546C74.9229 41.933 75.6669 41.707 76.8169 41.73Z" fill="white"/>
<path d="M61.042 18.935C60.298 19.429 59.704 19.675 58.911 19.561C60.087 18.46 60.087 18.46 61.042 18.935Z" fill="white"/>
<path d="M66.726 22.073C65.82 22.331 64.917 22.615 63.594 22.617C64.799 21.87 65.715 21.67 66.726 22.073Z" fill="white"/>
<path d="M66.4609 19.713C67.4119 19.123 68.0489 19.116 68.7849 19.063C68.2629 19.817 68.2609 19.811 66.4609 19.713Z" fill="white"/>
<path d="M67.9459 22.872C68.5839 22.568 69.1879 22.1651 70.0459 22.5721C69.3389 23.2671 68.6129 23.009 67.9459 22.872Z" fill="white"/>
<path d="M61.2259 26.4251C60.5659 26.7441 59.9059 27.0621 59.2349 27.3861C58.9599 26.9351 59.3269 26.7721 59.5479 26.6241C59.8549 26.4191 60.2109 26.2751 60.5619 26.1491C60.7199 26.0921 60.9169 26.1391 61.0949 26.1391C61.1379 26.2341 61.1819 26.3301 61.2259 26.4251Z" fill="white"/>
<path d="M78.005 31.7251C78.401 30.9551 79.034 30.9061 79.901 31.0801C79.377 31.8891 78.657 31.6931 78.005 31.7251Z" fill="white"/>
<path d="M76.1499 35.3501C75.5049 36.1791 74.8779 36.2011 74.0409 35.8421C74.6809 35.3341 75.2799 35.1901 76.1499 35.3501Z" fill="white"/>
<path d="M67.5649 37.886C67.0089 38.065 66.4529 38.245 65.6289 38.511C66.1839 37.56 66.7309 37.316 67.5649 37.886Z" fill="white"/>
<path d="M60.1749 40.697C60.8459 39.875 61.4369 39.568 62.4539 39.838C61.7469 40.41 61.1409 40.672 60.1749 40.697Z" fill="white"/>
<path d="M84.9779 38.581C85.7969 38.031 86.5069 38.003 87.4289 38.187C86.2719 38.753 86.2719 38.753 84.9779 38.581Z" fill="white"/>
<path d="M68.9419 16.034C69.7549 15.492 70.2949 15.395 71.0449 15.973C70.3149 16.297 69.7709 16.198 68.9419 16.034Z" fill="white"/>
<path d="M66.764 14.262C66.042 14.359 65.402 14.756 64.569 14.52C66.049 13.668 66.295 13.636 66.764 14.262Z" fill="white"/>
<path d="M60.7069 12.689C61.1889 12.186 61.7219 11.908 62.5619 12.44C61.8859 12.886 61.3009 12.787 60.7069 12.689Z" fill="white"/>
<path d="M69.3519 46.515C69.8269 46.272 70.0069 46.129 70.2079 46.089C70.4769 46.036 70.7629 46.06 71.0419 46.065C71.0659 46.065 71.1169 46.167 71.1089 46.214C71.0279 46.68 70.6269 46.697 70.2899 46.737C70.0909 46.761 69.8759 46.646 69.3519 46.515Z" fill="white"/>
<path d="M66.2229 26.003C66.8639 25.59 67.5869 25.647 68.5199 25.483C67.7799 26.008 67.7799 26.008 66.2229 26.003Z" fill="white"/>
<path d="M64.11 46.276C63.583 46.907 62.837 46.851 61.954 47.208C62.773 46.198 62.773 46.197 64.11 46.276Z" fill="white"/>
<path d="M94.278 42.298C94.115 42.544 94.004 42.914 93.777 43.01C93.219 43.247 92.614 43.266 91.87 42.964C92.749 42.53 93.52 42.385 94.319 42.342L94.278 42.298Z" fill="white"/>
<path d="M63.017 36.175C63.484 35.469 63.995 35.317 64.807 35.507C64.335 36.288 63.741 36.206 63.017 36.175Z" fill="white"/>
<path d="M58.408 11.6571C58.899 10.7031 58.899 10.7031 59.773 10.8071C59.615 11.3951 59.102 11.4411 58.408 11.6571Z" fill="white"/>
<path d="M63.396 28.09C63.95 27.958 64.502 27.826 65.032 27.699C65.303 28.072 65.09 28.223 64.848 28.281C64.4 28.387 63.939 28.439 63.483 28.514C63.454 28.374 63.426 28.232 63.396 28.09Z" fill="white"/>
<path d="M58.834 23.572C59.466 22.918 59.964 23.04 60.519 23.191C60.115 23.743 60.115 23.743 58.834 23.572Z" fill="white"/>
<path d="M83.1289 42.3141C83.4329 41.5911 83.9369 41.6081 84.4309 41.6401C84.5149 41.6451 84.6549 41.7861 84.6539 41.8621C84.6529 41.9611 84.5499 42.1311 84.4689 42.1461C84.0549 42.2201 83.6339 42.2541 83.1289 42.3141Z" fill="white"/>
<path d="M60.3079 14.928C59.8039 15.078 59.3009 15.228 58.7379 15.397C59.2049 14.425 59.2269 14.415 60.3079 14.928Z" fill="white"/>
<path d="M60.3149 5.74806C60.7299 5.64206 61.1449 5.53605 61.5609 5.43005C61.3099 6.05705 60.9639 6.38106 60.3149 5.74806Z" fill="white"/>
<path d="M59.288 48.932C59.284 48.992 59.302 49.067 59.272 49.11C59.018 49.48 58.743 49.821 58.219 49.57C58.176 49.549 58.139 49.471 58.138 49.419C58.135 49.017 58.405 48.898 59.288 48.932Z" fill="white"/>
<path d="M58.626 37.969C58.643 37.908 58.643 37.836 58.677 37.788C58.901 37.485 59.132 37.183 59.581 37.317C59.63 37.332 59.684 37.399 59.698 37.452C59.78 37.744 59.459 38.037 58.95 38.105C58.851 38.119 58.734 38.018 58.626 37.969Z" fill="white"/>
<path d="M71.015 36.953C70.378 37.491 69.987 37.695 69.397 37.348C69.838 36.897 70.236 36.755 71.015 36.953Z" fill="white"/>
<path d="M63.054 31.1931C63.494 30.6411 63.957 30.5061 64.606 30.7991C64.162 31.3531 63.686 31.4381 63.054 31.1931Z" fill="white"/>
<path d="M61.431 30.552C60.644 30.914 60.227 31.106 59.784 31.309C59.755 31.112 59.691 30.975 59.733 30.921C60.07 30.492 60.433 30.091 61.431 30.552Z" fill="white"/>
<path d="M73.2 21.256C73.394 21.123 73.5779 20.968 73.7859 20.863C74.0799 20.714 74.4179 20.67 74.5119 21.066C74.5429 21.196 74.2899 21.495 74.1149 21.55C73.8499 21.634 73.5389 21.572 73.2479 21.572C73.2309 21.467 73.216 21.362 73.2 21.256Z" fill="white"/>
<path d="M57.9299 7.46198C58.0039 6.82998 58.3879 6.85998 58.7579 6.91698C58.8429 6.92998 58.9549 7.07698 58.9649 7.17098C58.9739 7.26198 58.8749 7.44098 58.8099 7.44898C58.5239 7.47998 58.2329 7.46198 57.9299 7.46198Z" fill="white"/>
<path d="M65.715 33.398C65.335 33.613 65.095 33.768 64.837 33.882C64.774 33.909 64.609 33.823 64.569 33.748C64.531 33.672 64.555 33.512 64.615 33.447C64.897 33.14 65.217 33.178 65.715 33.398Z" fill="white"/>
<path d="M58.263 3.66101C58.062 3.83801 57.948 4.02001 57.814 4.03601C57.676 4.05301 57.52 3.90801 57.371 3.83301C57.479 3.70101 57.566 3.49802 57.702 3.45702C57.825 3.42102 58.003 3.55901 58.263 3.66101Z" fill="white"/>
<path d="M72.9709 26.5401C73.1589 26.4031 73.3229 26.2261 73.5219 26.1591C73.6369 26.1201 73.8119 26.2581 73.9609 26.3171C73.9099 26.4211 73.8859 26.5621 73.8039 26.6231C73.5539 26.8071 73.2829 26.9061 72.9709 26.5401Z" fill="white"/>
<path d="M86.0869 40.617C86.1969 40.516 86.2349 40.464 86.2859 40.437C86.7179 40.21 87.1359 40.253 87.2569 40.537C87.2769 40.583 87.2809 40.66 87.2559 40.695C86.9779 41.08 86.6239 40.948 86.2779 40.821C86.2279 40.803 86.1969 40.737 86.0869 40.617Z" fill="white"/>
<path d="M78.083 62.224C78.319 62.334 78.469 62.356 78.536 62.443C79.407 63.573 80.43 64.271 81.942 63.756C82.054 63.718 82.385 63.944 82.375 63.989C82.323 64.201 82.226 64.531 82.077 64.571C80.317 65.05 78.876 64.658 77.824 62.775C77.767 62.67 77.991 62.409 78.083 62.224Z" fill="white"/>
<path d="M68.254 65.715C69.46 66.839 70.6499 67.56 72.0459 66.305C72.5089 66.829 72.5619 67.099 72.2659 67.343C71.0619 68.336 68.6669 67.739 67.9649 66.259C67.9349 66.196 68.067 66.056 68.254 65.715Z" fill="white"/>
<path d="M71.8499 64.1001C71.8569 64.7651 71.4189 64.9351 70.9979 64.9941C70.0519 65.1261 68.6479 64.2661 68.2739 63.3551C68.2179 63.2201 68.3339 63.0151 68.3909 62.7371C68.9939 63.1651 69.4899 63.6571 70.0859 63.8981C70.6159 64.1111 71.2579 64.0441 71.8499 64.1001Z" fill="white"/>
<path d="M82.689 60.6571C82.621 61.3551 82.294 61.6121 81.784 61.5311C80.825 61.3801 79.981 60.9461 79.341 60.2191C78.99 59.8211 79.091 59.4031 79.616 59.1641C80.944 60.5011 80.944 60.5011 82.689 60.6571Z" fill="white"/>
<path d="M74.2409 61.6211C73.4369 62.0151 72.5899 62.1161 71.7129 61.9851C71.4729 61.9491 71.1989 61.9121 71.0159 61.7751C70.8569 61.6571 70.8029 61.3971 70.7019 61.1991C70.8619 61.1261 71.0279 60.9841 71.1819 60.9951C71.4849 61.0171 71.7839 61.1161 72.0799 61.1971C72.8909 61.4191 73.4419 60.8031 74.0149 60.5081C74.7089 60.8871 74.3589 61.2811 74.2039 61.6591L74.2409 61.6211Z" fill="white"/>
<path d="M85.776 60.391C85.499 61.14 85.224 61.885 84.953 62.617C84.561 62.78 84.317 62.6279 84.256 62.2619C84.128 61.4999 84.146 60.7429 84.748 60.1589C85.173 59.7469 85.529 59.887 85.776 60.391Z" fill="white"/>
<path d="M62.018 58.9261C61.279 57.7331 61.26 57.2581 61.743 56.8271C62.392 56.2481 62.9729 56.2901 63.9599 57.0651C63.7199 57.1971 63.5069 57.4181 63.3359 57.3901C62.3809 57.2341 62.166 57.8721 62.018 58.9261Z" fill="white"/>
<path d="M88.517 63.271C88.55 63.883 88.081 64.475 88.474 65.064C88.486 65.082 88.237 65.366 88.114 65.363C87.498 65.344 87.009 64.69 87.133 64.045C87.178 63.814 87.323 63.584 87.478 63.399C87.588 63.269 87.785 63.166 87.955 63.142C88.116 63.12 88.295 63.215 88.517 63.271Z" fill="white"/>
<path d="M82.8099 56.2941C83.6619 56.8191 84.3399 57.2371 85.0569 57.6791C84.9409 57.8241 84.8429 58.0661 84.7229 58.0771C83.7639 58.1671 83.0339 57.7711 82.5939 56.9141C82.5379 56.8071 82.7009 56.5871 82.8099 56.2941Z" fill="white"/>
<path d="M66.0959 59.4351C65.6609 59.9121 65.2659 60.346 64.8619 60.79C64.4449 60.058 64.4369 59.7231 64.9129 59.2331C65.2649 58.8701 65.6589 58.8691 66.0959 59.4351Z" fill="white"/>
<path d="M74.204 61.66C74.443 61.7 74.754 61.659 74.908 61.795C75.417 62.243 75.869 62.755 76.489 63.394C76.053 63.394 75.73 63.493 75.544 63.376C74.895 62.969 74.385 62.42 74.241 61.621L74.204 61.66Z" fill="white"/>
<path d="M63.73 65.042C63.706 64.461 63.641 64.05 63.698 63.656C63.718 63.516 64.056 63.301 64.208 63.331C64.399 63.368 64.6679 63.604 64.6919 63.784C64.7619 64.294 64.525 64.695 63.73 65.042Z" fill="white"/>
<path d="M59.465 54.466C60.634 53.969 60.636 53.977 61.1 54.976C60.623 55.019 60.155 55.061 59.592 55.113C59.561 54.886 59.529 54.657 59.497 54.427L59.465 54.466Z" fill="white"/>
<path d="M62.2749 60.932C61.9359 61.168 61.7249 61.374 61.4739 61.452C61.4019 61.474 61.1279 61.138 61.0989 60.944C61.0439 60.576 61.3619 60.259 61.6349 60.37C61.8359 60.452 61.9819 60.666 62.2749 60.932Z" fill="white"/>
</svg>
