<svg width="84" height="65" viewBox="0 0 84 65" fill="none" xmlns="http://www.w3.org/2000/svg">
<path d="M22.982 57.708C20.095 57.825 18.229 56.357 16.565 54.371C14.481 54.855 12.872 53.916 11.421 52.51C11.077 52.176 10.664 51.893 10.239 51.666C9.307 51.171 8.323 50.769 7.407 50.247C6.822 49.914 6.27799 49.477 5.78799 49.012C4.66399 47.941 4.06301 46.483 3.12601 45.259C2.38801 44.296 2.231 42.953 2.694 41.682C2.842 41.275 2.937 40.849 3.073 40.372C2.848 39.894 2.60999 39.39 2.37399 38.886C1.71799 37.482 1.496 36.02 1.993 34.536C2.289 33.647 2.20701 32.86 1.86301 32.013C1.53501 31.206 1.383 30.354 1.629 29.46C1.797 28.849 1.629 28.272 1.382 27.663C0.663003 25.892 0.719993 24.134 1.88499 22.535C2.19099 22.115 2.34699 21.759 2.32899 21.199C2.29599 20.177 2.663 19.26 3.608 18.667C3.85 18.515 4.015 18.238 4.315 17.911C3.959 17.72 3.719 17.524 3.449 17.461C2.825 17.315 2.241 17.153 1.959 16.37C3.126 14.67 4.78499 13.489 6.64999 12.639C8.17799 11.942 9.72699 11.347 11.077 10.288C11.897 9.64397 12.91 9.24498 13.839 8.73998C14.599 8.32698 15.373 7.93698 16.122 7.50498C16.877 7.06898 17.605 6.94197 18.409 7.40997C18.772 7.62197 19.205 7.74297 19.623 7.82597C21.876 8.27097 24.141 8.65698 26.386 9.13898C27.242 9.32298 28.09 9.31297 28.94 9.38997C29.686 9.45797 30.357 10.122 31.115 10.328C32.184 10.616 33.302 10.724 34.466 10.922C35.272 10.008 36.148 9.05098 36.981 8.05898C38.034 6.80398 39.302 5.82897 40.691 4.97797C41.803 4.29697 42.888 3.56898 43.947 2.80898C44.916 2.11398 45.96 1.62497 47.074 1.19397C49.582 0.221971 52.19 -0.0370226 54.764 0.390977C57.557 0.856977 60.428 1.27998 62.866 2.97498C63.423 3.36298 64.06 3.64497 64.682 3.92597C67.795 5.33297 70.922 6.70797 74.031 8.12497C76.928 9.44397 79.305 11.393 80.972 14.132C81.316 14.696 81.695 15.297 81.466 16.05C81.4 16.267 81.452 16.54 81.511 16.773C82.29 19.834 81.98 22.955 82.017 26.055C82.021 26.423 81.933 26.797 81.851 27.158C81.734 27.662 81.816 28.074 82.05 28.567C82.962 30.495 83.573 32.54 83.14 34.678C82.878 35.972 82.165 37.182 82.664 38.563C82.166 39.899 81.762 41.294 80.596 42.243C80.276 42.504 79.853 42.782 79.469 42.793C78.731 42.815 78.144 43.058 77.618 43.534C76.646 44.417 75.48 44.8 74.195 44.736C73.49 44.702 73.005 44.973 72.586 45.474C72.386 45.713 72.195 45.959 71.982 46.186C71.034 47.197 70.02 48.088 68.532 48.18C68.229 48.198 67.914 48.298 67.639 48.431C66.376 49.044 65.054 49.203 63.656 49.213C62.553 49.22 61.453 49.521 60.376 49.688C59.688 50.414 59.828 51.249 60.038 52.008C60.298 52.95 60.411 53.831 59.867 54.694C59.15 55.833 58.709 57.197 57.265 57.728C56.202 58.119 55.286 58.757 54.489 59.565C53.69 60.374 52.696 60.623 51.594 60.572C51.223 60.555 50.845 60.609 50.481 60.557C49.245 60.381 48.167 60.537 47.323 61.616C46.926 62.125 46.244 62.184 45.606 62.194C44.741 62.209 43.876 62.235 42.984 62.258C42.576 62.868 42.2 63.432 41.814 64.011C41.523 64.037 41.168 63.972 40.923 64.107C39.26 65.026 37.685 64.686 36.202 63.75C35.588 63.361 34.994 63.168 34.289 63.172C33.793 63.174 33.297 63.106 32.8 63.069C31.71 62.991 30.73 62.645 29.963 61.837C29.3 61.14 28.573 60.725 27.548 60.655C25.581 60.522 23.956 59.669 22.982 57.708ZM35.34 15.991C34.908 16.019 34.472 16.105 34.046 16.066C32.502 15.924 31.767 16.897 31.016 18.1C32.045 18.527 32.944 18.934 33.87 19.27C34.428 19.472 34.985 19.04 34.783 18.53C34.45 17.692 34.782 17.107 35.211 16.478C35.303 16.344 35.274 16.127 35.3 15.949C35.999 15.983 36.537 15.602 37.199 15.305C36.986 14.844 36.75 14.484 36.653 14.088C36.549 13.668 36.577 13.215 36.532 12.55C35.918 13.13 35.492 13.532 35.257 13.754C35.291 14.674 35.316 15.332 35.34 15.991ZM69.66 32.838C68.764 29.775 70.081 27.056 71.036 24.274C70.161 25.199 69.885 26.414 69.32 27.477C68.478 29.061 68.546 30.679 68.975 32.336C69.07 32.706 69.406 32.729 69.704 32.795C70.298 33.331 70.882 33.879 71.491 34.4C71.896 34.747 72.273 35.203 72.95 35.016C73.002 33.841 72.937 32.657 73.137 31.519C73.336 30.381 73.799 29.289 74.197 28.015C72.811 27.606 71.764 26.902 71.914 25.296C73.411 24.292 73.584 24.341 75.406 25.922C75.558 25.736 75.727 25.565 75.856 25.368C77.506 22.818 78.894 20.138 79.96 17.287C80.689 15.338 80.378 14.214 78.588 12.878C78.495 13.031 78.348 13.172 78.323 13.332C78.082 14.89 77.427 16.276 76.594 17.589C75.205 19.783 73.795 21.964 72.417 24.164C72.199 24.513 72.103 24.938 71.95 25.328C71.675 25.784 71.329 26.212 71.137 26.701C70.554 28.188 70.198 29.726 70.389 31.344C70.469 32.003 70.347 32.557 69.66 32.838ZM63.698 29.092C63.611 28.295 63.35 27.47 63.471 26.706C63.806 24.576 64.196 22.474 65.554 20.639C67.206 18.404 68.685 16.034 69.521 13.338C69.591 13.113 69.563 12.858 69.608 12.226C69.192 12.962 68.944 13.321 68.777 13.712C68.038 15.439 66.967 16.956 65.759 18.366C64.656 19.652 63.93 21.147 63.149 22.618C62.186 24.431 62.393 26.331 62.839 28.212C62.918 28.545 63.429 28.775 63.74 29.054C64.328 29.597 64.857 30.232 65.52 30.657C66.195 31.089 66.717 31.896 67.718 31.866C67.787 30.836 67.758 29.893 67.939 28.993C68.117 28.104 68.506 27.259 68.807 26.381C66.274 25.91 66.075 25.653 66.397 23.3C66.728 23.264 67.139 23.091 67.428 23.211C68.193 23.528 68.905 23.973 69.695 24.398C69.802 24.191 69.907 23.984 70.07 23.668C69.721 23.542 69.439 23.467 69.181 23.343C68.398 22.966 67.917 22.344 67.827 21.474C67.707 20.323 68.661 19.565 69.742 19.964C70.074 20.087 70.384 20.328 70.642 20.578C70.902 20.83 71.084 21.16 71.372 21.556C73.586 18.079 75.614 14.654 76.021 10.5C74.652 9.56197 73.496 8.40898 71.69 8.40398C71.537 8.97998 71.361 9.44597 71.293 9.92797C70.739 13.835 69.068 17.244 66.773 20.411C65.095 22.727 64.012 25.251 64.582 28.226C64.686 28.769 64.536 28.868 63.698 29.092ZM43.524 13.04C43.632 12.494 43.804 11.951 43.834 11.4C43.891 10.367 44.273 9.46896 44.854 8.65196C45.605 7.59296 46.375 6.54597 47.184 5.52997C47.933 4.58797 48.355 3.48797 48.713 2.37697C48.881 1.85597 48.399 1.82496 47.971 1.95596C47.264 3.66096 46.39 5.28498 45.26 6.76998C44.076 8.32498 43.378 10.095 43.003 12.008C42.898 12.546 43.102 12.83 43.567 13.006C43.459 13.42 43.358 13.836 43.24 14.248C43.117 14.677 42.413 14.735 42.437 15.471C43.207 15.239 43.85 15.051 44.485 14.844C44.565 14.819 44.611 14.688 44.658 14.626C44.495 14.378 44.344 14.148 44.167 13.879C44.462 13.747 44.632 13.603 44.794 13.611C45.411 13.644 46.024 13.75 46.641 13.787C48.024 13.87 48.868 15.05 50.153 15.562C50.592 14.477 51.443 13.696 51.627 12.532C51.677 12.216 51.977 11.796 52.262 11.688C52.922 11.44 53.16 10.895 53.508 10.387C54.165 9.43096 54.697 8.35096 55.744 7.76196C56.057 7.90696 56.302 8.01997 56.565 8.14197C56.615 6.53897 56.593 6.52198 57.689 5.09798C58.365 4.21998 58.584 3.25798 58.578 2.16898C55.849 1.42298 53.236 0.610972 50.332 1.37297C49.427 3.81197 48.023 6.06498 46.355 8.15598C45.278 9.50798 44.567 10.983 44.614 12.758C44.617 12.856 44.488 12.956 44.355 13.153C44.113 13.121 43.819 13.081 43.524 13.04ZM25.727 14.749C25.84 14.801 25.955 14.849 26.066 14.903C26.433 15.081 26.659 15.368 26.605 15.78C26.548 16.211 26.199 16.423 25.819 16.452C25.336 16.488 24.838 16.463 24.359 16.384C23.712 16.277 23.248 16.512 22.96 17.055C22.321 18.26 21.681 19.467 21.111 20.705C20.661 21.683 20.532 22.723 20.897 23.853C22.231 24.354 23.274 25.479 24.825 25.895C25.06 24.872 25.265 23.982 25.487 23.02C24.968 22.889 24.55 22.812 24.153 22.674C23.864 22.574 23.57 22.435 23.338 22.241C22.965 21.929 22.934 21.488 23.068 21.047C23.195 20.628 23.536 20.484 23.936 20.496C24.306 20.507 24.715 20.473 25.033 20.619C25.394 20.784 25.673 21.129 26.023 21.425C27.08 20.538 27.524 19.425 27.769 18.188C27.335 17.892 26.953 17.63 26.539 17.347C27.242 16.779 28.295 17.667 28.749 16.537C28.564 16.375 28.381 16.219 28.204 16.057C27.975 15.848 27.731 15.652 27.53 15.418C27.165 14.994 27.26 14.459 27.724 14.14C28.103 13.878 28.512 13.775 28.958 13.92C29.306 14.033 29.648 14.166 30.029 14.303C31.024 13.46 32.317 13.026 32.994 11.688C32.369 11.546 31.846 11.427 31.206 11.282C30.66 12.507 29.662 12.656 28.531 12.482C27.209 12.278 27.134 11.08 26.741 10.125C24.692 9.71497 22.691 9.31398 20.721 8.91898C19.324 10.297 18.723 10.428 16.92 9.70297C16.417 9.49997 15.951 9.20298 15.513 8.97298C13.576 9.74198 13.576 9.74197 12.673 10.685C13.738 11.695 15.589 12.56 17.29 12.826C17.423 12.435 17.493 11.993 17.711 11.646C17.976 11.227 18.384 10.873 18.938 10.933C19.836 11.031 20.822 11.714 20.831 12.673C20.836 13.225 20.895 13.777 20.937 14.436C21.625 14.686 22.304 14.932 22.99 15.181C23.296 14.518 23.547 13.974 23.811 13.401C23.59 13.053 23.313 12.711 23.138 12.322C22.739 11.435 23.053 10.869 23.985 10.704C25.004 10.523 26.172 11.099 26.632 12.007C26.968 12.67 26.737 13.312 26.006 13.674C25.795 13.779 25.55 13.815 25.283 13.893C25.472 14.247 25.614 14.513 25.757 14.78C25.327 14.567 24.899 14.324 24.34 14.749C24.442 15.045 24.492 15.406 24.678 15.674C24.902 15.995 25.292 16.049 25.644 15.859C25.956 15.692 25.967 15.386 25.871 15.078C25.836 14.964 25.776 14.858 25.727 14.749ZM59.982 17.499C59.135 17.723 58.847 18.447 58.663 19.151C58.448 19.977 58.282 20.857 58.666 21.693C59.339 23.153 60.028 24.606 60.741 26.048C60.844 26.255 61.117 26.379 61.334 26.561C61.431 26.373 61.485 26.319 61.484 26.265C61.41 23.301 62.75 20.807 64.509 18.661C66.141 16.672 67.473 14.548 68.5 12.245C69.197 10.684 69.541 8.96197 69.348 7.22997C68.551 6.46697 67.671 6.05898 66.671 5.88898L66.712 5.91898C65.797 5.18198 64.78 4.68897 63.503 4.49797C63.557 5.39497 64.127 6.16797 63.534 6.93297C62.57 7.58697 61.579 7.53698 60.592 6.94498C60.539 7.10698 60.486 7.21897 60.467 7.33797C60.259 8.64197 60.045 8.87298 58.901 8.93598C58.409 8.96298 57.915 8.94097 57.392 8.94097C56.606 9.36897 56.265 10.202 55.785 10.914C55.407 11.475 55.556 12.092 55.597 12.716C55.644 13.432 55.277 13.87 54.598 14.098C54.134 14.252 53.657 14.369 53.119 14.521C52.929 15.261 52.746 15.968 52.579 16.619C54.477 18.168 55.393 18.606 56.684 18.608C56.762 18.451 56.881 18.294 56.92 18.119C57.366 16.124 58.384 14.468 59.769 12.978C60.347 12.357 60.716 11.541 61.184 10.818C61.45 10.408 61.646 9.89098 62.02 9.62998C62.376 9.38098 62.921 9.40297 63.497 9.28197C63.916 8.08097 64.353 6.82697 64.782 5.59897C65.389 5.66897 65.474 6.07097 65.389 6.42497C65.246 7.02497 64.977 7.59197 64.785 8.18097C64.471 9.14697 63.882 10.039 64.472 11.166C64.77 11.732 64.286 12.52 63.661 12.578C62.705 12.669 62.273 13.246 61.871 13.977C61.219 15.164 60.286 16.198 59.942 17.551L59.982 17.499ZM25.672 27.966L25.71 28.012C24.273 26.82 22.703 25.834 21.021 25.031C20.631 24.844 20.209 24.677 19.786 24.619C17.516 24.315 15.489 23.477 13.729 22.001C13.541 21.844 13.301 21.749 13.092 21.615C11.151 20.361 8.96899 19.616 6.87399 18.688C6.42599 18.49 5.951 18.354 5.496 18.192C4.967 18.627 4.491 19.015 4.018 19.408C3.395 19.925 2.983 20.596 3.323 21.368C3.604 22.007 3.188 22.411 3.086 22.888C3.362 23.136 3.616 23.363 3.89 23.609C3.173 24.167 2.718 24.859 1.89 25.011C1.669 25.866 1.736 26.676 2.156 27.394C2.558 28.079 2.68699 28.731 2.49899 29.52C2.29499 30.379 2.38101 31.278 2.77901 32.077C3.22701 32.977 3.237 33.789 2.84 34.738C2.317 35.987 2.304 37.388 3.058 38.512C3.908 39.781 4.04 40.957 3.462 42.32C3.059 43.271 3.49 44.14 3.886 44.992C4.95 45.492 5.111 46.642 5.697 47.488C5.976 47.891 6.323 48.259 6.687 48.591C7.802 49.608 9.144 50.279 10.485 50.925C11.224 51.28 11.881 51.659 12.433 52.301C13.277 53.28 14.381 53.823 15.724 53.765C16.215 53.744 16.707 53.761 17.157 53.761C19.276 56.29 19.914 56.606 23.423 56.879C23.528 57 23.674 57.124 23.764 57.28C24.799 59.07 26.354 59.899 28.409 59.807C29.093 59.776 29.607 60.085 30.013 60.601C30.528 61.255 31.175 61.701 31.966 61.974C33.121 62.372 34.263 62.443 35.418 61.894C35.724 62.188 35.991 62.441 36.253 62.698C37.274 63.701 38.531 63.902 39.881 63.741C40.745 63.637 41.382 63.204 41.706 62.361C41.902 61.85 42.123 61.349 42.351 60.8C42.106 60.104 41.62 59.448 41.927 58.544C42.054 58.17 41.712 57.604 41.51 57.158C41.339 56.779 41.062 56.449 40.805 56.056C41.469 56.056 42.056 56.056 42.742 56.056C42.551 56.501 42.408 56.833 42.3 57.083C42.484 57.68 42.636 58.205 42.809 58.723C42.986 59.25 43.119 59.807 43.387 60.287C43.823 61.065 44.557 61.374 45.44 61.27C46.31 61.168 47.139 60.985 47.435 59.972C45.501 59.044 44.902 58.421 45.114 57.446C45.388 57.673 45.639 57.838 45.837 58.051C46.407 58.672 47.083 59.055 47.933 59.148C48.3 59.189 48.675 59.279 49.015 59.421C50.035 59.847 51.103 59.706 52.151 59.691C52.995 59.678 53.698 59.257 54.211 58.569C54.432 58.271 54.624 57.952 54.839 57.628C55.089 57.568 55.325 57.489 55.568 57.459C57.155 57.262 58.025 56.191 58.837 54.945C59.573 53.817 59.515 52.737 59.029 51.588C58.795 51.033 58.844 50.502 59.11 49.97C59.247 49.696 59.348 49.403 59.458 49.14C58.92 48.455 58.164 48.405 57.473 48.157C56.673 49.026 55.932 49.831 55.262 50.558C55.407 51.356 56.497 50.753 56.433 51.627C55.693 52.154 55 51.582 54.297 51.538C53.691 51.872 53.085 52.186 52.497 52.532C51.735 52.98 51.084 52.826 50.474 52.238C50.211 51.984 49.947 51.667 49.622 51.554C48.259 51.083 47.575 49.985 46.982 48.806C46.676 48.197 46.416 47.555 46.223 46.902C46.004 46.161 45.635 45.529 45.085 45.007C43.94 43.919 43.097 42.63 42.451 41.199C42.42 41.131 42.287 41.108 42.2 41.063C42.083 41.338 41.972 41.599 41.802 41.999C41.157 41.252 41.264 40.456 41.105 39.763C40.87 38.74 40.725 37.687 41.036 36.667C40.645 36.135 40.286 35.63 39.91 35.14C39.185 34.196 38.321 33.422 37.331 32.74C35.958 31.793 34.39 31.43 32.842 31.005C31.398 30.608 29.995 30.15 28.675 29.425C27.701 28.888 26.675 28.448 25.672 27.966ZM72.263 41.279C73.197 41.279 73.851 41.245 74.499 41.292C74.922 41.322 75.409 41.36 75.739 41.585C76.648 42.202 77.622 42.078 78.615 42.039C79.681 41.998 80.299 41.485 80.55 40.533C79.903 40.092 79.347 39.714 78.76 39.314C78.551 39.389 78.315 39.46 78.089 39.557C76.84 40.088 75.769 39.757 74.867 38.834C74.394 38.351 74.016 37.776 73.591 37.247C73.324 36.915 73.114 36.439 72.765 36.288C71.643 35.804 70.818 34.981 69.979 34.151C69.813 33.987 69.56 33.91 69.283 33.758C68.517 34.704 67.645 35.244 66.246 34.385C66.779 34.21 67.106 34.095 67.439 33.998C67.72 33.915 68.073 33.937 68.066 33.377C66.323 32.47 64.88 30.948 62.894 30.502C62.438 29.361 62.438 29.361 61.427 28.805C61.396 29.07 61.341 29.292 61.347 29.513C61.399 31.435 61.56 33.36 61.498 35.278C61.419 37.705 61.093 40.106 59.701 42.214C59.603 42.362 59.555 42.559 59.534 42.738C59.524 42.825 59.635 42.926 59.69 43.019C59.945 42.874 60.2 42.73 60.49 42.566C60.894 43.046 61.576 43.179 61.849 43.951C61.323 44.07 60.901 44.165 60.319 44.296C61.447 45.677 60.8 47.12 60.762 48.646C61.976 48.462 63.057 48.303 64.135 48.123C64.201 48.112 64.24 47.94 64.29 47.844C64.099 47.374 63.351 47.253 63.412 46.382C64.431 46.946 65.304 47.43 66.32 47.993C66.609 47.89 67.062 47.644 67.54 47.574C69.441 47.297 70.861 46.275 71.998 44.799C72.448 44.215 72.99 43.949 73.746 43.928C74.644 43.904 75.574 43.835 76.329 43.066C75.862 42.637 75.456 42.266 74.956 41.808C74.055 42.294 73.139 42.387 72.263 41.279ZM74.559 36.993C75.022 37.526 75.295 37.955 75.671 38.253C76.821 39.166 78.48 38.742 79.101 37.395C79.253 37.063 79.331 36.69 79.403 36.329C79.609 35.299 79.701 34.233 80.018 33.241C80.306 32.341 80.471 31.454 80.516 30.517C80.55 29.778 80.659 29.036 80.815 28.312C81.276 26.173 81.303 24.008 81.272 21.838C81.268 21.57 81.354 21.196 80.813 21.122C79.291 23.76 77.208 26.114 76.483 29.225C76.33 29.88 75.989 30.495 75.704 31.114C75.385 31.806 75.252 32.523 75.286 33.282C75.342 34.526 75.307 35.762 74.559 36.993ZM59.646 27.219C59.743 27.115 59.84 27.011 59.938 26.907C59.595 25.991 59.2 25.09 58.92 24.154C58.526 22.839 57.543 22.206 56.329 22.051C55.171 21.903 53.969 21.963 52.8 22.072C50.946 22.243 49.101 22.511 47.257 22.775C46.214 22.924 45.176 23.121 44.149 23.353C43.833 23.424 43.558 23.682 43.247 23.865C44.505 25.406 44.544 25.436 46.043 26.09C48.252 25.233 50.525 25.278 52.834 25.535C55.176 25.794 57.454 26.306 59.646 27.219ZM48.494 28.422C48.494 28.559 48.453 28.699 48.5 28.799C49.225 30.328 50.321 31.354 52.066 31.673C54.149 32.055 56.116 32.805 58.021 33.747C58.768 34.117 59.581 34.477 60.461 34.471C60.837 32.731 60.791 31.997 60.178 29.993C57.033 28.219 53.575 27.761 49.985 27.933C49.439 27.959 48.847 27.846 48.494 28.422ZM36.469 21.367C35.558 22.987 34.668 24.524 33.829 26.09C33.569 26.575 33.373 27.121 33.279 27.661C33.187 28.195 33.21 28.765 33.276 29.307C33.35 29.914 33.772 30.274 34.345 30.463C35.505 30.847 36.663 31.238 37.996 31.686C37.845 30.036 38.584 28.598 39.266 27.151C39.633 26.371 40.116 25.647 40.517 24.881C40.71 24.511 40.834 24.104 41.034 23.601C39.651 22.543 38.088 22.043 36.469 21.367ZM11.824 19.287C11.627 16.767 13.081 14.894 14.126 12.776C13.301 11.999 12.176 11.911 11.415 11.374C10.267 11.934 9.251 12.566 8.147 12.935C6.514 13.48 5.148 14.412 3.838 15.466C3.613 15.647 3.449 15.903 3.138 16.259C6.047 17.339 8.713 18.623 11.824 19.287ZM54.54 19.182C53.93 18.439 53.086 18.31 52.453 17.867C50.648 16.603 48.627 16.523 46.562 16.799C45.407 16.952 44.217 17.093 43.354 18.064C43.161 18.282 42.828 18.372 42.573 18.542C41.945 18.965 41.287 18.971 40.627 18.665C40.294 18.511 40 18.273 39.675 18.097C39.604 18.059 39.478 18.12 39.378 18.136C39.416 18.439 39.452 18.729 39.486 19.001C38.757 19.567 37.76 19.608 37.298 20.563C38.313 21.292 39.361 21.875 40.524 22.203C42.717 21.139 44.885 20.191 47.242 19.889C49.613 19.582 52.002 19.421 54.54 19.182ZM45.708 43.881C45.882 42.718 46.104 41.705 46.169 40.682C46.254 39.349 46.691 38.162 47.297 36.994C47.837 35.954 48.245 34.845 48.762 33.791C49.484 32.321 49.161 31.029 48.142 29.864C47.938 29.631 47.558 29.551 47.328 29.435C46.586 30.8 45.933 32.056 45.227 33.281C44.704 34.189 44.126 35.066 43.55 35.942C42.622 37.355 42.538 38.833 43.214 40.354C43.514 41.031 43.859 41.693 44.239 42.329C44.579 42.898 44.96 43.46 45.708 43.881ZM30.249 18.993C29.822 19.781 29.526 20.466 29.106 21.065C28.647 21.719 28.135 22.365 27.536 22.888C26.561 23.739 26.33 24.868 26.123 26.033C26.026 26.577 26.2 27.019 26.704 27.28C27.962 27.934 29.222 28.584 30.491 29.215C30.746 29.342 31.046 29.532 31.372 29.157C30.972 27.262 31.251 25.408 32.126 23.636C32.481 22.915 32.834 22.193 33.146 21.452C33.305 21.074 33.367 20.655 33.483 20.215C32.449 19.584 31.49 19.066 30.249 18.993ZM14.191 21.04C15.394 22.338 17.116 22.778 18.667 23.514C18.841 23.596 19.116 23.464 19.274 23.442C19.411 22.06 19.537 20.796 19.67 19.449C19.014 19.316 18.251 19.539 17.788 18.876C17.316 18.2 17.259 17.527 17.679 16.821C18.752 16.568 19.524 17.032 20.248 17.811C20.631 17.037 21.361 16.515 21.121 15.577C20.403 15.151 19.68 14.785 19.032 14.315C18.549 13.965 18.131 13.735 17.504 13.93C17.196 14.026 16.811 13.876 16.515 13.843C15.059 16.093 13.659 18.236 14.191 21.04ZM39.667 33.385C40.187 34.224 40.948 34.786 41.914 35.08C43.596 32.529 45.31 30.012 44.863 26.661C44.255 26.168 43.606 25.641 42.87 25.045C42.386 25.942 42.045 26.744 41.557 27.445C40.318 29.228 39.664 31.176 39.667 33.385ZM47.856 48.468C48.206 47.723 48.406 47.406 48.507 47.061C48.859 45.859 49.363 44.738 50.069 43.697C50.344 43.292 50.544 42.815 50.687 42.344C51.082 41.038 51.446 39.721 51.791 38.401C52.085 37.276 51.626 35.975 50.58 34.951C50.473 35.197 50.388 35.415 50.287 35.627C49.752 36.745 49.333 37.945 48.641 38.957C47.947 39.973 47.594 41.06 47.345 42.213C47.138 43.175 46.973 44.148 46.805 45.118C46.775 45.292 46.775 45.493 46.832 45.657C47.113 46.469 47.418 47.273 47.856 48.468ZM51.633 34.045C52.013 35.442 52.664 36.623 53.098 37.881C53.136 37.99 53.227 38.109 53.327 38.164C54.128 38.614 54.897 39.161 55.752 39.462C56.96 39.887 58.233 40.125 59.572 40.468C60.097 39.413 60.454 38.341 60.274 37.071C59.939 36.896 59.631 36.685 59.29 36.565C56.963 35.748 54.631 34.948 52.298 34.149C52.138 34.095 51.96 34.095 51.633 34.045ZM46.454 2.79497C46.275 2.69097 46.21 2.62598 46.177 2.63898C44.656 3.22298 43.434 4.26896 42.182 5.26196C41.953 5.44396 41.764 5.75197 41.689 6.03697C41.411 7.09997 40.702 7.88897 40.041 8.69797C39.178 9.75697 38.841 10.967 38.747 12.404C39.084 12.448 39.49 12.621 39.625 12.498C40.31 11.875 41.199 11.835 42.029 11.593C42.137 11.339 42.275 11.123 42.322 10.889C42.673 9.14498 43.519 7.64997 44.556 6.23197C45.14 5.43297 45.669 4.58998 46.177 3.73998C46.346 3.45598 46.373 3.08797 46.454 2.79497ZM54.117 49.801C56.852 48.485 58.409 45.734 58.202 42.724C56.899 42.117 55.487 41.8 53.932 41.503C53.975 42.444 54.039 43.237 54.038 44.029C54.037 44.767 54.112 45.552 53.897 46.234C53.519 47.438 53.76 48.527 54.117 49.801ZM53.252 51.151C53.214 50.039 53.259 49.047 53.12 48.082C53.021 47.39 52.999 46.776 53.222 46.091C53.525 45.157 53.331 44.025 52.883 42.893C52.055 44.258 51.219 45.566 50.462 46.917C50.131 47.507 49.943 48.181 49.725 48.828C49.543 49.367 49.482 49.919 49.841 50.508C50.609 50.91 51.425 51.339 52.298 51.797C52.648 51.561 52.994 51.326 53.252 51.151ZM56.97 20.909C56.723 20.714 56.563 20.486 56.367 20.449C55.641 20.311 54.897 20.122 54.171 20.16C52.009 20.274 49.851 20.456 47.696 20.67C45.959 20.843 44.31 21.382 42.721 22.095C42.41 22.235 42.14 22.468 41.864 22.651C42.166 23.279 42.545 23.032 42.864 22.917C44.15 22.454 45.442 22.031 46.827 21.997C48.813 21.949 50.774 21.719 52.71 21.247C53.547 21.043 54.406 20.96 55.286 21.138C55.789 21.238 56.356 21.357 56.97 20.909ZM77.086 11.363C76.99 11.547 76.856 11.734 76.792 11.943C76.424 13.124 76.191 14.362 75.688 15.479C74.977 17.053 74.071 18.539 73.245 20.061C72.743 20.987 72.231 21.908 71.738 22.838C71.694 22.92 71.759 23.061 71.774 23.174C71.823 23.169 71.899 23.183 71.916 23.157C73.215 21.206 74.452 19.209 75.822 17.309C76.923 15.784 77.156 14.003 77.603 12.278C77.693 11.934 77.664 11.533 77.086 11.363ZM46.812 26.987C47.378 27.492 47.377 27.49 47.727 27.43C51.016 26.87 54.273 26.915 57.484 27.921C57.907 28.054 58.351 28.119 58.786 28.216C56.386 26.609 53.654 26.28 50.937 26.196C49.591 26.155 48.069 26.053 46.812 26.987ZM32.188 27.74C32.795 26.198 33.544 24.791 34.41 23.43C34.799 22.819 35.007 22.086 35.253 21.393C35.292 21.281 35.128 20.983 35.013 20.953C34.808 20.902 34.44 20.912 34.363 21.035C33.875 21.82 33.373 22.611 33.019 23.46C32.449 24.821 31.92 26.216 32.188 27.74ZM74.357 34.962C74.476 33.743 74.469 32.495 74.751 31.315C75.049 30.066 75.621 28.883 76.074 27.67C76.095 27.612 76.124 27.557 76.137 27.497C76.197 27.239 76.25 26.979 76.371 26.424C74.078 29.553 73.379 32.371 74.357 34.962ZM58.805 35.228C56.691 33.767 52.396 32.301 50.777 32.406C53.224 34.079 56.031 34.621 58.805 35.228ZM81.388 35.946C80.794 35.526 80.468 35.732 80.307 36.231C80.028 37.101 79.791 37.985 79.541 38.849C80.239 39.429 80.239 39.429 81.688 39.075C82.11 37.952 81.231 36.967 81.388 35.946ZM15.073 13.221C14.817 13.546 14.52 13.846 14.312 14.2C13.363 15.813 12.446 17.445 12.624 19.425C12.651 19.728 12.649 20.059 13.153 20.13C13.306 19.353 13.41 18.559 13.628 17.798C13.849 17.026 14.167 16.279 14.471 15.534C14.763 14.816 15.358 14.22 15.073 13.221ZM81.519 30.061C81.222 31.677 80.97 33.058 80.702 34.523C81.183 34.695 81.574 35.192 82.286 34.859C82.667 33.282 82.55 31.744 81.519 30.061ZM59.747 48.093C60.13 47.108 60.337 46.279 59.89 45.459C59.748 45.197 59.412 45.04 59.117 44.796C58.8 45.627 58.533 46.308 58.286 46.994C58.251 47.091 58.313 47.221 58.34 47.394C58.51 47.503 58.702 47.652 58.915 47.762C59.126 47.871 59.356 47.94 59.747 48.093ZM40.003 16.254C40.149 17.32 40.502 17.819 41.31 17.966C41.931 18.079 42.367 17.805 42.568 17.211C41.47 15.792 41.47 15.792 40.003 16.254ZM53.895 39.848C55.062 41.365 56.826 41.394 58.562 41.502C57.192 40.52 55.498 40.354 53.895 39.848ZM61.133 13.097C59.034 14.86 58.332 16.024 58.341 17.577C59.482 16.332 60.32 14.982 61.133 13.097ZM29.69 17.471C29.91 17.414 30.182 17.42 30.339 17.288C30.811 16.892 31.263 16.466 31.676 16.009C32.229 15.396 32.177 15.238 31.242 14.361C31.02 14.646 30.604 14.939 30.624 15.2C30.695 16.14 30.042 16.633 29.69 17.471ZM43.169 16.137C43.484 16.427 43.536 16.509 43.572 16.503C44.941 16.273 46.309 16.037 47.674 15.786C47.761 15.77 47.823 15.616 47.983 15.421C47.7 15.296 47.434 15.068 47.204 15.099C46.418 15.207 45.639 15.385 44.868 15.578C44.355 15.707 43.86 15.906 43.169 16.137ZM38.547 16.929C38.109 16.304 37.508 16.303 36.911 16.558C36.377 16.786 35.746 17.007 35.872 18.117C36.832 17.692 38.006 18.278 38.547 16.929ZM35.482 11.221C36.299 11.727 36.939 12.028 37.795 11.75C37.876 11.027 38.43 10.431 38.183 9.41397C37.815 10.185 37.54 10.763 37.196 11.484C36.796 11.049 36.525 10.756 36.185 10.386C35.984 10.624 35.799 10.845 35.482 11.221ZM59.479 7.68697C59.362 7.10597 59.14 6.69097 58.672 6.43297C58.33 6.24397 57.844 6.44897 57.844 6.84397C57.844 7.18597 57.889 7.62498 58.098 7.84798C58.479 8.25098 58.973 8.20397 59.479 7.68697ZM62.884 6.03497C62.807 5.46797 62.432 5.15596 61.917 5.05496C61.72 5.01596 61.393 5.12798 61.286 5.28298C61.173 5.44498 61.165 5.78797 61.264 5.96897C61.609 6.60997 62.131 6.61597 62.884 6.03497ZM19.447 8.79097C18.784 8.49197 18.399 8.31098 18.007 8.14298C17.672 7.99998 17.329 7.79198 16.991 8.14298C16.754 8.38998 17.041 8.73098 17.691 8.97498C18.192 9.16298 18.694 9.40297 19.447 8.79097ZM27.2 21.583C28.139 21.305 28.591 20.582 28.899 19.776C28.997 19.519 28.897 19.188 28.875 18.494C28.178 19.778 27.689 20.681 27.2 21.583ZM39.627 13.989C39.364 13.808 39.225 13.689 39.064 13.61C38.903 13.532 38.726 13.465 38.549 13.445C38.244 13.408 37.885 13.404 37.826 13.787C37.797 13.98 37.929 14.266 38.083 14.407C38.618 14.895 38.801 14.84 39.627 13.989ZM30.153 11.145C29.067 10.349 29.06 10.33 28.602 10.482C28.449 10.533 28.276 10.696 28.228 10.844C28.183 10.986 28.233 11.237 28.338 11.334C28.909 11.86 29.31 11.824 30.153 11.145ZM79.052 21.555C80.019 20.728 80.58 19.657 80.977 18.501C80.998 18.441 80.852 18.323 80.691 18.113C80.125 19.302 79.588 20.428 79.052 21.555ZM32.84 13.857C32.862 14.664 33.126 15.122 33.651 15.395C33.783 15.463 34.033 15.448 34.151 15.363C34.265 15.28 34.374 15.013 34.322 14.906C34.054 14.354 33.686 13.896 32.84 13.857ZM59.783 2.63297C59.378 3.64997 58.936 4.42598 58.893 5.40798C59.231 5.50598 59.491 5.58096 59.783 5.66496C59.783 4.67296 59.783 3.80597 59.783 2.63297ZM69.185 20.977C68.887 21.922 68.997 22.375 69.606 22.535C69.736 22.568 69.987 22.461 70.058 22.344C70.346 21.866 70.133 21.467 69.362 20.965C69.322 20.939 69.244 20.971 69.185 20.977ZM24.491 11.592C24.382 11.731 24.203 11.855 24.186 11.997C24.132 12.47 24.539 12.911 25.095 12.942C25.299 12.954 25.576 12.81 25.712 12.648C25.934 12.38 25.641 11.979 25.06 11.728C24.897 11.659 24.711 11.643 24.491 11.592ZM41.67 24.599C40.986 25.717 40.501 26.471 40.063 27.251C39.948 27.457 39.978 27.745 39.898 28.297C40.844 27.149 41.49 26.226 41.67 24.599ZM48.878 35.783C48.519 36.489 48.147 37.189 47.811 37.906C47.744 38.05 47.815 38.259 47.832 38.695C48.622 37.683 48.921 36.791 48.878 35.783ZM19.555 13.34C19.637 13.24 19.858 13.089 19.896 12.902C19.982 12.476 19.634 12.067 19.162 12.058C19.011 12.055 18.745 12.315 18.722 12.481C18.645 13.011 18.936 13.324 19.555 13.34ZM45.149 31.307C45.86 30.447 46.396 29.506 46.031 28.244C45.715 29.344 45.433 30.325 45.149 31.307ZM63.504 11.659C63.589 11.081 63.16 10.521 62.726 10.533C62.629 10.535 62.493 10.635 62.448 10.725C62.221 11.178 62.47 11.763 62.958 11.847C63.141 11.879 63.357 11.714 63.504 11.659ZM42.36 13.725C42.268 13.176 41.764 12.745 41.302 12.824C41.178 12.845 40.996 13.087 41.005 13.216C41.044 13.756 41.515 14.133 42.013 14.032C42.154 14.002 42.263 13.814 42.36 13.725ZM60.759 3.86498C61.621 3.98498 61.621 3.98497 62.304 3.75597C61.321 3.04897 61.321 3.04898 60.759 3.86498ZM73.952 26.904C74.198 26.116 74.162 25.931 73.682 25.77C73.425 25.683 73.175 25.759 73.108 26.04C72.979 26.575 73.292 26.819 73.771 26.914C73.829 26.927 73.891 26.909 73.952 26.904ZM53.669 12.549C53.508 12.564 53.369 12.541 53.269 12.593C53.123 12.668 52.914 12.788 52.902 12.906C52.89 13.024 53.085 13.271 53.194 13.274C53.547 13.282 53.905 13.22 54.253 13.146C54.33 13.13 54.423 12.95 54.415 12.852C54.408 12.773 54.272 12.672 54.175 12.64C54.002 12.584 53.814 12.573 53.669 12.549ZM38.938 8.30898C39.994 7.37298 39.994 7.37297 39.976 6.61597C39.245 7.27297 39.248 7.27498 38.938 8.30898ZM51.142 15.817C51.286 15.908 51.43 16 51.573 16.091C52.013 15.681 52.172 15.155 51.983 14.221C51.627 14.897 51.384 15.356 51.142 15.817ZM35.466 19.729C35.549 19.85 35.632 19.971 35.715 20.092C36.159 19.842 36.604 19.593 37.296 19.204C36.277 18.94 35.831 19.242 35.466 19.729ZM33.746 12.855C34.479 13.199 34.847 12.942 35.207 12.457C34.537 11.951 34.127 12.105 33.746 12.855ZM67.505 24.22C67.406 24.304 67.194 24.394 67.175 24.514C67.111 24.917 67.321 25.229 67.713 25.305C67.89 25.339 68.108 25.164 68.307 25.084C68.171 24.838 68.051 24.579 67.89 24.351C67.835 24.274 67.674 24.273 67.505 24.22ZM52.869 40.036C52.32 40.26 52.145 40.618 52.483 41.43C52.673 40.744 52.77 40.391 52.869 40.036ZM19.327 18.057C18.948 17.937 18.712 17.852 18.469 17.8C18.444 17.794 18.315 18.04 18.343 18.07C18.486 18.225 18.647 18.387 18.836 18.462C18.904 18.488 19.065 18.279 19.327 18.057ZM24.425 21.125C24.181 21.371 24.075 21.479 23.969 21.586C24.094 21.696 24.21 21.875 24.348 21.894C24.454 21.908 24.681 21.725 24.686 21.621C24.692 21.479 24.541 21.329 24.425 21.125Z" fill="white"/>
<path d="M6.85402 28.1239C5.70602 27.5809 4.88301 26.8539 4.57501 25.6879C4.52401 25.4949 4.63501 25.258 4.72401 24.726C5.32401 25.596 5.75701 26.2229 6.13101 26.7639C6.40001 26.8099 6.54101 26.8809 6.63701 26.8429C7.78601 26.3839 8.69102 26.6759 9.69502 27.4209C11.048 28.4249 12.729 28.8189 14.359 29.2319C15.927 29.6279 17.504 29.9949 18.903 30.8549C19.375 31.1449 19.906 31.3899 20.276 31.7829C20.756 32.2919 21.288 32.4129 21.938 32.4279C22.864 32.4479 23.748 32.629 24.659 32.907C26.009 33.32 27.469 33.3629 28.872 33.6189C29.596 33.7509 30.359 33.888 30.995 34.226C32.274 34.908 33.623 35.3419 35.007 35.7099C36.576 36.1279 37.378 37.1519 37.105 38.6899C36.831 40.2359 36.859 41.7779 36.836 43.3289C36.826 44.0049 36.748 44.6989 36.565 45.3479C36.276 46.3739 36.084 47.3869 36.113 48.4649C36.154 49.9679 35.736 50.4339 34.389 50.9779C32.883 51.5849 31.511 51.535 30.18 50.515C28.877 49.517 27.432 48.8229 25.738 48.7859C25.503 48.7799 25.259 48.6559 25.039 48.5469C21.927 46.9889 18.588 45.9869 15.414 44.5859C14.344 44.1139 13.327 43.4779 12.38 42.7849C11.283 41.9819 10.308 41.0289 9.16002 40.2679C7.63802 39.2579 7.27602 37.5509 7.01102 35.8759C6.90602 35.2079 6.98001 34.5109 6.97401 33.8269C6.97101 33.3289 7.05602 32.813 6.95302 32.338C6.71102 31.222 6.77801 30.1179 6.90301 29.0039C6.93101 28.7619 6.87902 28.5119 6.85402 28.1239ZM27.472 46.2809C27.895 46.6139 28.332 46.7269 28.857 46.3469C28.955 45.9019 29.044 45.4199 29.168 44.9479C29.496 43.6899 29.195 42.9939 27.943 42.1939C27.928 42.3869 27.889 42.572 27.904 42.752C27.965 43.49 27.988 44.2359 28.128 44.9609C28.258 45.6379 27.946 46.0109 27.444 46.3289C27.533 44.2289 26.884 42.238 26.539 40.17C26.347 40.357 26.215 40.5559 26.21 40.7589C26.18 41.9909 26.271 43.2329 26.141 44.4509C26.02 45.5609 26.491 46.0609 27.472 46.2809ZM11.441 40.2769C11.153 39.5749 10.684 39.0389 10.019 38.6619C9.40801 38.3149 8.99502 37.8069 8.78102 37.1209C8.69802 36.8529 8.49101 36.6249 8.25201 36.2339C8.45301 38.5959 9.33001 39.6419 11.472 40.2419C11.44 40.8849 11.866 41.2879 12.307 41.6029C13.262 42.2849 14.209 43.0199 15.265 43.5069C16.947 44.2819 18.72 44.8599 20.444 45.5459C21.704 46.0479 22.975 46.533 24.19 47.131C25.034 47.547 25.859 47.921 26.806 48.028C27.807 48.141 28.703 48.5209 29.538 49.1189C30.187 49.5839 30.929 49.9329 31.659 50.2679C32.421 50.6179 34.411 50.1519 34.912 49.4969C35.121 49.2249 35.227 48.8319 35.268 48.4799C35.332 47.9279 35.191 47.3349 35.332 46.8129C35.802 45.0729 36.069 43.3439 35.953 41.5169C35.881 40.3829 35.762 39.2 36.113 38.045C36.221 37.691 36.1 37.1719 35.415 37.1369C35.264 38.4849 35.129 39.8269 34.951 41.1649C34.903 41.5239 34.772 41.8939 34.592 42.2099C34.194 42.9069 34.123 43.6129 34.398 44.3549C34.804 45.4469 34.636 46.5699 34.545 47.6749C34.461 48.6969 33.852 49.2239 32.833 49.2709C31.955 49.3119 31.106 49.2339 30.357 48.6679C29.612 48.1049 28.766 47.7799 27.862 47.4949C26.627 47.1029 25.334 46.8439 24.154 46.3599C21.749 45.3749 19.437 44.1619 17.088 43.0399C16.3 42.6629 15.552 42.2419 15.021 41.5039C14.849 41.2659 14.577 41.0229 14.304 40.9449C13.36 40.6859 12.397 40.4949 11.441 40.2769ZM19.515 43.0859C19.689 42.8789 19.927 42.7199 19.981 42.5119C20.215 41.6159 20.386 40.7449 20.185 39.7709C19.783 37.8259 19.55 35.8409 20.025 33.8589C20.192 33.1579 19.96 32.6229 19.381 32.2569C18.806 31.8939 18.208 31.562 17.594 31.269C15.394 30.218 12.993 29.7839 10.689 29.0529C10.245 28.9119 9.78002 28.839 9.15602 28.696C9.13602 29.538 9.11202 30.2059 9.10602 30.8739C9.09702 31.7999 9.22102 32.7449 9.07402 33.6469C8.79702 35.3499 9.38502 36.6679 10.574 37.8019C10.796 38.0139 11.114 38.15 11.281 38.394C11.973 39.41 12.96 39.843 14.136 39.881C14.674 39.899 15.124 40.0379 15.445 40.4579C16.477 41.8089 18.027 42.3329 19.515 43.0859ZM25.688 34.3859C25.688 34.9779 25.613 35.3569 25.701 35.6919C26.068 37.0789 26.59 38.3929 27.556 39.4999C28.082 40.1039 28.583 40.7379 29.017 41.4089C30.306 43.4019 31.086 45.6159 31.734 47.8839C31.762 47.9809 31.901 48.0459 32.133 48.2579C32.297 48.0339 32.466 47.8049 32.649 47.5539C32.852 47.6159 33.082 47.6849 33.347 47.7659C33.753 46.7119 33.926 45.6589 33.557 44.5429C33.26 43.6479 33.16 42.7739 33.706 41.8729C33.976 41.4269 34.056 40.8029 34.043 40.2629C34.027 39.6229 34.111 39.0589 34.385 38.4739C34.674 37.8559 34.547 37.5149 33.961 37.2719C33.165 36.9409 32.344 36.6499 31.51 36.4349C30.192 36.0949 28.86 35.8409 27.66 35.1259C27.141 34.8149 26.513 34.6859 25.688 34.3859ZM21.706 43.838C22.22 43.255 21.852 42.553 21.911 41.907C21.973 41.23 21.954 40.5439 22.041 39.8699C22.136 39.1349 22.319 38.4109 22.454 37.6809C22.577 37.0109 22.708 36.3409 22.796 35.6659C22.877 35.0469 23.173 34.4179 22.875 33.7289C22.198 34.0589 22.058 34.6039 21.965 35.1469C21.704 36.6669 21.413 38.1859 21.245 39.7169C21.118 40.8829 21.149 42.0669 21.132 43.2419C21.127 43.5679 21.261 43.843 21.706 43.838ZM23.248 44.8369C23.485 44.4099 23.658 44.2249 23.689 44.0179C23.762 43.5309 23.795 43.0339 23.793 42.5399C23.785 40.9329 23.778 39.3339 24.086 37.7359C24.247 36.9019 24.212 36.0139 23.998 34.7219C23.176 38.2639 22.424 41.3509 23.248 44.8369ZM24.415 45.2499C24.921 45.5219 25.201 45.3899 25.241 45.0309C25.323 44.2959 25.336 43.5519 25.354 42.8099C25.393 41.2069 25.424 39.605 25.435 38.002C25.436 37.88 25.252 37.7559 25.099 37.5639C24.307 40.1379 24.673 42.6899 24.415 45.2499ZM7.94502 32.9509C8.34102 31.4269 8.04102 29.926 7.96002 28.42C7.58802 29.93 7.72802 31.4469 7.94502 32.9509ZM29.902 45.4469C29.699 47.1829 29.699 47.183 30.77 47.321C30.525 46.794 30.305 46.3159 29.902 45.4469Z" fill="white"/>
<path d="M41.901 42.6689C42.286 43.4819 42.156 44.1349 41.924 44.7409C41.711 45.2979 41.718 45.8089 41.879 46.3629C42.164 47.3449 42.416 48.3379 42.715 49.4509C42.465 49.9799 41.828 50.0789 41.223 50.0859C40.49 50.0949 39.812 49.8439 38.917 49.0089C39.915 49.1719 40.484 49.266 41.11 49.368C41.543 48.646 41.593 47.8559 41.32 47.2169C40.631 45.6059 41.203 44.2429 41.901 42.6689Z" fill="white"/>
<path d="M40.66 53.194C41.586 52.813 41.09 51.928 41.514 51.256C42.055 51.84 42.568 52.393 43.185 53.059C42.902 53.334 42.563 53.577 42.346 53.901C42.129 54.226 42.035 54.632 41.797 55.226C41.55 54.721 41.412 54.403 41.242 54.103C41.071 53.799 40.866 53.514 40.66 53.194Z" fill="white"/>
<path d="M30.385 57.361C30.642 57.081 30.841 56.853 31.051 56.636C31.234 56.447 31.494 56.31 31.659 56.565C31.752 56.71 31.703 57.047 31.591 57.207C30.94 58.137 30.362 58.331 29.391 57.915C28.669 57.605 27.96 57.247 27.24 56.48C27.648 56.445 27.874 56.357 28.04 56.422C28.771 56.713 29.376 57.308 30.385 57.361Z" fill="white"/>
<path d="M55.4611 55.2879C56.0891 54.9529 56.5561 54.7049 57.0891 54.4209C56.9961 55.6239 56.0571 56.3659 55.1861 56.0389C54.8991 55.9319 54.6231 55.7809 54.3671 55.6119C54.0191 55.3819 53.6951 55.1159 53.3831 54.8819C53.5281 54.3409 53.8591 54.4319 54.1201 54.5509C54.5631 54.7529 54.9771 55.0179 55.4611 55.2879Z" fill="white"/>
<path d="M30.723 58.7749C30.928 58.7749 31.153 58.721 31.337 58.785C32.038 59.025 32.716 59.332 33.421 59.557C34.085 59.77 34.766 59.887 35.203 58.829C35.413 59.265 35.624 59.499 35.577 59.655C35.498 59.917 35.296 60.265 35.072 60.333C34.677 60.452 34.223 60.4279 33.801 60.3859C33.504 60.3569 33.21 60.2199 32.93 60.0969C32.164 59.7629 31.377 59.4659 30.723 58.7749Z" fill="white"/>
<path d="M48.536 55.297C48.809 55.489 49.143 55.633 49.345 55.883C50.058 56.77 50.828 57.347 52.014 56.718C52.096 56.675 52.295 56.852 52.538 56.977C52.113 57.595 51.553 57.76 50.936 57.811C50.412 57.855 49.978 57.639 49.601 57.299C49.058 56.81 48.623 56.24 48.259 55.62C48.351 55.513 48.444 55.404 48.536 55.297Z" fill="white"/>
<path d="M12.271 24.129C11.837 24.062 11.666 24.034 11.495 24.01C11.316 23.985 11.136 23.962 10.931 23.935C10.854 24.12 10.692 24.313 10.733 24.444C10.87 24.883 11.08 25.3 11.266 25.733C10.867 26.182 10.431 26.056 10.224 25.621C10.024 25.199 9.97802 24.674 9.97902 24.193C9.98002 23.533 10.293 23.157 10.755 23.083C11.361 22.984 11.707 23.191 12.271 24.129Z" fill="white"/>
<path d="M6.33504 34.6499C5.84104 35.0689 5.61504 35.2559 5.39304 35.4509C4.97804 35.8129 4.85503 36.2299 5.10603 36.7539C5.23403 37.0199 5.30903 37.3149 5.36603 37.6069C5.38303 37.6909 5.27404 37.8429 5.18404 37.8909C5.09704 37.9369 4.92004 37.9339 4.85004 37.8729C4.23704 37.3459 3.91903 36.3229 4.16803 35.7479C4.49003 35.0089 5.06804 34.6559 6.33504 34.6499Z" fill="white"/>
<path d="M3.91205 28.2539C4.56905 30.1069 4.56905 30.1069 5.74605 30.9559C5.46605 31.3949 5.04005 31.4399 4.67105 31.2369C3.80905 30.7619 3.38005 29.9709 3.37805 28.9929C3.37805 28.8089 3.63605 28.6229 3.91205 28.2539Z" fill="white"/>
<path d="M16.071 46.578C16.406 46.803 16.747 47.019 17.075 47.254C17.679 47.687 18.266 48.135 19.092 47.835C19.177 47.805 19.481 48.065 19.463 48.126C19.403 48.33 19.278 48.55 19.111 48.675C18.987 48.769 18.753 48.766 18.58 48.735C17.378 48.523 16.446 47.919 15.807 46.909C15.895 46.798 15.982 46.689 16.071 46.578Z" fill="white"/>
<path d="M30.045 31.549C30.519 32.005 30.943 32.5389 31.482 32.8979C32.031 33.2639 32.695 33.4589 33.319 33.7329C33.382 34.1649 33.051 34.2719 32.764 34.2099C32.232 34.0939 31.643 33.9839 31.223 33.6749C30.588 33.2049 30.033 32.6 30.045 31.549Z" fill="white"/>
<path d="M37.499 56.161C37.456 56.964 36.936 57.059 36.446 57.04C35.459 56.999 34.3 57.399 33.588 56.006C34.382 56.115 35.041 56.255 35.704 56.283C36.292 56.308 36.885 56.208 37.499 56.161Z" fill="white"/>
<path d="M37.6049 52.158C38.5459 52.87 39.0719 54.162 40.4279 54.192C40.3509 54.817 39.9479 54.88 39.6139 54.757C38.5409 54.366 37.7439 53.647 37.3549 52.543C37.3319 52.48 37.4699 52.36 37.6049 52.158Z" fill="white"/>
<path d="M27.011 53.9139C27.082 54.4619 26.775 54.6709 26.379 54.6349C25.138 54.5189 24.1909 53.9929 23.8459 52.5229C24.6539 52.5399 24.772 53.3809 25.306 53.5409C25.868 53.7089 26.453 53.7949 27.011 53.9139Z" fill="white"/>
<path d="M7.02394 24.504C6.37494 24.318 6.23794 23.832 6.23494 23.343C6.23194 22.998 6.31294 22.57 6.52594 22.326C6.78694 22.029 7.20794 21.843 7.59394 21.701C7.74794 21.645 7.99195 21.839 8.29195 21.957C7.79495 22.394 7.28095 22.667 7.06295 23.093C6.87595 23.46 7.02394 24.001 7.02394 24.504Z" fill="white"/>
<path d="M44.673 50.9919C45.173 51.3899 45.579 51.7139 45.981 52.0339C46.365 51.8659 46.692 51.7229 47.177 51.5099C47.177 51.8089 47.243 52.044 47.164 52.209C46.966 52.622 46.586 52.8879 46.136 52.8219C45.797 52.7719 45.462 52.5679 45.169 52.3689C44.845 52.1479 44.805 51.9529 44.673 50.9919Z" fill="white"/>
<path d="M7.69393 41.0549C8.29593 41.9659 8.81794 42.7579 9.39294 43.6289C9.36694 43.6509 9.23693 43.8609 9.12193 43.8519C8.42093 43.7979 8.06093 43.2639 7.75593 42.7289C7.48593 42.2549 7.17793 41.7419 7.69393 41.0549Z" fill="white"/>
<path d="M13.239 46.0219C12.707 46.5259 12.571 46.7599 12.385 46.8119C11.848 46.9589 11.449 46.6279 11.084 46.2959C10.6 45.8559 10.54 45.6499 10.535 44.5769C11.313 45.2169 11.726 46.2289 13.239 46.0219Z" fill="white"/>
<path d="M10.354 48.465C9.444 48.936 8.988 48.412 8.513 48.104C7.97 47.752 7.447 47.341 7.422 46.428C8.421 47.122 9.29 47.726 10.354 48.465Z" fill="white"/>
<path d="M34.108 53.002C33.556 53.77 32.839 53.8049 32.172 53.8259C31.62 53.8439 31.079 53.656 30.572 53.002C31.337 53.042 31.929 53.0429 32.513 53.1119C33.028 53.1739 33.424 52.33 34.108 53.002Z" fill="white"/>
<path d="M23.811 30.057C25.058 30.75 25.952 31.247 26.82 31.731C26.801 32.13 26.578 32.248 26.316 32.155C25.379 31.823 24.417 31.509 23.811 30.057Z" fill="white"/>
<path d="M39.607 59.117C39.448 59.629 39.1221 59.607 38.8241 59.523C37.8921 59.259 37.2401 58.677 36.7531 57.69C37.0761 57.67 37.288 57.59 37.388 57.664C37.785 57.956 38.1241 58.331 38.5311 58.607C38.8591 58.83 39.254 58.955 39.607 59.117Z" fill="white"/>
<path d="M44.861 55.9599C45.825 55.4309 46.522 56.184 47.305 56.139C47.472 56.57 47.3 56.7119 47.027 56.7309C46.203 56.7869 45.557 56.3239 44.861 55.9599Z" fill="white"/>
<path d="M28.114 50.935C26.912 51.623 26.165 50.946 25.323 50.244C25.955 49.801 26.343 50.263 26.767 50.401C27.226 50.55 27.666 50.754 28.114 50.935Z" fill="white"/>
<path d="M18.612 27.307C18.536 26.164 19.196 25.894 19.762 25.585C20.077 25.413 20.458 25.244 20.745 25.863C20.129 26.28 19.496 26.709 18.612 27.307Z" fill="white"/>
<path d="M48.2939 53.095C49.4439 53.547 50.3809 53.191 51.3259 53.58C50.2739 54.408 49.6009 54.33 48.2939 53.095Z" fill="white"/>
<path d="M6.97696 39.037C6.23096 39.611 5.62896 40.076 4.90996 40.63C4.77696 39.732 5.18396 39.264 5.75496 38.878C6.07496 38.661 6.26596 38.681 6.97696 39.037Z" fill="white"/>
<path d="M18.682 52.0029C19.691 52.3169 20.364 52.5259 21.029 52.7319C20.923 53.3439 20.527 53.2329 20.186 53.1819C19.604 53.0969 19.003 53.0159 18.682 52.0029Z" fill="white"/>
<path d="M15.89 50.467C15.555 51.135 15.12 51.005 14.718 50.893C13.956 50.68 13.272 50.362 12.912 49.178C13.557 49.585 13.917 49.881 14.329 50.054C14.771 50.238 15.262 50.307 15.89 50.467Z" fill="white"/>
<path d="M4.771 42.963C5.604 43.54 6.2 43.953 6.784 44.357C6.829 44.845 6.535 44.905 6.22 44.804C5.448 44.555 4.775 44.192 4.771 42.963Z" fill="white"/>
<path d="M39.221 61.4769C38.687 62.0449 38.45 63.0529 36.993 62.8769C37.905 62.2229 38.204 61.3609 39.221 61.4769Z" fill="white"/>
<path d="M25.672 27.9659C25.402 28.1899 25.164 28.4819 24.857 28.6199C24.395 28.8289 23.884 28.9309 23.304 29.1049C23.227 28.5389 23.39 28.0769 23.925 27.9879C24.503 27.8919 25.114 27.9949 25.711 28.0109L25.672 27.9659Z" fill="white"/>
<path d="M20.215 29.009C20.842 29.575 21.351 30.035 22.015 30.635C21.648 30.776 21.406 30.963 21.27 30.905C20.481 30.565 20.382 30.366 20.215 29.009Z" fill="white"/>
<path d="M14.9141 27.196C15.1001 25.757 15.3841 25.582 16.5901 26.014C16.0671 26.383 15.5871 26.722 14.9141 27.196Z" fill="white"/>
<path d="M40.405 42.535C39.689 42.126 39.164 41.92 38.885 41.276C40.234 41.411 40.234 41.411 40.405 42.535Z" fill="white"/>
<path d="M37.731 44.677C38.652 44.88 39.221 45.006 39.602 45.599C38.617 45.865 38.617 45.865 37.731 44.677Z" fill="white"/>
<path d="M25.676 56.3729C26.275 57.3719 26.08 57.6139 24.675 57.7399C24.771 57.1349 25.357 56.9489 25.676 56.3729Z" fill="white"/>
<path d="M35.671 35.602C35.953 34.29 36.647 34.195 37.279 34.007C37.145 34.801 36.531 35.034 35.671 35.602Z" fill="white"/>
<path d="M19.944 55.2149C20.734 54.9149 21.221 54.7139 21.844 55.1269C21.291 55.7059 20.786 55.6759 19.944 55.2149Z" fill="white"/>
<path d="M36.8029 48.335C37.2769 48.645 37.5719 48.82 37.8419 49.028C37.8919 49.067 37.881 49.264 37.828 49.337C37.772 49.412 37.623 49.476 37.529 49.459C37.087 49.38 36.7579 49.176 36.8029 48.335Z" fill="white"/>
<path d="M44.554 46.398C45.488 46.335 45.6 46.479 45.349 47.567C44.923 47.239 44.608 46.922 44.554 46.398Z" fill="white"/>
<path d="M21.612 50.078C21.612 49.46 21.574 49.182 21.631 48.924C21.654 48.819 21.883 48.759 22.018 48.679C22.096 48.825 22.269 49.006 22.232 49.112C22.143 49.356 21.953 49.566 21.612 50.078Z" fill="white"/>
<path d="M68.312 40.4169C68.21 41.0569 67.891 41.223 67.498 41.135C66.709 40.958 66.047 40.554 65.644 39.821C65.602 39.747 65.688 39.602 65.736 39.398C66.271 39.349 66.493 39.9009 66.899 40.0549C67.332 40.2209 67.801 40.2909 68.312 40.4169Z" fill="white"/>
<path d="M66.297 36.088C66.726 36.291 67.138 36.547 67.588 36.679C67.964 36.788 68.383 36.752 68.849 36.786C68.641 37.428 68.233 37.522 67.786 37.486C67.009 37.422 66.663 37.164 66.297 36.088Z" fill="white"/>
<path d="M72.752 37.3539C72.157 37.7989 71.55 38.2529 70.911 38.7319C70.879 37.8079 71.083 37.4059 71.85 37.0389C72.165 36.8889 72.575 36.7629 72.752 37.3539Z" fill="white"/>
<path d="M68.36 45.104C67.237 45.868 67.141 45.847 65.969 44.774C66.775 44.604 67.395 44.904 68.36 45.104Z" fill="white"/>
<path d="M64.499 34.4519C63.845 34.1239 63.331 33.8649 62.688 33.5419C62.908 33.3989 63.088 33.1849 63.257 33.1919C63.67 33.2119 64.123 33.249 64.477 33.435C64.894 33.654 64.753 34.0439 64.499 34.4519Z" fill="white"/>
<path d="M64.574 43.69C63.891 43.947 63.401 44.13 62.941 44.304C62.569 43.994 62.683 43.726 62.939 43.522C63.391 43.159 63.874 43.016 64.574 43.69Z" fill="white"/>
<path d="M63.5809 38.788C62.9539 38.987 62.7 39.105 62.436 39.14C62.24 39.164 62.03 39.078 61.7 39.02C62.189 38.421 62.6269 38.307 63.5809 38.788Z" fill="white"/>
<path d="M68.032 43.902C68.4 43.4 68.518 43.1329 68.722 42.9849C69.003 42.7789 69.379 42.8399 69.523 43.1449C69.7 43.5219 69.369 43.681 69.052 43.759C68.873 43.804 68.686 43.814 68.032 43.902Z" fill="white"/>
<path d="M62.7371 40.862C62.8221 40.786 62.9011 40.658 62.9891 40.649C63.3321 40.618 63.7271 40.471 63.9401 40.897C63.9701 40.958 63.8721 41.145 63.7881 41.19C63.4061 41.394 63.4011 41.383 62.7371 40.862Z" fill="white"/>
<path d="M66.67 5.89001C67.165 6.67601 66.532 7.46401 66.722 8.42601C67.007 8.69401 67.431 9.04701 67.798 9.45201C68.394 10.111 68.487 10.836 68.09 11.315C67.647 11.85 66.444 12.074 65.856 11.636C64.935 10.953 64.124 10.125 65.178 8.86401C65.728 8.20601 65.899 7.44001 66.01 6.63501C66.067 6.22301 66.256 5.94002 66.712 5.91902L66.67 5.89001ZM66.836 10.786C66.93 10.711 67.153 10.602 67.257 10.422C67.314 10.323 67.216 10.06 67.107 9.95601C66.893 9.75401 66.635 9.58202 66.369 9.45502C66.121 9.33602 65.76 9.71602 65.829 10.003C65.939 10.459 66.191 10.765 66.836 10.786Z" fill="white"/>
<path d="M59.942 17.552C60.207 17.401 60.458 17.215 60.738 17.105C61.613 16.76 62.454 17.126 62.833 17.987C63.064 18.511 62.894 19.083 62.4 19.439C61.99 19.735 61.482 19.715 61.045 19.374C60.432 18.897 60.21 18.195 59.982 17.499L59.942 17.552Z" fill="white"/>
<path d="M48.628 11.2849C48.278 11.2179 47.898 11.2039 47.569 11.0669C46.813 10.7509 46.359 9.73994 46.63 9.09194C47.049 8.08994 48.142 7.61894 49.039 8.08094C50.226 8.69194 50.304 9.38595 50.166 10.5219C50.143 10.7149 49.909 10.9569 49.714 11.0389C49.383 11.1779 49.007 11.2059 48.628 11.2849ZM48.46 8.94294C48.016 8.93794 47.627 9.34194 47.673 9.75794C47.718 10.1599 48.109 10.4239 48.624 10.4009C49.039 10.3819 49.335 10.0889 49.316 9.71494C49.295 9.30094 48.904 8.94694 48.46 8.94294Z" fill="white"/>
<path d="M53.301 5.94692C53.026 5.53892 52.73 5.14391 52.479 4.72091C52.027 3.95791 52.855 3.00092 53.532 2.92092C54.987 2.74792 56.197 4.07092 55.867 5.50292C55.776 5.89892 55.375 6.23992 54.893 6.19992C54.343 6.15392 53.803 6.00392 53.258 5.89892L53.301 5.94692ZM53.936 3.91291C53.861 4.03691 53.672 4.20992 53.663 4.39092C53.639 4.87092 53.922 5.19691 54.378 5.31191C54.504 5.34391 54.765 5.23092 54.814 5.11892C55.048 4.58392 54.671 4.00191 53.936 3.91291Z" fill="white"/>
<path d="M53.257 5.89995C53.191 6.39095 53.766 6.99895 52.934 7.39995C52.61 7.08295 52.3 6.72296 51.934 6.43396C51.641 6.20196 51.034 6.38295 51.015 6.70895C51 6.96695 51.137 7.31295 51.328 7.47995C51.537 7.66195 51.882 7.70695 52.177 7.75995C52.352 7.79195 52.546 7.70395 52.729 7.71095C52.904 7.71795 53.077 7.77695 53.418 7.84895C53.251 8.09795 53.174 8.35896 53.021 8.41696C52.071 8.78096 51.19 8.58995 50.409 7.95895C49.826 7.48795 49.679 6.79095 49.986 6.11595C50.222 5.59795 50.906 5.21296 51.541 5.35396C52.142 5.48796 52.715 5.74296 53.3 5.94496L53.257 5.89995Z" fill="white"/>
<path d="M74.781 13.0209C74.813 14.0539 74.425 14.4979 73.689 14.6699C72.875 14.8609 72.153 14.5449 71.837 13.8599C71.528 13.1889 71.682 12.3169 72.209 12.0369C72.782 11.7329 73.4 11.7179 73.966 12.0579C74.46 12.3549 74.77 12.8049 74.781 13.0209ZM73.699 13.6239C73.721 13.1419 73.376 12.7509 73.06 12.8639C72.932 12.9099 72.79 13.1149 72.78 13.2569C72.755 13.6089 72.98 13.8299 73.322 13.8429C73.456 13.8479 73.598 13.6869 73.699 13.6239Z" fill="white"/>
<path d="M72.457 18.057C72.436 18.75 71.727 19.362 70.94 19.366C70.111 19.371 69.455 18.647 69.517 17.798C69.568 17.09 70.389 16.455 71.248 16.458C71.869 16.459 72.482 17.27 72.457 18.057ZM71.471 17.996C71.255 17.812 71.13 17.704 71.004 17.597C70.878 17.751 70.701 17.89 70.648 18.066C70.624 18.146 70.891 18.42 70.944 18.398C71.124 18.328 71.267 18.164 71.471 17.996Z" fill="white"/>
<path d="M77.132 30.3799C77.126 29.7139 77.331 29.3499 77.794 29.2049C78.339 29.0349 78.911 29.2579 79.215 29.7609C79.246 29.8139 79.269 29.8699 79.295 29.9259C79.621 30.5939 79.609 31.2599 79.229 31.6379C78.884 31.9819 78.482 31.9759 78.047 31.7879C77.345 31.4829 77.14 31.1879 77.132 30.3799Z" fill="white"/>
</svg>
