<svg width="56" height="64" viewBox="0 0 56 64" fill="none" xmlns="http://www.w3.org/2000/svg">
<path d="M26.742 62.696C27.393 62.476 28.05 62.271 28.694 62.032C29.617 61.69 29.882 61.01 29.395 60.144C29.207 59.811 28.928 59.497 28.62 59.268C27.684 58.574 27.667 57.704 28.036 56.574C28.494 57.093 28.931 57.491 29.245 57.97C29.589 58.493 29.838 59.082 30.095 59.659C30.351 60.235 30.564 60.83 30.812 61.457C31.437 61.457 32.045 61.622 32.494 61.424C33.582 60.945 34.647 60.372 35.632 59.705C38.344 57.871 41.01 55.97 43.695 54.095C43.891 53.958 44.107 53.844 44.286 53.687C46.677 51.586 46.937 50.803 45.926 47.85C45.346 46.157 44.369 44.715 43.18 43.393C42.275 42.388 41.41 41.346 40.544 40.308C40.032 39.695 39.58 39.023 38.579 38.752C38.555 39.457 38.532 40.122 38.496 41.151C37.422 40.067 37.2 39.05 37.362 38.036C37.537 36.937 37.09 36.201 36.422 35.46C35.673 34.629 34.998 33.732 34.236 32.914C33.816 32.462 33.284 32.114 32.868 31.772C31.614 32.042 30.881 32.749 30.147 33.546C30.278 34.278 30.446 34.971 30.516 35.674C30.577 36.291 30.529 36.919 30.529 37.601C29.439 37.241 29.889 36.186 29.39 35.534C28.732 36.025 28.385 36.732 28.076 37.442C27.311 39.199 26.498 40.942 25.872 42.749C25.447 43.976 24.859 45.077 24.186 46.17C23.521 47.252 22.961 48.402 22.403 49.546C21.739 50.906 21.16 52.308 20.482 53.661C19.758 55.103 19.205 56.582 19.064 58.203C19.002 58.913 18.877 59.616 18.766 60.44C20.088 61.655 21.828 61.89 23.521 62.447C24.284 61.132 24.122 59.868 23.499 58.758C22.701 57.333 22.599 55.937 23.052 54.244C23.907 57.226 24.708 60.021 25.571 63.032C23.922 63.013 22.548 62.994 21.132 62.591C18.432 61.823 15.955 60.595 13.452 59.373C9.48599 57.437 6.51399 54.594 4.74799 50.524C4.01899 48.844 2.75899 47.417 2.35699 45.583C1.99899 43.949 1.67499 42.308 1.33799 40.67C1.32199 40.593 1.305 40.498 1.335 40.433C2.095 38.803 1.18599 37.358 0.928995 35.814C0.627995 34.013 0.466993 32.19 0.0559935 30.397C-0.0970065 29.728 0.0839864 28.969 0.179986 28.26C0.359986 26.928 0.642999 25.639 0.629999 24.25C0.615999 22.775 1.412 21.354 2.279 20.083C2.584 19.636 2.98999 19.186 3.09399 18.684C3.54399 16.51 4.761 15.106 6.917 14.528C7.063 14.489 7.185 14.363 7.317 14.278C8.27 12.133 8.26999 12.133 10.26 10.836C10.366 10.335 10.419 9.69203 10.641 9.11603C11.291 7.43003 12.294 6.02404 14.025 5.27104C15.011 4.84204 15.867 4.30503 15.926 3.06003C15.937 2.83703 16.075 2.59603 16.216 2.40903C17.337 0.924029 18.357 -0.0999659 20.649 1.41403C20.966 1.62403 21.227 1.92003 21.555 2.21303C21.979 1.95303 22.295 1.71703 22.645 1.55203C23.926 0.948035 25.191 0.739036 26.543 1.46604C27.52 1.99104 28.595 2.33303 29.722 2.79603C29.918 2.54103 30.094 2.29903 30.283 2.06803C31.857 0.150033 34.138 0.314032 35.359 2.46003C35.627 2.93103 35.743 3.49003 35.948 4.06103C36.632 4.06103 37.336 4.06103 38.039 4.06103C38.963 4.06203 39.584 4.35603 39.59 5.18403C39.6 6.73803 40.564 7.56903 41.488 8.58203C42.33 9.50603 42.905 10.69 43.518 11.803C43.994 12.667 44.579 13.345 45.448 13.855C48.035 15.374 49.632 17.71 50.732 20.447C51.024 21.172 51.321 21.983 51.858 22.504C53.052 23.664 53.467 25.068 53.466 26.622C53.466 27.686 53.689 28.646 54.066 29.636C54.515 30.818 54.834 32.066 55.052 33.312C55.154 33.901 54.993 34.593 54.777 35.173C53.636 38.235 52.494 41.297 51.242 44.314C50.512 46.075 49.586 47.755 48.731 49.463C47.265 52.392 45.144 54.658 42.281 56.334C40.084 57.621 38.081 59.24 35.99 60.708C34.525 61.737 32.907 62.377 31.13 62.616C30.814 62.658 30.442 62.633 30.196 62.793C29.053 63.536 27.926 63.091 26.742 62.696ZM24.854 3.47703C24.395 3.19003 23.936 2.90304 23.525 2.64604C21.371 3.76204 20.297 4.61904 18.781 6.51604C19.559 6.10804 20.03 5.88403 20.48 5.62103C21.903 4.78903 23.224 3.75104 24.898 3.42404C24.609 3.91004 24.334 4.41103 24.733 4.95503C25.399 5.86203 25.997 6.83503 26.916 7.60703C27.077 6.61203 27.208 5.80403 27.344 4.96303C26.47 4.44103 25.662 3.95903 24.854 3.47703ZM45.445 15.523C44.082 14.092 44.082 14.092 43.086 14.696C43.896 15.12 44.649 15.404 45.481 15.482C45.714 16.234 45.986 16.978 46.165 17.743C46.246 18.089 46.298 18.562 45.707 18.628C44.853 16.586 43.581 15.493 42.124 15.679C41.254 15.79 40.515 16.262 39.961 16.775C39.861 17.571 40.818 17.963 40.231 18.832C39.678 18.449 39.13 18.071 38.465 17.612C36.814 18.397 35.13 19.198 33.424 20.009C34.011 20.53 34.516 20.909 34.927 21.37C35.15 21.62 35.474 22.001 34.99 22.358C33.236 21.456 33.236 21.456 31.28 22.079C31.236 21.808 31.192 21.539 31.142 21.232C29.988 21.728 29.116 22.391 28.48 23.433C28.967 24.058 29.46 24.673 29.921 25.309C29.97 25.377 29.838 25.577 29.758 25.804C29.145 25.453 28.547 25.111 28.001 24.798C27.309 25.173 26.718 25.494 26.06 25.851C25.976 25.29 25.922 24.932 25.872 24.598C23.339 23.863 23.321 23.875 21.919 21.793C21.452 21.1 20.913 20.543 20.1 20.33C19.062 20.058 18.167 19.279 16.943 19.594C16.612 19.679 16.148 19.037 15.708 18.971C15.209 18.897 14.669 19.095 13.854 19.22C14.357 18.522 14.694 18.055 14.996 17.636C14.295 16.563 13.928 18.169 13.285 17.597C12.847 16.854 12.489 15.917 11.85 15.249C11.071 14.434 11.447 13.456 11.142 12.603C10.989 12.173 10.595 12.026 10.164 12.172C9.30299 12.465 8.911 13.102 8.897 14C8.884 14.845 8.41099 15.314 7.61799 15.504C7.38499 15.56 7.15299 15.621 6.91799 15.67C5.90499 15.878 5.224 16.496 4.72 17.375C4.222 18.245 3.923 19.118 4.38 20.081C4.811 20.63 5.88099 20.304 5.97999 21.296C5.46699 21.42 4.885 21.424 4.481 21.695C4.006 22.013 3.68699 22.561 3.30299 23.005C2.95899 22.691 2.69699 22.452 2.41299 22.192C2.32499 22.418 2.272 22.568 2.21 22.715C1.38 24.647 1.485 26.437 2.97 28.048C3.291 28.397 3.50899 28.839 3.78999 29.226C5.95699 32.2 8.247 35.061 11.093 37.436C11.76 37.994 12.364 38.649 12.907 39.331C13.869 40.541 14.949 41.538 16.425 42.12C17.059 42.371 17.813 42.804 18.099 43.365C19.06 45.249 20.793 45.683 22.613 46.216C23.557 45.029 24.313 43.859 24.852 42.494C25.965 39.675 27.18 36.893 28.448 34.139C28.839 33.289 29.465 32.515 30.107 31.82C31.214 30.621 33.329 30.285 34.535 31.82C35.765 33.384 37.132 34.841 38.362 36.407C39.397 37.725 40.629 38.795 41.805 39.74C44.105 38.416 46.266 37.215 48.382 35.939C49.679 35.157 50.946 34.313 52.155 33.403C53.749 32.206 54.002 31.343 52.976 29.741C52.356 28.773 52.162 27.868 52.366 26.813C52.616 25.517 52.2 24.417 51.3 23.536C50.476 22.727 50.027 21.824 49.683 20.701C48.995 18.455 47.715 16.544 45.445 15.523ZM21.914 47.408C21.625 47.223 21.366 47.049 21.101 46.886C19.621 45.976 17.92 45.363 17.102 43.601C16.937 43.247 16.336 43.063 15.905 42.872C14.56 42.278 13.487 41.396 12.566 40.232C11.783 39.243 10.789 38.418 9.87499 37.534C8.72899 36.425 7.47599 35.411 6.43899 34.21C5.03599 32.582 3.80599 30.806 2.46899 29.118C2.26899 28.865 1.896 28.75 1.574 28.554C1.133 29.52 1.263 30.263 1.716 30.99C2.138 31.668 2.53999 32.359 2.92799 33.056C2.99199 33.171 2.93699 33.351 2.93699 33.547C2.58499 33.643 2.234 33.739 1.807 33.857C1.552 34.781 1.57699 35.75 1.89199 36.654C2.54699 38.536 2.292 40.614 3.19 42.438C3.29 42.641 3.306 42.914 3.281 43.145C3.1 44.824 3.85 46.273 4.563 47.66C5.914 50.286 7.55699 52.742 9.33599 55.11C10.851 57.128 12.932 58.208 15.212 59.035C16.162 58.81 16.734 59.507 17.502 60.267C17.813 59.152 18.089 58.33 18.269 57.488C18.703 55.455 19.262 53.501 20.277 51.636C20.975 50.355 21.86 49.047 21.914 47.408ZM42.614 41.109C43.631 42.367 44.589 43.518 45.507 44.699C46.454 45.918 46.643 47.565 47.671 48.929C47.979 48.515 48.214 48.291 48.34 48.016C49.201 46.135 50.104 44.269 50.87 42.35C51.812 39.99 52.646 37.585 53.493 35.188C53.576 34.954 53.421 34.637 53.376 34.349C52.551 34.443 52.071 34.751 51.778 35.412C51.262 36.569 50.7 37.705 50.124 38.832C50.051 38.974 49.768 39.007 49.499 39.128C49.172 37.88 50.21 37.191 50.492 36.031C47.743 37.682 44.746 38.621 42.614 41.109ZM27.768 8.55704C28.647 9.92604 29.73 11.053 29.726 12.664C29.726 12.802 29.865 12.947 29.955 13.077C31.264 14.962 32.738 16.698 34.533 18.235C35.58 17.415 36.985 17.366 37.822 16.316C37.709 16.024 37.653 15.787 37.533 15.589C36.958 14.635 36.349 13.699 35.783 12.74C35.319 11.954 34.729 11.441 33.798 11.18C32.543 10.828 31.536 10.046 30.919 8.83203C30.749 8.49803 30.473 8.21703 30.259 7.93003C29.403 8.14503 28.663 8.33204 27.768 8.55704ZM21.154 13.042C20.152 12.786 19.583 12.723 19.087 12.498C17.426 11.743 17.207 9.74303 18.65 8.61803C19.002 8.34303 19.435 8.17103 20.095 7.80603C19.599 7.74503 19.406 7.70303 19.212 7.70003C17.76 7.68103 17.557 7.55804 17.091 6.33904C17.006 6.11804 17.019 5.85203 16.905 5.65303C16.801 5.47203 16.586 5.35604 16.361 5.16004C15.936 5.56504 15.547 5.93603 15.24 6.22803C15.673 8.23603 16.104 10.089 16.465 11.956C16.825 13.817 17.114 15.692 17.446 17.626C18.436 18.127 19.337 18.622 20.276 19.033C20.564 19.159 20.953 19.053 21.56 19.053C20.635 17.674 20.785 16.077 19.456 15.137C19.016 14.825 19.264 14.192 19.607 13.859C19.909 13.564 20.374 13.438 21.154 13.042ZM25.73 18.418C26.079 18.997 26.413 19.628 26.822 20.207C27.139 20.656 27.549 21.039 27.944 21.48C28.909 20.962 29.824 20.493 30.716 19.981C31.026 19.803 31.275 19.52 31.594 19.25C31.294 18.881 31.101 18.633 30.897 18.394C29.146 16.335 27.369 14.318 26.349 11.731C25.932 10.672 25.216 9.64503 23.919 9.09303C23.59 10.982 24.097 12.626 24.578 14.293C25.456 14.65 26.275 14.951 27.065 15.316C27.659 15.591 27.944 16.425 27.531 16.929C27.104 17.451 26.481 17.814 25.73 18.418ZM36.371 7.41503C36.566 8.20903 36.672 8.91704 36.915 9.57404C37.381 10.834 37.795 12.135 38.828 13.092C40.722 14.846 40.989 15.065 42.708 12.894C42.795 12.784 42.789 12.599 42.835 12.412C42.121 10.05 40.098 8.83604 38.283 7.45304C37.783 7.07204 37.151 6.84403 36.371 7.41503ZM22.08 16.805C22.598 18.504 24.176 21.21 25.734 23.073C26.101 22.886 26.494 22.686 27.002 22.427C25.584 20.457 24.252 18.606 22.915 16.76C22.875 16.704 22.776 16.682 22.7 16.663C22.627 16.644 22.545 16.634 22.47 16.645C22.4 16.656 22.333 16.699 22.08 16.805ZM15.432 16.237C15.338 10.582 14.834 8.51504 13.436 6.94904C13.478 9.75104 14.72 12.153 14.954 14.741C15 15.25 15.267 15.739 15.432 16.237ZM32.016 7.61603C32.523 9.01903 33.183 9.73904 34.229 10.063C34.866 10.261 35.654 9.74703 35.632 9.18503C35.597 8.34003 34.859 7.41204 34.079 7.38204C33.482 7.35804 32.879 7.51003 32.016 7.61603ZM34.763 4.36703C34.413 3.49203 34.324 2.91403 34.001 2.53303C33.321 1.72803 32.153 1.85604 31.555 2.70204C31.117 3.32304 31.47 4.27603 32.22 4.35203C32.912 4.42203 33.616 4.36703 34.763 4.36703ZM18.138 4.68703C18.716 4.28403 19.261 3.98804 19.7 3.57804C20.285 3.03004 19.98 2.14404 19.183 1.92604C18.245 1.66804 17.01 2.80403 17.274 3.74703C17.362 4.06303 17.761 4.29303 18.138 4.68703ZM12.087 9.24703C11.95 10.878 12.221 12.36 13.617 14.002C13.371 11.984 12.876 10.563 12.087 9.24703ZM25.214 7.54204C25.102 7.66004 24.989 7.77704 24.877 7.89504C25.66 8.87204 26.431 9.85803 27.233 10.819C27.443 11.069 27.748 11.169 28.075 10.732C27.272 9.55103 26.426 8.38104 25.214 7.54204ZM20.974 11.018C21.001 10.137 20.647 9.59903 20.175 9.56403C19.664 9.52703 19.089 10.057 19.101 10.554C19.114 11.104 19.573 11.687 20.098 11.608C20.454 11.556 20.759 11.172 20.974 11.018ZM33.777 5.58303C35.116 6.19603 35.798 6.16903 37.691 5.47203C36.337 5.36103 35.142 5.17203 33.777 5.58303ZM22.222 8.92304C22.292 7.17604 22.292 7.17603 21.515 6.70903C21.457 7.48903 21.112 8.27404 22.222 8.92304ZM22.834 13.348C22.942 12.399 23.006 11.627 22.553 10.863C22.465 11.671 21.796 12.493 22.834 13.348ZM29.662 6.63103C29.539 6.44503 29.511 6.34803 29.455 6.32703C29.188 6.23003 28.917 6.13803 28.639 6.09003C28.598 6.08303 28.433 6.34603 28.462 6.44303C28.606 6.91203 28.988 6.90703 29.379 6.82503C29.447 6.81103 29.503 6.74303 29.662 6.63103ZM38.426 14.203C38.377 14.993 38.578 15.462 39.506 15.342C39.063 14.875 38.745 14.539 38.426 14.203Z" fill="white"/>
<path d="M36.6411 50.5441C36.8251 51.3511 37.0571 52.1501 37.1791 52.9661C37.3051 53.8061 37.3241 54.6621 37.3901 55.5221C36.3671 55.2101 36.2051 54.3081 36.6411 50.5441Z" fill="white"/>
<path d="M25.074 48.689C25.82 50.114 26.08 51.634 26.274 53.173C24.748 51.964 25.494 50.162 25.074 48.689Z" fill="white"/>
<path d="M40.838 43.7251C42.033 45.9541 42.274 46.6801 42.421 48.4141C41.156 47.0931 41.047 45.6351 40.838 43.7251Z" fill="white"/>
<path d="M32.867 55.5481C33.581 56.4481 33.786 57.3571 34.043 58.2241C34.115 58.4661 34.016 58.8151 33.879 59.0461C33.741 59.2791 33.182 58.9021 33.162 58.4181C33.124 57.5331 32.388 56.7241 32.867 55.5481Z" fill="white"/>
<path d="M28.59 47.9081C27.649 46.7931 27.422 45.5811 27.919 43.7571C28.29 45.4481 28.932 46.5841 28.59 47.9081Z" fill="white"/>
<path d="M33.349 49.669C32.305 48.348 32.305 48.249 33.349 46.12C33.349 47.392 33.349 48.46 33.349 49.669Z" fill="white"/>
<path d="M32.986 34.484C34.002 35.781 34.002 35.781 33.81 37.55C33.02 36.644 33.02 36.644 32.986 34.484Z" fill="white"/>
<path d="M31.619 55.154C30.829 54.373 30.711 53.416 30.765 52.41C31.431 53.206 31.999 54.028 31.619 55.154Z" fill="white"/>
<path d="M41.354 51.3931C41.597 52.1471 41.82 52.8391 42.092 53.6831C40.656 53.0181 40.413 52.2271 41.354 51.3931Z" fill="white"/>
<path d="M30.6711 42.263C30.5261 41.533 30.3811 40.803 30.2371 40.073C31.0461 40.695 31.0281 41.487 30.6711 42.263Z" fill="white"/>
<path d="M36.052 44.016C35.988 43.518 35.924 43.021 35.839 42.364C36.54 43.106 36.54 43.106 36.052 44.016Z" fill="white"/>
<path d="M35.0871 39.1731C35.8371 39.6211 35.922 40.1651 35.909 41.0901C35.208 40.4801 34.8001 40.0831 35.0871 39.1731Z" fill="white"/>
<path d="M8.32001 20.4911C7.88401 19.6831 8.08999 19.1031 8.54699 18.6061C9.01199 18.1011 9.638 17.9531 10.294 18.0901C11.232 18.2871 12.14 18.6161 12.761 19.3821C12.965 19.6341 13.098 20.1981 12.955 20.4231C12.66 20.8871 12.273 20.5141 11.978 20.2641C11.616 19.9591 11.309 19.5781 10.915 19.3251C10.169 18.8461 9.61099 19.0151 8.92199 19.8271C8.74399 20.0391 8.55101 20.2381 8.32001 20.4911Z" fill="white"/>
<path d="M10.0091 26.849C9.69706 26.775 9.59005 26.783 9.55105 26.735C8.94805 25.997 8.25006 25.835 7.45906 26.408C6.85406 26.846 6.88506 27.309 7.52206 28.499C7.61806 28.678 7.65106 28.89 7.73506 29.156C6.44106 28.674 5.95706 28.003 6.07006 26.964C6.17306 26.024 6.93605 25.315 8.01905 25.152C9.04405 24.998 9.49906 25.354 10.0091 26.849Z" fill="white"/>
<path d="M14.715 27.053C13.502 27.77 13.919 28.812 13.581 29.562C12.822 29.213 12.745 28.63 12.854 28.087C12.959 27.565 13.173 27.017 13.493 26.597C14.011 25.915 14.874 25.865 15.883 26.419C16.359 26.68 16.776 27.07 17.167 27.454C17.281 27.566 17.215 27.86 17.244 28.224C16.294 27.784 15.469 27.402 14.715 27.053Z" fill="white"/>
<path d="M46.7729 24.449C45.9789 21.297 45.663 21.431 43.132 20.87C43.774 20.053 44.5869 20.093 45.2579 20.482C46.3699 21.127 47.284 22.043 47.813 23.255C48.136 23.992 47.7569 24.408 46.7729 24.449Z" fill="white"/>
<path d="M45.52 32.352C45.186 31.547 45.06 31.095 44.827 30.707C44.292 29.814 43.535 29.389 42.446 29.638C41.861 29.772 41.247 29.779 40.061 29.905C40.743 29.4 40.934 29.151 41.16 29.111C41.854 28.99 42.563 28.888 43.266 28.89C45.21 28.897 45.869 29.797 45.52 32.352Z" fill="white"/>
<path d="M35.053 30.264C36.994 29.336 37.874 29.538 38.964 31.005C39.338 31.508 39.768 32.027 39.607 32.72C39.546 32.985 39.337 33.216 38.991 33.817C38.582 31.268 37.375 30.091 35.053 30.264Z" fill="white"/>
<path d="M41.087 25.403C40.33 24.607 39.948 24.133 39.495 23.744C38.738 23.094 38.214 23.269 37.742 24.272C37.677 24.412 37.625 24.557 37.519 24.816C36.933 24.141 36.983 23.506 37.412 22.873C37.752 22.371 38.372 22.208 39.112 22.546C39.736 22.831 40.354 23.22 40.83 23.706C41.064 23.945 40.97 24.506 41.087 25.403Z" fill="white"/>
<path d="M22.663 35.828C20.315 37.152 20.873 36.704 20.786 39.293C20.113 39.255 19.825 38.752 19.772 38.251C19.718 37.741 19.847 37.175 20.035 36.687C20.266 36.085 20.734 35.59 21.417 35.546C21.824 35.521 22.247 35.727 22.663 35.828Z" fill="white"/>
<path d="M26.999 30.607C24.466 30.936 24.428 30.971 23.706 34.059C23.451 33.488 23.145 33.128 23.159 32.782C23.23 31.035 24.507 29.834 26.039 30.052C26.379 30.101 26.68 30.415 26.999 30.607Z" fill="white"/>
<path d="M13.453 37.314C13.534 35.648 13.938 35.238 15.019 35.547C16.479 35.964 17.515 36.871 18.042 38.306C18.111 38.494 18.015 38.742 17.982 39.096C16.777 38.181 16.381 36.584 14.741 36.117C14.408 36.427 14.023 36.784 13.453 37.314Z" fill="white"/>
<path d="M19.893 22.98C18.992 22.928 18.726 24.022 17.734 23.747C17.901 22.743 18.6 22.301 19.383 21.796C20.505 22.299 21.726 22.644 21.98 24.576C21.063 23.875 20.425 23.387 19.893 22.98Z" fill="white"/>
<path d="M11.578 34.307C10.788 33.393 10.717 32.345 11.401 31.716C12.119 31.056 13.252 31.167 14.252 31.994C14.206 32.048 14.166 32.141 14.113 32.148C12.104 32.439 12.104 32.438 11.578 34.307Z" fill="white"/>
<path d="M46.776 28.579C47.804 27.048 48.392 26.754 49.293 27.289C49.95 27.678 50.518 28.265 51.012 28.858C51.191 29.073 51.04 29.563 51.04 29.863C50.432 30.09 50.377 29.751 50.234 29.48C50.053 29.134 49.869 28.772 49.607 28.49C48.862 27.69 48.374 27.682 46.776 28.579Z" fill="white"/>
<path d="M21.4779 32.5551C20.6419 32.4921 20.003 32.4431 19.259 32.3861C19.112 33.1101 18.989 33.7121 18.85 34.3981C18.6 34.2361 18.358 34.1571 18.253 33.9911C18.134 33.8021 18.092 33.5351 18.097 33.3031C18.119 32.2191 18.511 31.5161 19.154 31.3411C19.84 31.1551 20.3509 31.3991 21.4779 32.5551Z" fill="white"/>
<path d="M24.775 41.269C22.555 40.163 22.555 40.163 21.18 41.633C20.778 40.817 21.144 40.25 21.793 39.858C22.947 39.16 24.2 39.668 24.775 41.269Z" fill="white"/>
<path d="M46.2359 35.072C44.9989 35.21 44.7219 34.151 44.0079 33.964C43.3739 33.798 42.6879 33.831 42.0129 33.775C42.1899 33.091 42.7429 32.879 43.2939 33.009C44.4289 33.276 45.6329 33.524 46.2359 35.072Z" fill="white"/>
<path d="M33.976 25.9941C32.214 25.4731 32.214 25.4731 30.738 26.3541C30.738 25.9711 30.63 25.611 30.763 25.418C30.968 25.121 31.306 24.844 31.645 24.726C32.275 24.507 32.908 24.696 33.41 25.107C33.668 25.318 33.792 25.6931 33.976 25.9941Z" fill="white"/>
<path d="M22.275 26.8331C21.172 27.0141 20.055 27.1981 18.615 27.4351C19.48 26.2491 20.453 26.1041 21.462 26.0741C21.86 26.0611 22.261 26.1431 22.275 26.8331Z" fill="white"/>
<path d="M4.974 34.709C5.915 36.361 6.663 37.674 7.427 39.014C7.144 39.11 6.92 39.236 6.879 39.192C5.667 37.893 5.214 36.883 4.974 34.709Z" fill="white"/>
<path d="M3.97095 40.241C4.84895 41.395 5.96096 41.935 6.04196 43.326C4.57996 42.61 4.32095 42.253 3.97095 40.241Z" fill="white"/>
<path d="M11.934 42.725C10.465 42.546 10.313 41.32 9.87598 40.308C10.831 40.877 11.435 41.756 11.934 42.725Z" fill="white"/>
<path d="M11.222 48.0291C10.162 47.2341 9.15398 46.4071 8.45398 44.9921C10.359 46.0631 10.746 46.4641 11.222 48.0291Z" fill="white"/>
<path d="M7.94398 49.4551C8.43198 50.1191 8.92098 50.7831 9.63098 51.7481C9.04698 51.6921 8.73497 51.7581 8.59197 51.6331C7.99497 51.1061 7.75498 50.3911 7.94398 49.4551Z" fill="white"/>
<path d="M16.566 50.885C15.254 50.659 15.1991 49.784 14.6541 49.094C15.7351 49.422 15.735 49.422 16.566 50.885Z" fill="white"/>
<path d="M16.094 45.565C16.88 45.098 17.262 45.475 17.495 46.121C17.115 46.499 16.932 46.063 16.689 45.95C16.477 45.85 16.291 45.695 16.094 45.565Z" fill="white"/>
<path d="M12.969 54.1581C14.004 54.2401 14.004 54.2401 14.191 55.2941C13.75 55.5861 13.736 55.0781 13.565 54.9261C13.344 54.7291 13.192 54.4541 12.969 54.1581Z" fill="white"/>
<path d="M47.342 40.0651C46.563 40.8551 46.242 41.5891 45.39 41.8291C45.479 40.4061 45.477 40.4001 47.342 40.0651Z" fill="white"/>
<path d="M48.263 42.9081C48.488 43.1091 48.668 43.1921 48.677 43.2921C48.713 43.6691 48.232 44.0821 47.919 43.9691C47.854 43.9451 47.753 43.8321 47.765 43.8091C47.92 43.5041 48.093 43.2101 48.263 42.9081Z" fill="white"/>
</svg>
